<svg xmlns="http://www.w3.org/2000/svg" viewBox="0 0 178.52 192.95"><defs><style>.cls-1{fill:#2c73b6;}.cls-2{fill:#eaa389;}.cls-3{fill:#ffe2c9;}.cls-4{fill:#fdaf94;}.cls-5{fill:#b55239;}.cls-6{fill:#f4b0b0;}.cls-7{fill:#fcd1b1;}.cls-8{fill:#df807b;}.cls-9{fill:#2c222b;}.cls-10{fill:#fff;}.cls-11{fill:#b3ac8f;}.cls-12{fill:#d4cca8;}.cls-13{fill:#f5f0dd;}.cls-14{fill:#e3dbb6;}.cls-15{fill:#90b164;}.cls-16{fill:#3e4f6b;}.cls-17{fill:#165185;}.cls-18{fill:#36465e;}.cls-19{fill:#2e3a4c;}.cls-20{fill:#6b7f4b;}.cls-21{fill:none;stroke:#6b7f4b;stroke-miterlimit:10;}.cls-22{fill:#65c8d0;}</style></defs><g id="Layer_2" data-name="Layer 2"><g id="Layer_8" data-name="Layer 8"><path class="cls-1" d="M68.65,99.72l1,.08C69.28,100.26,69,100.17,68.65,99.72Z"/><path class="cls-2" d="M95.3,9.15c1,1.36.43,2.73,0,4.1-1.87-.26-.76-2.23-1.93-3.19-3.17-2.59-5.77-3.21-9.48-1.45-1.37.64-2.61,1.62-4.27,1.6,2.25-3.71,8.41-5.27,11.79-3a2.45,2.45,0,0,0,2.41.52l0,.07C93.56,9.12,94.42,9.15,95.3,9.15Z"/><path class="cls-2" d="M90.19,19.45c-2.57-.73-2.74-3.39-4.1-5.09,2.66-.85,3.57-.18,3.7,2.6A19.26,19.26,0,0,0,90.19,19.45Z"/><path class="cls-3" d="M16,78l.7.34L15,79.37A1.07,1.07,0,0,1,16,78Z"/><path class="cls-3" d="M14.88,79.78a1.6,1.6,0,0,1-1,1.5C13.69,80.43,13.91,79.86,14.88,79.78Z"/><path class="cls-4" d="M95.3,9.15c-.88,0-1.74,0-1.51-1.31l1.58.84A3.54,3.54,0,0,0,95.3,9.15Z"/><path class="cls-3" d="M73.1,81.35S80.2,93.91,93,97.91,133.29,87.75,137.19,78L97.56,88.32Z"/><path class="cls-3" d="M137.21,77.88a.26.26,0,0,1,0,.15,18.61,18.61,0,0,1-7.91,8,26.84,26.84,0,0,1-5,2c-14.54,4.42-29,5.21-43.51-.37l-.12,0a15.47,15.47,0,0,1-7.2-5.76A14.78,14.78,0,0,1,72.34,80a16.44,16.44,0,0,1-1.46-10.2c.75-4.19,1.68-8.34,2.16-12.57v0c-.16-6.34,0-12.64,1.77-18.79a.25.25,0,0,1,.17-.16c10-2.78,20.18-2.25,30.27-.5,6.12,1.07,12.27,2.23,17.88,5.15a.21.21,0,0,1,.12.25c-1.16,4.94-1.47,9.79,2,14.05,1.41,1.73,3.3,3,3.36,5.64a2.29,2.29,0,0,0,2.19,2.07c1.14.1,1.66-.7,2-1.53a45.09,45.09,0,0,0,1.94-5.89c.89-3.66,3.58-5.27,8.21-4.87,3.76.32,4.75,3,4.6,6-.3,6.06-2.51,11.4-8.07,14.51C137.28,74.32,136.76,75.73,137.21,77.88ZM95.48,78c-2.7.6-6.1-.89-8.72,3a.23.23,0,0,0,.27.33,16.92,16.92,0,0,1,12.19.54.24.24,0,0,0,.3-.31c-.67-1.62-2.35-1.91-2.14-3.4a.21.21,0,0,1,.05-.12,4.78,4.78,0,0,0,.3-6c-1-1.57-1.84-.82-2.84-.49h-.16c-3.63-1.24-4.23-3.35-2.22-6.68a38.27,38.27,0,0,0,3-7c.32-.92.87-2.23-.63-3a.24.24,0,0,0-.32.12c-1.45,3.27-2.84,6.51-4.32,9.71-2.13,4.6-1,7.14,3.89,8.52a.23.23,0,0,1,.16.26c-.29,1.63.5,2.92,1.32,4.21A.24.24,0,0,1,95.48,78ZM142,57.61c-3.7,1.24-5.35,4.23-6.3,7.66-.36,1.28,0,3,1.46,3.29s3-1.54,2.75-2.32c-1.32-3.51,1.6-5.68,2.19-8.53l.33-.41ZM82.3,48.52h.08c3.21-.68,6-2.06,7.88-5,.51-.83.93-1.74.18-2.62-.9-1.07-2-.74-2.9-.06a19.07,19.07,0,0,1-6.46,3.28c-1.3.35-2.78.93-2.2,2.74C79.39,48.39,80.9,48.37,82.3,48.52Zm31.71.27c1.55,0,3.11.11,3.55-1.55s-.92-2.29-2.31-2.64a17.73,17.73,0,0,1-6.4-3.29,1.91,1.91,0,1,0-2.65,2.74C108.26,46.64,110.63,48.75,114,48.79Zm.11,14.68V63.3c2,0,4,0,6,0,.53,0,1.14-.14,1.19-.79a1.47,1.47,0,0,0-.45-1C119.57,60.17,109,59.06,107.31,60c-.69.39-1.54.72-1.39,1.71a1.83,1.83,0,0,0,1.8,1.35C109.84,63.32,112,63.35,114.12,63.47ZM76.52,60.8a.24.24,0,0,0,0,.43c4.67,2,8.61,1.38,12.56.41.83-.21,1.57-.63,1.5-1.61a1.62,1.62,0,0,0-1.67-1.46A23.93,23.93,0,0,0,76.52,60.8Zm41.07-7.35c-4.62.87-9.09,1.7-12.13-3.86a.23.23,0,0,0-.43.06c-.59,3.5,1.23,5,3.42,5.71,3.29,1.14,6.66,1.53,9.36-1.54A.23.23,0,0,0,117.59,53.45Zm-30.12.31a21.71,21.71,0,0,1-9-1.51.23.23,0,0,0-.28.33c2.46,3.42,5.69,3.91,9.4,1.6A.23.23,0,0,0,87.47,53.76Z"/><path class="cls-5" d="M123.29,43c7.42,1,13.86,4.75,20.74,7.25,3.38,1.23,6.62,2.86,9.93,4.31-1.49,7-3.71,13.66-8.94,18.9a21.08,21.08,0,0,1-7,4.59l-.83-.07c-.47-2.2,0-3.62,2.26-4.87,5.56-3.11,7.77-8.45,8.07-14.51.15-2.94-.84-5.64-4.6-6-4.65-.4-7.35,1.22-8.23,4.93A40.81,40.81,0,0,1,133,62.91c-.37,1-.84,2.11-2.2,2a2.29,2.29,0,0,1-2.19-2.07c-.06-2.61-1.95-3.91-3.36-5.64C121.74,52.89,122.09,48,123.29,43Z"/><path class="cls-5" d="M70.8,39l4-.76c-1.82,6.2-2,12.55-1.81,18.93-4.83-3.36-5.17-8.1-4-13.24C69.5,42.29,70.22,40.68,70.8,39Z"/><path class="cls-5" d="M82.34,48.52c-1.41-.15-3-.11-3.46-1.68-.58-1.81.9-2.39,2.2-2.74a19.07,19.07,0,0,0,6.46-3.28c.9-.68,2-1,2.9.06.75.88.33,1.79-.18,2.62C88.42,46.46,85.57,47.84,82.34,48.52Z"/><path class="cls-5" d="M114,48.79c-3.38,0-5.75-2.15-7.81-4.74a1.91,1.91,0,1,1,2.65-2.74,17.73,17.73,0,0,0,6.4,3.29c1.39.35,2.77.87,2.31,2.64S115.56,48.74,114,48.79Z"/><path class="cls-6" d="M114.12,63.47c-2.13-.12-4.28-.15-6.4-.39a1.83,1.83,0,0,1-1.8-1.35c-.15-1,.7-1.32,1.39-1.71,1.71-1,12.26.15,13.59,1.48a1.47,1.47,0,0,1,.45,1c0,.65-.66.78-1.19.79-2,0-4,0-6,0Z"/><path class="cls-6" d="M76.05,61a24,24,0,0,1,12.86-2.45A1.62,1.62,0,0,1,90.58,60c.07,1-.67,1.4-1.5,1.61C85,62.64,80.92,63.28,76.05,61Z"/><path class="cls-7" d="M94.35,73.28c-5.07-1.37-6.26-3.92-4.1-8.58,1.51-3.27,2.93-6.58,4.41-9.93,1.78.72,1.2,2.12.86,3.08a38.27,38.27,0,0,1-3,7c-2,3.35-1.41,5.48,2.29,6.7Z"/><path class="cls-3" d="M118.21,53.33c-2.75,3.59-6.31,3.23-9.76,2-2.32-.81-4.22-2.38-3.29-6.34C108.34,55.47,113.22,54.27,118.21,53.33Z"/><path class="cls-7" d="M142.12,57.71c-.59,2.85-3.51,5-2.19,8.53.29.78-1.34,2.58-2.75,2.32s-1.82-2-1.46-3.29c.95-3.43,2.6-6.42,6.3-7.66Z"/><path class="cls-3" d="M97.39,78.09,95.79,78c-.91-1.43-1.88-2.84-1.44-4.68l.45-1.72c1-.31,1.94-1.14,2.93.47A4.79,4.79,0,0,1,97.39,78.09Z"/><path class="cls-3" d="M88.27,53.74c-4.21,2.95-7.84,2.42-10.5-1.8A22.11,22.11,0,0,0,88.27,53.74Z"/><path class="cls-8" d="M142,57.61l.43-.31-.33.41Z"/><path class="cls-3" d="M123.29,43c-19-28.14-48.44-4.7-48.44-4.7Z"/><path class="cls-5" d="M128.53,62.14s1.83,9,1.47,11.85,4.24-5,3.86-13.49S128.53,62.14,128.53,62.14Z"/><path class="cls-5" d="M154,54.54l-21.26-6.8s-5.1,1.23-10-5.61l-.09-.12a29.36,29.36,0,0,0-5.75-5.71l-.07-.07a58.72,58.72,0,0,0-5.09-3.5h0c-2.34-1.42-4.16-2.32-4.53-2.51l-.07,0s1.9-4.19,11.11-11A41.41,41.41,0,0,0,129.15,6.59,59.12,59.12,0,0,1,136,11.2,15.05,15.05,0,0,1,132.89,23c6.2-3.17,10.79-2.4,14-.44a17,17,0,0,1,6.36,7.65c-2.4-2.52-8.52-2.52-8.52-2.52C161.08,36.31,154,54.54,154,54.54Z"/><path class="cls-5" d="M153,15.31a14.54,14.54,0,0,1-6.12,7.23A14.21,14.21,0,0,1,142,24.31c-7.69,1.3-22,10-24.68,11.71l-.46.28-.07-.07a21.13,21.13,0,0,0-5.09-3.5h0c-5.6-2.83-15.64-5.36-29.66,1.1h0S58.56,20.59,86.72,5.11c16.92-9.3,32.61-4.13,42.43,1.48A59.12,59.12,0,0,1,136,11.2a42,42,0,0,1,3.56,3S143.92,19.27,153,15.31Z"/><path class="cls-5" d="M76.39,29.13s-7.32.9-6,11.06,2.92,1,2.92,1,3.42-5.31,8.72-7.4S76.39,29.13,76.39,29.13Z"/><circle class="cls-9" cx="85.64" cy="52.75" r="3.73"/><circle class="cls-9" cx="111.66" cy="53.69" r="3.73"/><ellipse class="cls-10" cx="84.8" cy="51.94" rx="1.11" ry="0.87" transform="translate(-14.38 44.76) rotate(-27.35)"/><ellipse class="cls-10" cx="110.88" cy="52.61" rx="1.11" ry="0.87" transform="translate(-11.77 56.81) rotate(-27.35)"/><rect class="cls-3" x="85.64" y="77.13" width="17.73" height="5.91"/><path class="cls-7" d="M98.58,79.66c-.29,1.69,1.78,1.86,2.29,4-4.27-1.71-8.31-2.33-13.26-.5,2.76-4.7,6.51-2.75,9.38-3.59Z"/><path class="cls-5" d="M109.89,81.28s0,0,0,0a2.88,2.88,0,0,1-1.22-.86h0c-13.78-14.93-26.55-3.31-29.55-1,0-.37-2.65.31-2.79-.11-.9-2.69-5.19-5.7-5.19-5.7v-5c-3.4,2.9-1.6,11.82-1.6,11.82,2.79,11,16.57,20.54,16.57,20.54s8.58,3.12,14.57,0a38.16,38.16,0,0,0,8.42-6.1,40.61,40.61,0,0,0,6.82-8.34A41.61,41.61,0,0,0,109.89,81.28ZM97.37,90c-1-1,1.79-4.57,1.79-4.57-3.19-3.52-11.78-.41-10.37,0S90.38,90,90.38,90c-5-.41-8.38-7.47-8.38-7.47,8.38-10.17,23.75-3.32,24,0S98.36,91,97.37,90Z"/><path class="cls-5" d="M137.22,78s-8.62,20.49-40,24.13S137.22,78,137.22,78Z"/><path class="cls-5" d="M129.06,64.93s2,14-15.43,17.76,12.61,5.63,12.61,5.63l11-10.36s-6.74-5.91-6.34-11.35"/><path class="cls-5" d="M107.1,79s4.62,6.84,12.63,2.25-6.32,8.32-6.32,8.32Z"/><path class="cls-11" d="M95.51,33.61s.93.71-.28,2.59a21.62,21.62,0,0,1-1.5,3.7s-1.22,4.63-.23,8.43c0,0-2-.61-2.81-4.58,0,0,2.68-1.89-.46-7.09,0,0-5.71-1.77-6.44-3.45l-1.13-3.34s5-1.44,5.26-.42Z"/><polygon class="cls-12" points="91.45 38.22 88.53 28.64 82.26 28.52 84.16 40.32 91.45 38.22"/><path class="cls-13" d="M83.79,31.52c2.21-1.07,6.34-1.42,8.43.71S107.63,42,107.63,42s2.17-12.19,1.77-14.68a21.07,21.07,0,0,0-1.74-5.15S96.73,10.3,93.26,7.92,77.58,1.24,77.58,1.24s-14,23.93-14,29.79c0,0-1.34.07-.1,2,1,1.49,5.94,3.84,5.94,3.84a10.25,10.25,0,0,1,3.45,2c.23.19.46.39.69.61A17.79,17.79,0,0,1,77,44c2.3,4.25,8.46,8.45,8.46,8.45,2.44-2,5.2-6,7-8.07s-.92-6.13-.92-6.13-5.68-2-6.77-3.72-1.62-6.44-1.17-10.14-1.1-12.19-1.1-12.19L80,5"/><path class="cls-14" d="M83.68,31.29A19,19,0,0,1,81,26.7c-.48-1.75,1.4-10.24-1.16-19,0,0,.44-.74,1.1-.36C80.94,7.35,84.56,27.43,83.68,31.29Z"/><path class="cls-14" d="M73.08,9.25S70.23,19.4,68,21.57a6.23,6.23,0,0,0-2,4.56s1.08,5.33.2,6.52S63.54,31,63.54,31,64.18,23.41,73.08,9.25Z"/><path class="cls-11" d="M63.76,33.41c1,1.05,6.35,3.72,6.35,3.72A14.68,14.68,0,0,0,63.54,31S61.44,31.05,63.76,33.41Z"/><path class="cls-14" d="M107.15,21.62s3,17.86-1.32,16.92c-3.24-.71-4.43-.2-4.43-.2L107.63,42l1.67-11.46S110.53,24.59,107.15,21.62Z"/><path class="cls-15" d="M173.82,161.73a33.76,33.76,0,0,1-14.79,6,43.62,43.62,0,0,1-15.87.17c-1.89-.36-2.93.41-2.85,2.54.12,2.9.94,5.74.61,8.67-.47,4.23.74,7.8,4.19,10.47a6.46,6.46,0,0,0,.32,3.29h-49c.29-15.26,1-30.5,2.36-45.71.94-10.64,2.41-21.2,3.69-31.8.78-.88.21-2.05.66-3a23.63,23.63,0,0,1,2.25-2.63c3.86-3.4,6.6-3.44,10.48-.3,1.38,1.11,2.81,2.15,4.25,3.25,1.45-3.06.9-6.09.38-9.12,19.64,4.28,36.42,12.79,46.05,31.61C170.81,143.53,172.85,152.5,173.82,161.73Z"/><path class="cls-15" d="M85.92,111.86c-.53,8.33-1.16,16.65-1.58,25C83.81,147.22,83.48,157.6,83,168q-.57,12.47-.81,24.93H41.58c.51-7.58,1.15-15.16,2-22.72,1.11-10.14,2.65-20.22,4-30.32.06-.13.11-.26.17-.38l-.43.13-.05,0a9.45,9.45,0,0,0,1.08-8c-2,2.27-4.11,4-4.28,7A125.22,125.22,0,0,1,5.85,117.77a13.49,13.49,0,0,0,4.22-.81c5-2,8.83-5.27,12.33-9.24a83.88,83.88,0,0,0,6-8.06c2.35-3.41,4-7,4-11.16.71.27,1.44.52,2.14.83A127.44,127.44,0,0,0,68.65,99.72c.3.45.63.53,1,.07L71,100c.58.32.57.48.2,1.2a13.25,13.25,0,0,0-.85,10.69c.56,1.32,1.21.62,2,.2,3.42-1.79,7-1.62,10.65-.84C84,111.43,84.63,113.26,85.92,111.86Z"/><path class="cls-3" d="M167.11,192.91H148.33c4.95-.93,9.95-.65,14.93-.51A17,17,0,0,1,167.11,192.91Z"/><path class="cls-16" d="M32.39,88.5c0,4.2-1.63,7.75-4,11.16a83.88,83.88,0,0,1-6,8.06c-3.5,4-7.35,7.28-12.33,9.24a13.49,13.49,0,0,1-4.22.81A28.45,28.45,0,0,1,0,115.28V98.72A49.19,49.19,0,0,0,13.82,81.58c.13-.08.16-.18.07-.3a1.6,1.6,0,0,0,1-1.51.37.37,0,0,0,.1-.4l1.72-1.05a20,20,0,0,1,7.2,2.85C27.15,83.13,29.69,85.9,32.39,88.5Z"/><path class="cls-16" d="M145.11,189.63c-3.45-2.67-4.66-6.24-4.19-10.48.33-2.93-.49-5.77-.61-8.67-.08-2.13,1-2.89,2.85-2.54a43.4,43.4,0,0,0,15.87-.16,33.89,33.89,0,0,0,14.79-6.05c2.47-.17,3.17,1.1,2.93,3.36-.37,3.52.53,6.91,1.34,10.29,1,4.19.4,7.86-3.4,10.49-8.51,3.67-17.47,4.39-26.59,4.17A3.2,3.2,0,0,0,145.11,189.63Z"/><path class="cls-16" d="M109.29,98.4l7.13-4.81c2.31,3,3,6.56,4.09,10,.52,3,1.07,6.07-.38,9.13-1.44-1.1-2.87-2.14-4.25-3.26-3.88-3.13-6.62-3.1-10.48.31a22.66,22.66,0,0,0-2.25,2.62l-.21-.56.87-4C106.17,105,108.44,102.11,109.29,98.4Z"/><path class="cls-3" d="M13.82,81.58A49.19,49.19,0,0,1,0,98.72V92.89c3.76-2.37,6.85-5.66,10.38-8.34a4.33,4.33,0,0,0,1.5-2.44C12.24,80.65,13,81.2,13.82,81.58Z"/><path class="cls-3" d="M175.11,192.91h-8a17,17,0,0,0-3.85-.51c-5-.14-10-.42-14.93.51l-.22,0v0c0-.39,0-.77,0-1.15.05-.06.14-.13.13-.17a2.91,2.91,0,0,0-.18-.35c0-.4,0-.8,0-1.2,9.12.22,18.08-.51,26.59-4.18,0,2.14.09,4.28.13,6.42Z"/><path class="cls-15" d="M44.06,138.6c.17-3,2.27-4.69,4.28-7a9.47,9.47,0,0,1-1.08,8Z"/><path class="cls-17" d="M47.31,139.62l.43-.13-.17.38A.24.24,0,0,1,47.31,139.62Z"/><path class="cls-4" d="M175.11,192.91l-.29-.63Z"/><path class="cls-18" d="M102.49,115.4c-1.28,10.6-2.75,21.16-3.69,31.8-1.36,15.21-2.07,30.45-2.36,45.71h-11c-.09-16.54-.06-33.08.53-49.62.31-8.61.52-17.22,1.24-25.82.14-1.6.62-2.24,2.26-2.16,3.88.17,7.77.19,11.49-1.14C102.29,113.69,102.41,114.46,102.49,115.4Z"/><path class="cls-19" d="M103.15,112.4c-.45.95.12,2.12-.66,3-.08-.94-.2-1.71-1.54-1.23-3.72,1.33-7.61,1.31-11.49,1.14-1.64-.08-2.12.56-2.26,2.16-.72,8.6-.93,17.21-1.24,25.82-.59,16.54-.62,33.08-.53,49.62H82.2q.26-12.47.81-24.93c.47-10.38.8-20.76,1.33-31.14.42-8.33,1-16.65,1.58-25,0-.4.09-.79.14-1.19l.85-2.31c.56,0,1.13,0,1.47.55-1,1.93-1.13,3.77,1.51,4a33.12,33.12,0,0,0,13-1.09Z"/><path class="cls-16" d="M71,100c2.53-2.25,3.48-5.86,6.58-7.62,2.49,1,4.27,3,6.2,4.72.22,4,2.61,7.38,3.15,11.29-.28.76-.57,1.53-.85,2.3-2.07-1.58-4.16-3.12-6.19-4.76-1.55-1.24-2.89-1-4.4.11a25,25,0,0,0-5.14,5.86,13.27,13.27,0,0,1,.85-10.7C71.55,100.46,71.56,100.31,71,100Z"/><path class="cls-15" d="M70.33,111.88A25,25,0,0,1,75.47,106c1.51-1.14,2.85-1.35,4.4-.11,2,1.64,4.12,3.18,6.19,4.76l-.14,1.19c-1.29,1.4-2-.42-2.92-.63-3.66-.78-7.23-1-10.65.85C71.54,112.5,70.89,113.19,70.33,111.88Z"/><path class="cls-3" d="M86.91,108.37c-.54-3.91-2.93-7.29-3.15-11.29,2.63,1.22,5.36,2.27,7.87,3.7,4.23,2.41,8.2,1.06,12.22-.41,1.81-.67,3.63-1.31,5.44-2-.85,3.71-3.12,6.58-5.48,9.4a27.8,27.8,0,0,1-15.43,1.12C88,108.33,87.47,108.36,86.91,108.37Z"/><path class="cls-18" d="M88.38,108.92a27.8,27.8,0,0,0,15.43-1.12l-.87,4a33.31,33.31,0,0,1-13,1.09C87.25,112.68,87.34,110.85,88.38,108.92Z"/><path class="cls-4" d="M148.13,191.76a.7.7,0,0,1,0-.51,1.92,1.92,0,0,1,.18.35S148.18,191.7,148.13,191.76Z"/><path class="cls-3" d="M95.48,14.42c-.22,1.88-.43,3.77-.66,5.66s-1.54,2.59-3,1.36a11.65,11.65,0,0,1-1.59-2,19.11,19.11,0,0,1-.4-2.48c-.13-2.79-1-3.45-3.7-2.6a6.15,6.15,0,0,0-4,3c-2.14,3.51-2.61,7.55-3.71,11.39a20.44,20.44,0,0,0-2,4.93l-1.81,4A15,15,0,0,1,64.25,44a7.41,7.41,0,0,0-2.1.94A252.19,252.19,0,0,0,22.29,71.28C19.92,73.19,17.32,75,16,78a1.07,1.07,0,0,0-1,1.4.37.37,0,0,1-.1.4c-1,.09-1.19.66-1,1.51.09.12.06.22-.07.3-.79-.38-1.58-.93-1.94.53a4.33,4.33,0,0,1-1.5,2.44c-3.53,2.68-6.62,6-10.38,8.34V55.32c15.37-7.19,31.63-12.09,47.36-18.38,9-3.61,14.72-9.69,18.3-18.24,3.46-8.24,10.82-12.29,17.65-17C85.62.14,87,3,89,2.79c.92,2.35,3.73,2.85,4.89,5a2.47,2.47,0,0,1-2.41-.52c-3.38-2.31-9.54-.75-11.79,3,1.66,0,2.9-1,4.27-1.6,3.71-1.76,6.31-1.15,9.48,1.45,1.17,1,.06,2.93,1.93,3.19C95.37,13.64,95.43,14,95.48,14.42Z"/><path class="cls-3" d="M148.33,192.91l-.22,0v0Z"/><path class="cls-20" d="M40.43,137.32s-1.27-6.32,3.63-8.88,7.46,5.2,9.54,4.44,7.68,4.89,4.16,7.83-10.19-.84-10.19-.84Z"/><path class="cls-21" d="M135.13,147.32s5.81,11.48,7.1,20.54"/><path class="cls-20" d="M136.48,152.44s-14.88,6.08-11.52-2.56,6.65,1,8.92-5.28,8.36-2.08,9.16,0S146.56,152.6,136.48,152.44Z"/><path class="cls-22" d="M77.28,47.7l-.21-.19c0-.06-.07,0-.49-1a6.39,6.39,0,0,1-.53-2.33s-.87,2-1.3,3.21a3.1,3.1,0,0,0-.21.65.69.69,0,0,0,0,.13,3.24,3.24,0,0,0-.06.64c0,1.35.71,2.44,1.59,2.44s1.58-1.09,1.58-2.44v-.05A2,2,0,0,0,77.28,47.7Z"/><path class="cls-22" d="M81.64,68.32l-.21-.19c0-.06-.06,0-.49-1a6.5,6.5,0,0,1-.53-2.32s-.86,2-1.29,3.21a2.48,2.48,0,0,0-.21.65.35.35,0,0,0,0,.13,3.24,3.24,0,0,0-.06.64c0,1.35.71,2.44,1.59,2.44S82,70.81,82,69.46v0A2,2,0,0,0,81.64,68.32Z"/><path class="cls-22" d="M98.67,40.14,98.46,40c0-.06-.07,0-.49-1a6.61,6.61,0,0,1-.53-2.33s-.86,2-1.29,3.21a2.62,2.62,0,0,0-.22.65.69.69,0,0,0,0,.13,3.31,3.31,0,0,0-.06.64c0,1.35.71,2.45,1.59,2.45S99,42.63,99,41.28v-.05A1.94,1.94,0,0,0,98.67,40.14Z"/><path class="cls-22" d="M119.44,71.19l-.2-.19s-.07,0-.5-1a6.55,6.55,0,0,1-.53-2.32s-.86,2-1.29,3.21a2.53,2.53,0,0,0-.21.64c0,.06,0,.1,0,.13a3.39,3.39,0,0,0-.05.64c0,1.35.71,2.45,1.58,2.45s1.59-1.1,1.59-2.45v0A2,2,0,0,0,119.44,71.19Z"/><path class="cls-22" d="M102.63,59.61l-.2-.19c-.05-.06-.07,0-.49-1a6.29,6.29,0,0,1-.54-2.32s-.86,2-1.29,3.21a2.92,2.92,0,0,0-.21.65.69.69,0,0,0,0,.13,3.24,3.24,0,0,0-.06.64c0,1.35.71,2.44,1.58,2.44S103,62.1,103,60.75v0A2,2,0,0,0,102.63,59.61Z"/><path class="cls-22" d="M117.13,40.14l-.2-.19c-.05-.06-.07,0-.5-1a6.61,6.61,0,0,1-.53-2.33s-.86,2-1.29,3.21a3.1,3.1,0,0,0-.21.65.79.79,0,0,0,0,.13,4.37,4.37,0,0,0-.05.64c0,1.35.71,2.45,1.58,2.45s1.59-1.1,1.59-2.45v-.05A2,2,0,0,0,117.13,40.14Z"/></g></g></svg>