<svg xmlns="http://www.w3.org/2000/svg" viewBox="0 0 144.19 218.3"><defs><style>.cls-1{fill:#63629c;}.cls-2{fill:#df807b;}.cls-3{fill:#fbb4ab;}.cls-4{fill:#abc757;}.cls-5{fill:#7c74b1;}.cls-6{fill:#90b164;}.cls-7{fill:#716ca8;}.cls-8{fill:#f8b4b0;}.cls-9{fill:#52518b;}.cls-10{fill:#9b504c;}.cls-11{fill:#4a4662;}.cls-12{fill:#796ca1;}.cls-13{fill:#c16966;}.cls-14{fill:#ed9490;}.cls-15{fill:#fefefe;}.cls-16{fill:#81a258;}</style></defs><g id="Layer_2" data-name="Layer 2"><g id="Layer_1-2" data-name="Layer 1"><path class="cls-1" d="M132.48,177.18l.19,2.37h-.73c-1.11.44-1.33,1.45-1.74,2.45-4.22,10.3-10.47,19.21-19.71,25.46-7.95,5.37-16.86,6.56-26.62,5.58-15.76-1.59-29.82-7.44-43.53-14.67a5.78,5.78,0,0,0-2.63-.65,2.15,2.15,0,0,0-1.28-1.81A109.22,109.22,0,0,1,25.94,189c-5.45-4.42-11.25-8.55-13.54-15.85-1.38-4.4.81-8.57,0-12.83,1.63-6.15,6.45-8.82,11.84-10.87,4.6.52,8.68,2.54,12.84,4.38,3.18,1.4,5.88,3.85,9.45,4.4a84.63,84.63,0,0,0,24.81,11.71c8.24,2.46,15.28.72,20.24-6.85,3.51-.42,7-1.54,9.14-4.22,2.6-3.27,5.32-3.92,8.63-2,5,2.94,4.54-5,8.49-4.11.29.07,1.16-.9,1.17-1.39a9.24,9.24,0,0,0-.7-2.57c2-.41,4.55.39,5.47-2.19.75-2.1-1.52-2.73-2.49-4,3.24-2.68,3.15-3.37-.49-5.45-3-1.72-6.34-2.33-9.7-2.94.38-1.51,2-2.86.7-4.15s-3-.25-4.41.39-2.59,1.29-3.89,1.94c-.21-3.58,1.29-7,.77-10.63,3.25-.12,6.42-.43,8.69-3.2a1.41,1.41,0,0,1,.64-.09l.94-.65a2,2,0,0,1,.72-.14c1.4.18,2.64,0,3.19-1.55l0,0c1.19.09,2.35.16,2.34-1.56h0l.79-.75.87-.76c.65,0,1.23-.17,1.44-.9h0l.76-.76v-.08l2.59.1,2.26,2.43c0,.7.22,1.29,1,1.42l0,0c-.07,1.66.23,3.07,2.23,3.32h0a5.51,5.51,0,0,0,.64,3,47.87,47.87,0,0,1,4.14,19.36c.13,11.39-2.33,22.26-5.44,33.08C131.86,174.92,130.17,176.39,132.48,177.18ZM91.91,186c.89-6.8-1.63-10.11-8.08-10.95C86.61,178.65,88.44,182.51,91.91,186Zm7.24-5c-1-6.49-6.38-11.1-10.48-9.14Z"/><path class="cls-2" d="M122.48,113.06l-.87.76-.79.75h0a2.55,2.55,0,0,0-2.34,1.56l0,0a3.21,3.21,0,0,0-3.19,1.55,2,2,0,0,0-.72.14l-.94.65a1.41,1.41,0,0,0-.64.09,134.12,134.12,0,0,1-22.68,4.31,150,150,0,0,1-29-.81c-8.8-1-17-4.12-25.11-7.45l-6.44-5.5c-3-5.3-2.13-9,3.37-12.42a6.06,6.06,0,0,0,3.17-5.21c.55-5.5,2.16-10.31,7-10.14A29.57,29.57,0,0,0,54,88.53c14.1,5.43,28.24,4.67,42.42.36,5.47-1.66,10-4.61,12.63-9.86l.8.06c5.79,2.87,9.64,7.08,9.52,14,0,1.64,1.36,2.08,2.23,3,3.72,3.88,6.19,8.13,4.08,13.74a1.68,1.68,0,0,0-.94,1.55v.08l-.76.76h0A1.46,1.46,0,0,0,122.48,113.06Zm-8.57-16.55L82.3,104.09C88.69,109.31,108.55,102.91,113.91,96.51Zm-48.63,8,.29-1-26.43-8-.41,1.35C45.88,105.09,56,103.48,65.28,104.51Z"/><path class="cls-3" d="M109,79c-2.67,5.25-7.16,8.2-12.63,9.86C82.21,93.2,68.07,94,54,88.53a29.57,29.57,0,0,1-10.68-7.16c-.06-7.68,2.31-15,3.15-22.57-.15-6.22,0-12.42,1.77-18.46C58,37.6,68,38.11,77.85,39.83c6,1.05,12.08,2.2,17.59,5.09-1.17,4.88-1.51,9.67,1.9,13.87,1.37,1.69,3.21,3,3.27,5.5a2.25,2.25,0,0,0,2.13,2c1.33.11,1.79-1,2.16-2a41.89,41.89,0,0,0,1.68-5.23c.86-3.61,3.49-5.19,8-4.8,3.67.31,4.63,2.94,4.49,5.81-.3,5.91-2.45,11.11-7.87,14.14C109,75.5,108.56,76.89,109,79ZM68.63,79c-2.8.82-6.46-1.08-9.15,3.5,4.82-1.79,8.77-1.18,12.93.48-.49-2-2.51-2.2-2.23-3.85a4.65,4.65,0,0,0,.33-5.91c-1-1.57-1.83-.76-2.84-.46-3.61-1.19-4.22-3.26-2.25-6.53a37.62,37.62,0,0,0,2.94-6.83c.33-1,.9-2.3-.83-3-1.45,3.26-2.84,6.49-4.31,9.68-2.11,4.55-.94,7,4,8.36C66.79,76.26,67.74,77.63,68.63,79Zm45.06-19.84c-3.6,1.21-5.21,4.13-6.14,7.47-.35,1.25,0,2.92,1.43,3.2s3-1.5,2.68-2.25c-1.29-3.43,1.55-5.55,2.13-8.32l.32-.4ZM55.51,50.33c3.15-.67,5.92-2,7.72-4.9.5-.8.91-1.69.18-2.55-.88-1-1.95-.73-2.83-.06A18.43,18.43,0,0,1,54.29,46c-1.27.35-2.72.91-2.15,2.68C52.63,50.22,54.14,50.18,55.51,50.33Zm30.87.26c1.52-.05,3,.11,3.47-1.52S89,46.85,87.6,46.5a17.07,17.07,0,0,1-6.24-3.2A1.86,1.86,0,1,0,78.77,46C80.78,48.49,83.1,50.55,86.38,50.59ZM86.5,64.9v-.16c2,0,3.92,0,5.88,0,.52,0,1.11-.14,1.17-.78a1.48,1.48,0,0,0-.45-1c-1.29-1.29-11.57-2.38-13.24-1.44-.68.38-1.5.7-1.36,1.67a1.78,1.78,0,0,0,1.76,1.31C82.33,64.75,84.42,64.79,86.5,64.9ZM49.37,62.51c4.75,2.21,8.73,1.58,12.72.6.8-.19,1.52-.6,1.45-1.56a1.56,1.56,0,0,0-1.62-1.42A23.5,23.5,0,0,0,49.37,62.51ZM90.48,55c-4.86.92-9.62,2.09-12.72-4.2-.91,3.86.95,5.4,3.2,6.18C84.33,58.16,87.8,58.52,90.48,55Zm-29.19.41a21.44,21.44,0,0,1-10.23-1.76C53.64,57.78,57.18,58.3,61.29,55.42Z"/><path class="cls-4" d="M51.8,24.33C55.55,13.28,63.27,6.67,74.5,4A64.9,64.9,0,0,1,92.85,1.85c.52,0,1.21.22,1.53,0C99-2,102.71,1,107,3s7.63,4.5,8.46,9.48a3.51,3.51,0,0,0,1.09,1.59c8.4,8.37,10.6,18.77,9.85,30.12a9,9,0,0,1-2.07-1C108.3,29.76,89.66,23.58,69,22.81,63.17,22.6,57.55,24.09,51.8,24.33ZM94.6,6.17c3-.79,5.37-1.19,7.19-3.41C98.36,1.59,96.3,2.61,94.6,6.17Zm12.86,5.24c2.21-1.89.87-3.57.08-5.21a.8.8,0,0,0-1.3-.26c-1,1.41.22,2.69.45,4A5.86,5.86,0,0,0,107.46,11.41Z"/><path class="cls-5" d="M14.74,216.82c-1.42-3.41-.51-6.93-.45-10.4,2.46-1.26,1.13-3.52,1.21-5.28.12-2.51,1.55-3.32,3.28-2.37,6.24,3.42,13,2.83,19.62,2.92a6.76,6.76,0,0,1,3.77.82,100.89,100.89,0,0,0,14.71,7.34c13.56,5.52,27.25,7.39,41.88,4.81,14.32-2.53,24.47-10.07,31.77-22.14a3.5,3.5,0,0,1,3.46-2c1.81,8.33,1.54,16.92,3.16,25.28.38,1.94-.39,2.55-2.31,2.51-5.26-.12-10.53,0-15.79-.11q-37.5-.44-75-.91c-.29-1.42-1.4-1.34-2.46-1.34H16.81A2.25,2.25,0,0,0,14.74,216.82Z"/><path class="cls-6" d="M51.8,24.33c5.75-.24,11.37-1.73,17.19-1.52,20.67.77,39.31,7,55.29,20.41a9,9,0,0,0,2.07,1c1,3.09,3.39,5.95,1.49,9.51-.59,1.1-.75,2.57-2.5,2.48-3.23-1.42-6.39-3-9.69-4.21-6.7-2.44-13-6.14-20.21-7.07-5.51-2.89-11.57-4-17.59-5.09C68,38.11,58,37.6,48.21,40.34l-4,.74c-1.95-4.14.4-11.57,4.69-14.76C49.88,25.63,50.85,25,51.8,24.33Zm32.07,3.26c-.83,2.9-2.25,5.68-1.51,9.06C85.13,33.28,85.13,33.28,83.87,27.59Zm-34.3,1.67c-2.86,2-3.64,4.88-3.25,8.11a10.67,10.67,0,0,0,2.15-3.67C49,32.26,49.21,30.74,49.57,29.26Zm6.66,5.47A11.89,11.89,0,0,0,58.81,26C55.86,30.05,55.76,30.36,56.23,34.73Zm14.55-8.64c-3.27,5.33-3.37,5.81-2,9.23C70.12,32.23,70.37,29.17,70.78,26.09ZM92.46,40.57c2.68-3.66,2.34-6.74,1.91-9.84A24.06,24.06,0,0,0,92.46,40.57Zm11.86-7.37c-.54,3.1-1.08,6.2-1.78,10.2C105.68,39.82,105,36.51,104.32,33.2Zm6.36,13.7c2.85-1.88,3.29-3.72,2.79-6.58C111.56,42.28,111.19,44.11,110.68,46.9Zm9-3.16c-.61,1.55-1.23,3.11-2.18,5.5C120.49,47.64,121.1,46.05,119.69,43.74Z"/><path class="cls-7" d="M134,190.51a3.5,3.5,0,0,0-3.46,2c-7.3,12.07-17.45,19.61-31.77,22.14-14.63,2.58-28.32.71-41.88-4.81a100.89,100.89,0,0,1-14.71-7.34,6.76,6.76,0,0,0-3.77-.82c-6.66-.09-13.38.5-19.62-2.92-1.73-1-3.16-.14-3.28,2.37-.08,1.76,1.25,4-1.21,5.28a105.26,105.26,0,0,1,.78-15.06c2.1,0,3.66,1.29,5.4,2.12,5.47,2.6,11,4.67,17.24,4.23a5.78,5.78,0,0,1,2.63.65c13.71,7.23,27.77,13.08,43.53,14.67,9.76,1,18.67-.21,26.62-5.58C119.73,201.2,126,192.29,130.2,182c.41-1,.63-2,1.74-2.45.25,1.59-.63,3.36.78,4.75.13,1.1-.35,2.36.86,3.17Z"/><path class="cls-8" d="M24.21,149.43c-5.39,2-10.21,4.72-11.84,10.87a3.62,3.62,0,0,0-.87,2.86c.22,4.1-1.77,4.94-5.25,3.78A10.1,10.1,0,0,1,.74,153.73c.44-1.17,0-2-.1-3-.23-1.9-.11-3.68,1.7-4.88.32-.21.88-.45.89-.71.43-6.42,4.72-4.12,8.19-3.67,1,.79,1.89,2.78,2.65-.24.58-2.27,2.27-2.1,4.08-1.4,3.75,1.45,4.88,4.79,6.06,8.13Z"/><path class="cls-9" d="M24.21,148c-1.18-3.34-2.31-6.68-6.06-8.13-1.81-.7-3.5-.87-4.08,1.4-.76,3-1.69,1-2.65.24a155.44,155.44,0,0,1,18.29-32.33l6.44,5.5a4.9,4.9,0,0,0-1.63,3.9Q29.38,133.24,24.21,148Z"/><path class="cls-10" d="M95.44,44.92c7.23.93,13.51,4.63,20.21,7.07,3.3,1.2,6.46,2.79,9.69,4.21-1.45,6.83-3.62,13.32-8.72,18.42a20.46,20.46,0,0,1-6.8,4.47L109,79c-.46-2.14,0-3.53,2.2-4.75,5.42-3,7.57-8.23,7.87-14.14.14-2.87-.82-5.5-4.49-5.81-4.53-.39-7.16,1.19-8,4.8a41.89,41.89,0,0,1-1.68,5.23c-.37.94-.83,2.06-2.16,2a2.25,2.25,0,0,1-2.13-2c-.06-2.55-1.9-3.81-3.27-5.5C93.93,54.59,94.27,49.8,95.44,44.92Z"/><path class="cls-9" d="M6.25,166.94c3.48,1.16,5.47.32,5.25-3.78a3.62,3.62,0,0,1,.87-2.86c.84,4.26-1.35,8.43,0,12.83,2.29,7.3,8.09,11.43,13.54,15.85a109.22,109.22,0,0,0,10.49,6.92,2.15,2.15,0,0,1,1.28,1.81c-6.2.44-11.77-1.63-17.24-4.23-1.74-.83-3.3-2.16-5.4-2.12,0-1.29-1-2.07-1.7-3C8.42,182.09,6.42,174.82,6.25,166.94Z"/><path class="cls-11" d="M37.17,80.69c-6.62.56-6.86,4.72-7.46,8.81a8.8,8.8,0,0,1-5.41,6.86c-4.36,2-6.06,5.15-5.24,9.84.59,3.36-.22,6.24-3.18,8.33-2.13,1.51-2.77,3.71-2.69,6.25,0,1.07.8,2.26-.18,3.37a7.35,7.35,0,0,1,1-10.39c3-2.31,3.59-5,3.14-8.29-.66-4.77,1.08-8.25,5.48-10.28a9,9,0,0,0,5.6-8.35,8.08,8.08,0,0,1,2.4-5.7C32.13,79.77,33.76,78.84,37.17,80.69Z"/><path class="cls-11" d="M28.82,79.63c-4.18,1-5.29,3.87-5.59,7.61a8.24,8.24,0,0,1-5.12,7c-3.86,1.78-5.52,4.61-4.8,8.89.54,3.2-.2,5.93-3.1,8C8,112.61,7.77,115,8.15,117.5c.11.71.66,1.76-.48,2-1.34.23-1.29-1.09-1.41-1.9-.43-2.89,0-5.75,2.42-7.55a6.89,6.89,0,0,0,2.85-7.22c-.75-4.66,1.05-8,5.32-9.91,3.46-1.57,4.41-4.5,4.92-8C22.48,80.11,24.69,78.45,28.82,79.63Z"/><path class="cls-11" d="M137.2,119.47c1.39-4.75-.6-8-3.68-11.22-1.84-1.91-1.23-4.94-.71-7.23.8-3.53-.55-5.66-3.24-7.22-3.73-2.16-5.86-5.08-5.74-9.52.1-3.4-1.82-5.46-5.48-6.59,2.4-1.51,3.72-.39,5,.64a5.21,5.21,0,0,1,2,4.17c-.31,5.13,2.12,8.31,6.4,10.72,3.86,2.17,2.87,6.15,2.71,9.57-.14,2.66.19,4.72,2.32,6.67C139.71,112.18,139.87,115.58,137.2,119.47Z"/><path class="cls-11" d="M125.61,77.19c3.94-.85,5.73,1.55,5.89,4.72.22,4.39,1.89,7.38,5.72,9.54,2.84,1.61,3.45,4.48,2.89,7.57s-.29,5.48,2.23,7.82,2.2,5.69.33,8.83c.78-4.49-1.28-7.66-4-10.79-1.31-1.5-.62-3.83-.28-5.75A6.26,6.26,0,0,0,135,91.9c-2.8-1.58-4.71-3.78-4.83-7.16S129.43,78.49,125.61,77.19Z"/><path class="cls-12" d="M132.48,177.18c-2.31-.79-.62-2.26-.35-3.19,3.11-10.82,5.57-21.69,5.44-33.08a47.87,47.87,0,0,0-4.14-19.36,5.51,5.51,0,0,1-.64-3c5.64,8.8,6.7,18.57,5.9,28.68a116.18,116.18,0,0,1-5.48,26.92C132.89,175.12,132.72,176.16,132.48,177.18Z"/><path class="cls-10" d="M44.26,41.08l4-.74c-1.78,6-1.92,12.24-1.77,18.46-4.7-3.28-5-7.89-3.84-12.91A50.65,50.65,0,0,1,44.26,41.08Z"/><path class="cls-7" d="M14.74,216.82a2.25,2.25,0,0,1,2.07-.87H41.6c1.06,0,2.17-.08,2.46,1.34C34.28,217.35,24.5,217.79,14.74,216.82Z"/><path class="cls-12" d="M132.72,184.29c-1.41-1.39-.53-3.16-.78-4.75h.73a9.33,9.33,0,0,1,.67,4.73Z"/><path class="cls-12" d="M132.8,118.54c-2-.25-2.3-1.66-2.23-3.32A5.66,5.66,0,0,1,132.8,118.54Z"/><path class="cls-12" d="M124.71,111.32a1.68,1.68,0,0,1,.94-1.55l1.65,1.65Z"/><path class="cls-5" d="M132.72,184.29h.62l.24,3.18C132.37,186.65,132.85,185.39,132.72,184.29Z"/><path class="cls-12" d="M130.59,115.27c-.81-.13-1-.72-1-1.42Z"/><path class="cls-5" d="M24.21,148q5.16-14.72,10.31-29.42c5.44,2.8,10.53,6.18,16.83,7.28a87.21,87.21,0,0,0,31.81-.12c7-1.35,14.27-1.44,21.08-3.91.52,3.6-1,7-.77,10.62l-3.17,2.93a2,2,0,0,0-1.51,1.43c-2.72,1.48-3.81,4.55-6.2,6.34-7.45-.26-14.41,1.86-21.38,4.18-8.6,2.86-16.43,7.37-24.71,10.92-3.57-.55-6.27-3-9.45-4.4-4.16-1.84-8.24-3.86-12.84-4.38Z"/><path class="cls-9" d="M46.5,158.21c8.28-3.55,16.11-8.06,24.71-10.92,7-2.32,13.93-4.44,21.38-4.18-2.57,3.84-5,7.72-5.28,12.53-.16,3.36.37,6.36,4.24,7.43-5,7.57-12,9.31-20.24,6.85A84.63,84.63,0,0,1,46.5,158.21Zm37.31-11.29c-4,2.94-5.86,7.84-4.66,11.47,1,3.08,3.35,4.54,6.65,4.89C81.64,158.45,81.44,153.12,83.81,146.92Z"/><path class="cls-8" d="M91.55,163.07c-3.87-1.07-4.4-4.07-4.24-7.43.24-4.81,2.71-8.69,5.28-12.53,2.39-1.79,3.48-4.86,6.2-6.34,3.63,1.62,6.24-1.19,10-1.64-3.48-1.89-5.78,1.39-8.5.21l3.17-2.93c1.3-.64,2.57-1.34,3.89-1.93s3.06-1.7,4.41-.39-.32,2.64-.7,4.15c3.36.61,6.7,1.22,9.7,2.94,3.64,2.08,3.73,2.77.49,5.45,1,1.25,3.24,1.88,2.49,4-.92,2.58-3.51,1.78-5.47,2.19a9.24,9.24,0,0,1,.7,2.57c0,.49-.88,1.46-1.17,1.39-4-.91-3.47,7.05-8.49,4.11-3.31-1.94-6-1.29-8.63,2C98.55,161.53,95.06,162.65,91.55,163.07Zm19.81-11.24.33.18-.34-.17c-.78-3.25-3.34-2.76-5.72-2.63C107.33,150.53,109,151.9,111.36,151.83Zm3.4-5c-1.62-2.58-3.86-3.32-7.24-2.61Z"/><path class="cls-12" d="M104.24,121.79c-6.81,2.47-14.06,2.56-21.08,3.91a87.21,87.21,0,0,1-31.81.12c-6.3-1.1-11.39-4.48-16.83-7.28a4.9,4.9,0,0,1,1.63-3.9c8.12,3.33,16.31,6.47,25.11,7.45a150,150,0,0,0,29,.81,134.12,134.12,0,0,0,22.68-4.31C110.66,121.36,107.49,121.67,104.24,121.79Z"/><path class="cls-9" d="M91.91,186c-3.47-3.5-5.3-7.36-8.08-10.95C90.28,175.9,92.8,179.21,91.91,186Z"/><path class="cls-9" d="M99.15,181l-10.48-9.14C92.77,169.87,98.17,174.48,99.15,181Z"/><path class="cls-12" d="M115.23,117.71a3.21,3.21,0,0,1,3.19-1.55C117.87,117.73,116.63,117.89,115.23,117.71Z"/><path class="cls-12" d="M118.44,116.14a2.55,2.55,0,0,1,2.34-1.56C120.79,116.3,119.63,116.23,118.44,116.14Z"/><path class="cls-12" d="M122.48,113.06a1.46,1.46,0,0,1,1.44-.9C123.71,112.89,123.13,113,122.48,113.06Z"/><path class="cls-12" d="M120.82,114.57l.79-.75Z"/><path class="cls-12" d="M113.57,118.5l.94-.65Z"/><path class="cls-12" d="M124,112.16l.76-.76Z"/><path class="cls-13" d="M113.91,96.51c-5.36,6.4-25.22,12.8-31.61,7.58Z"/><path class="cls-13" d="M65.28,104.51c-9.3-1-19.4.58-26.55-7.65l.41-1.35,26.43,8Z"/><path class="cls-10" d="M55.51,50.33c-1.37-.15-2.88-.11-3.37-1.64-.57-1.77.88-2.33,2.15-2.68a18.43,18.43,0,0,0,6.29-3.19c.88-.67,2-1,2.83.06.73.86.32,1.75-.18,2.55C61.43,48.32,58.66,49.66,55.51,50.33Z"/><path class="cls-10" d="M86.38,50.59c-3.28,0-5.6-2.1-7.61-4.62a1.86,1.86,0,1,1,2.59-2.67,17.07,17.07,0,0,0,6.24,3.2c1.35.35,2.69.85,2.25,2.57S87.9,50.54,86.38,50.59Z"/><path class="cls-14" d="M86.5,64.9c-2.08-.11-4.17-.15-6.24-.38a1.78,1.78,0,0,1-1.76-1.31c-.14-1,.68-1.29,1.36-1.67,1.67-.94,12,.15,13.24,1.44a1.48,1.48,0,0,1,.45,1c-.06.64-.65.77-1.17.78-2,0-3.92,0-5.88,0Z"/><path class="cls-14" d="M49.37,62.51a23.5,23.5,0,0,1,12.55-2.38,1.56,1.56,0,0,1,1.62,1.42c.07,1-.65,1.37-1.45,1.56C58.1,64.09,54.12,64.72,49.37,62.51Z"/><path class="cls-2" d="M67.22,74.47c-4.94-1.34-6.11-3.82-4-8.37,1.47-3.19,2.86-6.42,4.31-9.68,1.73.71,1.16,2.06.83,3a37.62,37.62,0,0,1-2.94,6.83c-2,3.27-1.36,5.34,2.24,6.53C67.51,73.35,67.36,73.91,67.22,74.47Z"/><path class="cls-10" d="M90.48,55c-2.68,3.51-6.15,3.15-9.52,2-2.25-.78-4.11-2.32-3.2-6.18C80.86,57.1,85.62,55.93,90.48,55Z"/><path class="cls-2" d="M113.79,59.29c-.58,2.77-3.42,4.89-2.13,8.32.28.75-1.3,2.51-2.68,2.25s-1.78-2-1.43-3.2c.93-3.34,2.54-6.26,6.14-7.47Z"/><path class="cls-2" d="M70.18,79.16C69.9,80.81,71.92,81,72.41,83c-4.16-1.66-8.11-2.27-12.93-.48,2.69-4.58,6.35-2.68,9.15-3.5Z"/><path class="cls-15" d="M70.18,79.16,68.63,79c-.89-1.4-1.84-2.77-1.41-4.56.14-.56.29-1.12.44-1.68,1-.3,1.89-1.11,2.85.46A4.65,4.65,0,0,1,70.18,79.16Z"/><path class="cls-10" d="M61.29,55.42c-4.11,2.88-7.65,2.36-10.23-1.76A21.44,21.44,0,0,0,61.29,55.42Z"/><path class="cls-2" d="M113.69,59.19l.42-.3-.32.4Z"/><path class="cls-16" d="M94.6,6.17c1.7-3.56,3.76-4.58,7.19-3.41C100,5,97.64,5.38,94.6,6.17Z"/><path class="cls-16" d="M107.46,11.41a5.86,5.86,0,0,1-.77-1.44c-.23-1.34-1.5-2.62-.45-4a.8.8,0,0,1,1.3.26C108.33,7.84,109.67,9.52,107.46,11.41Z"/><path class="cls-16" d="M83.87,27.59c1.26,5.69,1.26,5.69-1.51,9.06C81.62,33.27,83,30.49,83.87,27.59Z"/><path class="cls-16" d="M49.57,29.26c-.36,1.48-.61,3-1.1,4.44a10.67,10.67,0,0,1-2.15,3.67C45.93,34.14,46.71,31.29,49.57,29.26Z"/><path class="cls-16" d="M56.23,34.73c-.47-4.37-.37-4.68,2.58-8.78A11.89,11.89,0,0,1,56.23,34.73Z"/><path class="cls-16" d="M70.78,26.09c-.41,3.08-.66,6.14-2,9.23C67.41,31.9,67.51,31.42,70.78,26.09Z"/><path class="cls-16" d="M92.46,40.57a24.06,24.06,0,0,1,1.91-9.84C94.8,33.83,95.14,36.91,92.46,40.57Z"/><path class="cls-16" d="M104.32,33.2c.68,3.31,1.36,6.62-1.78,10.2C103.24,39.4,103.78,36.3,104.32,33.2Z"/><path class="cls-16" d="M110.68,46.9c.51-2.79.88-4.62,2.79-6.58C114,43.18,113.53,45,110.68,46.9Z"/><path class="cls-16" d="M119.69,43.74c1.41,2.31.8,3.9-2.18,5.5C118.46,46.85,119.08,45.29,119.69,43.74Z"/><path class="cls-14" d="M100.3,135.34c2.72,1.18,5-2.1,8.5-.21-3.77.45-6.38,3.26-10,1.64A2,2,0,0,1,100.3,135.34Z"/><path class="cls-11" d="M83.81,146.92c-2.37,6.2-2.17,11.53,2,16.36-3.3-.35-5.64-1.81-6.65-4.89C78,154.76,79.78,149.86,83.81,146.92Z"/><path class="cls-14" d="M111.36,151.83c-2.36.07-4-1.3-5.73-2.62,2.38-.13,4.94-.62,5.72,2.63Z"/><path class="cls-14" d="M114.76,146.86l-7.24-2.61C110.9,143.54,113.14,144.28,114.76,146.86Z"/><path class="cls-14" d="M111.35,151.84l.34.17-.33-.18Z"/></g></g></svg>