<svg xmlns="http://www.w3.org/2000/svg" viewBox="0 0 191.72 237.87"><defs><style>.cls-1{fill:#c6c3e0;}.cls-2{fill:#c28155;}.cls-3{fill:#ba5c1c;}.cls-4{fill:#2c222b;}.cls-5{fill:#b27246;}.cls-6{fill:#fff;}.cls-7{fill:#5774b3;}.cls-8{fill:#4e659a;}.cls-9{fill:#020202;}.cls-10{fill:#cbcbcb;}.cls-11{fill:#f0f0f0;}.cls-12{fill:#4a4662;}</style></defs><g id="Layer_2" data-name="Layer 2"><g id="Layer_4" data-name="Layer 4"><path class="cls-1" d="M61.67,237.11c.35.24.69.49,1,.76-.35-.27-.7-.52-1.07-.76Z"/><path class="cls-1" d="M155,237.32a.54.54,0,0,1-.05-.21H155Z"/><path class="cls-1" d="M108.38,166.52s.51-3.67-7.61-6"/><path class="cls-1" d="M21.1,210.4c.14,9.92.46,19,.82,26.71H38.07c0,.19.11.34.15.52a10.71,10.71,0,0,1,1.58-.16v0c0-.12,0-.23,0-.34H61.62c.37.24.72.49,1.07.76-.33-.27-.67-.52-1-.76H155a.54.54,0,0,0,.05.21v-.21c.07-8.65,0-19.14-.23-30.55-.94-43.85-5.13-101.29-19.86-120-21.19-26.91-47-27.21-54.29-26.69a24.74,24.74,0,0,1-3.22.09c-5-.21-24.06,1.57-42.57,38.38C27.42,113.09,23.75,137,22.13,162.05c0,.07,0,.18,0,.31a1.77,1.77,0,0,0,0,.24c-1,15.49-1.19,31.38-1,45.73C21.07,209,21.09,209.71,21.1,210.4Z"/><path class="cls-1" d="M65.61,175.44s7.84,14.35,2.23,21.9,49.92,1.51,49.92,1.51-12.84-18.5-7.55-25.3S65.61,175.44,65.61,175.44Z"/><path class="cls-1" d="M134.9,146.91a24.61,24.61,0,0,1-15,27.22l-.2.08c-22.17,8.55-44.44,7.35-66.74.57-8.61-2.62-15.67-7.26-19.89-15.52.74-3.37,0-5.56-3.46-7.48C21.1,147,17.71,138.83,17.25,129.53c-.24-4.51,1.29-8.65,7.05-9.14,7.14-.61,11.28,1.87,12.64,7.55a63,63,0,0,0,2.64,8.23c.58,1.48,1.31,3.25,3.38,3.07a3.52,3.52,0,0,0,3.35-3.18c.1-4,3-6,5.17-8.65.42-.54.81-1.07,1.16-1.61,3.86-5.83,3.57-12.32,2.11-18.93-.08-.42-.19-.85-.28-1.27.33-.18.67-.35,1-.51,8.41-4.2,17.57-5.93,26.66-7.52,15.55-2.71,31.18-3.51,46.66.8,2.79,9.51,3,19.27,2.77,29.05.33,3,.82,6,1.37,8.93C133.57,139.87,134.28,143.39,134.9,146.91Z"/><path class="cls-1" d="M54.47,105.6c34.9-48.5,74.32-7.23,74.32-7.23"/><path class="cls-1" d="M23.52,126.62c.91,4.37,5.39,7.7,3.36,13.09-.44,1.19,2.05,4,4.21,3.55s2.8-3.08,2.25-5c-1.47-5.26-4-9.86-9.66-11.76Z"/><path class="cls-1" d="M37.81,131.1s-1.06,20.35-6.73,33.2,17.75,19.2,17.75,19.2,14.64-33.07,6.75-71.65"/><path class="cls-1" d="M97.73,153.59c7.77-2.09,9.61-6,6.3-13.17-2.33-5-4.51-10.09-6.78-15.23-2.73,1.12-1.83,3.25-1.31,4.73a57.31,57.31,0,0,0,4.62,10.75c3.1,5.15,2.15,8.4-3.53,10.29C97.27,151.84,97.5,152.71,97.73,153.59Z"/><path class="cls-1" d="M91.26,167.44c.65-2.55-2.49-3.07-3-6.33,6.31,3.14,12.42,4.6,20.21,2.41-4.23,6-9,4.08-13.11,4.16-1.37,0-.25.4-1.59.17Z"/><path class="cls-1" d="M106,163.16s-4.51-5.08-15.6-2A22.41,22.41,0,0,0,106,163.16Z"/><path class="cls-1" d="M96.84,167.72s-6.32-1.13-7.82-4-4.61,7.14-4.61,7.14l11.68-.73Z"/><path class="cls-1" d="M72.11,121a35.71,35.71,0,0,0,14.82-6.86c1.11-.84,1.61-1.69,0-2a8.73,8.73,0,0,0-5.75,1.09A68.88,68.88,0,0,1,69,118.35c-2.69.84-5.36,1.81-4.17,3S69,121.58,72.11,121Z"/><path class="cls-1" d="M117.69,115.36a35.64,35.64,0,0,1-15.54-5c-1.2-.7-1.8-1.48-.25-2a8.75,8.75,0,0,1,5.83.38,69.72,69.72,0,0,0,12.77,3.66c2.79.51,5.55,1.15,4.5,2.42S120.84,115.59,117.69,115.36Z"/><circle class="cls-1" cx="78.49" cy="127.67" r="4.37"/><circle class="cls-1" cx="78.49" cy="127.67" r="4.37"/><ellipse class="cls-1" cx="78" cy="126.72" rx="1.11" ry="0.87" transform="translate(-49.49 49.99) rotate(-27.35)"/><circle class="cls-1" cx="113.42" cy="124.36" r="4.37"/><circle class="cls-1" cx="113.42" cy="124.36" r="4.37"/><ellipse class="cls-1" cx="112.04" cy="123.71" rx="1.11" ry="0.87" transform="translate(-44.3 65.29) rotate(-27.35)"/><path class="cls-1" d="M38.22,237.63a10.71,10.71,0,0,1,1.58-.16v0c0-.12,0-.23,0-.34h5.19l1.15-25.27h0l.2-4.24.88-19.24L22.14,162a.82.82,0,0,1,0,.1c0,.07,0,.18,0,.31a1.77,1.77,0,0,0,0,.24c-.41,3.69-2.41,22.72-5.24,46.42-.07.52-.13,1.06-.2,1.59-1,8.44-2.13,17.43-3.3,26.5H38.07C38.12,237.3,38.18,237.45,38.22,237.63Z"/><path class="cls-1" d="M60.51,236.38c-3.18-2.58-2.1-7-3.55-10.3h0v0c-2.46-4.93-3.21-10.21-3.22-15.65a71,71,0,0,0-7.51,1.43h0c-5,1.44-5,3.86-4.93,13v.41c0,.65,0,1.28-.06,1.92s-.07,1.25-.14,1.87c0,0,0,.09,0,.14,0,.62-.11,1.23-.2,1.85-.24,1.91-.58,3.83-.93,5.73,0,.11,0,.23-.07.34H61.61A8.37,8.37,0,0,1,60.51,236.38Zm93.42-24.23a.2.2,0,0,0-.07-.11.69.69,0,0,0-.31-.21.45.45,0,0,0-.17-.05.73.73,0,0,0-.38.09l-.36.15q0,12.54,0,25.09H155C153.24,228.81,155,220.42,153.93,212.15Zm-4.34-.2c-9.78,0-13.89,3.82-13.83,15.24a33.52,33.52,0,0,1-1.31,9.92h15.14C149.55,228.73,149.59,220.33,149.59,212Z"/><path class="cls-1" d="M191.72,237.11H173.24c-.3-3.41-1.82-6.14-7.27-6.56a3,3,0,0,1-2-2c-.81-6.91-6.84-12.43-5.28-19.92v0c.06-.39.11-.8.16-1.21l1.7-.5,1.54-.13,3.17.56c2.81,2.89,6.55,4.44,10.17,5.57,8.69,2.69,12.81,9.93,14.63,17.18Q190.94,233.59,191.72,237.11Z"/><path class="cls-1" d="M173.24,237.11H157.6c-.52-5-.86-10.07-1.31-15.11-.39-4.5-1.46-9.48,2.41-13.37-1.56,7.49,4.47,13,5.28,19.92a3,3,0,0,0,2,2C171.42,231,172.94,233.7,173.24,237.11Z"/><path class="cls-1" d="M38.22,237.63c.34-.06.67-.12,1-.15v-.37l0-24s0,0,0,0v-3.77a67.62,67.62,0,0,0-18.2-1,37.11,37.11,0,0,0-4.22.69,24.3,24.3,0,0,0-5.47,1.85,16.2,16.2,0,0,0-3.11,2,12.46,12.46,0,0,0-3.54,4.46,13.52,13.52,0,0,0-1.12,3.63c0,.12,0,.24-.06.37-.82,5.72-1.27,11.1-1.48,15.82h36C38.12,237.3,38.18,237.45,38.22,237.63Z"/><path class="cls-1" d="M38.22,237.63a10.71,10.71,0,0,1,1.58-.16v0c0-.12,0-.23,0-.34h0a2,2,0,0,1,0-.34c.35-1.9.69-3.82.93-5.73.09-.62.16-1.23.2-1.85,0-.05,0-.1,0-.14.07-.62.12-1.24.14-1.87s.06-1.27.06-1.92v-.41c-.11-9.15-.06-11.57,4.93-13h0a71,71,0,0,1,7.51-1.43c4,4.62,3.1,10.24,3.22,15.65l0,0c4.37,2.09,3.68,6.29,4.4,9.93a6.76,6.76,0,0,0,.25,1.08v0h0v0l.05,0H68c-.4-.62-.81-1.27-1.21-1.93L66,233.87q-1.19-2.12-2.14-4.31c-.41-.92-.79-1.85-1.12-2.79a1.17,1.17,0,0,0-.05-.11c-.21-.58-.41-1.17-.59-1.76a45.18,45.18,0,0,1-2-17.44h0c-1.11-1.7-2.88-1.3-4.5-1.44l-.23,0c-.69,1.4-1.86,1.36-3.13,1.06-1.11,0-2.22,0-3.33,0a5.26,5.26,0,0,0-2.58.51c-1.2.43-2.4.83-3.66-.2l-3.34.21c0,.58-.09,1.14-.13,1.72,0,.07,0,.13,0,.2-.14,1.81-.29,3.62-.43,5.43v0c-.48,6.11-.94,12.21-1.46,18.31h0c-.1,1.27-.21,2.55-.34,3.82h1C38.12,237.3,38.18,237.45,38.22,237.63Z"/><path class="cls-1" d="M158.86,207.4c-.05.41-.1.82-.16,1.21v0c-3.87,3.89-2.8,8.87-2.41,13.37.45,5,.79,10.08,1.31,15.11H155v.21a.54.54,0,0,1-.05-.21c-1.74-8.3.05-16.69-1-25a.2.2,0,0,0-.07-.11.69.69,0,0,0-.31-.21.45.45,0,0,0-.17-.05.73.73,0,0,0-.38.09c-.13,0-.24.1-.36.14l-3-.06c-9.78,0-13.89,3.82-13.83,15.24a33.52,33.52,0,0,1-1.31,9.92H127c.61-1,1.16-2,1.68-3,.25-.52.49-1,.73-1.56s.41-.92.59-1.38a2.77,2.77,0,0,0,.1-.26c.21-.52.41-1,.59-1.56s.41-1.2.59-1.8.34-1.14.5-1.72.25-.93.35-1.4.24-1,.35-1.53c.23-1.14.42-2.28.58-3.45.07-.51.14-1,.19-1.51.17-1.41.29-2.84.34-4.28,0-.44.05-.87.06-1.33,0-.26,0-.53,0-.8,0-1.31,0-2.63,0-4h0l2.18-1.25,4.34-.61c4,2.93,8.28,1.59,12.53.87.71,0,1.43,0,2.13,0H156Z"/><path class="cls-1" d="M152.67,237.11h-3.08c0-8.38,0-16.78,0-25.16l3,.07Q152.67,224.56,152.67,237.11Z"/><path class="cls-1" d="M53.7,210.41c4,4.62,3.11,10.24,3.23,15.65C54.47,221.13,53.72,215.85,53.7,210.41Z"/><path class="cls-1" d="M57,226.08c4.81,2.3,3.49,7.19,4.65,11C57.07,234.7,58.57,229.73,57,226.08Z"/><path class="cls-1" d="M133.64,211.5c0,.27,0,.54,0,.8,0,.46,0,.89-.06,1.33,0,1.44-.17,2.87-.34,4.28,0,.51-.12,1-.19,1.51-.16,1.17-.35,2.31-.58,3.45-.11.52-.23,1-.35,1.53s-.21.93-.35,1.4-.31,1.15-.5,1.72-.38,1.21-.59,1.8-.38,1-.59,1.56a2.77,2.77,0,0,1-.1.26c-.18.46-.38.91-.59,1.38s-.48,1-.73,1.56a34.63,34.63,0,0,1-1.68,3H68c-.4-.62-.81-1.27-1.21-1.93L66,233.87q-1.19-2.12-2.14-4.31c-.41-.92-.79-1.85-1.12-2.79a1.17,1.17,0,0,0-.05-.11c-.21-.58-.41-1.17-.59-1.76a45.18,45.18,0,0,1-2-17.44l7.48-1.09c1.5,2.88,3.69,4.46,6.9,2.95,3.84-1.82,7-4.18,7.48-9.06s-1.62-10.32,1.6-15.06l1.59,1.61c.56,1.41.86,3,1.76,4.17,7.18,9.15,15.38,16.52,26.23,19.63l.64.19a42,42,0,0,0,8.81,1.38c4.49.24,8.87,2.5,9.59-4.47a2.16,2.16,0,0,1,1.37-.17C133.66,208.87,133.67,210.19,133.64,211.5Z"/><path class="cls-1" d="M60,206.77c4.6-1.94,9.26-12.29,9.26-12.29l46.39,1.1,6.17,9.3L107,221.5"/><path class="cls-1" d="M178.22,147.55l.64.58,1.27,1.27.75.84L182,151.7a2.09,2.09,0,0,0,.46.64,40.83,40.83,0,0,1,2.29,4.15c.51,1.36,1,2.72,1.37,4.11l.4,2,.24,2,.08,2-.09,2-.24,2-.43,2a.4.4,0,0,0-.07.3.19.19,0,0,0-.07.2l0,.2a.17.17,0,0,0-.06.2l-.31,1-.79,2-.17.42-.79,1.57-1.19,2-.13.19-1.3,1.75a29.35,29.35,0,0,1-5.18,4.78l-1.22.8-.87.5a26.14,26.14,0,0,1-9.52,3h-.31l-2.43.14-2-.1-2.4-.31-1-.18a34.31,34.31,0,0,1-4-1.29c-.16-.07-.24,0-.31.12-.19.33-.37.67-.55,1l0,.09a10.47,10.47,0,0,0-1,1.71,11.33,11.33,0,0,0-1.07,1.81A18.58,18.58,0,0,0,148,196.7c-.83,1.31-1.6,2.66-2.36,4a6.87,6.87,0,0,0-.76,1.31c-.52.77-1,1.58-1.42,2.39-.84,1.36-1.65,2.73-2.42,4.14a5.56,5.56,0,0,0-.67,1.16c-.59.89-1.13,1.8-1.63,2.74-.79,1.28-1.57,2.57-2.27,3.9a2.18,2.18,0,0,0-.44.75,6.26,6.26,0,0,0-.73,1.22,15.37,15.37,0,0,0-1.05,1.8,4.27,4.27,0,0,0-.54.92,5.91,5.91,0,0,0-.64,1.08c-.45.66-.83,1.36-1.21,2.05l-.57.85a3.44,3.44,0,0,1-2,.58,15,15,0,0,1-2-.36l-2-.84-1.06-.65-.89-.66a13.57,13.57,0,0,1-1.85-1.94,8.43,8.43,0,0,1-.87-1.62,2.56,2.56,0,0,1,.18-1.9,9,9,0,0,0,.89-1.23,2.86,2.86,0,0,0,.56-.78,16.66,16.66,0,0,0,1.2-1.69,3.06,3.06,0,0,0,.54-.74,10.55,10.55,0,0,0,1-1.34c1-1.31,2-2.62,2.85-4a1.42,1.42,0,0,0,.42-.57,8.32,8.32,0,0,0,1-1.37c1-1.27,1.91-2.56,2.8-3.89a3.53,3.53,0,0,0,.56-.77c.79-1,1.5-2,2.22-3.1a.79.79,0,0,0,.28-.39,12.89,12.89,0,0,0,1.11-1.55,9,9,0,0,0,.85-1.17.48.48,0,0,0,.2-.3.21.21,0,0,0,.13-.19,23.45,23.45,0,0,0,1.62-2.23,3.59,3.59,0,0,0,.56-.78,19.78,19.78,0,0,0,1.31-1.84,1.88,1.88,0,0,0,.42-.58c.64-.82,1.25-1.66,1.81-2.53a4.58,4.58,0,0,0,.72-1c.65-.71.65-.71,0-1.38a26.48,26.48,0,0,1-4.43-6.08,34.42,34.42,0,0,1-1.63-4l-.58-2.15-.36-1.94,0-.2a.2.2,0,0,0,0-.21l-.08-.79a.18.18,0,0,0,0-.21,1.3,1.3,0,0,0,0-.62l0-2,.12-2,.29-2,0-.19a.19.19,0,0,0,.06-.21,1,1,0,0,0,.07-.49,3.83,3.83,0,0,0,.29-1.09l.58-1.89.84-2.06a7.52,7.52,0,0,0,.59-1.21l1.54-2.53.61-.87,1-1.24a27.46,27.46,0,0,1,4.74-4.27l.64-.47,1.36-.83a2.52,2.52,0,0,0,.72-.39l2.07-1,1.23-.47.82-.26,2.14-.58,1-.2a.17.17,0,0,0,.2-.05l.31,0a.17.17,0,0,0,.2,0,.39.39,0,0,0,.3,0,.2.2,0,0,0,.21,0,.35.35,0,0,0,.3,0l.31,0,.3,0,.31-.05c1.13,0,2.26-.08,3.4,0s2.15.26,3.23.38l.4.08.3.05a.4.4,0,0,0,.3.09l.3,0,.19.07.3.06a.2.2,0,0,0,.2.08l.2,0a.16.16,0,0,0,.2.06l.2.06a.17.17,0,0,0,.2.06l.2.06a.16.16,0,0,0,.19.06,1.1,1.1,0,0,0,.5.17l2.26.93.3.13,1.66.88,1.82,1.15.31.23Zm4.4,23.3a19.93,19.93,0,0,0,.41-3.93,20.78,20.78,0,0,0-3.27-11.76,21.11,21.11,0,0,0-12.53-9.26,16,16,0,0,0-4.5-.65,18.82,18.82,0,0,0-6.51.67,20.38,20.38,0,0,0-13,9.92c-4.16,7.46-4,15,.51,22.25a20,20,0,0,0,14,9.43c8,1.38,14.75-1,20.16-7.1a22,22,0,0,0,4.7-9.57Z"/><path class="cls-1" d="M162.73,145.25a18.82,18.82,0,0,0-6.51.67,20.38,20.38,0,0,0-13,9.92c-4.16,7.46-4,15,.51,22.25a20,20,0,0,0,14,9.43c8,1.38,14.75-1,20.16-7.1a19.07,19.07,0,0,0,3.17-5,20.71,20.71,0,0,1-5.36-.93,21.12,21.12,0,0,1-9.23-5.89,20.74,20.74,0,0,1-4.24-6.88,21.67,21.67,0,0,1-1.37-8.44,15.5,15.5,0,0,1,.25-2.54,24.29,24.29,0,0,1,.59-2.63C162,147.16,162.45,146.23,162.73,145.25Z"/><path class="cls-1" d="M162.73,145.25c-.28,1-.69,1.91-1,2.88a24.29,24.29,0,0,0-.59,2.63,15.5,15.5,0,0,0-.25,2.54,21.67,21.67,0,0,0,1.37,8.44,20.74,20.74,0,0,0,4.24,6.88,21.12,21.12,0,0,0,9.23,5.89,20.71,20.71,0,0,0,5.36.93,19.06,19.06,0,0,0,1.53-4.59,19.93,19.93,0,0,0,.41-3.93,20.78,20.78,0,0,0-3.27-11.76,21.11,21.11,0,0,0-12.53-9.26A16,16,0,0,0,162.73,145.25Z"/><path class="cls-1" d="M118,226.43c-5-.37-6.45-3.94-7.08-8.13-.89-6,1.2-11.41,3.43-16.78,2.51-2.81,3.1-6.87,6.09-9.37,4.89,1.11,7.41-3,12-4.5-4.77-1.47-6.8,3.15-10.45,2.36l3.19-4.39c1.44-1.12,2.84-2.3,4.33-3.35s3.36-2.85,5.34-1.57.27,3.33.16,5.3c4.3-.08,8.58-.15,12.71,1.23,5,1.68,5.3,2.51,2,6.62,1.51,1.3,4.46,1.52,4.05,4.3-.5,3.41-3.89,3.06-6.22,4.06a11.33,11.33,0,0,1,1.5,3c.11.62-.72,2-1.1,2-5.1-.14-2.55,9.57-9.47,7.18-4.56-1.58-7.77-.11-10.17,4.57C126.21,222.8,122.17,225,118,226.43Zm21.69-18.78.45.15-.46-.13c-1.77-3.82-4.81-2.58-7.72-1.84C134.33,207,136.74,208.33,139.64,207.65Zm3-7c-2.64-2.79-5.6-3.15-9.6-1.44Z"/><path class="cls-1" d="M121.91,190c3.65.79,5.68-3.83,10.45-2.36-4.56,1.5-7.08,5.61-12,4.5A2.6,2.6,0,0,1,121.91,190Z"/><path class="cls-1" d="M139.64,207.65c-2.9.68-5.31-.61-7.73-1.82,2.91-.74,6-2,7.72,1.84Z"/><path class="cls-1" d="M142.62,200.68l-9.6-1.44C137,197.53,140,197.89,142.62,200.68Z"/><path class="cls-1" d="M120.77,225.43q-6.57,6.31-12.62,11.68H61.67c.35.24.69.49,1,.76-.35-.27-.7-.52-1.07-.76H58.84l1.67-.73.85-.38c1.52-.68,3.08-1.38,4.67-2.13,19.53-9,43.61-21.4,47.18-23.26l.45-.22.19.41Z"/><path class="cls-1" d="M4.73,217.29,6.1,237.11H0a157.14,157.14,0,0,1,3.61-16.19C4.28,218.59,4.73,217.29,4.73,217.29Z"/><path class="cls-1" d="M100.26,32.79l-.13-1.73c-.4-3.58.8-7.5,4.11-11.48,3-3.52,4.65-6.11,4.65-9.09,0-3.39-2.12-5.65-6.31-5.71a11.8,11.8,0,0,0-6.7,2.06L94.29,2.66A17.33,17.33,0,0,1,103.78,0c7.63,0,11.08,4.71,11.08,9.76,0,4.51-2.52,7.76-5.71,11.54-2.92,3.45-4,6.38-3.78,9.76l.07,1.73ZM98.8,42.08a3.92,3.92,0,0,1,4-4.18,3.87,3.87,0,0,1,3.92,4.18,4,4,0,1,1-7.9,0Z"/><path class="cls-1" d="M168.92,109.1l-.13-1.72c-.4-3.59.8-7.5,4.12-11.48,3-3.52,4.64-6.11,4.64-9.1,0-3.38-2.12-5.64-6.3-5.7a11.82,11.82,0,0,0-6.71,2.05L163,79a17.41,17.41,0,0,1,9.49-2.65c7.63,0,11.09,4.71,11.09,9.75,0,4.52-2.53,7.77-5.71,11.55-2.92,3.45-4,6.37-3.79,9.76l.07,1.72Zm-1.46,9.29a3.93,3.93,0,0,1,4-4.18,4.15,4.15,0,1,1-4,4.18Z"/><path class="cls-1" d="M12.91,75.37l-.13-1.72c-.4-3.59.8-7.5,4.11-11.49,3-3.51,4.65-6.1,4.65-9.09,0-3.38-2.12-5.64-6.31-5.71a11.82,11.82,0,0,0-6.7,2.06L6.94,45.24a17.41,17.41,0,0,1,9.49-2.65c7.63,0,11.08,4.71,11.08,9.75,0,4.51-2.52,7.77-5.71,11.55-2.91,3.45-4,6.37-3.78,9.76l.07,1.72Zm-1.46,9.29a3.93,3.93,0,0,1,4-4.18,4.16,4.16,0,1,1-4,4.18Z"/><path class="cls-2" d="M61.67,237.11c.35.24.69.49,1,.76-.35-.27-.7-.52-1.07-.76Z"/><path class="cls-2" d="M155,237.32a.54.54,0,0,1-.05-.21H155Z"/><path class="cls-3" d="M108.38,166.52s.51-3.67-7.61-6"/><path class="cls-4" d="M21.1,210.4c.14,9.92.46,19,.82,26.71H38.07c0,.19.11.34.15.52a10.71,10.71,0,0,1,1.58-.16v0c0-.12,0-.23,0-.34H61.62c.37.24.72.49,1.07.76-.33-.27-.67-.52-1-.76H155a.54.54,0,0,0,.05.21v-.21c.07-8.65,0-19.14-.23-30.55-.94-43.85-5.13-101.29-19.86-120-21.19-26.91-47-27.21-54.29-26.69a24.74,24.74,0,0,1-3.22.09c-5-.21-24.06,1.57-42.57,38.38C27.42,113.09,23.75,137,22.13,162.05c0,.07,0,.18,0,.31a1.77,1.77,0,0,0,0,.24c-1,15.49-1.19,31.38-1,45.73C21.07,209,21.09,209.71,21.1,210.4Z"/><path class="cls-5" d="M65.61,175.44s7.84,14.35,2.23,21.9,49.92,1.51,49.92,1.51-12.84-18.5-7.55-25.3S65.61,175.44,65.61,175.44Z"/><path class="cls-2" d="M134.9,146.91a24.61,24.61,0,0,1-15,27.22l-.2.08c-22.17,8.55-44.44,7.35-66.74.57-8.61-2.62-15.67-7.26-19.89-15.52.74-3.37,0-5.56-3.46-7.48C21.1,147,17.71,138.83,17.25,129.53c-.24-4.51,1.29-8.65,7.05-9.14,7.14-.61,11.28,1.87,12.64,7.55a63,63,0,0,0,2.64,8.23c.58,1.48,1.31,3.25,3.38,3.07a3.52,3.52,0,0,0,3.35-3.18c.1-4,3-6,5.17-8.65.42-.54.81-1.07,1.16-1.61,3.86-5.83,3.57-12.32,2.11-18.93-.08-.42-.19-.85-.28-1.27.33-.18.67-.35,1-.51,8.41-4.2,17.57-5.93,26.66-7.52,15.55-2.71,31.18-3.51,46.66.8,2.79,9.51,3,19.27,2.77,29.05.33,3,.82,6,1.37,8.93C133.57,139.87,134.28,143.39,134.9,146.91Z"/><path class="cls-2" d="M54.47,105.6c34.9-48.5,74.32-7.23,74.32-7.23"/><path class="cls-3" d="M23.52,126.62c.91,4.37,5.39,7.7,3.36,13.09-.44,1.19,2.05,4,4.21,3.55s2.8-3.08,2.25-5c-1.47-5.26-4-9.86-9.66-11.76Z"/><path class="cls-4" d="M37.81,131.1s-1.06,20.35-6.73,33.2,17.75,19.2,17.75,19.2,14.64-33.07,6.75-71.65"/><path class="cls-3" d="M97.73,153.59c7.77-2.09,9.61-6,6.3-13.17-2.33-5-4.51-10.09-6.78-15.23-2.73,1.12-1.83,3.25-1.31,4.73a57.31,57.31,0,0,0,4.62,10.75c3.1,5.15,2.15,8.4-3.53,10.29C97.27,151.84,97.5,152.71,97.73,153.59Z"/><path class="cls-3" d="M91.26,167.44c.65-2.55-2.49-3.07-3-6.33,6.31,3.14,12.42,4.6,20.21,2.41-4.23,6-9,4.08-13.11,4.16-1.37,0-.25.4-1.59.17Z"/><path class="cls-3" d="M106,163.16s-4.51-5.08-15.6-2A22.41,22.41,0,0,0,106,163.16Z"/><path class="cls-2" d="M96.84,167.72s-6.32-1.13-7.82-4-4.61,7.14-4.61,7.14l11.68-.73Z"/><path class="cls-4" d="M72.11,121a35.71,35.71,0,0,0,14.82-6.86c1.11-.84,1.61-1.69,0-2a8.73,8.73,0,0,0-5.75,1.09A68.88,68.88,0,0,1,69,118.35c-2.69.84-5.36,1.81-4.17,3S69,121.58,72.11,121Z"/><path class="cls-4" d="M117.69,115.36a35.64,35.64,0,0,1-15.54-5c-1.2-.7-1.8-1.48-.25-2a8.75,8.75,0,0,1,5.83.38,69.72,69.72,0,0,0,12.77,3.66c2.79.51,5.55,1.15,4.5,2.42S120.84,115.59,117.69,115.36Z"/><circle class="cls-4" cx="78.49" cy="127.67" r="4.37"/><ellipse class="cls-6" cx="78" cy="126.72" rx="1.11" ry="0.87" transform="translate(-49.49 49.99) rotate(-27.35)"/><circle class="cls-4" cx="113.42" cy="124.36" r="4.37"/><ellipse class="cls-6" cx="112.04" cy="123.71" rx="1.11" ry="0.87" transform="translate(-44.3 65.29) rotate(-27.35)"/><path class="cls-4" d="M38.22,237.63a10.71,10.71,0,0,1,1.58-.16v0c0-.12,0-.23,0-.34h5.19l1.15-25.27h0l.2-4.24.88-19.24L22.14,162a.82.82,0,0,1,0,.1c0,.07,0,.18,0,.31a1.77,1.77,0,0,0,0,.24c-.41,3.69-2.41,22.72-5.24,46.42-.07.52-.13,1.06-.2,1.59-1,8.44-2.13,17.43-3.3,26.5H38.07C38.12,237.3,38.18,237.45,38.22,237.63Z"/><path class="cls-7" d="M60.51,236.38c-3.18-2.58-2.1-7-3.55-10.3h0v0c-2.46-4.93-3.21-10.21-3.22-15.65a71,71,0,0,0-7.51,1.43h0c-5,1.44-5,3.86-4.93,13v.41c0,.65,0,1.28-.06,1.92s-.07,1.25-.14,1.87c0,0,0,.09,0,.14,0,.62-.11,1.23-.2,1.85-.24,1.91-.58,3.83-.93,5.73,0,.11,0,.23-.07.34H61.61A8.37,8.37,0,0,1,60.51,236.38Zm93.42-24.23a.2.2,0,0,0-.07-.11.69.69,0,0,0-.31-.21.45.45,0,0,0-.17-.05.73.73,0,0,0-.38.09l-.36.15q0,12.54,0,25.09H155C153.24,228.81,155,220.42,153.93,212.15Zm-4.34-.2c-9.78,0-13.89,3.82-13.83,15.24a33.52,33.52,0,0,1-1.31,9.92h15.14C149.55,228.73,149.59,220.33,149.59,212Z"/><path class="cls-2" d="M191.72,237.11H173.24c-.3-3.41-1.82-6.14-7.27-6.56a3,3,0,0,1-2-2c-.81-6.91-6.84-12.43-5.28-19.92v0c.06-.39.11-.8.16-1.21l1.7-.5,1.54-.13,3.17.56c2.81,2.89,6.55,4.44,10.17,5.57,8.69,2.69,12.81,9.93,14.63,17.18Q190.94,233.59,191.72,237.11Z"/><path class="cls-2" d="M173.24,237.11H157.6c-.52-5-.86-10.07-1.31-15.11-.39-4.5-1.46-9.48,2.41-13.37-1.56,7.49,4.47,13,5.28,19.92a3,3,0,0,0,2,2C171.42,231,172.94,233.7,173.24,237.11Z"/><path class="cls-2" d="M38.22,237.63c.34-.06.67-.12,1-.15v-.37l0-24s0,0,0,0v-3.77a67.62,67.62,0,0,0-18.2-1,37.11,37.11,0,0,0-4.22.69,24.3,24.3,0,0,0-5.47,1.85,16.2,16.2,0,0,0-3.11,2,12.46,12.46,0,0,0-3.54,4.46,13.52,13.52,0,0,0-1.12,3.63c0,.12,0,.24-.06.37-.82,5.72-1.27,11.1-1.48,15.82h36C38.12,237.3,38.18,237.45,38.22,237.63Z"/><path class="cls-8" d="M38.22,237.63a10.71,10.71,0,0,1,1.58-.16v0c0-.12,0-.23,0-.34h0a2,2,0,0,1,0-.34c.35-1.9.69-3.82.93-5.73.09-.62.16-1.23.2-1.85,0-.05,0-.1,0-.14.07-.62.12-1.24.14-1.87s.06-1.27.06-1.92v-.41c-.11-9.15-.06-11.57,4.93-13h0a71,71,0,0,1,7.51-1.43c4,4.62,3.1,10.24,3.22,15.65l0,0c4.37,2.09,3.68,6.29,4.4,9.93a6.76,6.76,0,0,0,.25,1.08v0h0v0l.05,0H68c-.4-.62-.81-1.27-1.21-1.93L66,233.87q-1.19-2.12-2.14-4.31c-.41-.92-.79-1.85-1.12-2.79a1.17,1.17,0,0,0-.05-.11c-.21-.58-.41-1.17-.59-1.76a45.18,45.18,0,0,1-2-17.44h0c-1.11-1.7-2.88-1.3-4.5-1.44l-.23,0c-.69,1.4-1.86,1.36-3.13,1.06-1.11,0-2.22,0-3.33,0a5.26,5.26,0,0,0-2.58.51c-1.2.43-2.4.83-3.66-.2l-3.34.21c0,.58-.09,1.14-.13,1.72,0,.07,0,.13,0,.2-.14,1.81-.29,3.62-.43,5.43v0c-.48,6.11-.94,12.21-1.46,18.31h0c-.1,1.27-.21,2.55-.34,3.82h1C38.12,237.3,38.18,237.45,38.22,237.63Z"/><path class="cls-8" d="M158.86,207.4c-.05.41-.1.82-.16,1.21v0c-3.87,3.89-2.8,8.87-2.41,13.37.45,5,.79,10.08,1.31,15.11H155v.21a.54.54,0,0,1-.05-.21c-1.74-8.3.05-16.69-1-25a.2.2,0,0,0-.07-.11.69.69,0,0,0-.31-.21.45.45,0,0,0-.17-.05.73.73,0,0,0-.38.09c-.13,0-.24.1-.36.14l-3-.06c-9.78,0-13.89,3.82-13.83,15.24a33.52,33.52,0,0,1-1.31,9.92H127c.61-1,1.16-2,1.68-3,.25-.52.49-1,.73-1.56s.41-.92.59-1.38a2.77,2.77,0,0,0,.1-.26c.21-.52.41-1,.59-1.56s.41-1.2.59-1.8.34-1.14.5-1.72.25-.93.35-1.4.24-1,.35-1.53c.23-1.14.42-2.28.58-3.45.07-.51.14-1,.19-1.51.17-1.41.29-2.84.34-4.28,0-.44.05-.87.06-1.33,0-.26,0-.53,0-.8,0-1.31,0-2.63,0-4h0l2.18-1.25,4.34-.61c4,2.93,8.28,1.59,12.53.87.71,0,1.43,0,2.13,0H156Z"/><path class="cls-8" d="M152.67,237.11h-3.08c0-8.38,0-16.78,0-25.16l3,.07Q152.67,224.56,152.67,237.11Z"/><path class="cls-8" d="M53.7,210.41c4,4.62,3.11,10.24,3.23,15.65C54.47,221.13,53.72,215.85,53.7,210.41Z"/><path class="cls-8" d="M57,226.08c4.81,2.3,3.49,7.19,4.65,11C57.07,234.7,58.57,229.73,57,226.08Z"/><path class="cls-5" d="M133.64,211.5c0,.27,0,.54,0,.8,0,.46,0,.89-.06,1.33,0,1.44-.17,2.87-.34,4.28,0,.51-.12,1-.19,1.51-.16,1.17-.35,2.31-.58,3.45-.11.52-.23,1-.35,1.53s-.21.93-.35,1.4-.31,1.15-.5,1.72-.38,1.21-.59,1.8-.38,1-.59,1.56a2.77,2.77,0,0,1-.1.26c-.18.46-.38.91-.59,1.38s-.48,1-.73,1.56a34.63,34.63,0,0,1-1.68,3H68c-.4-.62-.81-1.27-1.21-1.93L66,233.87q-1.19-2.12-2.14-4.31c-.41-.92-.79-1.85-1.12-2.79a1.17,1.17,0,0,0-.05-.11c-.21-.58-.41-1.17-.59-1.76a45.18,45.18,0,0,1-2-17.44l7.48-1.09c1.5,2.88,3.69,4.46,6.9,2.95,3.84-1.82,7-4.18,7.48-9.06s-1.62-10.32,1.6-15.06l1.59,1.61c.56,1.41.86,3,1.76,4.17,7.18,9.15,15.38,16.52,26.23,19.63l.64.19a42,42,0,0,0,8.81,1.38c4.49.24,8.87,2.5,9.59-4.47a2.16,2.16,0,0,1,1.37-.17C133.66,208.87,133.67,210.19,133.64,211.5Z"/><path class="cls-5" d="M60,206.77c4.6-1.94,9.26-12.29,9.26-12.29l46.39,1.1,6.17,9.3L107,221.5"/><path class="cls-9" d="M178.22,147.55l.64.58,1.27,1.27.75.84L182,151.7a2.09,2.09,0,0,0,.46.64,40.83,40.83,0,0,1,2.29,4.15c.51,1.36,1,2.72,1.37,4.11l.4,2,.24,2,.08,2-.09,2-.24,2-.43,2a.4.4,0,0,0-.07.3.19.19,0,0,0-.07.2l0,.2a.17.17,0,0,0-.06.2l-.31,1-.79,2-.17.42-.79,1.57-1.19,2-.13.19-1.3,1.75a29.35,29.35,0,0,1-5.18,4.78l-1.22.8-.87.5a26.14,26.14,0,0,1-9.52,3h-.31l-2.43.14-2-.1-2.4-.31-1-.18a34.31,34.31,0,0,1-4-1.29c-.16-.07-.24,0-.31.12-.19.33-.37.67-.55,1l0,.09a10.47,10.47,0,0,0-1,1.71,11.33,11.33,0,0,0-1.07,1.81A18.58,18.58,0,0,0,148,196.7c-.83,1.31-1.6,2.66-2.36,4a6.87,6.87,0,0,0-.76,1.31c-.52.77-1,1.58-1.42,2.39-.84,1.36-1.65,2.73-2.42,4.14a5.56,5.56,0,0,0-.67,1.16c-.59.89-1.13,1.8-1.63,2.74-.79,1.28-1.57,2.57-2.27,3.9a2.18,2.18,0,0,0-.44.75,6.26,6.26,0,0,0-.73,1.22,15.37,15.37,0,0,0-1.05,1.8,4.27,4.27,0,0,0-.54.92,5.91,5.91,0,0,0-.64,1.08c-.45.66-.83,1.36-1.21,2.05l-.57.85a3.44,3.44,0,0,1-2,.58,15,15,0,0,1-2-.36l-2-.84-1.06-.65-.89-.66a13.57,13.57,0,0,1-1.85-1.94,8.43,8.43,0,0,1-.87-1.62,2.56,2.56,0,0,1,.18-1.9,9,9,0,0,0,.89-1.23,2.86,2.86,0,0,0,.56-.78,16.66,16.66,0,0,0,1.2-1.69,3.06,3.06,0,0,0,.54-.74,10.55,10.55,0,0,0,1-1.34c1-1.31,2-2.62,2.85-4a1.42,1.42,0,0,0,.42-.57,8.32,8.32,0,0,0,1-1.37c1-1.27,1.91-2.56,2.8-3.89a3.53,3.53,0,0,0,.56-.77c.79-1,1.5-2,2.22-3.1a.79.79,0,0,0,.28-.39,12.89,12.89,0,0,0,1.11-1.55,9,9,0,0,0,.85-1.17.48.48,0,0,0,.2-.3.21.21,0,0,0,.13-.19,23.45,23.45,0,0,0,1.62-2.23,3.59,3.59,0,0,0,.56-.78,19.78,19.78,0,0,0,1.31-1.84,1.88,1.88,0,0,0,.42-.58c.64-.82,1.25-1.66,1.81-2.53a4.58,4.58,0,0,0,.72-1c.65-.71.65-.71,0-1.38a26.48,26.48,0,0,1-4.43-6.08,34.42,34.42,0,0,1-1.63-4l-.58-2.15-.36-1.94,0-.2a.2.2,0,0,0,0-.21l-.08-.79a.18.18,0,0,0,0-.21,1.3,1.3,0,0,0,0-.62l0-2,.12-2,.29-2,0-.19a.19.19,0,0,0,.06-.21,1,1,0,0,0,.07-.49,3.83,3.83,0,0,0,.29-1.09l.58-1.89.84-2.06a7.52,7.52,0,0,0,.59-1.21l1.54-2.53.61-.87,1-1.24a27.46,27.46,0,0,1,4.74-4.27l.64-.47,1.36-.83a2.52,2.52,0,0,0,.72-.39l2.07-1,1.23-.47.82-.26,2.14-.58,1-.2a.17.17,0,0,0,.2-.05l.31,0a.17.17,0,0,0,.2,0,.39.39,0,0,0,.3,0,.2.2,0,0,0,.21,0,.35.35,0,0,0,.3,0l.31,0,.3,0,.31-.05c1.13,0,2.26-.08,3.4,0s2.15.26,3.23.38l.4.08.3.05a.4.4,0,0,0,.3.09l.3,0,.19.07.3.06a.2.2,0,0,0,.2.08l.2,0a.16.16,0,0,0,.2.06l.2.06a.17.17,0,0,0,.2.06l.2.06a.16.16,0,0,0,.19.06,1.1,1.1,0,0,0,.5.17l2.26.93.3.13,1.66.88,1.82,1.15.31.23Zm4.4,23.3a19.93,19.93,0,0,0,.41-3.93,20.78,20.78,0,0,0-3.27-11.76,21.11,21.11,0,0,0-12.53-9.26,16,16,0,0,0-4.5-.65,18.82,18.82,0,0,0-6.51.67,20.38,20.38,0,0,0-13,9.92c-4.16,7.46-4,15,.51,22.25a20,20,0,0,0,14,9.43c8,1.38,14.75-1,20.16-7.1a22,22,0,0,0,4.7-9.57Z"/><path class="cls-10" d="M162.73,145.25a18.82,18.82,0,0,0-6.51.67,20.38,20.38,0,0,0-13,9.92c-4.16,7.46-4,15,.51,22.25a20,20,0,0,0,14,9.43c8,1.38,14.75-1,20.16-7.1a19.07,19.07,0,0,0,3.17-5,20.71,20.71,0,0,1-5.36-.93,21.12,21.12,0,0,1-9.23-5.89,20.74,20.74,0,0,1-4.24-6.88,21.67,21.67,0,0,1-1.37-8.44,15.5,15.5,0,0,1,.25-2.54,24.29,24.29,0,0,1,.59-2.63C162,147.16,162.45,146.23,162.73,145.25Z"/><path class="cls-11" d="M162.73,145.25c-.28,1-.69,1.91-1,2.88a24.29,24.29,0,0,0-.59,2.63,15.5,15.5,0,0,0-.25,2.54,21.67,21.67,0,0,0,1.37,8.44,20.74,20.74,0,0,0,4.24,6.88,21.12,21.12,0,0,0,9.23,5.89,20.71,20.71,0,0,0,5.36.93,19.06,19.06,0,0,0,1.53-4.59,19.93,19.93,0,0,0,.41-3.93,20.78,20.78,0,0,0-3.27-11.76,21.11,21.11,0,0,0-12.53-9.26A16,16,0,0,0,162.73,145.25Z"/><path class="cls-2" d="M118,226.43c-5-.37-6.45-3.94-7.08-8.13-.89-6,1.2-11.41,3.43-16.78,2.51-2.81,3.1-6.87,6.09-9.37,4.89,1.11,7.41-3,12-4.5-4.77-1.47-6.8,3.15-10.45,2.36l3.19-4.39c1.44-1.12,2.84-2.3,4.33-3.35s3.36-2.85,5.34-1.57.27,3.33.16,5.3c4.3-.08,8.58-.15,12.71,1.23,5,1.68,5.3,2.51,2,6.62,1.51,1.3,4.46,1.52,4.05,4.3-.5,3.41-3.89,3.06-6.22,4.06a11.33,11.33,0,0,1,1.5,3c.11.62-.72,2-1.1,2-5.1-.14-2.55,9.57-9.47,7.18-4.56-1.58-7.77-.11-10.17,4.57C126.21,222.8,122.17,225,118,226.43Zm21.69-18.78.45.15-.46-.13c-1.77-3.82-4.81-2.58-7.72-1.84C134.33,207,136.74,208.33,139.64,207.65Zm3-7c-2.64-2.79-5.6-3.15-9.6-1.44Z"/><path class="cls-3" d="M121.91,190c3.65.79,5.68-3.83,10.45-2.36-4.56,1.5-7.08,5.61-12,4.5A2.6,2.6,0,0,1,121.91,190Z"/><path class="cls-3" d="M139.64,207.65c-2.9.68-5.31-.61-7.73-1.82,2.91-.74,6-2,7.72,1.84Z"/><path class="cls-3" d="M142.62,200.68l-9.6-1.44C137,197.53,140,197.89,142.62,200.68Z"/><path class="cls-2" d="M120.77,225.43q-6.57,6.31-12.62,11.68H61.67c.35.24.69.49,1,.76-.35-.27-.7-.52-1.07-.76H58.84l1.67-.73.85-.38c1.52-.68,3.08-1.38,4.67-2.13,19.53-9,43.61-21.4,47.18-23.26l.45-.22.19.41Z"/><path class="cls-2" d="M4.73,217.29,6.1,237.11H0a157.14,157.14,0,0,1,3.61-16.19C4.28,218.59,4.73,217.29,4.73,217.29Z"/><path class="cls-12" d="M100.26,32.79l-.13-1.73c-.4-3.58.8-7.5,4.11-11.48,3-3.52,4.65-6.11,4.65-9.09,0-3.39-2.12-5.65-6.31-5.71a11.8,11.8,0,0,0-6.7,2.06L94.29,2.66A17.33,17.33,0,0,1,103.78,0c7.63,0,11.08,4.71,11.08,9.76,0,4.51-2.52,7.76-5.71,11.54-2.92,3.45-4,6.38-3.78,9.76l.07,1.73ZM98.8,42.08a3.92,3.92,0,0,1,4-4.18,3.87,3.87,0,0,1,3.92,4.18,4,4,0,1,1-7.9,0Z"/><path class="cls-12" d="M168.92,109.1l-.13-1.72c-.4-3.59.8-7.5,4.12-11.48,3-3.52,4.64-6.11,4.64-9.1,0-3.38-2.12-5.64-6.3-5.7a11.82,11.82,0,0,0-6.71,2.05L163,79a17.41,17.41,0,0,1,9.49-2.65c7.63,0,11.09,4.71,11.09,9.75,0,4.52-2.53,7.77-5.71,11.55-2.92,3.45-4,6.37-3.79,9.76l.07,1.72Zm-1.46,9.29a3.93,3.93,0,0,1,4-4.18,4.15,4.15,0,1,1-4,4.18Z"/><path class="cls-12" d="M12.91,75.37l-.13-1.72c-.4-3.59.8-7.5,4.11-11.49,3-3.51,4.65-6.1,4.65-9.09,0-3.38-2.12-5.64-6.31-5.71a11.82,11.82,0,0,0-6.7,2.06L6.94,45.24a17.41,17.41,0,0,1,9.49-2.65c7.63,0,11.08,4.71,11.08,9.75,0,4.51-2.52,7.77-5.71,11.55-2.91,3.45-4,6.37-3.78,9.76l.07,1.72Zm-1.46,9.29a3.93,3.93,0,0,1,4-4.18,4.16,4.16,0,1,1-4,4.18Z"/></g></g></svg>