<svg xmlns="http://www.w3.org/2000/svg" viewBox="0 0 623.56 223.43"><defs><style>.cls-1{fill:#677db5;}.cls-2{fill:#dde4ec;}.cls-3{fill:#b4bccf;}.cls-4{fill:#733e26;}.cls-5{fill:#ffe2c9;}.cls-6{fill:#060606;}.cls-7{fill:#6b2a12;}.cls-8{fill:#df807b;}.cls-9{fill:#b55239;}.cls-10{fill:#2c222b;}.cls-11{fill:#fff;}.cls-12{fill:#d4e4f1;}.cls-13{fill:#53bbe8;}.cls-14{fill:#fefefe;}.cls-15,.cls-23,.cls-65{fill:none;stroke-miterlimit:10;}.cls-15{stroke:#6b2a12;}.cls-16{fill:#ba5c1c;}.cls-17{fill:#b27246;}.cls-18{fill:#c28155;}.cls-19{fill:#65c8d0;}.cls-20{fill:#5774b3;}.cls-21{fill:#4e659a;}.cls-22{fill:#4d2f1f;}.cls-23{stroke:#4a4662;stroke-width:2px;}.cls-24{fill:#f6d532;}.cls-25{fill:#f4d438;}.cls-26{fill:#e6b241;}.cls-27{fill:#b3653e;}.cls-28{fill:#eca816;}.cls-29{fill:#fed200;}.cls-30{fill:#904126;}.cls-31{fill:#b4653e;}.cls-32{fill:#e5b141;}.cls-33{fill:#fdf9c6;}.cls-34{fill:#f6d73d;}.cls-35{fill:#f7d83d;}.cls-36{fill:#fef8be;}.cls-37{fill:#f5d432;}.cls-38{fill:#f5d73e;}.cls-39{fill:#e8b649;}.cls-40{fill:#fdefc3;}.cls-41{fill:#f7e281;}.cls-42{fill:#fdfdfc;}.cls-43{fill:#fdfcfc;}.cls-44{fill:#fdfcfb;}.cls-45{fill:#fcf6f2;}.cls-46{fill:#f5cb2e;}.cls-47{fill:#97500d;}.cls-48{fill:#b2633e;}.cls-49{fill:#f7c319;}.cls-50{fill:#2c73b6;}.cls-51{fill:#eaa389;}.cls-52{fill:#fdaf94;}.cls-53{fill:#f4b0b0;}.cls-54{fill:#fcd1b1;}.cls-55{fill:#b3ac8f;}.cls-56{fill:#d4cca8;}.cls-57{fill:#f5f0dd;}.cls-58{fill:#e3dbb6;}.cls-59{fill:#90b164;}.cls-60{fill:#3e4f6b;}.cls-61{fill:#165185;}.cls-62{fill:#36465e;}.cls-63{fill:#2e3a4c;}.cls-64{fill:#6b7f4b;}.cls-65{stroke:#6b7f4b;}.cls-66{fill:#63629c;}.cls-67{fill:#fbb4ab;}.cls-68{fill:#abc757;}.cls-69{fill:#7c74b1;}.cls-70{fill:#716ca8;}.cls-71{fill:#f8b4b0;}.cls-72{fill:#52518b;}.cls-73{fill:#9b504c;}.cls-74{fill:#796ca1;}.cls-75{fill:#c16966;}.cls-76{fill:#ed9490;}.cls-77{fill:#81a258;}.cls-78{fill:#4a4662;}.cls-79{fill:#e8b894;}.cls-80{fill:#6a4e42;}.cls-81{fill:#dd9e73;}.cls-82{fill:#d89261;}.cls-83{fill:#db6c6a;}.cls-84{fill:#dda687;}.cls-85{fill:#f0c69c;}.cls-86{fill:#f8f7fa;}.cls-87{fill:#f6d3ab;}.cls-88{fill:#f0eff4;}.cls-89{fill:#5d2d23;}.cls-90{fill:#6a3329;}.cls-91{fill:#e2af8d;}</style></defs><g id="Layer_2" data-name="Layer 2"><g id="together"><path class="cls-1" d="M385.76,205.47l-13.08-8.08-5.4-3.28c.16,3.16.21,6.08.45,9,.45,5.45.57,10.92,1.23,16.36.09.77.19,1.55.28,2.32h-46c-.05-3.08-.09-6.17-.12-9.25-.1-10.12-.15-20.25.1-30.37.21-8.3.12-16.6.42-24.9.09-2.46.15-4.89,1.36-7.12.38-.67.68-1.37,1.09-2a35.1,35.1,0,0,0,3.51-6.88,41.35,41.35,0,0,0,1.79-7.66,10.81,10.81,0,0,1,5.05,3.26,3,3,0,0,0,2.64,1,43.3,43.3,0,0,1,11.42.61,16,16,0,0,0,.22,6.79,23.24,23.24,0,0,1,.54,4.47,2.74,2.74,0,0,1-1,2.63h0a2.83,2.83,0,0,1-.28.2,2.6,2.6,0,0,1-.44.23c-.16.07-.33.13-.51.19-3.1,1-6.19,2-9.35,2.78-3.37.81-5.06,5.44-3.26,6.95,1.14,1,.77,1.64,0,2.57-1.57,1.88-1.42,3.43.49,5,.87.71.64,1.4.33,2.2-1.14,3-.57,4.19,2.45,5.15.72.23,1,.51,1,1.27-.17,2.06.27,2.72,2.19,3.46a18,18,0,0,0,6.08,1c5.52.14,11,.35,16.35-1.78a4.17,4.17,0,0,1,4.89,1c1.55,1.58,3.09,3.17,4.67,4.72,3.13,3.06,5.94,6.42,8.91,9.62a12.32,12.32,0,0,0,1.24,6C385.37,203.6,386.35,204.37,385.76,205.47Z"/><path class="cls-1" d="M311.49,155.86c0-.34-.06-.68-.1-1s-.08-.67-.14-1a20.29,20.29,0,0,0-.73-3l-.52-.95c-.4-.74-.79-1.48-1.15-2.24-.22-.44-.43-.89-.62-1.34A31.22,31.22,0,0,1,307,143c-.41-1.3-.78-2.61-1.06-4a19.54,19.54,0,0,1-.45-4.52c0-.19,0-.38,0-.56h-.34l-.54.31a18,18,0,0,0-5.41,5.44,3.45,3.45,0,0,1-2.26,1.5,46.27,46.27,0,0,0-9.41,2.94c-9.84,4.5-16.52,12.2-21.65,21.43-5.37,9.66-8.62,20.09-11,30.84a48.26,48.26,0,0,1,16.68,1.89c.75.25,1.08.49,1.11,1.33.16,3.89.43,7.78.58,11.67.13,3.5.19,7,.3,10.5h37.29q0-18.47.12-36.93c.05-7.21.33-14.41.52-21.61,0-1.79.11-3.58.08-5.35C311.58,157.21,311.55,156.54,311.49,155.86Zm-2.39,56.8a2,2,0,0,1-1.9,1.21c-1.18-.16-2.3-.48-2.28-1.91,0-1.23.87-1.82,2.11-1.83a3.25,3.25,0,0,1,.85.1l.21.07a1.59,1.59,0,0,1,.71.5.62.62,0,0,1,.12.19,1.35,1.35,0,0,1,.21.49,2.79,2.79,0,0,1,.06.43,2.07,2.07,0,0,1,0,.57A1.21,1.21,0,0,1,309.1,212.66Zm-.46-24.58a2,2,0,0,1-.73.25,3.11,3.11,0,0,1-.69,0,1.63,1.63,0,0,1-2-1.84c0-1.26.83-1.82,2.08-1.87a1.82,1.82,0,0,1,2.14,1.81A1.71,1.71,0,0,1,308.64,188.08Zm1.07-22.2a1.18,1.18,0,0,1-.27.23,2,2,0,0,1-.32.18h0a2.44,2.44,0,0,1-.56.17h0l-.42,0a2.05,2.05,0,0,1-1.57-.45,1.88,1.88,0,0,1-.54-.91,2.71,2.71,0,0,1-.09-.41,1.73,1.73,0,0,1,0-.69.42.42,0,0,1,0-.16,1.41,1.41,0,0,1,.26-.42,3.09,3.09,0,0,1,2.14-.67,1.22,1.22,0,0,1,1.38.36c.05.08.1.16.14.24a1.56,1.56,0,0,1,.15.41,3.83,3.83,0,0,1,.1.59,2,2,0,0,1-.08.87A1.52,1.52,0,0,1,309.71,165.88Z"/><path class="cls-2" d="M323.21,182.16c-.25,10.12-.2,20.25-.1,30.37,0,3.08.07,6.17.12,9.25H310.87q0-18.47.12-36.93c.05-7.21.33-14.41.52-21.61,0-1.79.11-3.58.08-5.35,0-.68,0-1.35-.1-2,0-.34-.06-.68-.1-1a19.63,19.63,0,0,0-.86-4,31.58,31.58,0,0,0,6.15.08c2.78-.15,5.52-.71,8.31-.76-1.21,2.23-1.27,4.66-1.36,7.12C323.33,165.56,323.42,173.86,323.21,182.16Z"/><path class="cls-3" d="M273.58,221.78H248c.14-2.89.35-5.79.59-8.67.34-3.88.9-7.74,1.22-11.62.27-3.33.89-4.16,4.16-4.8a8.2,8.2,0,0,0,1-.3,48.26,48.26,0,0,1,16.68,1.89c.75.25,1.08.49,1.11,1.33.16,3.89.43,7.78.58,11.67C273.41,214.78,273.47,218.28,273.58,221.78Z"/><path class="cls-1" d="M415,181c-.73.17-1.26-.31-1.86-.56-2.22-.95-4.36-2.13-6.88-2.14-.23-.34-.59-.3-.93-.3-7.54-3.34-15.53-5.53-23-8.93-7.19-3.24-13.59-7.48-18-14.27-.92-1.4-1.9-2.76-2.82-4.15a25.43,25.43,0,0,1-3.23-6.18,11.12,11.12,0,0,1-.64-4.34V140a57.48,57.48,0,0,1,6,2A89.91,89.91,0,0,1,378,149.34a163.6,163.6,0,0,1,30.27,24.43A61.68,61.68,0,0,1,415,181Z"/><path class="cls-4" d="M305.47,133.93a55,55,0,0,0,22.1-.27,12.4,12.4,0,0,1,3.4-.75.83.83,0,0,1,.41.67,40.68,40.68,0,0,1-1.8,7.65,34.52,34.52,0,0,1-3.5,6.88c-.41.67-.71,1.37-1.1,2-2.78.06-5.52.61-8.3.76a30.92,30.92,0,0,1-6.16-.08A41.41,41.41,0,0,1,307,143,24.93,24.93,0,0,1,305.47,133.93Z"/><path class="cls-3" d="M415,181h0Z"/><path class="cls-3" d="M422.73,209.39c0-.23.1-.46.13-.69a13.94,13.94,0,0,1-.82,4.54c-4.92,4-10.82,4.72-17.23,3.51a33.6,33.6,0,0,1-12-4.84,19.19,19.19,0,0,1-6-5.59,4.75,4.75,0,0,0-1-.85,1.38,1.38,0,0,0,.06-1.23,2.52,2.52,0,0,0-.25-.49c0-.08-.1-.16-.15-.24s-.21-.31-.3-.46a2.53,2.53,0,0,1-.12-.23,12.32,12.32,0,0,1-1.24-6c2,2.47,4.12,4.87,6,7.42l.46.6c.31.4.62.78.95,1.15s.66.73,1,1.08a13.45,13.45,0,0,0,1.74,1.42,26.13,26.13,0,0,0,15.83,4.64,54,54,0,0,0,10.57-1.28,3.45,3.45,0,0,0,1.27-.56A2.16,2.16,0,0,0,422,211,3.32,3.32,0,0,0,422.73,209.39Z"/><path class="cls-3" d="M422.87,189.05v10.17a12.92,12.92,0,0,0-2.2-3.92,2.35,2.35,0,0,1-.19-.25,7.51,7.51,0,0,1-.88-1.83c-.25-.73-.45-1.46-.76-2.15a28,28,0,0,0-2.06-3.84c-.38-.6-.78-1.18-1.21-1.73a20.73,20.73,0,0,0-4.5-4.32c-.58-.4-1.19-.78-1.82-1.13a20.51,20.51,0,0,0-2-1,2.48,2.48,0,0,1-.54-.27.92.92,0,0,1-.38-.4l-.06-.17c2.51,0,4.66,1.19,6.89,2.14.58.25,1.11.72,1.83.56-.07.5.23.66.67.68A49,49,0,0,1,422.87,189.05Z"/><path class="cls-1" d="M415.65,181.63c-.44,0-.73-.18-.67-.69A.8.8,0,0,1,415.65,181.63Z"/><path class="cls-3" d="M308.38,162.8c1.37-.33,1.69.7,1.78,1.61.14,1.36-.79,2-2,2.11a1.88,1.88,0,0,1-2.2-1.78C305.75,163.48,306.55,162.89,308.38,162.8Z"/><path class="cls-3" d="M307.21,188.35a1.62,1.62,0,0,1-2-1.83c0-1.27.83-1.83,2.07-1.88a1.82,1.82,0,0,1,2.15,1.81C309.48,187.73,308.62,188.45,307.21,188.35Z"/><path class="cls-3" d="M307.2,213.87c-1.18-.16-2.31-.48-2.28-1.9,0-1.24.87-1.83,2.11-1.84s2.09.54,2.16,1.78S308.38,213.74,307.2,213.87Z"/><path class="cls-3" d="M405.34,178c.34,0,.69,0,.92.3C405.92,178.26,405.53,178.39,405.34,178Z"/><rect class="cls-4" x="265.77" y="58.55" width="85.76" height="49.21"/><path class="cls-5" d="M341.49,114.84s-7.43,13.15-20.87,17.34-42.14-10.64-46.21-20.82l41.48,10.77Z"/><path class="cls-4" d="M343.82,102.75c-.07-.41-.15-.82-.23-1.23v0c-.73-4-1.58-7.9-2-11.9,0,0,0,0,0,0,0-1.75.07-3.49,0-5.23a54,54,0,0,0-1.88-14.44.22.22,0,0,0-.11-.12.12.12,0,0,0-.07-.05,54.62,54.62,0,0,0-8.48-1.62,80.87,80.87,0,0,0-23.21,1.11c-6,1-12.13,2.2-17.74,4.89-.33.16-.66.32-1,.49a.24.24,0,0,0-.09.08.21.21,0,0,0,0,.19c.05.22.1.45.16.67,1.08,4.94,1.22,9.77-2.25,14-.81,1-1.79,1.88-2.51,2.92a5.27,5.27,0,0,0-.93,2.25s0,.06,0,.09a4.48,4.48,0,0,0-.05.64,1.94,1.94,0,0,1-.25.88,2.55,2.55,0,0,1-2,1.29c-1.19.1-1.74-.73-2.11-1.6s-.75-1.91-1.11-3-.7-2.27-.91-3.15c-.94-3.83-3.76-5.51-8.6-5.1a5.63,5.63,0,0,0-2.61.8c-1.81,1.11-2.32,3.21-2.21,5.45a21.1,21.1,0,0,0,2.21,8.84,15.33,15.33,0,0,0,6.24,6.34,5.55,5.55,0,0,1,1.89,1.56,4.12,4.12,0,0,1,.49,3.45v.07a0,0,0,0,0,0,0v0s0,0,0,0a19,19,0,0,0,4.44,5.7,21.21,21.21,0,0,0,3.84,2.66c.44.24.88.46,1.34.67a29.84,29.84,0,0,0,3.91,1.49l.25.08h0a88.84,88.84,0,0,0,11.63,2.71,73.41,73.41,0,0,0,8.19.87,62,62,0,0,0,25.45-4.05l.13-.06a16.14,16.14,0,0,0,7.53-6,4.73,4.73,0,0,0,.35-.56h0c.29-.46.56-.93.8-1.41a16.68,16.68,0,0,0,1-2.4,15.85,15.85,0,0,0,.71-3.28A17.16,17.16,0,0,0,343.82,102.75ZM297.54,86.08c.62.09,1.23.16,1.84.19l.7,0a10.12,10.12,0,0,0,1.83-.16l.39-.08a4.61,4.61,0,0,0,.53-.15l.43-.15a3.25,3.25,0,0,0,.43-.18,2.1,2.1,0,0,0,.3-.15,2.82,2.82,0,0,0,.38-.21l.43-.28.09-.07c.17-.12.34-.26.51-.4s.23-.21.34-.32l.11-.1.37-.4c.1-.12.21-.25.31-.39a3.79,3.79,0,0,0,.3-.4c.14-.19.27-.39.4-.6s.25-.41.37-.63l0,0a.24.24,0,0,1,.45,0,.19.19,0,0,0,0,.08,4.53,4.53,0,0,1,.06.5,1.33,1.33,0,0,1,0,.28,4.38,4.38,0,0,1-1.93,4.29,7.16,7.16,0,0,1-.66.39,7.61,7.61,0,0,1-.93.39l-.15.06a12.59,12.59,0,0,1-5.2.84l-.39,0-.38-.07-.52-.13s0,0,0,0H298l-.34-.11a5,5,0,0,1-.68-.3,2.21,2.21,0,0,1-.34-.18c-.15-.09-.31-.18-.46-.29l-.51-.39a7.92,7.92,0,0,1-.93-.91.24.24,0,0,1,.18-.4l1.36.25c.33.06.66.12,1,.16Zm40.39,7.68,0,0-.22.09-.4.16-.57.21c-.26.09-.52.18-.78.25l-.51.14-.28.07-.55.13-.75.13c-.29.05-.57.09-.85.11s-.44,0-.66.05a24.57,24.57,0,0,1-7.57-.92c-.86-.21-1.64-.65-1.57-1.68A1.68,1.68,0,0,1,324.94,91a26.68,26.68,0,0,1,3-.09l1,0,.23,0c.22,0,.43,0,.65.06.43,0,.87.11,1.3.18l.47.08c.51.09,1,.2,1.52.33l.67.18.28.08.71.22c.24.07.47.15.71.24l.39.14.64.24c.47.19.95.39,1.44.61A.25.25,0,0,1,337.93,93.76Zm-18.46,12.57a.24.24,0,0,0-.17.27,3.46,3.46,0,0,1,0,1.15.49.49,0,0,1,0,.12,4.26,4.26,0,0,1-.13.62,2.83,2.83,0,0,1-.14.41,4.4,4.4,0,0,1-.21.5c-.07.15-.14.3-.22.45s-.22.38-.34.57a.56.56,0,0,1-.05.08l-.34.56a.24.24,0,0,0,.17.31c2.83.63,6.39-.92,9.13,3.1a.24.24,0,0,1-.28.35,17.53,17.53,0,0,0-3.05-.74,18.38,18.38,0,0,0-9.72,1.3.23.23,0,0,1-.3-.32h0a3.87,3.87,0,0,1,1-1.36c.25-.25.5-.47.72-.69a1.71,1.71,0,0,0,.55-1.5.27.27,0,0,0-.06-.12q-.19-.25-.36-.51a1.91,1.91,0,0,1-.16-.27.81.81,0,0,1-.1-.18h0a1.71,1.71,0,0,1-.12-.23,4.79,4.79,0,0,1-.44-1.25,2,2,0,0,1-.06-.35,4.7,4.7,0,0,1,0-.84,4.22,4.22,0,0,1,.21-1.07,7,7,0,0,1,.74-1.59c1-1.58,1.84-.94,2.84-.57l.13,0h.07l.1,0c.27-.09.53-.19.77-.29a4.48,4.48,0,0,0,.44-.2l.34-.18q.31-.18.57-.36l.3-.24.23-.22c1.27-1.31,1.11-3.1-.33-5.5A40.09,40.09,0,0,1,318,90.24c0-.12-.09-.24-.13-.37a5.26,5.26,0,0,1-.18-.6,2.13,2.13,0,0,1,0-1.25.91.91,0,0,1,.09-.17.08.08,0,0,1,0,0l.14-.18a.77.77,0,0,1,.18-.18,1.37,1.37,0,0,1,.23-.17,1.75,1.75,0,0,1,.27-.16.24.24,0,0,1,.33.12c.38.86.76,1.71,1.13,2.56q1.11,2.53,2.23,5l1.17,2.57a8.21,8.21,0,0,1,1,4.86,4.37,4.37,0,0,1-.17.62c0,.06-.05.13-.08.19a4.38,4.38,0,0,1-1.66,1.9l-.24.16-.28.16a10.13,10.13,0,0,1-1.14.54l-.44.16a.16.16,0,0,1-.09,0C320.14,106.13,319.82,106.23,319.47,106.33ZM336.2,84.66a8.8,8.8,0,0,1-2.3,2.3l-.33.19a5.08,5.08,0,0,1-1.31.53,2,2,0,0,1-.33.09,5.07,5.07,0,0,1-1,.11h-.1q-.3,0-.6,0a5.21,5.21,0,0,1-.55-.08l-.52-.12-.33-.09a4.75,4.75,0,0,1-.49-.17,4.22,4.22,0,0,1-.45-.18,2.41,2.41,0,0,1-.33-.15,11.43,11.43,0,0,1-1.22-.67.24.24,0,0,1,.12-.43c.6,0,1.2,0,1.8,0l.49,0,1.1-.08c.35,0,.71-.08,1.07-.13l1.07-.18.27-.05.53-.12.3-.08c.37-.09.74-.19,1.11-.31l1.13-.39.57-.22A.25.25,0,0,1,336.2,84.66Zm-.76-5.94a2.31,2.31,0,0,1-.4.75l-.18.19a2.69,2.69,0,0,1-1.36.61l-.32.06c-.44.06-.9.09-1.35.14l-.69-.16a16.54,16.54,0,0,1-2.26-.72,11.3,11.3,0,0,1-3.71-2.35c-.15-.14-.29-.29-.44-.45a10.59,10.59,0,0,1-1.2-1.58c-.53-.86-1-1.82-.18-2.74.94-1.12,2.09-.77,3-.06a19.92,19.92,0,0,0,6.76,3.43C334.51,76.21,336.06,76.82,335.44,78.72Zm-44,15.33c1.39-1.38,12.43-2.55,14.22-1.54.73.41,1.62.76,1.46,1.79a1.91,1.91,0,0,1-1.88,1.41c-2.23.25-4.47.29-6.7.41a1.09,1.09,0,0,1,0-.18c-2.1,0-4.21,0-6.31,0-.56,0-1.19-.14-1.25-.83A1.54,1.54,0,0,1,291.46,94.05Zm12.61-21.13a2,2,0,0,1,2.85,0l.15.16a2,2,0,0,1-.22,2.7c-2.16,2.71-4.64,4.92-8.17,5-1.63,0-3.27.12-3.72-1.63s1-2.39,2.41-2.75a17.79,17.79,0,0,0,6.26-3.12ZM271.54,99c1.38-3.67-1.67-6-2.29-8.93-.12-.14-.23-.28-.34-.43l.45.32c3.86,1.3,5.59,4.44,6.59,8,.37,1.34,0,3.14-1.53,3.43S271.24,99.83,271.54,99Z"/><path class="cls-6" d="M331.82,80.47c1.48-.16,3.09-.12,3.62-1.75.61-1.9-.94-2.51-2.3-2.88a19.74,19.74,0,0,1-6.76-3.43c-.95-.71-2.1-1.06-3,.06-.78.92-.35,1.88.19,2.75C325.46,78.32,328.44,79.76,331.82,80.47Z"/><path class="cls-6" d="M298.67,80.76c3.53-.05,6-2.26,8.18-5a2,2,0,1,0-2.78-2.87,18.44,18.44,0,0,1-6.7,3.45c-1.45.36-2.89.9-2.41,2.76S297.05,80.7,298.67,80.76Z"/><path class="cls-4" d="M298.55,96.12c2.24-.12,4.48-.16,6.7-.4a1.92,1.92,0,0,0,1.88-1.42c.16-1-.73-1.38-1.45-1.79-1.79-1-12.84.16-14.22,1.54a1.57,1.57,0,0,0-.48,1c.06.69.7.83,1.25.83,2.11,0,4.21,0,6.32,0Z"/><path class="cls-4" d="M338.41,93.56A25.23,25.23,0,0,0,324.94,91a1.69,1.69,0,0,0-1.74,1.53c-.08,1,.7,1.47,1.56,1.68C329,95.25,333.31,95.92,338.41,93.56Z"/><path class="cls-7" d="M319.25,106.39c5.3-1.43,6.55-4.1,4.3-9C322,94,320.47,90.52,318.92,87c-1.86.76-1.25,2.22-.89,3.23a39.79,39.79,0,0,0,3.15,7.34c2.11,3.51,1.47,5.73-2.41,7C318.94,105.19,319.09,105.79,319.25,106.39Z"/><path class="cls-4" d="M294.27,85.5c2.89,3.77,6.6,3.38,10.22,2.13,2.43-.84,4.42-2.49,3.44-6.64C304.61,87.74,299.49,86.49,294.27,85.5Z"/><path class="cls-7" d="M269.24,90.09c.62,3,3.68,5.26,2.3,8.94-.31.81,1.39,2.7,2.87,2.42s1.91-2.1,1.53-3.44c-1-3.59-2.72-6.73-6.59-8Z"/><path class="cls-4" d="M316.07,111.43l1.67-.14c.95-1.5,2-3,1.51-4.9-.16-.6-.31-1.2-.48-1.8-1.09-.33-2-1.2-3.06.5A5,5,0,0,0,316.07,111.43Z"/><path class="cls-4" d="M325.62,85.93c4.41,3.1,8.21,2.54,11-1.88A22.9,22.9,0,0,1,325.62,85.93Z"/><path class="cls-8" d="M269.35,90l-.45-.33.34.43Z"/><path class="cls-4" d="M289,74.67c19.86-29.45,50.71-4.92,50.71-4.92Z"/><path class="cls-9" d="M283.47,94.73s-1.92,9.39-1.54,12.41-4.44-5.26-4-14.13S283.47,94.73,283.47,94.73Z"/><circle class="cls-10" cx="328.37" cy="84.9" r="3.91"/><circle class="cls-10" cx="301.13" cy="85.88" r="3.91"/><ellipse class="cls-11" cx="329.25" cy="84.05" rx="0.91" ry="1.16" transform="translate(103.35 337.9) rotate(-62.65)"/><ellipse class="cls-11" cx="301.94" cy="84.75" rx="0.91" ry="1.16" transform="translate(87.97 314.02) rotate(-62.65)"/><rect class="cls-4" x="309.81" y="110.42" width="18.56" height="6.18" transform="translate(638.19 227.03) rotate(-180)"/><path class="cls-7" d="M314.82,113.07c.3,1.76-1.87,1.94-2.39,4.13,4.46-1.78,8.7-2.44,13.87-.52-2.89-4.92-6.81-2.87-9.81-3.76Z"/><path class="cls-6" d="M345.73,107.75c-.09-2.41-.6-4.92-2.13-6.25a0,0,0,0,0,0,0l0,0v5.21s-.58.41-1.37,1.07l-.68.58a11.82,11.82,0,0,0-3.38,4.32c-.15.44-2.93-.27-2.93.11a35.65,35.65,0,0,0-7.76-5,19.23,19.23,0,0,0-7-1.73c-.41,0-.84,0-1.28,0a16.61,16.61,0,0,0-4.18.67,18.83,18.83,0,0,0-2.78,1.07,26.43,26.43,0,0,0-7.91,6.1h0a3.15,3.15,0,0,1-1.28.89s0,0,0,0c-.32.23-.69.5-1.09.81h0c-.4.31-.84.65-1.29,1s-.92.76-1.4,1.19a31.64,31.64,0,0,0-2.51,2.43c.07.11.13.22.2.32s.19.31.29.46c.24.38.5.76.76,1.13.59.87,1.23,1.71,1.9,2.53a42.9,42.9,0,0,0,4,4.29,43.83,43.83,0,0,0,3.44,2.93,38.1,38.1,0,0,0,4.26,2.85c.37.21.75.42,1.12.61a12.44,12.44,0,0,0,3.89,1.23,16.72,16.72,0,0,0,2,.2h.09a25,25,0,0,0,5.71-.49,26.47,26.47,0,0,0,3.56-.94s1.26-.88,3.12-2.41c4.42-3.64,12.17-11,14.23-19.09,0,0,.17-.86.32-2.14A28.37,28.37,0,0,0,345.73,107.75Zm-35.91,5.35a19.52,19.52,0,0,1,5.85-2.23h0a21,21,0,0,1,2.56-.37c.55,0,1.11-.08,1.68-.08a15.93,15.93,0,0,1,8.46,2.28,15,15,0,0,1,3.8,3.32,17.85,17.85,0,0,1-1,1.76c-1.4,2.21-4.19,5.77-7.77,6.06a11.47,11.47,0,0,1,.93-4.12,1.45,1.45,0,0,1,.74-.66c1.47-.43-7.53-3.69-10.86,0a15.06,15.06,0,0,1,1.84,3c.29.73.39,1.39,0,1.76-.63.65-3.83-1.06-6.23-3.28-1.59-1.46-2.83-3.16-2.75-4.54C307.16,115.16,308.18,114.08,309.82,113.1Z"/><path class="cls-6" d="M274.37,111.29s9,21.45,41.87,25.26S274.37,111.29,274.37,111.29Z"/><path class="cls-6" d="M282.92,97.65s-2.14,14.66,16.15,18.6-13.21,5.88-13.21,5.88l-11.49-10.84s7.05-6.18,6.64-11.88Z"/><path class="cls-6" d="M305.9,112.33s-4.83,7.15-13.21,2.35,6.6,8.71,6.6,8.71Z"/><path class="cls-6" d="M285.24,108.07c-1.56,3.05,4.28,7.19-.79,8.25-5.32,1.11-11.59,1.57-16.42-2.5-1.66-1.41-1.84-4.6-4.58-4.93-9.15-1.08-9.27-9.88-13.66-15.08-6.2-7.35-3.45-16.53-7.16-24.16-2.3-4.73,2.9-8.6,2-13.54-3.06-16.6,7.58-26.2,17.85-36.82,4.06-4.19,9.55-6.58,13-11.86,2.31-3.52,9.32-1.53,14.12-4.29,8.14-4.68,17.73-2,26.4-3C326.52-1,333.74,4.36,342.3,6.63c4.34,1.15,7.42,6.69,11.28,10,11.86,10.1,21.12,21,19.75,38.43-.32,4.1.8,9.12,1,13.9a31.63,31.63,0,0,1-10.37,25.41c-4.27,4-5.55,9.71-9.93,13.61-3.49,3.12-7.33,4.89-10.87,3-3.35-1.78-.6-5.36.23-8.45,4.13-15.38-10-38.65-25.18-42.1C307.84,58.07,292,68,287.73,78.31,283.66,88.24,283.61,98.19,285.24,108.07Z"/><path class="cls-1" d="M351.25,149.71a2.74,2.74,0,0,1-1,2.63h0s-11.31-13.82-6.19-14.59h0a21.25,21.25,0,0,1,6.43.57.69.69,0,0,0-.05.13,16,16,0,0,0,.22,6.79A23.24,23.24,0,0,1,351.25,149.71Z"/><path class="cls-1" d="M364.41,150.14l-3,.46a25.43,25.43,0,0,1-3.23-6.18,11.12,11.12,0,0,1-.64-4.34c3.39,1,6,1.88,6,1.88Z"/><polygon class="cls-1" points="357.57 140.08 349.13 137.88 354.49 161.08 377.93 156.78 357.57 140.08"/><path class="cls-12" d="M360.36,160.66c0-.21-.07-.43-.11-.64-.14-.75-.29-1.5-.43-2.25l-.51-2.89c-.15-.86-.31-1.71-.46-2.57-.08-.42-.15-.85-.23-1.27l-.24-1.34c-.18-1-.37-1.95-.54-2.92s-.32-1.84-.48-2.76-.36-1.92-.54-2.88c-.08-.44-.15-.87-.22-1.31-.11-.66-.22-1.32-.34-2-.25-1.34-.52-2.68-.77-4-.12-.67-.4-.86-1.05-.65l-10.77,3.5-3.46,1.12-7.31,2.37a1.9,1.9,0,0,0-.52.24.6.6,0,0,0-.21.88c.13.24.24.49.35.73.43.88.85,1.77,1.27,2.65s1,2,1.48,3.05.85,1.76,1.27,2.65,1,2,1.48,3c.39.82.79,1.65,1.19,2.47a1.3,1.3,0,0,0,.08.17l1.47,3.06c.43.88.85,1.76,1.27,2.64l1.28,2.64c.34.73.69,1.45,1,2.17s.65,1.34,1,2a2,2,0,0,0,1.91,1.22,15.83,15.83,0,0,0,3.19-.79l7.56-2.45a11.15,11.15,0,0,0,1.88-.82,1.81,1.81,0,0,0,1-1.86C360.8,162.78,360.53,161.73,360.36,160.66ZM337.8,146.82c-.72-1.37-1.31-2.79-2-4.15-.24-.44-.41-.92-.62-1.38-.09-.18-.11-.29.17-.35a15.83,15.83,0,0,0,1.57-.49,16.25,16.25,0,0,0,1.66-.59c.17-.09.25,0,.29.16s.13.35.18.54c.43,1.48,1,2.91,1.51,4.36.38,1.05.68,2.12,1.09,3.16.23.58.43,1.17.64,1.76.08.22,0,.32-.19.39q-.94.28-1.86.6a.33.33,0,0,1-.47-.17c-.17-.33-.37-.65-.52-1C338.77,148.7,338.28,147.75,337.8,146.82Zm20.14,16a2.58,2.58,0,0,1-1.29.9c-2.61.86-5.2,1.75-7.83,2.52-1.47.43-2.2.08-3.07-1.35-1.05-1.73-2-3.5-3-5.28-.74-1.37-1.46-2.74-2.18-4.13l-1.19-2.31c-.24-.47-.46-1-.7-1.43-.12-.23-.11-.36.19-.46,1-.33,1-.34,1.52.64.37.73.78,1.45,1.15,2.19a1.91,1.91,0,0,0,.34.44c.21.25.44.07.61-.08a2.85,2.85,0,0,1,.87-.59c.19-.08.21-.19.15-.36-.36-1-.62-2.1-1.07-3.09-.13-.29.05-.32.24-.38l4.73-1.54.22-.07,1.69-.54h0l1.75-.57.22-.07,4.63-1.51c.31-.1.41-.06.45.26.2,1.29.44,2.57.64,3.85.07.46.14.91.2,1.37.16,1.14.32,2.29.47,3.44.26,1.88.5,3.78.66,5.67,0,.14,0,.28,0,.42A2.86,2.86,0,0,1,357.94,162.86Z"/><path class="cls-13" d="M349.33,147.93c2.2-.71,4.4-1.42,6.6-2.15.3-.1.4-.06.45.27.2,1.28.44,2.56.63,3.84.24,1.6.46,3.21.68,4.81.27,2,.52,4.06.7,6.09a2.85,2.85,0,0,1-.45,2.07,2.61,2.61,0,0,1-1.3.9c-2.6.86-5.2,1.75-7.83,2.52-1.46.44-2.2.09-3.07-1.35-1-1.73-2-3.5-3-5.28-1.15-2.13-2.26-4.28-3.36-6.44-.25-.47-.46-1-.71-1.43-.11-.22-.11-.36.19-.46,1-.33,1-.34,1.52.64.38.74.78,1.46,1.16,2.19a1.67,1.67,0,0,0,.34.44c.2.25.44.07.61-.08a2.93,2.93,0,0,1,.86-.59.24.24,0,0,0,.16-.36c-.37-1-.62-2.09-1.07-3.09-.13-.29.05-.32.24-.38l4.94-1.6,1.7-.55Z"/><path class="cls-14" d="M336.87,140.45a13.63,13.63,0,0,0,1.67-.59c.16-.09.24,0,.29.16s.12.36.17.54c.43,1.48,1,2.92,1.52,4.36.38,1.05.67,2.12,1.09,3.16.23.58.43,1.17.64,1.76.07.22,0,.32-.2.39q-.93.28-1.86.6a.31.31,0,0,1-.46-.17c-.18-.33-.37-.65-.53-1-.44-1-.92-1.92-1.41-2.85-.71-1.37-1.31-2.79-2-4.15-.23-.44-.41-.92-.62-1.38-.08-.18-.11-.29.18-.35A15.72,15.72,0,0,0,336.87,140.45Z"/><path class="cls-4" d="M422.86,208.69h0c0,.23-.08.46-.13.69A3.32,3.32,0,0,1,422,211a2.13,2.13,0,0,1-.31.29,3.45,3.45,0,0,1-1.27.56,54,54,0,0,1-10.57,1.28A26.13,26.13,0,0,1,394,208.51a13.45,13.45,0,0,1-1.74-1.42c-.36-.35-.69-.7-1-1.08s-.64-.75-.95-1.15l-.46-.6c-1.91-2.55-4-4.95-6-7.42-3-3.2-5.78-6.56-8.91-9.62-1.58-1.55-3.12-3.14-4.67-4.72a4.17,4.17,0,0,0-4.89-1c-5.32,2.13-10.83,1.92-16.35,1.78a18,18,0,0,1-6.08-1c-1.92-.74-2.36-1.4-2.19-3.46.06-.76-.25-1-1-1.27-3-1-3.59-2.19-2.45-5.15.31-.8.54-1.49-.33-2.2-1.91-1.55-2.06-3.1-.49-5,.77-.93,1.14-1.61,0-2.57a2.86,2.86,0,0,1-.57-3c0-.12.07-.25.11-.38a5.81,5.81,0,0,1,.57-1.18l.2-.3a5.49,5.49,0,0,1,1.06-1.15,2.92,2.92,0,0,1,.28-.21,4.64,4.64,0,0,1,1.12-.6,4,4,0,0,1,.49-.15l.88-.22.3-.08q.93-.24,1.83-.51c.57-.16,1.13-.33,1.69-.51l4.65-1.46c.18-.06.35-.12.51-.19a3.39,3.39,0,0,0,.38-.2,2.88,2.88,0,0,0,.34-.23h0l2.1-.33,4.83-.75,1.4-.22,2.82-.44c.92,1.39,1.9,2.75,2.82,4.15.3.45.6.89.92,1.32s.46.63.71.94.5.63.76.93.46.52.69.78l.78.84c.81.83,1.65,1.62,2.53,2.37l.84.69c.89.7,1.81,1.37,2.75,2q.47.31.93.6c1,.62,2,1.2,3,1.75.3.17.61.33.92.49l.14.07,1,.5q1,.51,2.1,1c4.69,2.13,9.58,3.78,14.42,5.54l1.45.53.82.3,1.4.53.7.27,1.4.56c.68.27,1.36.56,2,.85l.27.12.54.23c.2.44.57.31.92.3a.87.87,0,0,0,.07.17.92.92,0,0,0,.38.4,3.82,3.82,0,0,0,.54.26c.35.15.69.3,1,.47l1,.5c.63.35,1.24.73,1.82,1.13a20.73,20.73,0,0,1,4.5,4.32c.42.55.83,1.13,1.21,1.73a28,28,0,0,1,2.06,3.84c.31.69.51,1.42.76,2.15,0,.16.11.31.17.47a7,7,0,0,0,.43.92c.08.15.18.29.28.44a.6.6,0,0,0,.09.13l.09.12a13.1,13.1,0,0,1,2.21,3.95Z"/><path class="cls-15" d="M289.57,99.87s6.69-2.15,11.84,11.42"/><path class="cls-15" d="M339.66,93a17.16,17.16,0,0,0-7.38,14.74"/><path class="cls-16" d="M213.61,101.16s.37-2.6-5.4-4.23"/><path class="cls-10" d="M191.64,25.49a21.89,21.89,0,0,0,2.29-.06c5.17-.37,23.5-.16,38.54,19,17.7,22.49,13.95,123.68,13.95,123.68H153.25s-7.12-84.95,8.17-115.32C174.56,26.61,188.1,25.34,191.64,25.49Z"/><path class="cls-17" d="M183.25,107.49s5.56,10.19,1.58,15.56,35.44,1.07,35.44,1.07-9.11-13.14-5.36-18S183.25,107.49,183.25,107.49Z"/><path class="cls-18" d="M232.44,87.24a17.48,17.48,0,0,1-10.64,19.33l-.14.05c-15.74,6.07-31.55,5.22-47.38.4-6.11-1.85-11.13-5.15-14.13-11,.53-2.39,0-4-2.45-5.31-6-3.38-8.46-9.19-8.78-15.8-.17-3.2.91-6.14,5-6.49,5.07-.43,8,1.33,9,5.37a45.11,45.11,0,0,0,1.88,5.84c.41,1,.93,2.3,2.4,2.18a2.51,2.51,0,0,0,2.38-2.26c.07-2.85,2.13-4.26,3.67-6.14a13.5,13.5,0,0,0,.82-1.14c2.74-4.15,2.54-8.75,1.5-13.44-.06-.31-.13-.61-.2-.91l.71-.36c6-3,12.47-4.21,18.93-5.34,11-1.92,22.13-2.49,33.13.57,2,6.75,2.14,13.68,2,20.63.24,2.12.58,4.23,1,6.33C231.49,82.24,232,84.74,232.44,87.24Z"/><path class="cls-18" d="M175.34,57.91c24.78-34.43,52.77-5.13,52.77-5.13"/><path class="cls-16" d="M153.37,72.84c.65,3.1,3.82,5.46,2.39,9.29-.32.84,1.45,2.81,3,2.52s2-2.19,1.59-3.58c-1-3.73-2.83-7-6.86-8.35Z"/><path class="cls-10" d="M163.51,76s-.75,14.45-4.77,23.56,12.6,13.64,12.6,13.64,10.39-23.48,4.79-50.87"/><path class="cls-16" d="M206.06,92c5.51-1.49,6.81-4.27,4.46-9.35-1.65-3.57-3.19-7.17-4.81-10.82-1.94.79-1.3,2.31-.93,3.36a41,41,0,0,0,3.28,7.63c2.2,3.66,1.53,6-2.5,7.3Z"/><path class="cls-16" d="M211.12,96.86c-.31,1.84,1.94,2,2.49,4.3-4.64-1.85-9.05-2.54-14.44-.54,2.64-4.5,6.12-3.4,9-3.69,1-.1.15-.31,1.11-.22Z"/><path class="cls-16" d="M201,100.73s3.49,3.34,11.15.51A15.84,15.84,0,0,0,201,100.73Z"/><path class="cls-18" d="M208,96.94s4.43,1.08,5.36,3.2S217,95.29,217,95.29h-8.32Z"/><path class="cls-19" d="M181.8,61.4l-.21-.19c-.05-.06-.07,0-.49-1a6.61,6.61,0,0,1-.53-2.33s-.87,2-1.29,3.21a2.49,2.49,0,0,0-.22.65.69.69,0,0,0,0,.13,3.24,3.24,0,0,0-.06.64c0,1.35.71,2.44,1.59,2.44s1.58-1.09,1.58-2.44v0A1.94,1.94,0,0,0,181.8,61.4Z"/><path class="cls-19" d="M184.48,72.67l-.21-.19s-.07,0-.49-1a6.55,6.55,0,0,1-.53-2.32s-.86,2-1.29,3.21a3,3,0,0,0-.22.64.83.83,0,0,0,0,.13,3.39,3.39,0,0,0-.06.64c0,1.35.71,2.45,1.59,2.45s1.58-1.1,1.58-2.45v0A1.94,1.94,0,0,0,184.48,72.67Z"/><path class="cls-10" d="M187.33,68.15a25.31,25.31,0,0,0,11.3-2.58c.9-.42,1.37-.94.31-1.41a6.19,6.19,0,0,0-4.15-.08,49.88,49.88,0,0,1-9.26,1.79c-2,.19-4,.47-3.33,1.43S185.09,68.12,187.33,68.15Z"/><path class="cls-10" d="M220.86,63.64a25.42,25.42,0,0,1-11.59.24c-1-.19-1.56-.58-.64-1.29a6.17,6.17,0,0,1,4-1.09,50.12,50.12,0,0,0,9.41-.52c2-.3,4-.51,3.59.58S223,63.06,220.86,63.64Z"/><circle class="cls-10" cx="192.39" cy="73.58" r="3.11"/><ellipse class="cls-11" cx="192.05" cy="72.91" rx="0.79" ry="0.62" transform="translate(-12.03 96.36) rotate(-27.35)"/><circle class="cls-10" cx="217.19" cy="71.23" r="3.11"/><ellipse class="cls-11" cx="216.21" cy="70.77" rx="0.79" ry="0.62" transform="translate(-8.35 107.22) rotate(-27.35)"/><path class="cls-10" d="M152.39,97.92s-10.54,102-17.26,112.71l30.6,4.25,4.51-98.22Z"/><path class="cls-10" d="M246.47,214.88l1.12-.13,24.34-3-8.62-15.36H240.64Z"/><path class="cls-20" d="M242.71,222H178c-1.35-4.12-4.33-7.2-6.72-10.67-4.42-6.42-8.27-12.87-9.16-21.15-.94-8.75,1.37-16.73,3.06-24.94.42-2,1.13-3.95-.5-5.75.2-5.92,2.31-11.57,2.23-17.55-.1-8.84,0-8.84,8.84-10.25a24.34,24.34,0,0,0,2.29,11.11h0c1.14,2.59.08,6.12,3.31,7.83h0c.81,6.39,5.39,11.12,10.09,13.48,8.33,4.17,17.74,5.42,27,1.5,1.9-.8,3.32-1.49,3-3.82,8.64-3,12.57-8.92,12.52-18.18,0-8.11,2.89-10.82,9.83-10.83,0,6,0,12.06,0,18.09,0,1.75-.5,3.86,2.21,4.23.29.38-.5,1.52.82,1.18l-.83-1.17,0-22.28a1.51,1.51,0,0,1,.52-.17c.14,0,.37.16.39.27.84,6.33-.7,12.77,1.08,19.09a9.41,9.41,0,0,1-.79,7.49c-2.4,3.36-.11,6.14,1.14,9l1.11,4.31a5.94,5.94,0,0,0,2.2,4.61v4.31c.29,14.31-6.28,24.49-19.91,30.59,4.28,1.73,8-1.49,10.14.55S242.41,218.89,242.71,222Z"/><path class="cls-18" d="M165.53,130.89l0,22.19,0,7.63V164l-1.77-.26-2-.3-.57-.08q.07.48.18.93a15.44,15.44,0,0,1-1.15,1.94c-1.72,6.65-4.31,13.09-4.75,20,0,1.13,0,2.26,0,3.39.15.8.29,1.59.42,2.39-11.73-10.84-16.63-28.47-16.63-28.47a116.6,116.6,0,0,1,1-24.18C142.09,126,165.53,130.89,165.53,130.89Z"/><path class="cls-21" d="M164.1,170.35a12.94,12.94,0,0,1-1.63-2.68c.45-1.3.87-2.61,1.24-3.93a40.75,40.75,0,0,0,1-4.27,3.72,3.72,0,0,1,.77,1.24,5.52,5.52,0,0,1,0,3.27v0c-.09.4-.19.8-.27,1.21C164.86,166.93,164.48,168.64,164.1,170.35Z"/><path class="cls-21" d="M162.42,222c.33-4.41-1.92-8.63-.92-13.08a7.32,7.32,0,0,0-.34-5.25,53.2,53.2,0,0,1-2.68-9.38,31.63,31.63,0,0,0,5.36,3.33,57.78,57.78,0,0,0,7.47,13.7c2.39,3.47,5.37,6.56,6.72,10.68Z"/><path class="cls-21" d="M161.56,164.44c1.47,5.64,5.9,10,6.6,16a10.18,10.18,0,0,0,2.61,6.42,73.5,73.5,0,0,1,7.11,10.66,39.29,39.29,0,0,0-7.71-2c-4.11-5.51-9.19-9.89-14.55-14.15-4.27-3.39-9.08-6.07-12.4-10.68Z"/><path class="cls-21" d="M242.71,222c-.3-3.09,1.38-7-.81-9.08s-5.86,1.18-10.14-.55c13.63-6.1,20.2-16.28,19.91-30.58,4,1.68,2.1,4.92,1.72,7.5-.84,5.69-3.12,11.26-.88,17.1-2.74,4.94-2.24,10.29-2,15.61Z"/><path class="cls-21" d="M161.16,203.65a7.32,7.32,0,0,1,.34,5.25c-1.68-1.62-2-3.88-2.8-5.93-1.61-3.48-2.22-7.21-2.86-10.93.84.78,1.72,1.53,2.64,2.23A53.2,53.2,0,0,0,161.16,203.65Z"/><path class="cls-21" d="M255.09,201.76c-1.69,1.07-1.49,3.2-2.58,4.61-2.24-5.84,0-11.42.88-17.1.38-2.58,2.31-5.82-1.72-7.51v-4.32c1.76-2.73.11-3.83-2.2-4.61l-1.11-4.31c2.41-3.36.32-6.16-1.14-9A9.39,9.39,0,0,0,248,152c-1.78-6.33-.24-12.77-1.08-19.1,0-.11-.25-.25-.39-.26a1.49,1.49,0,0,0-.52.16l-2.17,0c-6.94,0-9.86,2.71-9.82,10.82,0,9.27-3.89,15.2-12.53,18.19l-5.6,2.3-.89.84-.22.21H200.33c-3.15-.53-5.63-2.24-8.29-4-4.37-2.81-6.43-7.73-10.64-10.56v0c-.82-2.73.11-6.18-3.3-7.82h0c-.09-3.84.53-7.83-2.29-11.11-8.82,1.42-8.94,1.42-8.83,10.26,0,3.8-.79,7.47-1.45,11.16a42.75,42.75,0,0,0-.79,6.39,40.75,40.75,0,0,1-1,4.27c-.37,1.32-.79,2.63-1.24,3.93a16,16,0,0,1-1.11-3.38c.14-.28.27-.56.39-.85,1.68-3.91,1.77-8.22,2.16-12.43.61-6.69,1.09-13.41,1.62-20.12l.09-1.22,2.37-.15c1.54,1.25,2.94-.45,4.43-.22l2.37,0c.9.21,1.73.24,2.22-.75h.16c1.15.1,2.41-.18,3.2,1a32.58,32.58,0,0,0,4.7,19.69c9,15,24.67,19.11,37.15,8,8.13-7.21,10.64-17,10.29-27.66l1.55-.89,3.08-.43c2.83,2.08,5.88,1.13,8.9.62h2.37l2,.6c0,.29-.07.58-.11.86-2.75,2.76-2,6.31-1.71,9.5.71,8.09,1.06,16.25,3.31,24.14l3.88,11q.36,9,.73,17.91C255.86,195.88,254.82,198.71,255.09,201.76Z"/><path class="cls-21" d="M243.85,132.76l2.17.05,0,22.28h0c-2.71-.37-2.2-2.48-2.21-4.23C243.82,144.82,243.85,138.79,243.85,132.76Z"/><path class="cls-21" d="M181.39,150.61c4.22,2.82,6.28,7.74,10.65,10.56,2.65,1.71,5.14,3.42,8.29,4a17.67,17.67,0,0,0,13.42,0c.35,0,.69,0,1,0l1.11-1.06,5.6-2.3c.34,2.33-1.08,3-3,3.82-9.3,3.92-18.71,2.67-27-1.5C186.78,161.73,182.2,157,181.39,150.61Z"/><path class="cls-21" d="M247.22,159.49c1.46,2.87,3.55,5.67,1.14,9C247.11,165.63,244.82,162.85,247.22,159.49Z"/><path class="cls-21" d="M175.78,131.67c2.82,3.28,2.2,7.26,2.29,11.11A24.34,24.34,0,0,1,175.78,131.67Z"/><path class="cls-21" d="M178.09,142.79c3.42,1.63,2.48,5.1,3.31,7.83C178.17,148.91,179.23,145.38,178.09,142.79Z"/><path class="cls-21" d="M249.47,172.84c2.31.78,4,1.88,2.2,4.61A5.94,5.94,0,0,1,249.47,172.84Z"/><path class="cls-21" d="M246.05,155.09l.83,1.17c-1.32.34-.53-.8-.82-1.18Z"/><path class="cls-22" d="M251.64,129.17c.32-.52.68-.61,1.09-.09Z"/><path class="cls-18" d="M281.78,204.17c-2.73-6-2.66-12.53-3.2-18.79-1.16-13.4-2.73-26.74-6-39.74-1.29-5.16-4.22-10.3-10.39-12.21a16.73,16.73,0,0,1-7.22-4l-2.25-.4-1.09.09-1.21.36c0,.29-.07.58-.11.87-.83,4,1.37,7.19,2.77,10.61-1.4-3.42-3.6-6.62-2.77-10.61-2.75,2.76-2,6.3-1.71,9.49.71,8.09,1.06,16.25,3.31,24.14h0q1.94,5.52,3.88,11.05.36,8.94.73,17.9h0c-.67,2.9-1.71,5.74-1.44,8.79q1.07,10.09,2.12,20.21h27.88C284.46,216,281.94,210.28,281.78,204.17Z"/><path class="cls-17" d="M180.37,129.57l5.31-.77c1.06,2,2.62,3.16,4.89,2.09,2.73-1.29,5-3,5.32-6.42s-1.16-7.34,1.13-10.7l1.12,1.14a12.11,12.11,0,0,0,1.26,3c6.49,8.27,14.13,14.47,25.33,15,3.18.17,6.3,1.78,6.81-3.16a1.42,1.42,0,0,1,1-.13c.34,10.62-2.16,20.45-10.29,27.66-12.48,11.07-28.16,7-37.15-8A32.57,32.57,0,0,1,180.37,129.57Z"/><path class="cls-20" d="M213.75,165.12a17.67,17.67,0,0,1-13.42,0Z"/><path class="cls-20" d="M215.9,164.07l-1.11,1.06Z"/><path class="cls-17" d="M184.83,123.05a13.3,13.3,0,0,1-4.46,6.52c-3.77,3.23,3.37-.49,3.37-.49l7.07.09-6-6.12"/><path class="cls-23" d="M275.61,134.13c2.8-5.71-.77-13.19-8-16.73"/><path class="cls-23" d="M279.43,136.55c4.11-8.37-1.13-19.36-11.72-24.56"/><path class="cls-23" d="M172.29,162.47C167,159,166.22,150.74,170.62,144"/><path class="cls-23" d="M170.24,166.5c-7.81-5.1-8.9-17.22-2.45-27.1"/><path class="cls-24" d="M176,150.4l-.23.18c-.19-1.86-.37-3.73-.55-5.59,0-.25-.14-.51,0-.74l.19.18a1.54,1.54,0,0,1,.17.81c.17,1.4.31,2.81.45,4.21A1.56,1.56,0,0,1,176,150.4Z"/><path class="cls-25" d="M270.59,124.39l-.43.17c-1.61-.77-3.24-1.48-4.88-2.19a1.12,1.12,0,0,1-.44-.27.27.27,0,0,1-.06-.17.12.12,0,0,1,.15-.06C266.83,122.68,268.75,123.45,270.59,124.39Z"/><path class="cls-26" d="M264.93,121.87l-.13,0c-.47-.11-.59-.54-.78-.89-.68-1.25-1.43-2.47-2.11-3.72a2.3,2.3,0,0,0-.32-.49.45.45,0,0,1-.18-.36c.07-.09.16-.13.26,0a1.14,1.14,0,0,1,.46.51Z"/><path class="cls-27" d="M229.21,166c-.13-.32-.44-.24-.67-.28l-14.47-2.62-.56-.14a.61.61,0,0,1-.24-.43c0-.45-.17-.92.15-1.33.31-.15.6,0,.88.09q3.76,1.13,7.54,2.18c.22.06.57.32.68,0s-.3-.43-.55-.52c-2.62-1-5.22-2.08-7.84-3.11a1.14,1.14,0,0,1-.56-.3,2.07,2.07,0,0,1,.39-1.81c.36-.12.63.11.91.25,2.44,1.25,4.88,2.51,7.32,3.75.18.09.43.4.6.11s-.17-.43-.38-.57c-2.43-1.6-4.9-3.16-7.32-4.78a1.15,1.15,0,0,1-.48-.42,1.89,1.89,0,0,1,.92-1.7,1.61,1.61,0,0,1,.7.44c2.21,1.73,4.35,3.55,6.57,5.27.19.14.4.49.64.26s-.07-.51-.26-.7c-2-1.92-3.94-3.87-5.93-5.78-.31-.3-.69-.53-.79-1a1.75,1.75,0,0,1,1.32-1.37,2.69,2.69,0,0,1,.79.75c1.74,2.12,3.52,4.2,5.27,6.3.06.07,0,0,0,.05s.35.6.65.37,0-.53-.19-.74c-1.71-2.44-3.35-4.92-5.07-7.36a1,1,0,0,1-.23-.59,2.25,2.25,0,0,1,1.21-1.1c.25-.14.45,0,.62.19,1.51,2.57,2.87,5.22,4.35,7.8.16.28.24.89.67.67s0-.61-.17-.91c-1-2.51-2.13-5-3.22-7.49a3.22,3.22,0,0,1-.35-1.1,1.71,1.71,0,0,1,1.95-.71,2.49,2.49,0,0,1,.42.94l2.55,8c.09.25.14.72.41.63s.12-.52.07-.79c-.58-2.86-1.25-5.7-1.81-8.56a1.39,1.39,0,0,1-.05-.7,1.9,1.9,0,0,1,1.86-.46,1.34,1.34,0,0,1,.31,1c.32,2.83.67,5.66,1,8.49,0,.32-.09.91.39.88s.23-.58.23-.89c-.06-3-.1-5.91-.16-8.87a1.26,1.26,0,0,1,.07-.51,1.79,1.79,0,0,1,2,.12,5.06,5.06,0,0,1,0,1.86c-.2,2.64-.42,5.29-.63,7.93a2.28,2.28,0,0,0,0,.26c0,.19.07.35.27.39s.28-.16.31-.33c.07-.49.2-1,.28-1.46.42-2.56.93-5.09,1.37-7.65a1.73,1.73,0,0,1,.15-.55.49.49,0,0,1,.61-.21,2.6,2.6,0,0,1,1.31.56,1.52,1.52,0,0,1-.12.94c-.79,2.79-1.59,5.58-2.38,8.36-.05.17-.1.33-.14.5s0,.41.2.49.3-.16.37-.33c1.12-2.78,2.21-5.58,3.31-8.37a1.69,1.69,0,0,1,.44-.78,2.27,2.27,0,0,1,1.62,1,2,2,0,0,1-.32.78c-1.32,2.57-2.65,5.14-4,7.72-.15.29-.49.69-.1.92s.47-.33.62-.56c1.59-2.39,3.13-4.81,4.71-7.21.12-.2.2-.44.46-.51.64.2.91.78,1.28,1.25a.58.58,0,0,1,0,.19,4.66,4.66,0,0,1-.87,1.2c-.89,1.14-1.79,2.26-2.69,3.4-.29.33-.56.68-.83,1l-.11.13a4,4,0,0,0-.52.7,8.25,8.25,0,0,1-.86,1.11.58.58,0,0,0-.21.73,23.84,23.84,0,0,1-2,2.05c-1.09,1.14-2.21,2.25-3.32,3.37C229.51,165.89,229.41,166.05,229.21,166Z"/><path class="cls-28" d="M214.06,157.78a3.08,3.08,0,0,0-.4,1.75.23.23,0,0,1-.21.27,8.35,8.35,0,0,0-2.46-1.14l-14.62-5.8q-10.47-4.16-20.94-8.32a.33.33,0,0,1-.2-.29c1-1.25,2.11-2.33,3.15-3.51.28-.32.58-.63.88-.94a.27.27,0,0,1,.23-.14,12.81,12.81,0,0,1,2.11,1.1c3.89,2.07,7.84,4,11.74,6.07,6.33,3.31,12.65,6.65,19,9.89.53.27,1.07.55,1.62.8A.26.26,0,0,1,214.06,157.78Z"/><path class="cls-29" d="M201.82,115c1.23-1.46,2.48-2.89,3.84-4.24.54-.37.7.12.83.44.37.9.79,1.78,1.16,2.68,1,2.37,2,4.71,3,7.08,1.31,3.1,2.66,6.18,4,9.28,1.14,2.68,2.3,5.36,3.46,8,1.3,3,2.57,6,3.86,9a2.2,2.2,0,0,1,.2.75.62.62,0,0,1-.11.33,2.23,2.23,0,0,1-1.35.8c-.38,0-.56-.25-.73-.55-1.54-2.77-3-5.57-4.58-8.34-2.32-4.17-4.61-8.36-6.91-12.54-2.19-4-4.37-7.94-6.58-11.91A.83.83,0,0,1,201.82,115Z"/><path class="cls-28" d="M201.82,115a23.4,23.4,0,0,0,1.59,3c1.68,3.12,3.39,6.22,5.1,9.32,1.21,2.2,2.45,4.38,3.67,6.58q2.37,4.28,4.71,8.57c1.13,2.05,2.24,4.11,3.36,6.16.1.2.22.38.49.35.13.16.15.3-.06.41-.09-.07-.17-.21-.32-.11a4,4,0,0,0-1.23,1,.3.3,0,0,1-.38.12,5.14,5.14,0,0,0-.95-1.75q-8.48-12.25-16.88-24.58c-1.6-2.33-3.21-4.66-4.8-7-.15-.21-.34-.4-.3-.69.22-.3.56-.31.89-.36Z"/><path class="cls-28" d="M222,148.28l.09-.15a.65.65,0,0,0-.05-.56.93.93,0,0,1,.2-.89c.27-.38.54-.39.77,0a.78.78,0,0,0,1,.47c1.57-.47,1.52-.45,1.14-2.06-.54-2.3-1-4.61-1.5-6.91-.64-2.93-1.26-5.87-1.89-8.8q-.74-3.39-1.46-6.78c-.62-2.92-1.26-5.83-1.88-8.75-.48-2.23-1-4.46-1.42-6.72,0-.16.08-.32.31-.27l2.16.42c1.34.27,2.68.53,4,.85a8.49,8.49,0,0,0,.15,2.71c.54,4.57,1,9.15,1.58,13.72.75,6.37,1.47,12.75,2.22,19.13.06.51.12,1,.16,1.55a2.3,2.3,0,0,0,.45,1.38.39.39,0,0,1-.49.19,3.23,3.23,0,0,0-1.81.28,6.22,6.22,0,0,1-1.79.56,2.71,2.71,0,0,0-1.71.69C222.15,148.44,222.09,148.36,222,148.28Z"/><path class="cls-28" d="M223.93,147.4a.81.81,0,0,1-1-.66c-.1-.36-.3-.26-.44-.05a1,1,0,0,0-.24.89c.06.19.21.41-.09.55-.63-1.71-1.42-3.36-2.14-5-.6-1.4-1.18-2.81-1.79-4.2s-1.24-2.83-1.86-4.25c-.43-1-.85-2-1.28-3-.64-1.48-1.29-3-1.93-4.42-.43-1-.83-2-1.26-3l-2-4.6c-.6-1.4-1.2-2.8-1.78-4.21s-1.29-2.82-1.81-4.27c-.08-.23-.24-.56-.62-.39a.5.5,0,0,1,.53-.37l5.5.09c.24,0,.5-.09.64.21a4.71,4.71,0,0,1,.36,1q5.53,17.24,11.05,34.49C223.87,146.55,224.11,147,223.93,147.4Z"/><path class="cls-28" d="M231.29,146.93a2.4,2.4,0,0,0-1.8-.2c-.18,0-.36.08-.4-.18a2.1,2.1,0,0,0,.24-1.13q-.21-13.28-.46-26.55-.1-6.06-.19-12.11c0-.32,0-.61-.33-.79,0-.54.41-.42.7-.32s.75.38,1.14.55c1.3.67,2.64,1.26,4,1.83.23.16.59-.18.76.19a1.72,1.72,0,0,0-.44,1.31c-.24,3-.48,6-.71,9-.72,9.06-1.46,18.12-2.16,27.19a3.87,3.87,0,0,0,0,.9C231.6,146.85,231.5,147,231.29,146.93Z"/><path class="cls-29" d="M214,157.57c-.29.07-.5-.11-.73-.22-4.4-2.26-8.83-4.47-13.19-6.81-5.92-3.18-11.93-6.17-17.88-9.29a16.08,16.08,0,0,1-2.68-1.52,6.87,6.87,0,0,1,.1-2c.11-1.13.22-2.26.36-3.38a.42.42,0,0,0-.08-.37l0-.17a.81.81,0,0,1,.14-.12c.38-.13.66.11.95.29,5.87,3.85,11.76,7.66,17.64,11.49l14.44,9.39,1,.66a.86.86,0,0,1,.46.59C214.49,156.66,214.47,157.22,214,157.57Z"/><path class="cls-28" d="M234.94,147.74a2.52,2.52,0,0,0-1.74-.46.26.26,0,0,1-.29-.31,1.17,1.17,0,0,0,.37-.73c.57-3.43,1.21-6.85,1.83-10.27.75-4.16,1.49-8.33,2.27-12.49.46-2.48.89-5,1.33-7.46s1-5.23,1.42-7.84c.07-.41.06-.82.16-1.22.11-.08.23-.14.35,0l.36.26a7.51,7.51,0,0,1,.9.67l3.43,2.6a.32.32,0,0,1,.18.21,2.09,2.09,0,0,1-.15.89c-1.59,5.76-3.27,11.51-4.89,17.27q-2.52,9-5,17.9a8.1,8.1,0,0,0-.18,1C235.17,147.86,235.05,147.82,234.94,147.74Z"/><path class="cls-28" d="M238.2,149.5a3.59,3.59,0,0,0-1.52-1,.25.25,0,0,1-.08-.16c1.11-2.7,2.14-5.43,3.22-8.14,2.38-6,4.71-11.94,7.08-17.91,1.48-3.73,2.94-7.48,4.43-11.22a.83.83,0,0,1,.21-.39.19.19,0,0,1,.18,0c.79.81,1.48,1.72,2.29,2.51l1.39,1.48c.15.28.53.31.65.62a3.38,3.38,0,0,0-.94,1.45,28.79,28.79,0,0,1-1.3,2.68q-5.46,10.64-10.94,21.27c-1.38,2.67-2.63,5.39-4,8.05-.13.25-.18.53-.29.78A.23.23,0,0,1,238.2,149.5Z"/><path class="cls-28" d="M213.48,161.26c-.19.41,0,.85-.1,1.27s-.4.25-.63.21c-2.08-.38-4.16-.72-6.24-1.09l-5.92-1c-3.8-.69-7.6-1.34-11.4-2l-8.4-1.47c-1.19-.2-2.37-.43-3.56-.59l-4.62-.76,3.12-5.2c.08-.08.1-.24.26-.23,4.11,1.18,8.23,2.3,12.33,3.54l1.8.52c7.35,2.09,14.68,4.25,22,6.33a2.91,2.91,0,0,0,1.31.17A.25.25,0,0,1,213.48,161.26Z"/><path class="cls-30" d="M229.21,166c.59-.62,1.16-1.26,1.77-1.87,1.28-1.3,2.59-2.59,3.88-3.88.06-.46.54-.63.71-1a2.18,2.18,0,0,1,.44-.47,21.62,21.62,0,0,0,2.15-2.13c1.21-1.15,2.36-2.36,3.51-3.56l.28-.22.12-.12a3,3,0,0,1,.63-.5,41.61,41.61,0,0,0,3-2.94c2.13-2.13,4.23-4.29,6.37-6.42a1.62,1.62,0,0,0,.38-.52,4.08,4.08,0,0,1,.82-1c2.25-2.2,4.45-4.45,6.67-6.69,3.23-3.26,6.45-6.54,9.7-9.78a3.89,3.89,0,0,1,.47-.44.9.9,0,0,1,.48-.09c.65-.15,1,.34,1.22.76s-.06.86-.39,1.19L260.3,137.57l-28,28.23c-.11.11-.22.2-.34.3-.19.6-.75.91-1.1,1.38a1.7,1.7,0,0,1-.61.32,1.19,1.19,0,0,1-1.24-.93A.8.8,0,0,1,229.21,166Z"/><path class="cls-27" d="M229.06,166.87a1.76,1.76,0,0,0,1.23.83.57.57,0,0,1,.3.33,30.26,30.26,0,0,1,.94,2.93.54.54,0,0,1-.06.49,4.23,4.23,0,0,1-4.11-1.3c-.66-.75-.65-.84,0-1.56Z"/><path class="cls-31" d="M230.87,167.41c.25-.55.78-.86,1.14-1.31a5.8,5.8,0,0,0,2.05.44c.52.07.68.3.67.8a4.15,4.15,0,0,1-2.62,3.87c-.06-.06,0,0-.06,0A8.86,8.86,0,0,1,230.87,167.41Z"/><path class="cls-32" d="M177.23,156.54c.34-.18.68,0,1,.05,3.8.64,7.6,1.31,11.39,2L203.05,161c2.65.47,5.31.91,8,1.37l1.78.33a.52.52,0,0,0,.59-.13c0,.15.09.3.13.45l-9.63-1.7-26-4.56C177.68,156.68,177.46,156.6,177.23,156.54Z"/><path class="cls-33" d="M240.64,107l-.35.09a.57.57,0,0,1-.39.2c-1.5.36-3,.63-4.53,1a.53.53,0,0,1-.44,0c-.23-.11-.54.13-.75-.15l5.84-1.2C240.25,106.78,240.48,106.66,240.64,107Z"/><path class="cls-34" d="M212.14,110.6l-.45-.12a12.81,12.81,0,0,0,2.89-1.88c.75-.5,1.46-1,2.18-1.58.17-.12.33-.31.57-.14l-.2.2a10.28,10.28,0,0,1-1.8,1.43c-.81.64-1.67,1.21-2.51,1.82C212.62,110.47,212.43,110.68,212.14,110.6Z"/><path class="cls-35" d="M251.68,110.74l-.12,0a1,1,0,0,1-.63.14c-1.59,0-3.19,0-4.79,0-.25,0-.53,0-.72-.19l-.09-.22c1.78.12,3.57,0,5.36,0a2.08,2.08,0,0,1,1,.07.09.09,0,0,1,.06.08A.1.1,0,0,1,251.68,110.74Z"/><path class="cls-36" d="M261.67,116.41l-.24,0a2.2,2.2,0,0,1-1.19-.12c-1.2-.23-2.38-.51-3.58-.75a1.27,1.27,0,0,1-.65-.25c-.22-.19-.54-.28-.61-.62,1.09.71,2.37.69,3.56,1,.79.21,1.6.34,2.4.5A.39.39,0,0,1,261.67,116.41Z"/><path class="cls-37" d="M179.88,134c.41.56.05,1.15,0,1.71-.07,1.34-.26,2.67-.4,4l-.24.07Q179.56,136.91,179.88,134Z"/><path class="cls-38" d="M194.29,118.76l.59-1.26a4.23,4.23,0,0,0,.44-.69,1.25,1.25,0,0,1,1.39-.74c-.25.18-.65.08-.83.41-.29.72-.8,1.32-1.13,2C194.67,118.68,194.54,118.85,194.29,118.76Z"/><path class="cls-39" d="M251.68,110.74l0-.14a18.4,18.4,0,0,1,2.36,2.63c-.65-.32-.95-1-1.46-1.47A9.37,9.37,0,0,1,251.68,110.74Z"/><path class="cls-40" d="M241.9,107.88a2.14,2.14,0,0,1-.9-.67A1.31,1.31,0,0,1,241.9,107.88Z"/><path class="cls-41" d="M180,133.46l.25-.07c.12.19-.07.29-.12.43l-.17,0Z"/><path class="cls-28" d="M180.08,133.82l.12-.43,4.88-3.47a29.6,29.6,0,0,1,3,2.29q2.52,2.06,5.06,4.06c5.71,4.56,11.38,9.17,17.1,13.73,1.57,1.25,3.15,2.49,4.68,3.79.21.17.46.25.66.42a.19.19,0,0,1,0,.26,3,3,0,0,0-.81,1.62.15.15,0,0,1-.23.08c-.15-.5-.65-.62-1-.85-2.75-1.83-5.53-3.62-8.31-5.42s-5.39-3.46-8.07-5.21c-2.36-1.53-4.7-3.1-7.06-4.63s-4.91-3.16-7.37-4.75c-.58-.37-1.13-.77-1.71-1.15C180.69,134,180.44,133.75,180.08,133.82Z"/><path class="cls-28" d="M186.94,124.25a5.13,5.13,0,0,1,1.91-1c1.28-.62,2.64-1.07,3.88-1.77,1.26,1.48,2.47,3,3.72,4.48q8.72,10.35,17.4,20.73l3.21,3.82a3.16,3.16,0,0,0,.75.71.22.22,0,0,1-.07.35,2.66,2.66,0,0,0-1.19,1.37.23.23,0,0,1-.27.06c-2-2.09-4.16-4.09-6.23-6.14q-4-4-8.11-7.93c-3.82-3.72-7.63-7.46-11.46-11.18C189.29,126.61,188.06,125.48,186.94,124.25Z"/><path class="cls-28" d="M261.64,116.66a1.14,1.14,0,0,1,.44.53c.9,1.58,1.72,3.21,2.72,4.72l0,.13a1.51,1.51,0,0,1-.4.65c-5.47,6.87-10.87,13.78-16.34,20.64-2.11,2.66-4.2,5.33-6.32,8a2.08,2.08,0,0,1-.57.61.34.34,0,0,1-.28,0c-.46-.37-.7-.95-1.24-1.23a.15.15,0,0,1-.07-.16c2.22-3.29,4.33-6.66,6.5-10q2.61-4,5.2-8,5-7.7,9.95-15.39C261.38,116.94,261.44,116.74,261.64,116.66Z"/><path class="cls-42" d="M232.93,147l.27.29c-.59,3.23-1.17,6.46-1.77,9.68,0,.21.12.62-.38.57s-.58-.27-.54-.73c.28-3.29.52-6.58.78-9.87l.31-.19A1.65,1.65,0,0,1,232.93,147Z"/><path class="cls-42" d="M229.12,146.57l.37.16q.09,5,.16,10c0,.26.18.61-.37.62s-.51-.25-.55-.59c-.36-3.19-.73-6.39-1.09-9.58,0-.1,0-.21-.07-.31l.45-.2A1.32,1.32,0,0,1,229.12,146.57Z"/><path class="cls-42" d="M236.63,148.4l.05.14q-1.81,4.58-3.62,9.16c-.08.19,0,.63-.48.47s-.5-.39-.37-.84c.93-3.19,1.82-6.39,2.73-9.59l.26,0A2,2,0,0,1,236.63,148.4Z"/><path class="cls-43" d="M239.67,150.55l0,.14c-1.76,2.72-3.51,5.43-5.29,8.14-.1.16-.12.61-.51.34a.55.55,0,0,1-.24-.81q2.29-4.41,4.55-8.86l.31.07A2.19,2.19,0,0,1,239.67,150.55Z"/><path class="cls-42" d="M222,148.28l.23.08q2,4.51,3.89,9c.13.29.32.58-.14.8s-.54-.15-.69-.41l-4.64-8.39.06-.41A4.65,4.65,0,0,0,222,148.28Z"/><path class="cls-42" d="M224,147.67a3.09,3.09,0,0,1,1.79-.56c.71,3.25,1.41,6.49,2.11,9.74.06.29.17.57-.29.71s-.49-.17-.58-.46Z"/><path class="cls-44" d="M236.06,158.92l-.35.41c-.18.11-.3.3-.48.43s-.18.12-.26,0,0-.16.06-.24l.83-1.08a2.11,2.11,0,0,0,.61-.75h0a4.73,4.73,0,0,0,.88-1.11l3.58-4.52c.57.12.74.57.86,1.06a6,6,0,0,1-1.19,1.32c-.76.78-1.55,1.53-2.32,2.29S236.77,158.15,236.06,158.92Z"/><path class="cls-45" d="M235,159.51c0,.09-.06.32.17.17s.28-.32.51-.35c-.28.31-.56.63-.85.94C234.32,159.89,234.8,159.73,235,159.51Z"/><path class="cls-46" d="M241.79,153.12c-.32-.33-.48-.78-.86-1.06v-.14l.22-.07a2.49,2.49,0,0,1,.9,1.08A.26.26,0,0,1,241.79,153.12Z"/><path class="cls-45" d="M237.35,156.58a1.72,1.72,0,0,1-.88,1.11A4.73,4.73,0,0,1,237.35,156.58Z"/><path class="cls-45" d="M236.47,157.68a.84.84,0,0,1-.61.75A2.34,2.34,0,0,1,236.47,157.68Z"/><path class="cls-29" d="M213.47,159.78a3,3,0,0,1-.1,1.12c-.08.26-.21.29-.48.21q-7.26-2.12-14.54-4.19c-2.73-.78-5.47-1.55-8.2-2.34l-13.61-3.92a1.23,1.23,0,0,1-.58-.26c-.11-1-.27-2.07-.33-3.11a15.18,15.18,0,0,1-.21-2.86,35.69,35.69,0,0,1,3.48,1.34c2.53,1,5,2,7.56,3,2.78,1.1,5.54,2.23,8.32,3.33l9.18,3.61c2.75,1.09,5.51,2.2,8.26,3.31C212.68,159.17,213.26,159.18,213.47,159.78Z"/><path class="cls-29" d="M218.77,150.41a6.15,6.15,0,0,1-1,.88c-.29.08-.45-.12-.6-.3q-5.37-6.45-10.75-12.89-6.41-7.65-12.83-15.29a3.09,3.09,0,0,1-.9-1.32c.46-.94,1-1.84,1.56-2.73.62-.48.72-1.3,1.22-1.86.12-.14.16-.35.37-.42q4.78,7,9.57,13.94c2.56,3.72,5.09,7.46,7.64,11.19,1.78,2.58,3.58,5.16,5.35,7.75C218.64,149.66,219.09,149.93,218.77,150.41Z"/><path class="cls-29" d="M229.12,146.57a2.28,2.28,0,0,1-1.1.06c-.35,0-.46-.2-.5-.58q-.81-7.32-1.66-14.65l-1.23-10.61c-.47-4-.93-8.06-1.42-12.09a.66.66,0,0,1,.22-.6c1.61-.78,3.23-1.54,4.9-2.17.41-.15.53,0,.54.42,0,4.14.1,8.27.18,12.4.06,3.79.16,7.58.22,11.37.06,3.36.09,6.71.14,10.07,0,1.9.06,3.79.1,5.68C229.52,146.18,229.53,146.49,229.12,146.57Z"/><path class="cls-29" d="M212.14,110.6l4.65-3.34a3.65,3.65,0,0,1,.34-.18c.46,1.72.8,3.47,1.16,5.22.3,1.47.65,2.93,1,4.4s.62,3,.93,4.47c.22,1,.46,2.06.68,3.09.33,1.57.66,3.14,1,4.72.22,1,.46,2.05.68,3.08.34,1.57.66,3.15,1,4.72s.63,2.85.94,4.28c.39,1.78.77,3.57,1.17,5.35.07.33-.06.48-.36.57l-1.36.42-9.7-30.25C213.53,115,212.83,112.78,212.14,110.6Z"/><path class="cls-29" d="M232.93,147a4.67,4.67,0,0,1-1.33-.25.73.73,0,0,1-.2-.58q.73-9,1.45-18.1c.35-4.34.68-8.68,1-13,.17-2.06.37-4.12.51-6.19a.63.63,0,0,1,.54-.67,46.87,46.87,0,0,1,5.36-1.14c.35.27.1.62.05.89-.77,4.42-1.57,8.83-2.37,13.24q-1.25,6.87-2.48,13.75c-.54,3-1.09,6-1.63,9-.15.8-.29,1.61-.44,2.42C233.37,146.66,233.35,147,232.93,147Z"/><path class="cls-29" d="M236.63,148.4l-1.43-.69a1.06,1.06,0,0,1,0-.87l4-14.25q2.46-8.7,4.93-17.4c.42-1.5.82-3,1.23-4.49l5.69,0c.15,0,.3,0,.45,0a29.08,29.08,0,0,1-1.23,3.26c-1,2.76-2.12,5.5-3.21,8.24s-2.24,5.54-3.33,8.33c-1.16,2.94-2.28,5.89-3.44,8.84s-2.29,5.76-3.43,8.64A.57.57,0,0,1,236.63,148.4Z"/><path class="cls-29" d="M239.67,150.55a6.84,6.84,0,0,1-1.16-1c-.15-.33,0-.59.17-.86,5.18-10.38,10.56-20.66,15.84-31,.32-.61.59-1.25.87-1.88a.79.79,0,0,1,.62-.51c1.83.28,3.62.72,5.42,1.12l.21.21a24.91,24.91,0,0,1-1.91,3.13c-1.24,2-2.55,3.93-3.83,5.9-1.48,2.28-3,4.57-4.45,6.87-1.77,2.74-3.52,5.5-5.29,8.24s-3.53,5.4-5.28,8.1A5.63,5.63,0,0,1,239.67,150.55Z"/><path class="cls-29" d="M242.05,152.93c-.45-.23-.63-.69-.9-1.08l6.17-7.74c2.63-3.34,5.24-6.68,7.88-10q4.68-5.94,9.39-11.86a2.43,2.43,0,0,1,.25-.2l4.84,2.12c.19.09.4.17.48.4l-6.45,6.55L253,141.89c-.16.16-.31.35-.47.53a23.2,23.2,0,0,1-2,2.08c-1.47,1.51-3,3-4.45,4.51a.93.93,0,0,0-.48.37l-.13.11c-.83.86-1.71,1.66-2.51,2.54a.68.68,0,0,1-.17.21,2.07,2.07,0,0,0-.76.68Z"/><path class="cls-47" d="M246,148.94q2.69-2.69,5.38-5.36c.39-.4.8-.78,1.2-1.16-.16.66-.76,1-1.17,1.4-2.74,2.81-5.53,5.58-8.29,8.36a.73.73,0,0,1-.44.25c0-.14,0-.21.13-.28l.06-.15c.92-.85,1.79-1.77,2.7-2.64h0C245.63,149.16,245.82,149.07,246,148.94Z"/><path class="cls-48" d="M230.4,166.94a.53.53,0,0,1-.63-.31.44.44,0,0,1,.3-.61.42.42,0,0,1,.6.28A.5.5,0,0,1,230.4,166.94Z"/><path class="cls-45" d="M236.06,158.92a9.61,9.61,0,0,1,2.22-2.19A14.83,14.83,0,0,1,236.06,158.92Z"/><path class="cls-46" d="M242.79,152.15a2.39,2.39,0,0,1-.13.28l-.61.49A1.23,1.23,0,0,1,242.79,152.15Z"/><path class="cls-29" d="M216.32,153a6.22,6.22,0,0,1-.84,1.25.66.66,0,0,1-.59-.19L203,144.47q-6.81-5.49-13.64-11l-3.87-3.12a1.38,1.38,0,0,1-.43-.47c.57-1.91,1.16-3.81,1.86-5.67.46.07.66.47.94.75,2.05,2,4.07,4,6.11,6q5.43,5.33,10.88,10.63l7,6.82c1.36,1.33,2.73,2.64,4.1,4A1.35,1.35,0,0,1,216.32,153Z"/><path class="cls-49" d="M245.55,149.36a15.69,15.69,0,0,1-2.7,2.64A16.86,16.86,0,0,1,245.55,149.36Z"/><path class="cls-49" d="M246,148.94a.88.88,0,0,1-.43.42C245.55,149.07,245.75,149,246,148.94Z"/><path class="cls-18" d="M219.12,173.8c-3.59-.26-4.58-2.79-5-5.77-.63-4.26.85-8.09,2.44-11.91,1.78-2,2.2-4.88,4.32-6.65,3.47.79,5.26-2.13,8.5-3.19-3.39-1.05-4.83,2.23-7.42,1.67l2.26-3.12c1-.79,2-1.63,3.08-2.38s2.39-2,3.79-1.11.19,2.37.12,3.76c3,0,6.08-.1,9,.88,3.56,1.19,3.76,1.78,1.39,4.69,1.07.93,3.17,1.08,2.88,3.06-.36,2.42-2.77,2.17-4.42,2.88a8,8,0,0,1,1.06,2.13c.08.43-.51,1.43-.78,1.42-3.62-.1-1.81,6.79-6.72,5.1-3.24-1.12-5.52-.08-7.23,3.24C225,171.23,222.12,172.82,219.12,173.8Zm15.4-13.32.32.1-.33-.09c-1.26-2.71-3.42-1.83-5.48-1.31C230.75,160,232.46,161,234.52,160.48Zm2.11-5c-1.87-2-4-2.23-6.82-1Z"/><path class="cls-16" d="M221.93,148c2.59.56,4-2.72,7.42-1.67-3.24,1.06-5,4-8.5,3.19A1.85,1.85,0,0,1,221.93,148Z"/><path class="cls-16" d="M234.52,160.48c-2.06.47-3.77-.44-5.49-1.3,2.06-.52,4.22-1.4,5.48,1.31Z"/><path class="cls-16" d="M236.63,155.52l-6.82-1C232.66,153.29,234.76,153.55,236.63,155.52Z"/><path class="cls-18" d="M139.21,163.57s.84,42.36,6.72,44.56,24.46,12.56,73.19-34.33l-5.05-10.68S163.69,189.32,162,186.2s-4.11-9.31-.08-23.73"/><path class="cls-18" d="M141,136.55s-13.8,39.62,4.92,71.58"/><path class="cls-50" d="M71.87,124.17l1,.08C72.52,124.73,72.18,124.65,71.87,124.17Z"/><path class="cls-51" d="M99.76,29.36c1.06,1.43.45,2.86,0,4.3-2-.28-.79-2.34-2-3.34-3.32-2.72-6-3.36-9.92-1.53-1.43.68-2.73,1.71-4.47,1.68,2.36-3.88,8.8-5.51,12.34-3.09a2.56,2.56,0,0,0,2.52.53l0,.08C98,29.33,98.84,29.36,99.76,29.36Z"/><path class="cls-51" d="M94.42,40.14c-2.69-.76-2.88-3.54-4.3-5.33,2.78-.89,3.74-.19,3.87,2.73A21.35,21.35,0,0,0,94.42,40.14Z"/><path class="cls-52" d="M99.76,29.36c-.92,0-1.81,0-1.58-1.37l1.65.88C99.8,29,99.78,29.19,99.76,29.36Z"/><path class="cls-5" d="M76.52,104.94S84,118.09,97.4,122.28s42.13-10.64,46.21-20.81l-41.48,10.77Z"/><path class="cls-5" d="M143.63,101.31a.23.23,0,0,1,0,.16,19.47,19.47,0,0,1-8.27,8.36,28.75,28.75,0,0,1-5.25,2.15c-15.22,4.63-30.41,5.45-45.55-.39l-.13,0a16.49,16.49,0,0,1-8.68-8A17.22,17.22,0,0,1,74.2,92.85C75,88.47,76,84.12,76.46,79.69v0c-.17-6.63,0-13.23,1.86-19.67a.24.24,0,0,1,.17-.17c10.52-2.91,21.13-2.35,31.69-.52,6.4,1.12,12.85,2.34,18.72,5.39A.23.23,0,0,1,129,65c-1.22,5.16-1.53,10.24,2.09,14.7,1.47,1.81,3.45,3.17,3.51,5.9a2.41,2.41,0,0,0,2.29,2.17c1.2.1,1.74-.73,2.11-1.6A45.86,45.86,0,0,0,141,80c.94-3.83,3.76-5.51,8.6-5.09,3.94.34,5,3.16,4.82,6.24-.32,6.34-2.63,11.93-8.44,15.18C143.7,97.58,143.17,99.06,143.63,101.31Zm-43.68.16c-2.83.64-6.38-.92-9.13,3.1a.24.24,0,0,0,.29.35c4.7-1.58,8.65-1,12.76.57a.24.24,0,0,0,.31-.32c-.7-1.7-2.46-2-2.24-3.57a.18.18,0,0,1,0-.12,5,5,0,0,0,.31-6.29c-1-1.65-1.92-.87-3-.52a.25.25,0,0,1-.17,0c-3.8-1.29-4.42-3.5-2.32-7A39.5,39.5,0,0,0,100,80.34c.34-1,.91-2.34-.66-3.12a.25.25,0,0,0-.33.12c-1.52,3.43-3,6.82-4.53,10.17-2.23,4.82-1,7.48,4.08,8.92a.24.24,0,0,1,.17.27c-.31,1.71.52,3.06,1.38,4.41A.24.24,0,0,1,100,101.47Zm48.72-21.38c-3.87,1.3-5.59,4.43-6.6,8-.37,1.34,0,3.14,1.54,3.44s3.17-1.61,2.87-2.42c-1.38-3.68,1.67-5.95,2.29-8.93l.35-.43ZM86.16,70.57h.07c3.37-.72,6.33-2.16,8.26-5.25.54-.87,1-1.82.19-2.75-1-1.11-2.09-.77-3-.06a19.74,19.74,0,0,1-6.76,3.43c-1.36.38-2.92,1-2.3,2.88C83.1,70.44,84.69,70.41,86.16,70.57Zm33.18.29c1.63-.06,3.27.11,3.72-1.63s-1-2.39-2.41-2.76A18.26,18.26,0,0,1,114,63a2,2,0,1,0-2.78,2.86C113.33,68.61,115.81,70.81,119.34,70.86Zm.13,15.36v-.17c2.11,0,4.21,0,6.31,0,.56,0,1.2-.15,1.25-.83a1.54,1.54,0,0,0-.47-1c-1.39-1.39-12.43-2.56-14.22-1.55-.73.41-1.62.76-1.46,1.79a1.92,1.92,0,0,0,1.89,1.42C115,86.06,117.23,86.1,119.47,86.22ZM80.11,83.43a.25.25,0,0,0,0,.45c4.88,2.1,9,1.44,13.14.42.87-.21,1.65-.65,1.57-1.68a1.7,1.7,0,0,0-1.74-1.53A25.13,25.13,0,0,0,80.11,83.43Zm43-7.7c-4.83.92-9.51,1.78-12.69-4a.24.24,0,0,0-.45.06c-.62,3.67,1.28,5.19,3.58,6,3.44,1.2,7,1.6,9.79-1.61A.24.24,0,0,0,123.09,75.73Zm-31.53.33a22.44,22.44,0,0,1-9.4-1.59c-.22-.08-.44.16-.3.35,2.58,3.59,6,4.1,9.84,1.68A.24.24,0,0,0,91.56,76.06Z"/><path class="cls-9" d="M129.07,64.77c7.76,1,14.5,5,21.7,7.59,3.55,1.29,6.94,3,10.4,4.52-1.56,7.33-3.89,14.3-9.36,19.78a22,22,0,0,1-7.3,4.8l-.86-.07c-.49-2.3,0-3.79,2.37-5.1,5.81-3.25,8.12-8.84,8.44-15.18.15-3.08-.88-5.9-4.82-6.24C144.77,74.45,142,76.15,141,80a42.77,42.77,0,0,1-1.81,5.62c-.39,1-.89,2.21-2.31,2.09a2.41,2.41,0,0,1-2.29-2.17c-.06-2.73-2-4.09-3.51-5.9C127.44,75.15,127.81,70,129.07,64.77Z"/><path class="cls-9" d="M74.12,60.65l4.23-.8c-1.9,6.49-2.06,13.14-1.89,19.83-5-3.53-5.41-8.48-4.13-13.86A51,51,0,0,1,74.12,60.65Z"/><path class="cls-9" d="M86.19,70.58c-1.47-.17-3.08-.12-3.61-1.76-.62-1.9.94-2.5,2.3-2.88a19.74,19.74,0,0,0,6.76-3.43c1-.71,2.09-1,3,.06.78.93.35,1.88-.19,2.75C92.56,68.42,89.58,69.86,86.19,70.58Z"/><path class="cls-9" d="M119.34,70.86c-3.53,0-6-2.25-8.17-5A2,2,0,1,1,114,63a18.26,18.26,0,0,0,6.7,3.44c1.45.37,2.89.91,2.41,2.76S121,70.8,119.34,70.86Z"/><path class="cls-53" d="M119.47,86.22c-2.24-.12-4.48-.16-6.7-.4a1.92,1.92,0,0,1-1.89-1.42c-.16-1,.73-1.38,1.46-1.79,1.79-1,12.83.16,14.22,1.55a1.54,1.54,0,0,1,.47,1c0,.68-.69.82-1.25.83-2.1,0-4.2,0-6.31,0Z"/><path class="cls-53" d="M79.61,83.66a25.22,25.22,0,0,1,13.47-2.57,1.7,1.7,0,0,1,1.74,1.53c.08,1-.7,1.47-1.57,1.68C89,85.35,84.71,86,79.61,83.66Z"/><path class="cls-54" d="M98.77,96.49c-5.31-1.43-6.56-4.1-4.3-9,1.59-3.42,3.07-6.89,4.63-10.39,1.86.76,1.25,2.21.89,3.22a39.5,39.5,0,0,1-3.15,7.34c-2.12,3.51-1.47,5.73,2.4,7C99.08,95.3,98.92,95.89,98.77,96.49Z"/><path class="cls-5" d="M123.75,75.61c-2.89,3.76-6.61,3.38-10.22,2.12-2.43-.84-4.42-2.49-3.44-6.64C113.41,77.85,118.53,76.59,123.75,75.61Z"/><path class="cls-54" d="M148.78,80.2c-.63,3-3.68,5.25-2.3,8.93.3.81-1.4,2.7-2.87,2.42s-1.91-2.1-1.54-3.44c1-3.59,2.73-6.72,6.6-8Z"/><path class="cls-5" d="M102,101.53l-1.67-.14c-1-1.5-2-3-1.52-4.9l.48-1.79c1.1-.33,2-1.2,3.06.49A5,5,0,0,1,102,101.53Z"/><path class="cls-5" d="M92.4,76c-4.41,3.09-8.21,2.53-11-1.88A23.08,23.08,0,0,0,92.4,76Z"/><path class="cls-8" d="M148.67,80.09l.45-.32-.35.43Z"/><path class="cls-5" d="M129.07,64.77c-19.86-29.45-50.72-4.92-50.72-4.92Z"/><path class="cls-9" d="M134.55,84.83s1.92,9.39,1.54,12.41,4.43-5.26,4-14.12S134.55,84.83,134.55,84.83Z"/><path class="cls-9" d="M161.17,76.88l-22.25-7.12s-5.34,1.29-10.46-5.87l-.09-.13a31,31,0,0,0-6-6,.3.3,0,0,0-.08-.07,59.72,59.72,0,0,0-5.33-3.66h0c-2.45-1.49-4.35-2.43-4.74-2.63l-.07,0s2-4.39,11.63-11.55A43.28,43.28,0,0,0,135.2,26.68a62.86,62.86,0,0,1,7.21,4.83,15.74,15.74,0,0,1-3.29,12.33c6.49-3.32,11.29-2.51,14.68-.46a17.86,17.86,0,0,1,6.66,8c-2.51-2.64-8.92-2.64-8.92-2.64C168.63,57.8,161.17,76.88,161.17,76.88Z"/><path class="cls-9" d="M160.21,35.81a15.23,15.23,0,0,1-6.41,7.57,14.7,14.7,0,0,1-5.14,1.85c-8,1.36-23,10.48-25.83,12.26l-.48.29a.3.3,0,0,0-.08-.07,21.66,21.66,0,0,0-5.33-3.66h0c-5.86-3-16.37-5.61-31,1.15h0S61.31,41.34,90.78,25.13c17.72-9.73,34.14-4.32,44.42,1.55a62.86,62.86,0,0,1,7.21,4.83,43.42,43.42,0,0,1,3.73,3.17S150.66,40,160.21,35.81Z"/><path class="cls-9" d="M80,50.27s-7.65.94-6.29,11.58S76.74,63,76.74,63s3.58-5.57,9.12-7.76S80,50.27,80,50.27Z"/><circle class="cls-10" cx="89.65" cy="75" r="3.91"/><circle class="cls-10" cx="116.89" cy="75.98" r="3.91"/><ellipse class="cls-11" cx="88.77" cy="74.16" rx="1.16" ry="0.91" transform="translate(-24.14 49.06) rotate(-27.35)"/><ellipse class="cls-11" cx="116.08" cy="74.85" rx="1.16" ry="0.91" transform="translate(-21.41 61.68) rotate(-27.35)"/><rect class="cls-5" x="89.65" y="100.53" width="18.56" height="6.18"/><path class="cls-54" d="M103.2,103.17c-.3,1.77,1.86,2,2.39,4.14-4.46-1.79-8.7-2.45-13.88-.52,2.89-4.92,6.82-2.88,9.82-3.76Z"/><path class="cls-9" d="M115,104.87s0,0,0,0a3.11,3.11,0,0,1-1.29-.9h0c-14.42-15.63-27.79-3.47-30.92-1.08,0-.38-2.78.33-2.93-.11-.94-2.82-5.43-6-5.43-6V91.58c-3.56,3-1.68,12.37-1.68,12.37,2.93,11.52,17.35,21.5,17.35,21.5s9,3.26,15.25,0a39.6,39.6,0,0,0,8.82-6.39,42.36,42.36,0,0,0,7.14-8.73A44.49,44.49,0,0,0,115,104.87ZM101.93,114c-1.05-1.09,1.88-4.79,1.88-4.79-3.34-3.69-12.34-.43-10.86,0S94.61,114,94.61,114c-5.22-.43-8.77-7.82-8.77-7.82,8.77-10.65,24.86-3.48,25.08,0S103,115,101.93,114Z"/><path class="cls-9" d="M143.65,101.39s-9,21.45-41.87,25.26S143.65,101.39,143.65,101.39Z"/><path class="cls-9" d="M135.1,87.76s2.14,14.65-16.15,18.59,13.2,5.89,13.2,5.89l11.5-10.85s-7.06-6.18-6.64-11.87"/><path class="cls-9" d="M112.12,102.43s4.83,7.16,13.21,2.36-6.6,8.7-6.6,8.7Z"/><path class="cls-55" d="M100,55s1,.74-.29,2.71a22,22,0,0,1-1.57,3.87s-1.28,4.84-.24,8.82c0,0-2.06-.63-2.94-4.79,0,0,2.8-2-.49-7.43,0,0-6-1.84-6.74-3.6l-1.18-3.5s5.24-1.51,5.51-.44Z"/><polygon class="cls-56" points="95.73 59.79 92.67 49.77 86.11 49.63 88.1 61.99 95.73 59.79"/><path class="cls-57" d="M87.71,52.78c2.31-1.12,6.64-1.49,8.83.74s16.13,10.23,16.13,10.23,2.27-12.76,1.85-15.37A22.24,22.24,0,0,0,112.71,43S101.26,30.56,97.63,28.07s-16.41-7-16.41-7S66.56,46.13,66.51,52.26c0,0-1.4.07-.09,2.09,1,1.56,6.21,4,6.21,4a10.87,10.87,0,0,1,3.61,2.08c.24.2.48.41.72.64a18.57,18.57,0,0,1,3.6,4.73c2.41,4.44,8.86,8.84,8.86,8.84,2.55-2.11,5.45-6.23,7.27-8.45s-1-6.42-1-6.42-6-2-7.08-3.9S87,49.15,87.42,45.28s-1.15-12.76-1.15-12.76L83.74,25"/><path class="cls-58" d="M87.6,52.54a19.74,19.74,0,0,1-2.81-4.8c-.5-1.83,1.47-10.73-1.21-19.88,0,0,.46-.79,1.15-.39C84.73,27.47,88.52,48.49,87.6,52.54Z"/><path class="cls-58" d="M76.5,29.47s-3,10.62-5.29,12.9a6.48,6.48,0,0,0-2.11,4.76s1.13,5.59.21,6.83-2.8-1.7-2.8-1.7S67.18,44.29,76.5,29.47Z"/><path class="cls-55" d="M66.75,54.75c1.08,1.1,6.64,3.91,6.64,3.91a15.42,15.42,0,0,0-6.88-6.4S64.31,52.29,66.75,54.75Z"/><path class="cls-58" d="M112.17,42.42s3.1,18.69-1.38,17.71c-3.4-.75-4.64-.21-4.64-.21l6.52,3.83,1.75-12S115.71,45.53,112.17,42.42Z"/><path class="cls-59" d="M182,189.09a35.24,35.24,0,0,1-15.48,6.32,45.5,45.5,0,0,1-16.62.18c-2-.38-3.06.43-3,2.66.13,3,1,6,.64,9.08-.49,4.42.77,8.16,4.39,11a6.71,6.71,0,0,0,.33,3.44H101c.3-16,1-31.93,2.47-47.85,1-11.14,2.52-22.19,3.86-33.29.82-.92.22-2.15.69-3.14a23.91,23.91,0,0,1,2.36-2.75c4-3.56,6.9-3.6,11-.32,1.44,1.16,2.94,2.25,4.45,3.4,1.51-3.2.94-6.37.39-9.54,20.56,4.48,38.13,13.39,48.21,33.09C178.81,170,180.94,179.43,182,189.09Z"/><path class="cls-59" d="M89.94,136.88c-.55,8.72-1.21,17.43-1.65,26.15-.56,10.87-.9,21.74-1.39,32.6q-.6,13.05-.85,26.1H43.53c.53-7.94,1.2-15.87,2.08-23.78,1.16-10.62,2.77-21.17,4.19-31.74a3.7,3.7,0,0,1,.18-.4l-.45.13-.06,0a9.88,9.88,0,0,0,1.13-8.33c-2.1,2.38-4.3,4.2-4.48,7.29a131.24,131.24,0,0,1-40-21.8,13.86,13.86,0,0,0,4.42-.85c5.21-2.05,9.24-5.51,12.91-9.67a88.85,88.85,0,0,0,6.29-8.44c2.46-3.57,4.19-7.28,4.17-11.68.74.28,1.5.54,2.24.87a133.78,133.78,0,0,0,35.71,10.88c.32.47.66.55,1,.07l1.39.2c.61.33.6.5.21,1.25a13.87,13.87,0,0,0-.89,11.19c.59,1.39,1.27.65,2.12.21,3.58-1.87,7.32-1.69,11.15-.88C87.9,136.43,88.59,138.35,89.94,136.88Z"/><path class="cls-5" d="M174.94,221.73H155.28c5.18-1,10.41-.68,15.63-.53A17.5,17.5,0,0,1,174.94,221.73Z"/><path class="cls-60" d="M33.91,112.43c0,4.4-1.71,8.11-4.17,11.68a88.85,88.85,0,0,1-6.29,8.44c-3.67,4.16-7.7,7.62-12.91,9.67a13.86,13.86,0,0,1-4.42.85A29.75,29.75,0,0,1,0,140.46V123.13a51.58,51.58,0,0,0,14.47-17.94.2.2,0,0,0,.07-.32,1.67,1.67,0,0,0,1-1.58.4.4,0,0,0,.1-.42c.61-.36,1.21-.73,1.8-1.1a20.88,20.88,0,0,1,7.54,3C28.42,106.81,31.08,109.71,33.91,112.43Z"/><path class="cls-60" d="M151.9,218.29c-3.61-2.8-4.88-6.53-4.38-11,.35-3.06-.52-6-.64-9.07-.08-2.23,1-3,3-2.66a45.5,45.5,0,0,0,16.62-.18A35.24,35.24,0,0,0,182,189.09c2.58-.19,3.32,1.15,3.07,3.51-.39,3.69.55,7.23,1.4,10.77,1,4.4.42,8.23-3.56,11C174,218.2,164.58,219,155,218.72A3.36,3.36,0,0,0,151.9,218.29Z"/><path class="cls-60" d="M114.4,122.79l7.48-5c2.41,3.09,3.14,6.87,4.27,10.48.55,3.18,1.12,6.35-.39,9.56-1.51-1.16-3-2.24-4.45-3.41-4.06-3.28-6.94-3.24-11,.32a25,25,0,0,0-2.35,2.75c-.07-.2-.14-.4-.22-.59.3-1.41.61-2.82.91-4.22C111.14,129.68,113.52,126.68,114.4,122.79Z"/><path class="cls-5" d="M14.47,105.19A51.58,51.58,0,0,1,0,123.13V117c3.94-2.49,7.17-5.93,10.87-8.73a4.6,4.6,0,0,0,1.57-2.56C12.81,104.21,13.64,104.79,14.47,105.19Z"/><path class="cls-5" d="M183.31,221.73h-8.37a17.5,17.5,0,0,0-4-.53c-5.22-.15-10.45-.44-15.63.53l-.23,0v0c0-.41,0-.81,0-1.2.05-.07.14-.14.13-.18A2.16,2.16,0,0,0,155,220c0-.42,0-.84,0-1.25,9.54.23,18.92-.54,27.83-4.38q.06,3.36.14,6.72Z"/><path class="cls-59" d="M46.13,164.87c.17-3.1,2.37-4.91,4.48-7.29a9.94,9.94,0,0,1-1.14,8.34Z"/><path class="cls-61" d="M49.52,165.94l.45-.13-.17.39A.26.26,0,0,1,49.52,165.94Z"/><path class="cls-52" d="M183.31,221.73l-.3-.66Z"/><path class="cls-62" d="M107.29,140.59c-1.34,11.1-2.88,22.15-3.86,33.29-1.43,15.92-2.17,31.87-2.47,47.85H89.43c-.09-17.32-.06-34.63.56-51.94.32-9,.54-18,1.29-27,.15-1.68.65-2.35,2.37-2.26,4.06.17,8.13.19,12-1.2C107.08,138.8,107.21,139.61,107.29,140.59Z"/><path class="cls-63" d="M108,137.45c-.47,1,.13,2.22-.69,3.14-.08-1-.21-1.79-1.61-1.29-3.9,1.39-8,1.37-12,1.2-1.72-.09-2.22.58-2.37,2.26-.75,9-1,18-1.29,27-.62,17.31-.65,34.62-.56,51.94H86.05q.27-13,.85-26.1c.49-10.86.83-21.73,1.39-32.6.44-8.72,1.1-17.43,1.65-26.15.06-.41.1-.82.15-1.24.29-.81.6-1.61.89-2.42.59,0,1.18,0,1.54.58-1.09,2-1.18,3.94,1.58,4.19a34.7,34.7,0,0,0,13.66-1.14Z"/><path class="cls-60" d="M74.3,124.45c2.65-2.36,3.65-6.14,6.89-8,2.61,1.06,4.48,3.1,6.49,5,.23,4.18,2.74,7.73,3.3,11.81l-.89,2.42c-2.17-1.66-4.36-3.28-6.48-5-1.62-1.31-3-1.09-4.61.11a26.41,26.41,0,0,0-5.38,6.13,13.9,13.9,0,0,1,.9-11.2C74.9,125,74.92,124.78,74.3,124.45Z"/><path class="cls-59" d="M73.62,136.9A26.41,26.41,0,0,1,79,130.77c1.59-1.2,3-1.42,4.61-.11,2.12,1.7,4.31,3.32,6.48,5L90,136.89c-1.36,1.46-2-.45-3.06-.67-3.84-.82-7.58-1-11.15.89C74.9,137.55,74.21,138.27,73.62,136.9Z"/><path class="cls-5" d="M91,133.22c-.56-4.08-3.07-7.63-3.3-11.81,2.76,1.27,5.61,2.37,8.24,3.87,4.43,2.52,8.58,1.11,12.8-.43,1.89-.7,3.79-1.37,5.69-2.06-.89,3.89-3.27,6.89-5.74,9.85a29.16,29.16,0,0,1-16.15,1.16C92.17,133.19,91.57,133.22,91,133.22Z"/><path class="cls-62" d="M92.52,133.8a29.16,29.16,0,0,0,16.15-1.16c-.3,1.4-.61,2.81-.91,4.22A34.87,34.87,0,0,1,94.1,138C91.33,137.74,91.43,135.82,92.52,133.8Z"/><path class="cls-52" d="M155.07,220.52a.7.7,0,0,1,0-.53,2.42,2.42,0,0,1,.18.36S155.11,220.46,155.07,220.52Z"/><path class="cls-5" d="M100,34.88c-.23,2-.45,3.95-.69,5.93s-1.61,2.71-3.18,1.42a12.76,12.76,0,0,1-1.67-2.09,23.07,23.07,0,0,1-.42-2.6c-.13-2.92-1.08-3.61-3.87-2.72A6.48,6.48,0,0,0,85.9,38c-2.24,3.67-2.73,7.9-3.88,11.92a21.55,21.55,0,0,0-2.14,5.16c-.62,1.4-1.26,2.79-1.89,4.18a15.69,15.69,0,0,1-10.73,6.61,7.43,7.43,0,0,0-2.2,1A264.25,264.25,0,0,0,23.33,94.4c-2.48,2-5.2,3.91-6.57,7a1.12,1.12,0,0,0-1.08,1.46.4.4,0,0,1-.1.42c-1,.1-1.25.69-1,1.58a.2.2,0,0,1-.07.32c-.83-.4-1.66-1-2,.55a4.6,4.6,0,0,1-1.57,2.56C7.17,111.1,3.94,114.54,0,117V77.7C16.09,70.17,33.11,65,49.58,58.46,59,54.68,65,48.31,68.73,39.36,72.36,30.74,80.06,26.5,87.21,21.6c2.42-1.67,3.84,1.27,5.91,1.11,1,2.46,3.9,3,5.11,5.21a2.59,2.59,0,0,1-2.52-.54c-3.54-2.42-10-.79-12.34,3.09,1.74,0,3-1,4.47-1.67,3.88-1.84,6.6-1.2,9.92,1.52,1.23,1,.07,3.06,2,3.34C99.84,34.06,99.9,34.47,100,34.88Z"/><path class="cls-5" d="M155.28,221.73l-.23,0v0Z"/><path class="cls-64" d="M42.33,163.54s-1.33-6.62,3.8-9.3,7.8,5.45,10,4.65,8,5.12,4.35,8.19-10.66-.88-10.66-.88Z"/><path class="cls-65" d="M141.46,174s6.08,12,7.43,21.5"/><path class="cls-64" d="M142.87,179.36s-15.58,6.37-12.06-2.68,7,1,9.34-5.52,8.75-2.18,9.59,0S153.42,179.53,142.87,179.36Z"/><path class="cls-19" d="M80.9,69.71l-.22-.2c-.05-.05-.07,0-.52-1a6.91,6.91,0,0,1-.55-2.44s-.91,2.12-1.36,3.36a3.39,3.39,0,0,0-.22.68.78.78,0,0,0,0,.14,3.55,3.55,0,0,0-.06.67c0,1.41.74,2.56,1.66,2.56s1.66-1.15,1.66-2.56v-.06A2.14,2.14,0,0,0,80.9,69.71Z"/><path class="cls-19" d="M85.46,91.3l-.21-.2c0-.06-.07,0-.52-1a7.12,7.12,0,0,1-.56-2.43s-.9,2.12-1.35,3.36a3.29,3.29,0,0,0-.22.67,1.06,1.06,0,0,1,0,.14,3.63,3.63,0,0,0-.06.67c0,1.42.75,2.56,1.66,2.56s1.67-1.14,1.67-2.56v0A2,2,0,0,0,85.46,91.3Z"/><path class="cls-19" d="M103.29,61.8l-.22-.2c0-.06-.07,0-.51-1a6.59,6.59,0,0,1-.56-2.43s-.9,2.12-1.35,3.36a2.71,2.71,0,0,0-.22.68.39.39,0,0,0,0,.13,3.74,3.74,0,0,0-.06.68c0,1.41.74,2.56,1.66,2.56s1.66-1.15,1.66-2.56v-.06A2.12,2.12,0,0,0,103.29,61.8Z"/><path class="cls-19" d="M125,94.31l-.22-.2c0-.06-.07,0-.52-1a6.9,6.9,0,0,1-.55-2.43s-.91,2.12-1.36,3.36a3.19,3.19,0,0,0-.22.68.83.83,0,0,0,0,.13,3.71,3.71,0,0,0-.06.67c0,1.42.74,2.56,1.66,2.56s1.66-1.14,1.66-2.56v0A2.09,2.09,0,0,0,125,94.31Z"/><path class="cls-19" d="M107.44,82.18l-.22-.2c0-.06-.07,0-.51-1a6.64,6.64,0,0,1-.56-2.43s-.9,2.12-1.35,3.36a2.71,2.71,0,0,0-.22.68.39.39,0,0,0,0,.13,3.71,3.71,0,0,0-.06.67c0,1.42.75,2.56,1.66,2.56s1.66-1.14,1.66-2.56v-.05A2,2,0,0,0,107.44,82.18Z"/><path class="cls-19" d="M122.62,61.8l-.22-.2c-.05-.06-.07,0-.51-1a6.59,6.59,0,0,1-.56-2.43s-.9,2.12-1.35,3.36a2.36,2.36,0,0,0-.22.68.39.39,0,0,0,0,.13,3.74,3.74,0,0,0-.06.68c0,1.41.74,2.56,1.66,2.56S123,64.41,123,63v-.06A2.12,2.12,0,0,0,122.62,61.8Z"/><path class="cls-66" d="M463.49,182.31l.18,2.36h-.73c-1.11.44-1.33,1.45-1.74,2.45-4.22,10.29-10.47,19.21-19.71,25.46-7.94,5.37-16.86,6.55-26.61,5.57-15.77-1.58-29.82-7.43-43.54-14.67a6,6,0,0,0-2.62-.65,2.16,2.16,0,0,0-1.29-1.81,112.35,112.35,0,0,1-10.49-6.91c-5.44-4.43-11.24-8.55-13.53-15.86-1.38-4.39.81-8.57,0-12.83,1.64-6.14,6.45-8.82,11.85-10.87,4.6.53,8.67,2.54,12.83,4.38,3.19,1.41,5.89,3.85,9.46,4.41a84.51,84.51,0,0,0,24.81,11.71c8.24,2.46,15.28.71,20.24-6.85,3.51-.43,7-1.54,9.13-4.22,2.61-3.27,5.33-3.92,8.64-2,5,2.94,4.53-5,8.49-4.11.29.06,1.15-.9,1.16-1.4a8.93,8.93,0,0,0-.7-2.56c2-.42,4.55.38,5.48-2.2.75-2.1-1.52-2.73-2.49-4,3.24-2.68,3.14-3.37-.5-5.46-3-1.72-6.34-2.33-9.7-2.93.39-1.52,2-2.87.7-4.15s-3-.25-4.4.38-2.6,1.29-3.89,1.94c-.22-3.57,1.29-7,.77-10.63,3.24-.12,6.41-.43,8.69-3.19a1.39,1.39,0,0,1,.64-.09l.93-.66a2.28,2.28,0,0,1,.72-.13c1.41.18,2.65,0,3.19-1.56h0c1.18.09,2.35.15,2.33-1.56h.05l.78-.76.88-.75c.65,0,1.22-.18,1.44-.9h0l.76-.75v-.08l2.58.1,2.27,2.43c0,.7.22,1.29,1,1.41l0,0c-.07,1.65.22,3.06,2.23,3.32l0,0a5.73,5.73,0,0,0,.64,3A47.87,47.87,0,0,1,468.58,146c.13,11.39-2.33,22.27-5.44,33.09C462.87,180.05,461.17,181.52,463.49,182.31Zm-40.58,8.83c.89-6.8-1.62-10.12-8.07-10.95C417.61,183.78,419.45,187.64,422.91,191.14Zm7.24-5c-1-6.49-6.38-11.11-10.48-9.14Z"/><path class="cls-8" d="M453.49,118.19l-.88.75-.78.76h-.05a2.53,2.53,0,0,0-2.33,1.56h0a3.24,3.24,0,0,0-3.19,1.56,2.28,2.28,0,0,0-.72.13l-.93.66a1.39,1.39,0,0,0-.64.09,135.4,135.4,0,0,1-22.69,4.3,148.39,148.39,0,0,1-29-.81c-8.81-1-17-4.11-25.11-7.44l-6.45-5.5c-3-5.3-2.13-9,3.37-12.42a6.07,6.07,0,0,0,3.17-5.22c.55-5.49,2.16-10.3,7-10.14A29.48,29.48,0,0,0,385,93.65c14.09,5.44,28.24,4.68,42.41.37,5.48-1.67,10-4.61,12.64-9.87l.8.07c5.78,2.87,9.63,7.07,9.51,14,0,1.65,1.37,2.09,2.23,3,3.73,3.87,6.2,8.13,4.08,13.74a1.66,1.66,0,0,0-.93,1.55v.08l-.76.75h0A1.43,1.43,0,0,0,453.49,118.19Zm-8.58-16.56-31.61,7.59C419.7,114.44,439.56,108,444.91,101.63Zm-48.63,8,.29-1-26.43-8.05-.4,1.36C376.88,110.22,387,108.61,396.28,109.64Z"/><path class="cls-67" d="M440,84.15c-2.68,5.26-7.16,8.2-12.64,9.87-14.17,4.31-28.32,5.07-42.41-.37a29.48,29.48,0,0,1-10.69-7.16c-.05-7.67,2.32-15,3.16-22.56-.16-6.22,0-12.42,1.76-18.46,9.84-2.74,19.77-2.23,29.65-.51,6,1,12.07,2.19,17.58,5.09-1.17,4.87-1.51,9.66,1.9,13.87,1.37,1.68,3.22,3,3.28,5.49a2.25,2.25,0,0,0,2.13,2c1.32.1,1.79-1,2.15-2a41.41,41.41,0,0,0,1.69-5.23c.85-3.61,3.48-5.19,8-4.8,3.66.32,4.63,2.95,4.48,5.82-.29,5.9-2.45,11.11-7.86,14.14C440.05,80.62,439.56,82,440,84.15Zm-40.4,0c-2.8.83-6.45-1.08-9.14,3.51,4.82-1.79,8.76-1.18,12.92.48-.49-2-2.51-2.21-2.23-3.85a4.65,4.65,0,0,0,.34-5.91c-1-1.58-1.83-.77-2.85-.46-3.61-1.2-4.21-3.26-2.24-6.54a36.33,36.33,0,0,0,2.93-6.83c.34-.94.9-2.3-.83-3-1.45,3.26-2.83,6.49-4.31,9.68-2.1,4.54-.94,7,4,8.36C397.8,81.39,398.75,82.76,399.63,84.15ZM444.7,64.32c-3.61,1.2-5.21,4.12-6.14,7.47-.35,1.24,0,2.92,1.43,3.2s2.95-1.5,2.67-2.26c-1.29-3.42,1.56-5.54,2.14-8.32l.32-.39Zm-58.19-8.86c3.15-.67,5.93-2,7.73-4.9.5-.81.9-1.7.17-2.56-.87-1-1.94-.72-2.82-.06a18.41,18.41,0,0,1-6.3,3.2c-1.27.35-2.72.91-2.14,2.68C383.64,55.35,385.14,55.3,386.51,55.46Zm30.88.26c1.51-.06,3,.1,3.46-1.52s-.9-2.23-2.24-2.57a16.94,16.94,0,0,1-6.24-3.21,1.86,1.86,0,1,0-2.6,2.67C411.79,53.62,414.1,55.68,417.39,55.72ZM417.5,70v-.17c2,0,3.92,0,5.87,0,.53,0,1.12-.13,1.17-.77a1.47,1.47,0,0,0-.44-1c-1.29-1.29-11.58-2.37-13.25-1.43-.67.38-1.5.7-1.35,1.66a1.78,1.78,0,0,0,1.75,1.32C413.33,69.88,415.42,69.91,417.5,70Zm-37.12-2.39c4.75,2.2,8.73,1.58,12.71.6.8-.2,1.53-.61,1.46-1.56a1.58,1.58,0,0,0-1.62-1.43A23.57,23.57,0,0,0,380.38,67.64Zm41.11-7.5c-4.86.92-9.63,2.09-12.72-4.2-.92,3.86.94,5.4,3.2,6.18C415.34,63.29,418.8,63.65,421.49,60.14Zm-29.2.4a21.47,21.47,0,0,1-10.23-1.75C384.65,62.9,388.19,63.42,392.29,60.54Z"/><path class="cls-68" d="M382.8,29.45c3.75-11,11.48-17.66,22.7-20.36A64.92,64.92,0,0,1,423.86,7c.51,0,1.21.22,1.52,0C430,3.16,433.71,6.15,438,8.15s7.62,4.49,8.45,9.47a3.43,3.43,0,0,0,1.1,1.59c8.39,8.38,10.59,18.77,9.84,30.13a9,9,0,0,1-2.07-1c-16-13.45-34.61-19.63-55.29-20.4C394.18,27.72,388.56,29.22,382.8,29.45ZM425.61,11.3c3-.8,5.37-1.2,7.19-3.42C429.37,6.72,427.3,7.74,425.61,11.3Zm12.86,5.23c2.2-1.88.87-3.57.08-5.21-.23-.48-1-.71-1.3-.26-1.06,1.42.22,2.7.45,4A5.35,5.35,0,0,0,438.47,16.53Z"/><path class="cls-69" d="M345.75,222c-1.43-3.42-.52-6.93-.46-10.41,2.46-1.26,1.13-3.52,1.22-5.27.12-2.51,1.54-3.32,3.28-2.37,6.23,3.42,12.95,2.83,19.62,2.92a6.85,6.85,0,0,1,3.77.81,98.81,98.81,0,0,0,14.7,7.34c13.57,5.52,27.25,7.4,41.89,4.81,14.31-2.52,24.46-10.07,31.76-22.13a3.5,3.5,0,0,1,3.47-2c1.81,8.33,1.54,16.92,3.16,25.28.37,1.94-.4,2.55-2.31,2.5-5.26-.11-10.53,0-15.79-.1q-37.5-.44-75-.91c-.28-1.42-1.39-1.34-2.45-1.34h-24.8A2.24,2.24,0,0,0,345.75,222Z"/><path class="cls-59" d="M382.8,29.45c5.76-.23,11.38-1.73,17.19-1.51,20.68.77,39.31,7,55.29,20.4a9,9,0,0,0,2.07,1c1,3.09,3.39,5.94,1.5,9.5-.59,1.11-.76,2.58-2.51,2.49-3.22-1.42-6.38-3-9.68-4.21-6.71-2.44-13-6.14-20.22-7.07-5.51-2.9-11.57-4-17.58-5.09-9.88-1.72-19.81-2.23-29.65.51l-3.94.74c-2-4.14.4-11.58,4.69-14.76C380.89,30.76,381.85,30.12,382.8,29.45Zm32.07,3.26c-.82,2.91-2.25,5.69-1.51,9.07C416.13,38.41,416.13,38.41,414.87,32.71Zm-34.3,1.67c-2.86,2-3.63,4.89-3.24,8.11a10.79,10.79,0,0,0,2.15-3.66C380,37.39,380.22,35.87,380.57,34.38Zm6.66,5.47a11.77,11.77,0,0,0,2.58-8.77C386.86,35.18,386.77,35.49,387.23,39.85Zm14.56-8.64c-3.28,5.33-3.38,5.82-2,9.24C401.12,37.35,401.37,34.3,401.79,31.21ZM423.47,45.7c2.67-3.66,2.34-6.74,1.91-9.84A23.89,23.89,0,0,0,423.47,45.7Zm11.86-7.37c-.55,3.1-1.09,6.2-1.79,10.19C436.68,44.94,436,41.64,435.33,38.33ZM441.69,52c2.85-1.89,3.28-3.72,2.78-6.58C442.56,47.41,442.2,49.24,441.69,52Zm9-3.17-2.18,5.5C451.49,52.77,452.11,51.17,450.7,48.86Z"/><path class="cls-70" d="M465,195.64a3.5,3.5,0,0,0-3.47,2c-7.3,12.06-17.45,19.61-31.76,22.13-14.64,2.59-28.32.71-41.89-4.81a98.81,98.81,0,0,1-14.7-7.34,6.85,6.85,0,0,0-3.77-.81c-6.67-.09-13.39.5-19.62-2.92-1.74-1-3.16-.14-3.28,2.37-.09,1.75,1.24,4-1.22,5.27a103.69,103.69,0,0,1,.79-15c2.09-.05,3.66,1.28,5.4,2.11,5.46,2.61,11,4.68,17.24,4.23a6,6,0,0,1,2.62.65c13.72,7.24,27.77,13.09,43.54,14.67,9.75,1,18.67-.2,26.61-5.57,9.24-6.25,15.49-15.17,19.71-25.46.41-1,.63-2,1.74-2.45.26,1.58-.63,3.36.79,4.75.12,1.1-.35,2.36.86,3.17Z"/><path class="cls-71" d="M355.22,154.55c-5.4,2-10.21,4.73-11.85,10.88a3.65,3.65,0,0,0-.87,2.86c.22,4.1-1.76,4.93-5.25,3.78a10.11,10.11,0,0,1-5.51-13.22c.45-1.16,0-2-.1-3-.22-1.9-.1-3.68,1.7-4.88.33-.22.88-.46.9-.71.42-6.42,4.72-4.12,8.19-3.68.95.8,1.89,2.78,2.65-.23.57-2.28,2.26-2.1,4.08-1.4,3.75,1.44,4.88,4.79,6.06,8.13Z"/><path class="cls-72" d="M355.22,153.09c-1.18-3.34-2.31-6.69-6.06-8.13-1.82-.7-3.51-.88-4.08,1.4-.76,3-1.7,1-2.65.23a155.17,155.17,0,0,1,18.29-32.32l6.44,5.5a4.88,4.88,0,0,0-1.63,3.89Q360.37,138.38,355.22,153.09Z"/><path class="cls-73" d="M426.44,50.05c7.24.93,13.51,4.63,20.22,7.07,3.3,1.2,6.46,2.79,9.68,4.21-1.45,6.83-3.62,13.31-8.71,18.42a20.56,20.56,0,0,1-6.8,4.47l-.8-.07c-.47-2.13,0-3.53,2.2-4.74,5.41-3,7.57-8.24,7.86-14.14.15-2.87-.82-5.5-4.48-5.82-4.54-.39-7.17,1.19-8,4.8a41.41,41.41,0,0,1-1.69,5.23c-.36,1-.83,2.06-2.15,2a2.25,2.25,0,0,1-2.13-2c-.06-2.54-1.91-3.81-3.28-5.49C424.93,59.71,425.27,54.92,426.44,50.05Z"/><path class="cls-72" d="M337.25,172.07c3.49,1.15,5.47.32,5.25-3.78a3.65,3.65,0,0,1,.87-2.86c.85,4.25-1.34,8.43,0,12.82,2.29,7.31,8.09,11.43,13.53,15.86A112.35,112.35,0,0,0,367.43,201a2.16,2.16,0,0,1,1.29,1.81c-6.2.45-11.78-1.62-17.24-4.23-1.74-.83-3.31-2.16-5.4-2.11,0-1.3-1-2.07-1.7-3C339.43,187.22,337.43,180,337.25,172.07Z"/><path class="cls-74" d="M463.49,182.31c-2.32-.79-.62-2.26-.35-3.19,3.11-10.82,5.57-21.7,5.44-33.09a47.87,47.87,0,0,0-4.15-19.35,5.73,5.73,0,0,1-.64-3c5.64,8.81,6.7,18.58,5.9,28.69a116.16,116.16,0,0,1-5.47,26.92C463.9,180.25,463.73,181.29,463.49,182.31Z"/><path class="cls-73" d="M375.27,46.21l3.94-.74c-1.77,6-1.92,12.24-1.76,18.46-4.71-3.28-5-7.9-3.85-12.91A47.21,47.21,0,0,1,375.27,46.21Z"/><path class="cls-70" d="M345.75,222a2.24,2.24,0,0,1,2.06-.88h24.8c1.06,0,2.17-.08,2.45,1.34C365.29,222.47,355.51,222.92,345.75,222Z"/><path class="cls-74" d="M463.73,189.42c-1.42-1.39-.53-3.17-.79-4.75h.73a9.38,9.38,0,0,1,.68,4.74C464.14,189.4,463.94,189.41,463.73,189.42Z"/><path class="cls-74" d="M463.81,123.67c-2-.26-2.3-1.67-2.23-3.32A5.71,5.71,0,0,1,463.81,123.67Z"/><path class="cls-74" d="M455.72,116.45a1.66,1.66,0,0,1,.93-1.55l1.65,1.65Z"/><path class="cls-69" d="M463.73,189.42c.21,0,.41,0,.62,0l.24,3.18C463.38,191.78,463.85,190.52,463.73,189.42Z"/><path class="cls-74" d="M461.6,120.39c-.81-.12-1-.71-1-1.41Z"/><path class="cls-69" d="M355.22,153.09q5.14-14.72,10.31-29.43c5.44,2.81,10.52,6.18,16.82,7.29a87.21,87.21,0,0,0,31.81-.12c7-1.35,14.28-1.44,21.09-3.92.52,3.6-1,7.06-.77,10.63l-3.17,2.92a2.09,2.09,0,0,0-1.52,1.43c-2.71,1.48-3.8,4.55-6.2,6.35-7.45-.26-14.4,1.85-21.38,4.18-8.6,2.86-16.43,7.37-24.7,10.92-3.57-.56-6.27-3-9.46-4.41-4.16-1.84-8.23-3.85-12.83-4.38Z"/><path class="cls-72" d="M377.51,163.34c8.27-3.55,16.1-8.06,24.7-10.92,7-2.33,13.93-4.44,21.38-4.18-2.57,3.84-5,7.72-5.27,12.53-.17,3.36.37,6.36,4.24,7.43-5,7.56-12,9.31-20.24,6.85A84.51,84.51,0,0,1,377.51,163.34ZM414.82,152c-4,3-5.86,7.84-4.67,11.48,1,3.08,3.35,4.54,6.65,4.89C412.65,163.58,412.44,158.24,414.82,152Z"/><path class="cls-71" d="M422.56,168.2c-3.87-1.07-4.41-4.07-4.24-7.43.23-4.81,2.7-8.69,5.27-12.53,2.4-1.8,3.49-4.87,6.2-6.35,3.64,1.63,6.24-1.18,10-1.64-3.48-1.88-5.79,1.4-8.5.21l3.17-2.92c1.29-.65,2.56-1.34,3.89-1.94s3.06-1.69,4.4-.38-.31,2.63-.7,4.15c3.36.6,6.7,1.21,9.7,2.93,3.64,2.09,3.74,2.78.5,5.46,1,1.24,3.24,1.87,2.49,4-.93,2.58-3.51,1.78-5.48,2.2a8.93,8.93,0,0,1,.7,2.56c0,.5-.87,1.46-1.16,1.4-4-.91-3.48,7.05-8.49,4.11-3.31-1.94-6-1.29-8.64,2C429.56,166.66,426.07,167.77,422.56,168.2ZM442.37,157l.33.18-.34-.17c-.79-3.25-3.35-2.76-5.73-2.64C438.33,155.65,440,157,442.37,157Zm3.4-5c-1.62-2.58-3.86-3.32-7.25-2.61Z"/><path class="cls-74" d="M435.25,126.91c-6.81,2.48-14.07,2.57-21.09,3.92a87.21,87.21,0,0,1-31.81.12c-6.3-1.11-11.38-4.48-16.82-7.29a4.88,4.88,0,0,1,1.63-3.89c8.12,3.33,16.3,6.47,25.11,7.44a148.39,148.39,0,0,0,29,.81,135.4,135.4,0,0,0,22.69-4.3C441.66,126.48,438.49,126.79,435.25,126.91Z"/><path class="cls-72" d="M422.91,191.14c-3.46-3.5-5.3-7.36-8.07-10.95C421.29,181,423.8,184.34,422.91,191.14Z"/><path class="cls-72" d="M430.15,186.1,419.67,177C423.77,175,429.17,179.61,430.15,186.1Z"/><path class="cls-74" d="M446.23,122.84a3.24,3.24,0,0,1,3.19-1.56C448.88,122.86,447.64,123,446.23,122.84Z"/><path class="cls-74" d="M449.45,121.27a2.53,2.53,0,0,1,2.33-1.56C451.8,121.42,450.63,121.36,449.45,121.27Z"/><path class="cls-74" d="M453.49,118.19a1.43,1.43,0,0,1,1.44-.9C454.71,118,454.14,118.16,453.49,118.19Z"/><path class="cls-74" d="M451.83,119.7l.78-.76Z"/><path class="cls-74" d="M444.58,123.63l.93-.66Z"/><path class="cls-74" d="M455,117.28l.76-.75Z"/><path class="cls-75" d="M444.91,101.63c-5.35,6.41-25.21,12.81-31.61,7.59Z"/><path class="cls-75" d="M396.28,109.64c-9.3-1-19.4.58-26.54-7.65l.4-1.36,26.43,8.05Z"/><path class="cls-73" d="M386.51,55.46c-1.37-.16-2.87-.11-3.36-1.64-.58-1.77.87-2.33,2.14-2.68a18.41,18.41,0,0,0,6.3-3.2c.88-.66,2-1,2.82.06.73.86.33,1.75-.17,2.56C392.44,53.45,389.66,54.79,386.51,55.46Z"/><path class="cls-73" d="M417.39,55.72c-3.29,0-5.6-2.1-7.62-4.63a1.86,1.86,0,1,1,2.6-2.67,16.94,16.94,0,0,0,6.24,3.21c1.34.34,2.69.85,2.24,2.57S418.9,55.66,417.39,55.72Z"/><path class="cls-76" d="M417.5,70c-2.08-.12-4.17-.15-6.24-.38a1.78,1.78,0,0,1-1.75-1.32c-.15-1,.68-1.28,1.35-1.66,1.67-.94,12,.14,13.25,1.43a1.47,1.47,0,0,1,.44,1c-.05.64-.64.77-1.17.77-1.95,0-3.91,0-5.87,0Z"/><path class="cls-76" d="M380.38,67.64a23.57,23.57,0,0,1,12.55-2.39,1.58,1.58,0,0,1,1.62,1.43c.07.95-.66,1.36-1.46,1.56C389.11,69.22,385.13,69.84,380.38,67.64Z"/><path class="cls-8" d="M398.22,79.59c-4.94-1.33-6.1-3.82-4-8.36,1.48-3.19,2.86-6.42,4.31-9.68,1.73.7,1.17,2.06.83,3a36.33,36.33,0,0,1-2.93,6.83c-2,3.28-1.37,5.34,2.24,6.54Z"/><path class="cls-73" d="M421.49,60.14c-2.69,3.51-6.15,3.15-9.52,2-2.26-.78-4.12-2.32-3.2-6.18C411.86,62.23,416.63,61.06,421.49,60.14Z"/><path class="cls-8" d="M444.8,64.42c-.58,2.77-3.43,4.89-2.14,8.31.28.76-1.3,2.52-2.67,2.26s-1.78-2-1.43-3.2c.93-3.35,2.53-6.27,6.14-7.47Z"/><path class="cls-8" d="M401.18,84.29c-.28,1.64,1.74,1.81,2.23,3.85-4.16-1.66-8.1-2.27-12.92-.48,2.69-4.59,6.34-2.68,9.14-3.51Z"/><path class="cls-14" d="M401.18,84.29l-1.55-.14c-.88-1.39-1.83-2.76-1.41-4.56l.45-1.67c1-.31,1.89-1.12,2.85.46A4.65,4.65,0,0,1,401.18,84.29Z"/><path class="cls-73" d="M392.29,60.54c-4.1,2.88-7.64,2.36-10.23-1.75A21.47,21.47,0,0,0,392.29,60.54Z"/><path class="cls-8" d="M444.7,64.32l.42-.3c-.11.13-.22.26-.32.4Z"/><path class="cls-77" d="M425.61,11.3c1.69-3.56,3.76-4.58,7.19-3.42C431,10.1,428.64,10.5,425.61,11.3Z"/><path class="cls-77" d="M438.47,16.53a5.35,5.35,0,0,1-.77-1.43c-.23-1.34-1.51-2.62-.45-4,.33-.45,1.07-.22,1.3.26C439.34,13,440.67,14.65,438.47,16.53Z"/><path class="cls-77" d="M414.87,32.71c1.26,5.7,1.26,5.7-1.51,9.07C412.62,38.4,414.05,35.62,414.87,32.71Z"/><path class="cls-77" d="M380.57,34.38c-.35,1.49-.6,3-1.09,4.45a10.79,10.79,0,0,1-2.15,3.66C376.94,39.27,377.71,36.42,380.57,34.38Z"/><path class="cls-77" d="M387.23,39.85c-.46-4.36-.37-4.67,2.58-8.77A11.77,11.77,0,0,1,387.23,39.85Z"/><path class="cls-77" d="M401.79,31.21c-.42,3.09-.67,6.14-2,9.24C398.41,37,398.51,36.54,401.79,31.21Z"/><path class="cls-77" d="M423.47,45.7a23.89,23.89,0,0,1,1.91-9.84C425.81,39,426.14,42,423.47,45.7Z"/><path class="cls-77" d="M435.33,38.33c.68,3.31,1.35,6.61-1.79,10.19C434.24,44.53,434.78,41.43,435.33,38.33Z"/><path class="cls-77" d="M441.69,52c.51-2.79.87-4.62,2.78-6.58C445,48.31,444.54,50.14,441.69,52Z"/><path class="cls-77" d="M450.7,48.86c1.41,2.31.79,3.91-2.18,5.5Z"/><path class="cls-76" d="M431.31,140.46c2.71,1.19,5-2.09,8.5-.21-3.78.46-6.38,3.27-10,1.64A2.09,2.09,0,0,1,431.31,140.46Z"/><path class="cls-78" d="M414.82,152c-2.38,6.2-2.17,11.54,2,16.37-3.3-.35-5.64-1.81-6.65-4.89C409,159.88,410.78,155,414.82,152Z"/><path class="cls-76" d="M442.37,157c-2.36.07-4-1.31-5.74-2.63,2.38-.12,4.94-.61,5.73,2.64Z"/><path class="cls-76" d="M445.77,152l-7.25-2.61C441.91,148.67,444.15,149.41,445.77,152Z"/><path class="cls-76" d="M442.36,157l.34.17-.33-.18Z"/><path class="cls-79" d="M551.59,69.76c-26.19-36.38-55.76-5.42-55.76-5.42Z"/><polygon class="cls-79" points="516.08 62.07 492.06 57.54 520.9 38.6 549.91 52.05 533.57 64.97 516.08 62.07"/><rect class="cls-80" x="492.6" y="116.75" width="65.57" height="22.79"/><path class="cls-79" d="M567.51,109.37a5.63,5.63,0,0,0,.12.65,21.75,21.75,0,0,1-1.16,2c-3.1,4.74-7.65,7.64-13.06,9.39l-.7.23c-16.73,5.09-33.44,6-50.07-.43l-.15,0a18.5,18.5,0,0,1-11.25-20.43c.48-2.64,1-5.28,1.49-7.92.41-2.22.77-4.45,1-6.69-.2-7.34,0-14.67,2.07-21.8,11.62-3.23,23.34-2.63,35-.6,6.83,1.19,13.7,2.49,20,5.64l.75.38c-.08.32-.15.64-.21.95a31.41,31.41,0,0,0-.63,3.74s0,0,0,.07A15.31,15.31,0,0,0,553,84.91a13.58,13.58,0,0,0,.87,1.21c1.61,2,3.8,3.49,3.88,6.5A2.66,2.66,0,0,0,560.22,95a1.86,1.86,0,0,0,1.52-.52,4.81,4.81,0,0,0,1-1.79c.48-1.24.94-2.51,1.33-3.8A99.34,99.34,0,0,0,567.51,109.37Z"/><path class="cls-80" d="M578.09,151.32c3.3-4.65,3.28-9.91,1.09-15.14a5.23,5.23,0,0,1-.69-2.45,17.6,17.6,0,0,0-3.72-11.7c-.42-.59-1.08-1-.78-2.06,1.88-6.6.46-12.83-2.47-18.79A15.39,15.39,0,0,1,570,92.46c.29-2.51,1.15-5.14.4-7.53-2.05-6.45-1.93-13.26-3.44-19.68a47,47,0,0,0-16.6-26c-2.6-2.11-5.56-3.35-8.92-1.85-1,.43-1.14.05-1.51-.7A11.41,11.41,0,0,0,532.75,31a21.26,21.26,0,0,0-12.06-.29c-22.43,5.75-39,19.36-50.49,39.39-2,3.42-1.65,7.21-.48,10.87-.05-6,2-11,6.84-14.79a48.16,48.16,0,0,0-.94,10.4c0,6.27-1.95,11.58-6.76,15.75a21.22,21.22,0,0,0-6,8.94,103.27,103.27,0,0,0-3.46,11,21.55,21.55,0,0,0,.41,12.66,18.57,18.57,0,0,0,1.35,3l.1.2c.23.38.45.77.66,1.15a52.89,52.89,0,0,1,3.76,7.53c.12.29.22.6.33.89a2,2,0,0,0,.29-1.13c0-.28-.06-.56-.09-.81a30.22,30.22,0,0,0-1.88-6.25c-.08-.18-.14-.35-.2-.53-.13-.34-.26-.7-.37-1a24.71,24.71,0,0,1-.77-2.84c-1.53-7.15,1-12.54,8-17.49-.62,7.15-1.14,14.22-1.84,21.26-.09.81-.17,1.63-.26,2.44a33,33,0,0,1-1,5.17c-.14.46-.27.93-.43,1.39h0a25.1,25.1,0,0,1-3,6.28c-1.17,1.72-2.92,2.84-4.49,4.67a11,11,0,0,0,3.52-1.27,26.37,26.37,0,0,0,4.2-3.11,19,19,0,0,0-.06,5.15,35.51,35.51,0,0,0,1.27,6,6.15,6.15,0,0,1,0,3.53c-1.86,6.09-3.88,12.06-9.94,15.43a7.57,7.57,0,0,0-1.56,1.13A4.85,4.85,0,0,0,456,178.8c.67-.23,1.34-.46,2-.71l.21-.09c.65-.24,1.3-.5,1.92-.8,7-3.09,12.22-7.9,14.67-16,.62,8.46,2.48,16.78,1.43,25.82.17-.26.33-.52.5-.77.83-1.28,1.65-2.5,2.44-3.73a41.07,41.07,0,0,0,3.44-6.35c.17,1.85.27,3,.42,4.59.37-.21.73-.42,1.08-.64,4.93-3.12,8-7.61,10.74-12.42.5-.84,1-1.7,1.46-2.55.14-.26.28-.5.41-.75,0,.25.06.49.07.75.06.87.08,1.75.07,2.62,0,4-.68,7.81-.28,11.67.51,5.06,1.54,9.89,5.52,14.35-.3-5-1.14-9.36-.71-13.77.53-5.48,1.94-10.3,3.78-12l.07-.08a.31.31,0,0,1,0,.1c-.61,8.47.27,11.58,3.94,13.26-1.75-4.19-1.21-8.27.11-12.33l.12-.38c.2-.64.42-1.26.64-1.89.3-.89.62-1.77.95-2.64a34.49,34.49,0,0,0,1.76-6.49,10.64,10.64,0,0,0,.17-1.11,4.61,4.61,0,0,0,.07-.5,29,29,0,0,0,0-6.9c0-.15,0-.29-.06-.44a32.12,32.12,0,0,0-2.64-9.09c-.53-1.16-1.12-2.31-1.78-3.46-.41-.69-.81-1.39-1.21-2.1-.69-1.22-1.36-2.45-2-3.7-.4-.76-.78-1.52-1.16-2.28a17.31,17.31,0,0,1-1.76-6.29,17.67,17.67,0,0,1-4.77-3.44l0,0c-.46-.48-.89-1-1.29-1.48a18.76,18.76,0,0,1-3.73-14.83c.47-2.64,1-5.28,1.49-7.92.4-2.18.76-4.37,1-6.57,0,0,0-.08,0-.12-.16-6.55,0-13.08,1.46-19.48.19-.78.39-1.55.62-2.32,1-.28,2-.53,3-.75h0a60.53,60.53,0,0,1,8.39-1.27c.06-.42.13-.85.22-1.27h0c.08-.5.19-1,.31-1.48.26-1.13.58-2.26.95-3.39a22.14,22.14,0,0,1,1.22-3,17.4,17.4,0,0,1,7.59-7.92c1.66-.86,3.43-1.53,5.21-.13l.09-.08s0,.1,0,.11a3.69,3.69,0,0,0-.65-.18c-4-.2-8.78,3.29-11.19,7.82A13.44,13.44,0,0,0,511,57.27a21.36,21.36,0,0,1,7.32-1.56,28.6,28.6,0,0,0,9.5-2.28,4.22,4.22,0,0,0,1.09-.7c.81-.66,1.61-1.4,3.07-1,1,.28,2.45-1.11,3.68-1.75.19,0,.51-.14.55-.08.2.32,0,.54-.27.68-.93,1.16-1.85,2.3-2.76,3.45-.14.16-.27.33-.39.49A31.52,31.52,0,0,1,539.91,60,29.11,29.11,0,0,1,545.07,67a9.69,9.69,0,0,1,.46.91c.22.43.42.86.61,1.31a38.94,38.94,0,0,1,2.71,9.85c.41,2.78.86,5.52,1.5,8.2v0c.22.92.47,1.84.75,2.74v0a31.54,31.54,0,0,0,4.4,9.21,8.1,8.1,0,0,1,.59,1,13.25,13.25,0,0,1,1,8.49c-.16-.71-.36-1.4-.57-2.08a33.71,33.71,0,0,0-5-9.92c-.29,2.84-.43,5.18-.77,7.5s-.71,4.74-1.23,7.05a33.73,33.73,0,0,1-1.67,5.46,21.44,21.44,0,0,1-3.38,5.8,17,17,0,0,0-1.12,1.49h0a16.87,16.87,0,0,0-.92,1.57c-.13.26-.25.51-.37.77a14,14,0,0,0-.83,8.71c.07.3.12.59.17.89a18.87,18.87,0,0,1,.26,3.55,16.28,16.28,0,0,1-2.14,7.63,21,21,0,0,1-2.25,3.3,18,18,0,0,0-2.76,4.66c-2.81,6.84-1.62,15.37,3.25,21.81a15.17,15.17,0,0,1,2.06-12.37,16.06,16.06,0,0,0,2.69,10.86c.08.11.15.24.24.35.24.38.49.77.76,1.14a7.92,7.92,0,0,1,1,1.75,7.81,7.81,0,0,1,.57,2.7,9.51,9.51,0,0,1-.29,2.77,12.88,12.88,0,0,1-1.58,3.64c-.46.73-.94,1.45-1.41,2.17.11.11.21.23.3.34,1-.42,2-.85,3-1.25l.66-.27c.36-.14,1.05-.63,1.15,0,.23,1.56.85,1.14,1.35.71a2.68,2.68,0,0,1,.46-.38,26.72,26.72,0,0,0,6.25-5,22.7,22.7,0,0,0,1.83-2.2,26.84,26.84,0,0,0,3.61-6.71c.25-.61.46-1.25.66-1.9s.4-1.52.6-2.29a11.53,11.53,0,0,1-2.13,9c-.12.18-.26.36-.39.54a3.15,3.15,0,0,0,.33-.22,13.58,13.58,0,0,0,3.09-2.74,29.67,29.67,0,0,0,4.18-7.3c1.79-4,2.33-8.31,2.71-13.34,2.08,4,4.57,6.33,9.09,7.07C574.24,159.52,575.05,155.62,578.09,151.32Zm-2.87-21c-2.22-2-4.33-4.14-4.59-7.36C572.49,125.27,574.37,127.49,575.22,130.35Zm-4.09-24.86a24.71,24.71,0,0,1,2.11,14C569.26,116.18,569.55,111.74,571.13,105.49ZM536.62,49.37s-.09.11-.14.15l-.16-.29.16-.15A1.92,1.92,0,0,1,536.62,49.37Zm20,63.94c-.17,1.17-.38,2.31-.65,3.44a35.46,35.46,0,0,1-1.18,4.21c-.2.62-.42,1.22-.67,1.82q-.5,1.26-1.11,2.46c-.26.55-.56,1.08-.85,1.62.08-.53.18-1,.28-1.56.15-.73.31-1.46.5-2.17s.32-1.14.5-1.7a48.4,48.4,0,0,1,1.7-4.68C555.59,115.6,556.09,114.45,556.61,113.31Z"/><path class="cls-81" d="M519.13,105.77c-5.83-1.58-7.2-4.51-4.72-9.88,1.74-3.76,3.38-7.58,5.09-11.43,2,.84,1.37,2.44,1,3.55A44.13,44.13,0,0,1,517,96.08c-2.32,3.86-1.61,6.3,2.65,7.71C519.48,104.45,519.3,105.11,519.13,105.77Z"/><path class="cls-82" d="M514.57,118.58c.23-2-2.16-2-2.87-4.4,5,1.7,9.7,2.18,15.27-.24-2.53,4.9-6.26,3.94-9.33,4.41-1,.15-.14.32-1.16.29Z"/><path class="cls-82" d="M525.08,113.93s-3.87-3.33-11.8.09A16.8,16.8,0,0,0,525.08,113.93Z"/><path class="cls-79" d="M517.44,118.31s-4.68-1.14-5.67-3.38-3.79,5.13-3.79,5.13h8.79Z"/><path class="cls-80" d="M539.34,76.35a26.87,26.87,0,0,0-12.24.27c-1,.25-1.62.68-.61,1.39a6.53,6.53,0,0,0,4.27,1,51.56,51.56,0,0,1,10,.12c2.11.22,4.23.36,3.75-.78S541.66,76.86,539.34,76.35Z"/><path class="cls-80" d="M503.68,73.89a26.77,26.77,0,0,1,12.05,2.22c1,.4,1.49.92.38,1.47a6.54,6.54,0,0,1-4.37.28,51.56,51.56,0,0,0-9.86-1.47c-2.12-.12-4.24-.32-3.58-1.37S501.31,74,503.68,73.89Z"/><circle class="cls-10" cx="533.57" cy="86.32" r="3.28"/><ellipse class="cls-11" cx="533.93" cy="85.61" rx="0.66" ry="0.83" transform="translate(212.63 520.56) rotate(-62.65)"/><circle class="cls-10" cx="507.36" cy="83.84" r="3.28"/><ellipse class="cls-11" cx="508.4" cy="83.35" rx="0.66" ry="0.83" transform="translate(200.83 496.65) rotate(-62.65)"/><path class="cls-80" d="M508.47,63.49s-2.35,6.73,0,7.91-7.78,2.71-14.55-6.42S508.47,63.49,508.47,63.49Z"/><path class="cls-79" d="M457.63,154.81c1.3-1.64,2.57-3.3,3.91-4.9.65-.79,1.31-1.57,2-2.34,2.46-2.92,4.93-5.82,7.41-8.73a2.57,2.57,0,0,0,.7-2.17c-.28-1.75-.54-3.49-.91-5.21-.11-.5,0-1.45-1.13-1.13-.36.09-.29-.24-.13-.44.32-.42,0-.67-.23-1l-.05-.05a11.5,11.5,0,0,0-6.16-3.77,6.36,6.36,0,0,0-.73-.16,5.72,5.72,0,0,0-2.45,0,6.19,6.19,0,0,0-3.07,2c-.52,1.5-1.84,2.41-2.71,3.65a2.51,2.51,0,0,0-.67,2.47,1.2,1.2,0,0,1-.37,1.3c-.17-1.64-1-3-.45-4.49a2.4,2.4,0,0,1-.26-.62c-.66-5.25-1.3-10.51-2-15.76a21,21,0,0,0-1.07-5.31,2.14,2.14,0,0,0-1.84-1.31.87.87,0,0,0-.95.85c0,1.47-.29,3,.23,4.41a1.61,1.61,0,0,1,0,2c0,.84,0,1.68,0,2.52.53,1.42.34,2.91.54,4.36a19.23,19.23,0,0,1,0,3.64,13.06,13.06,0,0,0,.93,5.9c-.88-1.09-2-2-2.06-3.54-.55.07-.69-.37-.91-.72-2.11-3.3-4.22-6.61-6.37-9.87a7.48,7.48,0,0,0-2.31-2.6c-.42-.26-.78-.73-1.37-.33a1.39,1.39,0,0,0-.53,1.49,5.05,5.05,0,0,0,.37,1.2c1.65,3.66,3.33,7.31,5,11,.49,1.09.93,2.21,1.41,3.32-2.19-1.28-4-2.77-6-4.12-1.33-.93-2.52-2.12-4.13-2.59-.59-.18-1.35-.36-1.81.28s-.05,1.27.42,1.75c1.17,1.19,2.41,2.33,3.61,3.51.84-.09,1.08.11,1.39,1.21.17.16.32.33.49.49.27,0,.5,0,.63.27h0l.27.28a8.77,8.77,0,0,1,2.94,2c1.51,1.39,3.14,2.62,4.73,3.9a1.35,1.35,0,0,1,.52.79A45.65,45.65,0,0,1,446,144c.27,1.9.79,3.72,1.18,5.58a30.46,30.46,0,0,0,1,4.29,3,3,0,0,0,2.88,2.33c.36,0,.8-.07.91.43s-.22.66-.53.88a5.17,5.17,0,0,1-2,1c-2.59.56-3.73,2.35-4.12,4.79-.62,3.81-1.49,7.55-2.36,11.3-.31,1.31-.53,2.63-.76,3.95-.05.29-.07.56-.4.67a45.73,45.73,0,0,0-.84,5.49c-.7,4.78-1.07,9.6-1.58,14.41-.34,3.23-.75,6.45-1,9.7a84.9,84.9,0,0,0-.63,9.17c.8,1,.95,2.3,1.48,3.43.12.24.23.5.35.74H456.1c.57-.93,1.12-1.87,1.68-2.81,1.86-3.17,3.48-6.47,5.13-9.75.48-.94.85-2,1.3-2.91a1.43,1.43,0,0,0-.19-1.33c-.84-1.73-1.73-3.46-2.65-5.16a5.69,5.69,0,0,1-.92-4.16c-.94-.83-.55-2-.69-3-.59-4.22-1.08-8.43-1.59-12.65,0-.3,0-.59,0-.88,0-.44,0-.87,0-1.31a.61.61,0,0,1-.18-.07.75.75,0,0,1-.34-.66c-.07-.57-.14-1.15-.2-1.72l-1-8.31c-.12-.05-.36-.08-.37-.15-.47-3.11-1.6-6.11-1.53-9.29A3.62,3.62,0,0,1,457.63,154.81Zm-3.1-4.53c-2.12-3.64-3.58-7.25-5.56-10.6-1-1.7-.85-1.84,1-2.34a5,5,0,0,0,.64-.26c1.27-.49,1.87-.23,2.11,1.12.63,3.54,1.18,7.1,1.75,10.65A12.65,12.65,0,0,1,454.53,150.28Zm-.09-13.92a29.84,29.84,0,0,1,2.79-5.42,6.71,6.71,0,0,0,1.25-2.91c.06-.56.32-.78,1-.48l.29.11a2.25,2.25,0,0,0,.42.13,5.72,5.72,0,0,0,.57.11l.45,0,.39,0c.65,0,1.31,0,1.94,0H464l.21,0a.86.86,0,0,1,.23.06l.25.12.12.07.1.08a.84.84,0,0,1,.15.18.67.67,0,0,1,.13.21.91.91,0,0,1,.07.25,2,2,0,0,1,0,1,2,2,0,0,0,1.73,1.2c1,.17.87.58.55,1.21.23.12.15.22,0,.29v.44c.09.59,0,1.21,0,1.82,0,.12,0,.22,0,.33s0,.2,0,.3a1.16,1.16,0,0,0,.08.32,1.54,1.54,0,0,0,.08.19,1.51,1.51,0,0,0,.11.22l.15.24.14.18c.29.33,0,.8-.41,1.11l-.16.1-.13.07-.13.07c-.77.33-1.58.54-2.32.93-1.69.9-2.31,1.61-1.16,3.34.19.27.44.59.09.84s-.54-.11-.68-.32c-.85-1.26-2.1-2.26-2.52-3.8l-2.46-.81a3.21,3.21,0,0,1-2.67.2C454.48,138.18,454,137.6,454.44,136.36Z"/><path class="cls-79" d="M621.12,213.91c-2.58-3.81-5-7.76-7.43-11.64q-2.52-4-5.06-8a1.49,1.49,0,0,0-2,.59c.45.38-.38.71,0,1.12,1.32,1.53.36,2.42-.89,3.36-2.91,2.22-5.76,4.54-8.67,6.78-.83.64-1,1.09-.18,1.89a40.71,40.71,0,0,0,10.17,7.2c1.66.87,3.66.41,5.5.7a30.68,30.68,0,0,1,6.86,1.73c.63.26.42.6.13,1a2.24,2.24,0,0,1-1.37.65,59.39,59.39,0,0,0-8.44,2.85h13.8A12.43,12.43,0,0,0,621.12,213.91Z"/><path class="cls-83" d="M458.15,179.47c0-.44,0-.87,0-1.31.18-.84.16-2.13,1.3-1.88.76.16.78,1.44.66,2.32a6,6,0,0,0,1.88,5.6A43.14,43.14,0,0,1,470,195c.83,1.55,1.81,3,2.77,4.5a1.32,1.32,0,0,0,2.43-.12,13.24,13.24,0,0,0,1.53-6.63c0-.41-.06-.83-.06-1.25q0-10.65,0-21.31a2.3,2.3,0,0,1,.35-1.68l.76,4.93c.4,2.7.81,5.41,1.18,8.11.47,3.49.88,7,1.36,10.48.24,1.75.59,3.5-.28,5.19-2.22,5.77-4.75,11.41-7.11,17.12-.5,1.21-1.21,1.16-2.18,1.08a9.32,9.32,0,0,1-5-2.48c.93-2,1.85-4,2.8-5.91a1.19,1.19,0,0,0-.13-1.4,58.24,58.24,0,0,0-8-9.57c-.94-.84-.55-2-.69-3-.59-4.2-1.07-8.43-1.6-12.65C458.55,180.05,458.53,179.76,458.15,179.47Z"/><path class="cls-79" d="M439.24,221.4c.12.24.23.5.35.74h-1.31c-.19-1.38-.34-2.79-.52-4.17C438.56,219,438.71,220.27,439.24,221.4Z"/><path class="cls-79" d="M468.61,207c-1,1.95-1.87,3.94-2.8,5.91-1.55,3.1-3.12,6.2-4.77,9.24H456.1c.57-.93,1.12-1.87,1.68-2.81,1.86-3.17,3.48-6.47,5.13-9.75.48-.94.85-2,1.3-2.91a1.43,1.43,0,0,0-.19-1.33c-.84-1.73-1.73-3.46-2.65-5.16a5.69,5.69,0,0,1-.92-4.16,57.82,57.82,0,0,1,8,9.57A1.21,1.21,0,0,1,468.61,207Z"/><path class="cls-79" d="M436.27,131.51a8.63,8.63,0,0,1,2.94,2c1.51,1.39,3.14,2.62,4.73,3.9a1.37,1.37,0,0,1,.52.79A45.65,45.65,0,0,1,446,144c.27,1.9.79,3.72,1.17,5.57a31.77,31.77,0,0,0,1,4.3,3,3,0,0,0,2.89,2.34c.35,0,.78-.09.91.42s-.23.66-.53.88a5.27,5.27,0,0,1-2,1c-2.59.57-3.73,2.36-4.13,4.81-.61,3.8-1.49,7.54-2.35,11.29-.3,1.3-.52,2.63-.76,3.95-.05.29-.08.56-.4.67.73-7.12,1.87-14.19,2.81-21.28a36.58,36.58,0,0,0-.25-11.67c-.41-2.19-.7-4.41-1.05-6.61a3.54,3.54,0,0,0-1.26-2.36c-1.75-1.46-3.37-3.08-5-4.65C436.69,132.32,436.23,132.08,436.27,131.51Z"/><path class="cls-79" d="M456.45,167.41c-.13-.06-.36-.09-.37-.16-.48-3.11-1.61-6.11-1.54-9.3a3.63,3.63,0,0,1,3.09-3.14,23.51,23.51,0,0,0-1.37,9.8A9.11,9.11,0,0,0,456.45,167.41Z"/><path class="cls-84" d="M446.66,116.61c.52,1.41.34,2.91.54,4.36a20.11,20.11,0,0,1,0,3.64,13.06,13.06,0,0,0,.93,5.9c-.88-1.09-2-2-2.06-3.55Z"/><path class="cls-79" d="M456.76,126.94c-.51,1.5-1.84,2.41-2.71,3.64a2.55,2.55,0,0,0-.67,2.48,1.26,1.26,0,0,1-.37,1.31c-.17-1.64-1-3-.45-4.49Z"/><path class="cls-79" d="M433.48,129.24c.84-.08,1.08.13,1.38,1.22A3,3,0,0,1,433.48,129.24Z"/><path class="cls-84" d="M446.66,112.13a1.61,1.61,0,0,1,0,2C446.67,113.44,446.67,112.78,446.66,112.13Z"/><path class="cls-85" d="M435.37,131c.26,0,.5,0,.63.28A.58.58,0,0,1,435.37,131Z"/><path class="cls-85" d="M436,131.23l.29.28A.28.28,0,0,1,436,131.23Z"/><path class="cls-79" d="M619.53,218.64a2.24,2.24,0,0,1-1.37.65,59.39,59.39,0,0,0-8.44,2.85H597.49l0,0c1.41-2,1.41-2-.08-4.06-2.57-3.49-5.17-7-7.76-10.44a51.52,51.52,0,0,1,6.06-4.68c1.53-1.17,3.29-2.07,4.49-3.66,1.57-.52,2.7-1.74,4-2.64.81-.54,1.57-1.14,2.35-1.71.45.38-.38.71,0,1.12,1.32,1.53.36,2.42-.89,3.36-2.91,2.22-5.76,4.54-8.67,6.78-.83.64-1,1.09-.18,1.89a40.71,40.71,0,0,0,10.17,7.2c1.66.87,3.66.41,5.5.7a30.68,30.68,0,0,1,6.86,1.73C620,217.94,619.82,218.28,619.53,218.64Z"/><path class="cls-83" d="M571.81,199.9c-.52,2.49-.21,5-.21,7.53,0,1.22-.29,1.6-1.45,1.26-1.77-1-2.95-2.64-4.52-3.87-1.16-.92-2-2.19-3.27-3-.66-.44-.88-.36-.9.43-.1,4.65-.8,9.25-1.15,13.88-.15,2-.36,3.94-.53,5.91h-1c-.13-3.28-.25-6.58-.48-9.85-.34-4.88-.65-9.75-.83-14.63-.15-4,.69-7.86,1.25-11.76.26-1.8.48-3.6.74-5.39a3,3,0,0,0,.06-.32c.15-1,.32-2,.54-2.94.13-.63.24-1.26.33-1.9a38.83,38.83,0,0,1,1.55-7.4c.64.35.61,1,.6,1.54,0,2.64.28,5.27,0,7.94,0,.11,0,.23,0,.34-.27,3.85,1.43,7.15,3.33,10.36a72.92,72.92,0,0,1,4.74,9.43,4.09,4.09,0,0,0,.79,1.45A1.06,1.06,0,0,1,571.81,199.9Z"/><path class="cls-83" d="M600.24,199.25c-1.2,1.59-3,2.48-4.49,3.66a51.66,51.66,0,0,0-6,4.68c-.93.07-1.4.86-2.07,1.34-3,2.17-6,4.34-9,6.57-.68.51-1.1.53-1.64-.08a7.55,7.55,0,0,1-1.84-2.25c.66,0,1-.53,1.35-.92,2.94-2.92,5.84-5.9,8.83-8.79,3.36-3.25,6.8-6.43,10.17-9.67.68-.65,1.18-.62,1.74.06a4.65,4.65,0,0,1,1.5,2.75.85.85,0,0,0,.48.8A1.75,1.75,0,0,1,600.24,199.25Z"/><path class="cls-14" d="M466.71,150.68c-.81.44-1.63.79-2.43-.26Z"/><path class="cls-86" d="M543.93,175.05c-.23-.27-.14-.58-.11-.89.26,0,.61-.07.68.26S544.21,174.92,543.93,175.05Z"/><path class="cls-86" d="M543.7,172.51c0-.22-.05-.44-.07-.65C544,172,544.12,172.24,543.7,172.51Z"/><path class="cls-87" d="M522.53,150.08a.47.47,0,0,1,0,.17s0,0-.07.06A.18.18,0,0,1,522.53,150.08Z"/><path class="cls-86" d="M522.09,154.78v.29l-.23-.09Z"/><path class="cls-84" d="M454.53,150.27c-2.12-3.63-3.58-7.24-5.56-10.59-1-1.7-.85-1.84,1-2.34a4.4,4.4,0,0,0,.65-.26c1.26-.48,1.86-.23,2.1,1.12.63,3.54,1.18,7.1,1.75,10.65A10.5,10.5,0,0,1,454.53,150.27Z"/><path class="cls-84" d="M465.16,129.93a4.56,4.56,0,0,0-6.05,1c-.75,1-1.5,2-2.22,3-1.06,1.51-1,2,.36,3.17.35.31.64.67,1,1a3.23,3.23,0,0,1-2.68.2c-1-.22-1.52-.81-1.1-2a31.94,31.94,0,0,1,2.8-5.42,6.85,6.85,0,0,0,1.26-2.91c0-.56.31-.78,1-.49a9.62,9.62,0,0,0,4.06.4C464.82,128,465.5,128.58,465.16,129.93Z"/><path class="cls-84" d="M460.67,139a30.91,30.91,0,0,1,5.19-2.24c.77-.27,1.15-.61,1.06-1.48a2.69,2.69,0,0,1,.5-2.23c.17,1.2-.31,2.46.67,3.59.38.45-.21,1.11-.82,1.36-.77.32-1.6.53-2.33.92-1.69.91-2.32,1.62-1.16,3.35.19.27.45.59.09.84s-.54-.11-.68-.33C462.34,141.55,461.09,140.55,460.67,139Z"/><path class="cls-88" d="M458.15,179.47c.38.29.4.58,0,.87C458.16,180.05,458.16,179.76,458.15,179.47Z"/><path class="cls-85" d="M467.42,132.63l0-.29C467.66,132.46,467.59,132.55,467.42,132.63Z"/><path class="cls-89" d="M499.72,130.37c.21,0,.44,0,.42.34a.12.12,0,0,1-.09.09c-.3,0-.3-.22-.34-.42Z"/><path class="cls-89" d="M501.05,131.78l-.08.1s-.06-.07-.06-.11a.35.35,0,0,1,.08-.1Z"/><path class="cls-89" d="M499.43,130.1l-.11-.13.12.12Z"/><path class="cls-89" d="M499.71,130.38c-.09-.1-.19-.19-.28-.28h0l.28.28Z"/><path class="cls-88" d="M507.57,146.65l2,.84C508.68,147.71,507.79,148,507.57,146.65Z"/><path class="cls-88" d="M510.38,147.78a.66.66,0,0,1,.58.26C510.53,148.48,510.44,148.17,510.38,147.78Z"/><path class="cls-88" d="M522.39,161.53l0,.56c-.2,0-.32.5-.48.23A.51.51,0,0,1,522.39,161.53Z"/><path class="cls-88" d="M522.79,164.43a.81.81,0,0,1,.2.74A.67.67,0,0,1,522.79,164.43Z"/><path class="cls-89" d="M542.72,175.25a.79.79,0,0,1-.39,1.08C542.06,175.86,542.36,175.63,542.72,175.25Z"/><path class="cls-86" d="M532.85,178.9h-.19l.05-.17.12.19Z"/><path class="cls-90" d="M553.88,132.34l-.06.11.06-.11Z"/><path class="cls-86" d="M517.88,167.81c.08,0,.2.05.22.11s-.05.15-.09.23-.19-.06-.22-.11S517.85,167.89,517.88,167.81Z"/><path class="cls-91" d="M531.82,122s-1.55,12,4.07,13.28,13,.21,17.88,3.29-21.11,17.61-21.11,17.61L493.4,142l1-5.14s8.11.27,11.59-1.54,2.84-12,2.84-12Z"/><path class="cls-8" d="M609.6,191.18c-1.36-2.11-2.6-4.29-3.83-6.48-.39-.68-.7-.79-1.21-.18s-1,.53-1.43-.23c-2.21-3.59-4.72-7-7-10.59-2.94-4.73-5.85-9.5-9.13-14-2-2.76-3.5-5.93-6.48-7.89a2.16,2.16,0,0,1-.54-1c-.12-.29,0-.72-.44-.77s-.58.22-.71.56-.43.73-.79.68a.63.63,0,0,1-.36-.14c-.52-.37-.17-.81.16-1.18.15-.17.39-.34.25-.59s-.49-.26-.74-.16a2.24,2.24,0,0,1-2-.1,4.17,4.17,0,0,0-2.75-.7,3.93,3.93,0,0,1-2.46-.78c-4.14-2.77-8.15-5.71-12.5-8.13-1.08-.59-2.17-1.15-3.29-1.68l0,0h0c-.58.73-10,12.12-31.74,11.59-.46,0-.89,0-1.3,0h-.15a33.87,33.87,0,0,1-8.27-.9l-1.13-.31a3.06,3.06,0,0,1-.29.21l-.13.07a2.87,2.87,0,0,0,.43-.28c-.21-.31-.53-.27-.83-.28-.43.44-.52.13-.58-.26l-.84-.29c-.86.22-1.75.47-2-.84a48.9,48.9,0,0,1-9.65-6.25,25.51,25.51,0,0,1-1.88-1.87c-.57-.54-1.53-.72-1.65-1.69a5,5,0,0,0-4.23,1.38h0c-2.1-.19-3.67,1-5.36,2-3.78,2.14-7.58,4.26-11.25,6.61-1,.61-1.75,1.54-3.08,1.27-.35-.08-.58.21-.77.51a2,2,0,0,1-2.05,1,4.44,4.44,0,0,1-.61-.08c-.62-.13-1.28-.53-2-.14a6.18,6.18,0,0,0-3.12,3.19c-1.3,3.62-3.21,7-4.45,10.63-.2.57-.34,1.32-1.19,1.39a9,9,0,0,0,.18,2.8l1,8.31c.06.57.13,1.15.2,1.72a.75.75,0,0,0,.34.66.61.61,0,0,0,.18.07l0-.16c0-.19.05-.39.09-.59l0-.16,0-.13a1.35,1.35,0,0,1,.28-.64l.07-.07.08-.06a.34.34,0,0,1,.12-.06.93.93,0,0,1,.56,0,.51.51,0,0,1,.17.07h0a.68.68,0,0,1,.12.12.47.47,0,0,1,.11.13l0,.05a.59.59,0,0,1,.06.14,1,1,0,0,1,.09.24l0,.17a1.66,1.66,0,0,1,0,.22,5.77,5.77,0,0,1,0,1.18,6,6,0,0,0,1.88,5.61A42.72,42.72,0,0,1,470,195c.83,1.56,1.81,3,2.77,4.49a1.32,1.32,0,0,0,2.43-.11,13.1,13.1,0,0,0,1.52-6.63c0-.41-.05-.83-.05-1.25v-5.17q0-8.07,0-16.14a2.3,2.3,0,0,1,.35-1.68c.28,1.81.53,3.36.76,4.93.4,2.7.81,5.41,1.18,8.11.05.35.1.7.14,1.05.41,3.14.78,6.29,1.22,9.42.24,1.77.59,3.51-.29,5.2.47,1.63-.24,3.15-.44,4.72-.5,3.8-1.31,7.56-1.77,11.37-.35,2.95-.76,5.91-1.1,8.87h82.06V222c-.13-3.28-.25-6.58-.48-9.85-.34-4.88-.65-9.75-.83-14.63-.15-4,.69-7.86,1.25-11.76.26-1.8.48-3.6.74-5.39a3,3,0,0,0,.06-.32c.15-1,.32-2,.54-2.94.13-.63.24-1.26.33-1.9a38.83,38.83,0,0,1,1.55-7.4c.64.35.61,1,.6,1.54,0,2.64.28,5.27,0,7.94,0,.11,0,.23,0,.34-.27,3.85,1.43,7.15,3.33,10.36a72.92,72.92,0,0,1,4.74,9.43,4.09,4.09,0,0,0,.79,1.45,1.06,1.06,0,0,1,.36,1c-.52,2.49-.21,5-.21,7.53,0,1.22-.29,1.6-1.45,1.26.68,1.56,2.37,2.16,3.35,3.44.41.53.86,1.16,1.71,1,.64,0,.95-.54,1.34-.92,3-2.93,5.84-5.9,8.82-8.79,3.36-3.26,6.81-6.43,10.19-9.67.67-.65,1.16-.62,1.73.05a4.7,4.7,0,0,1,1.5,2.76.85.85,0,0,0,.48.8,1.74,1.74,0,0,1,1,1.85c1.57-.52,2.7-1.74,4-2.64.81-.54,1.57-1.14,2.35-1.71a1.49,1.49,0,0,1,2-.59c-.14-.65.2-1,.7-1.39S610.11,192,609.6,191.18ZM464.28,150.41l2.42.27C465.9,151.12,465.08,151.47,464.28,150.41Zm48.86,6.07,1.11,0Zm-.68,0-1.26-.06Zm-3.31-7.38h0Zm.79,0h0Zm-1.89,7.18,1.13,0Zm2.37,1.19-.12,0Zm.7-8.7h0c-.06,0-.11.06-.16.08l-.19.07Zm-.47.19h0l-.1,0Zm-1.9.12-.31,0Zm-.61-.08-.9-.17c-.27-.06-.55-.1-.82-.14l.82.13Zm-16.77-9.09.77.81Zm2.77,2.83-.13-.12-.61-.6a2.39,2.39,0,0,1-.22-.23,20,20,0,0,0,1.92,1.77l-.52-.43C494.43,143,494.27,142.83,494.14,142.7Zm3.15,2.47a19.94,19.94,0,0,0,5.09,2.73,11.87,11.87,0,0,0,1.72.4,10.69,10.69,0,0,1-1.72-.4A19.94,19.94,0,0,1,497.29,145.17Zm9.7,11c-.34,0-.68.11-.69.54a.53.53,0,0,0,.05.19.53.53,0,0,1-.05-.2C506.31,156.31,506.65,156.22,507,156.21Zm.11,1.11a2.84,2.84,0,0,1-.42-.09c.13,0,.28.06.42.09a2,2,0,0,0,.69,0A2,2,0,0,1,507.1,157.32Zm4.8.26h0Zm-.74,0h0Zm1.56,0h-.48c.44,0,.86,0,1.27,0h0C513.26,157.58,513,157.58,512.72,157.58Z"/><path class="cls-79" d="M506,121.83s15.65,9.82,31.74-3.85H527l-12.4.6-8.27-1.3Z"/><path class="cls-80" d="M550.35,87.29s4.94,25.78-18.53,34.73v4.65L555,131l9.64-7.39.66-22.54Z"/></g></g></svg>