<svg xmlns="http://www.w3.org/2000/svg" viewBox="0 0 213.84 280.31"><defs><style>.cls-1{fill:#9acad8;}.cls-2{fill:#ba5c1c;}.cls-3{fill:#2c222b;}.cls-4{fill:#b27246;}.cls-5{fill:#c28155;}.cls-6{fill:#65c8d0;}.cls-7{fill:#fff;}.cls-8{fill:#5774b3;}.cls-9{fill:#4e659a;}.cls-10{fill:#4d2f1f;}.cls-11{fill:none;stroke:#4a4662;stroke-miterlimit:10;stroke-width:2px;}.cls-12{fill:#f6d532;}.cls-13{fill:#f4d438;}.cls-14{fill:#e6b241;}.cls-15{fill:#b3653e;}.cls-16{fill:#eca816;}.cls-17{fill:#fed200;}.cls-18{fill:#904126;}.cls-19{fill:#b4653e;}.cls-20{fill:#e5b141;}.cls-21{fill:#fdf9c6;}.cls-22{fill:#f6d73d;}.cls-23{fill:#f7d83d;}.cls-24{fill:#fef8be;}.cls-25{fill:#f5d432;}.cls-26{fill:#f5d73e;}.cls-27{fill:#e8b649;}.cls-28{fill:#fdefc3;}.cls-29{fill:#f7e281;}.cls-30{fill:#fdfdfc;}.cls-31{fill:#fdfcfc;}.cls-32{fill:#fdfcfb;}.cls-33{fill:#fcf6f2;}.cls-34{fill:#f5cb2e;}.cls-35{fill:#97500d;}.cls-36{fill:#b2633e;}.cls-37{fill:#f7c319;}.cls-38{fill:#63629c;}.cls-39{fill:#df807b;}.cls-40{fill:#fbb4ab;}.cls-41{fill:#abc757;}.cls-42{fill:#7c74b1;}.cls-43{fill:#90b164;}.cls-44{fill:#716ca8;}.cls-45{fill:#f8b4b0;}.cls-46{fill:#52518b;}.cls-47{fill:#9b504c;}.cls-48{fill:#4a4662;}.cls-49{fill:#796ca1;}.cls-50{fill:#c16966;}.cls-51{fill:#ed9490;}.cls-52{fill:#fefefe;}.cls-53{fill:#81a258;}</style></defs><g id="Layer_2" data-name="Layer 2"><g id="question"><path class="cls-1" d="M213.84,0V266.14a1.93,1.93,0,0,1,0,.24s0,0,0,0a13.94,13.94,0,0,1-.82,4.54,14.17,14.17,0,0,1-13.34,9.38H14.18A14.17,14.17,0,0,1,0,266.14V0Z"/><path class="cls-2" d="M63.2,204s.23-1.64-3.41-2.67"/><path class="cls-3" d="M49.33,156.19a11.76,11.76,0,0,0,1.45,0c3.26-.23,14.83-.1,24.33,12,11.17,14.2,8.8,78.09,8.8,78.09H25.09s-4.49-53.63,5.16-72.81C38.55,156.9,47.1,156.09,49.33,156.19Z"/><path class="cls-4" d="M44,208s3.51,6.43,1,9.82,22.38.68,22.38.68-5.76-8.3-3.39-11.35S44,208,44,208Z"/><path class="cls-5" d="M75.09,195.18a11,11,0,0,1-6.72,12.21l-.09,0c-9.94,3.83-19.92,3.29-29.92.25-3.85-1.17-7-3.25-8.91-6.95a2.68,2.68,0,0,0-1.55-3.35c-3.82-2.14-5.34-5.81-5.55-10-.1-2,.58-3.88,3.16-4.1,3.2-.27,5.06.84,5.67,3.39a28.27,28.27,0,0,0,1.18,3.69c.26.66.59,1.45,1.52,1.38a1.59,1.59,0,0,0,1.5-1.43c0-1.8,1.35-2.69,2.31-3.88a8.27,8.27,0,0,0,.53-.72c1.72-2.62,1.6-5.52.94-8.49,0-.19-.08-.38-.13-.57l.46-.22c3.76-1.89,7.87-2.66,11.95-3.37,7-1.22,14-1.58,20.91.36a41.69,41.69,0,0,1,1.24,13c.15,1.34.37,2.67.62,4C74.49,192,74.81,193.6,75.09,195.18Z"/><path class="cls-5" d="M39,176.66c15.65-21.74,33.32-3.23,33.32-3.23"/><path class="cls-2" d="M25.16,186.09c.41,1.95,2.42,3.45,1.51,5.86-.2.54.92,1.78,1.89,1.59s1.25-1.37,1-2.25c-.66-2.36-1.79-4.42-4.34-5.27Z"/><path class="cls-3" d="M31.57,188.1s-.48,9.12-3,14.88,8,8.61,8,8.61a58.43,58.43,0,0,0,3-32.12"/><path class="cls-2" d="M58.43,198.18c3.48-.94,4.3-2.7,2.82-5.9-1-2.25-2-4.53-3-6.83-1.22.5-.82,1.45-.58,2.12a25.75,25.75,0,0,0,2.07,4.82c1.39,2.3,1,3.76-1.58,4.61C58.22,197.39,58.33,197.78,58.43,198.18Z"/><path class="cls-2" d="M61.63,201.25c-.2,1.17,1.23,1.28,1.57,2.72a11.8,11.8,0,0,0-9.12-.34c1.67-2.84,3.86-2.15,5.71-2.33.61-.06.09-.19.7-.14Z"/><path class="cls-2" d="M55.21,203.7s2.2,2.11,7,.32A10,10,0,0,0,55.21,203.7Z"/><path class="cls-5" d="M59.66,201.31s2.8.68,3.39,2,2.26-3.06,2.26-3.06H60.06Z"/><path class="cls-6" d="M43.11,178.86l-.13-.12s0,0-.31-.61a4.14,4.14,0,0,1-.33-1.47s-.55,1.28-.82,2a1.64,1.64,0,0,0-.13.41.31.31,0,0,0,0,.08,2.58,2.58,0,0,0,0,.4c0,.86.45,1.55,1,1.55s1-.69,1-1.55v0A1.35,1.35,0,0,0,43.11,178.86Z"/><path class="cls-6" d="M44.81,186l-.13-.12s0,0-.31-.61a3.93,3.93,0,0,1-.34-1.47s-.54,1.28-.82,2a2.19,2.19,0,0,0-.13.41s0,.06,0,.08a2.6,2.6,0,0,0,0,.4c0,.86.45,1.55,1,1.55s1-.69,1-1.55v0A1.25,1.25,0,0,0,44.81,186Z"/><path class="cls-3" d="M46.61,183.13a16,16,0,0,0,7.13-1.63c.57-.27.87-.59.2-.89a3.85,3.85,0,0,0-2.62-.05,31.79,31.79,0,0,1-5.85,1.13c-1.26.12-2.52.3-2.1.9S45.19,183.11,46.61,183.13Z"/><path class="cls-3" d="M67.78,180.28a16,16,0,0,1-7.32.15c-.61-.12-1-.36-.4-.81a3.84,3.84,0,0,1,2.53-.69,31,31,0,0,0,5.94-.33c1.26-.19,2.52-.32,2.26.37S69.15,179.91,67.78,180.28Z"/><circle class="cls-3" cx="49.8" cy="186.56" r="1.96"/><ellipse class="cls-7" cx="49.58" cy="186.13" rx="0.5" ry="0.39" transform="translate(-79.96 43.58) rotate(-27.35)"/><circle class="cls-3" cx="65.46" cy="185.07" r="1.96"/><ellipse class="cls-7" cx="64.84" cy="184.78" rx="0.5" ry="0.39" transform="translate(-77.63 50.43) rotate(-27.35)"/><path class="cls-3" d="M24.54,201.92s-6.65,64.4-10.89,71.17L33,275.78l2.85-62Z"/><path class="cls-3" d="M84,275.78l.7-.09L100,273.81l-5.44-9.7H80.27Z"/><path class="cls-8" d="M81.58,280.26H40.74c-.86-2.6-2.74-4.55-4.25-6.74-2.79-4.06-5.22-8.13-5.78-13.36-.59-5.52.86-10.56,1.93-15.74.26-1.28.71-2.5-.31-3.63.12-3.74,1.45-7.31,1.41-11.08-.07-5.58,0-5.58,5.57-6.48a15.45,15.45,0,0,0,1.45,7h0c.72,1.63,0,3.86,2.09,4.94h0a11.39,11.39,0,0,0,6.37,8.51c5.26,2.64,11.2,3.43,17.07,1,1.2-.51,2.1-.94,1.88-2.41,5.46-1.88,7.94-5.63,7.91-11.48,0-5.12,1.82-6.83,6.21-6.84,0,3.81,0,7.62,0,11.43,0,1.1-.31,2.43,1.4,2.67.18.24-.32.95.52.74l-.53-.74,0-14.07c.11,0,.23-.11.33-.1s.24.1.25.17c.53,4-.44,8.06.68,12a5.93,5.93,0,0,1-.5,4.73c-1.51,2.12-.07,3.87.72,5.71l.7,2.72a3.74,3.74,0,0,0,1.39,2.91v2.73c.18,9-4,15.46-12.57,19.31,2.7,1.09,5-.95,6.4.34S81.38,278.31,81.58,280.26Z"/><path class="cls-5" d="M106.24,269c.1,3.86,1.69,7.44,2.09,11.25h-12a44.23,44.23,0,0,0-.15-4.89c-1.68-12.53-4.23-25-3.38-37.74.16-2.47.47-5.1-3.19-5.37a1.34,1.34,0,0,1-.89-.9c-.37-3.09-3.07-5.56-2.37-8.93,0-.18.05-.36.07-.55l.76-.22.69-.06,1.42.25a10.57,10.57,0,0,0,4.56,2.5c3.89,1.2,5.75,4.45,6.56,7.7a159.06,159.06,0,0,1,3.78,25.1C104.57,261.1,104.52,265.24,106.24,269Z"/><path class="cls-5" d="M86.38,222.43c-.7,3.37,2,5.84,2.37,8.93a1.34,1.34,0,0,0,.89.9c3.66.27,3.35,2.9,3.19,5.37-.85,12.76,1.7,25.21,3.38,37.74a44.23,44.23,0,0,1,.15,4.89H93.55c-.5-5.19-1.66-10.31-1.49-15.58A2.53,2.53,0,0,0,90.3,262c-.15-3.77-.31-7.54-.46-11.31,0-1.4,0-2.8,0-4.2,1.63-2.47.56-5.09.75-8.11a6.77,6.77,0,0,0-2,5.43l-1.24-.09c-1.42-5-1.64-10.14-2.09-15.24C85.12,226.41,84.64,224.18,86.38,222.43Z"/><path class="cls-5" d="M32.84,222.75l0,14v6.88h0l-1.12-.16-1.24-.19-.36-.05c0,.2.07.4.12.58a9.7,9.7,0,0,1-.73,1.23c-1.08,4.2-2.72,8.26-3,12.65,0,.71,0,1.42,0,2.14.09.5.18,1,.26,1.51-7.4-6.85-10.5-18-10.5-18a74,74,0,0,1,.61-15.27C18,219.65,32.84,222.75,32.84,222.75Z"/><path class="cls-9" d="M31.94,247.66a8.11,8.11,0,0,1-1-1.69c.28-.82.55-1.65.78-2.48a24.61,24.61,0,0,0,.63-2.7,2.24,2.24,0,0,1,.49.78,3.48,3.48,0,0,1,0,2.07h0c-.06.25-.12.51-.17.77C32.42,245.5,32.18,246.58,31.94,247.66Z"/><path class="cls-9" d="M30.88,280.26c.21-2.78-1.21-5.45-.58-8.26a4.6,4.6,0,0,0-.22-3.31,33.86,33.86,0,0,1-1.69-5.93,19.94,19.94,0,0,0,3.38,2.11,37,37,0,0,0,4.72,8.65c1.51,2.19,3.39,4.14,4.24,6.74Z"/><path class="cls-9" d="M30.34,243.92c.93,3.57,3.72,6.33,4.16,10.09a6.51,6.51,0,0,0,1.65,4.06,46.64,46.64,0,0,1,4.49,6.73,24.62,24.62,0,0,0-4.87-1.29,48.9,48.9,0,0,0-9.19-8.93c-2.69-2.14-5.73-3.83-7.83-6.75Z"/><path class="cls-9" d="M81.58,280.26c-.2-1.95.87-4.43-.52-5.74s-3.7.75-6.4-.34c8.6-3.85,12.75-10.28,12.57-19.31,2.55,1.06,1.33,3.11,1.09,4.73-.53,3.6-2,7.12-.56,10.8-1.73,3.12-1.41,6.5-1.26,9.86Z"/><path class="cls-5" d="M90.3,262a2.53,2.53,0,0,1,1.76,2.73c-.17,5.27,1,10.39,1.49,15.58H90.73q-.67-6.39-1.34-12.77C89.22,265.57,89.88,263.78,90.3,262Z"/><path class="cls-9" d="M30.08,268.69A4.6,4.6,0,0,1,30.3,272c-1.06-1-1.27-2.45-1.77-3.74a27.12,27.12,0,0,1-1.81-6.9c.53.49,1.09,1,1.67,1.4A33.86,33.86,0,0,0,30.08,268.69Z"/><path class="cls-9" d="M89.39,267.49c-1.07.68-.94,2-1.63,2.91-1.41-3.68,0-7.21.56-10.79.24-1.63,1.46-3.68-1.09-4.74v-2.73c1.11-1.73.07-2.42-1.39-2.91-.23-.91-.47-1.82-.7-2.72,1.52-2.13.2-3.89-.72-5.71a5.93,5.93,0,0,0,.5-4.73c-1.12-4-.15-8.06-.68-12.06,0-.06-.16-.15-.25-.16a.84.84,0,0,0-.33.1l-1.37,0c-4.38,0-6.22,1.71-6.2,6.83,0,5.85-2.45,9.6-7.91,11.48l-3.53,1.46-.57.53-.14.13c-.22,0-.43,0-.65,0H54.81a14.2,14.2,0,0,1-5.23-2.5c-2.76-1.78-4.06-4.88-6.72-6.67h0c-.52-1.72.07-3.9-2.09-4.94h0c-.06-2.43.33-4.95-1.45-7-5.57.9-5.64.9-5.57,6.48a37.92,37.92,0,0,1-.92,7,28.63,28.63,0,0,0-.5,4,24.61,24.61,0,0,1-.63,2.7c-.23.83-.5,1.66-.78,2.48a10,10,0,0,1-.7-2.14,5.05,5.05,0,0,0,.24-.53c1.07-2.47,1.12-5.19,1.37-7.85.38-4.22.69-8.47,1-12.7l.06-.77,1.49-.1c1,.79,1.86-.28,2.8-.14h1.5c.57.13,1.09.15,1.4-.47h.1c.73.07,1.52-.11,2,.65a20.64,20.64,0,0,0,3,12.43c5.68,9.48,15.58,12.06,23.46,5.07,5.13-4.55,6.71-10.75,6.49-17.47l1-.56,2-.27c1.78,1.31,3.71.71,5.62.39h1.49l1.28.38c0,.18,0,.36-.07.54-1.74,1.74-1.26,4-1.08,6,.45,5.11.67,10.26,2.09,15.24.81,2.32,1.63,4.65,2.45,7,.15,3.77.31,7.54.46,11.31C89.88,263.78,89.22,265.57,89.39,267.49Z"/><path class="cls-9" d="M82.3,223.92l1.36,0q0,7,0,14.07h0c-1.71-.24-1.39-1.57-1.4-2.67C82.28,231.54,82.29,227.73,82.3,223.92Z"/><path class="cls-9" d="M42.86,235.19c2.66,1.78,4,4.89,6.72,6.67a14.2,14.2,0,0,0,5.23,2.5,11.17,11.17,0,0,0,8.48,0q.33,0,.66,0l.7-.67,3.53-1.45c.22,1.47-.68,1.9-1.88,2.41-5.87,2.48-11.81,1.69-17.07-1A11.39,11.39,0,0,1,42.86,235.19Z"/><path class="cls-9" d="M84.42,240.8c.92,1.81,2.24,3.58.72,5.71C84.35,244.67,82.91,242.92,84.42,240.8Z"/><path class="cls-9" d="M39.31,223.23c1.78,2.07,1.39,4.59,1.45,7A15.45,15.45,0,0,1,39.31,223.23Z"/><path class="cls-9" d="M40.77,230.26c2.16,1,1.57,3.22,2.09,4.94C40.82,234.12,41.49,231.89,40.77,230.26Z"/><path class="cls-9" d="M85.84,249.23c1.46.49,2.5,1.19,1.39,2.91A3.74,3.74,0,0,1,85.84,249.23Z"/><path class="cls-9" d="M83.68,238l.53.74c-.84.21-.34-.5-.52-.74Z"/><path class="cls-10" d="M87.21,221.66c.21-.33.43-.39.69-.06Z"/><path class="cls-5" d="M88.63,243.76a6.77,6.77,0,0,1,2-5.43c-.19,3,.88,5.64-.75,8.11Z"/><path class="cls-5" d="M88.63,243.76l1.26,2.68c0,1.4,0,2.8,0,4.2-.82-2.32-1.63-4.65-2.45-7Z"/><path class="cls-4" d="M42.21,221.91l3.35-.49c.67,1.29,1.66,2,3.1,1.32,1.72-.81,3.14-1.88,3.35-4.05s-.73-4.64.72-6.75l.71.71a7.44,7.44,0,0,0,.78,1.87c4.1,5.22,8.93,9.14,16,9.51,2,.1,4,1.12,4.3-2a.87.87,0,0,1,.61-.08c.22,6.71-1.36,12.91-6.49,17.46-7.88,7-17.79,4.41-23.46-5.07A20.59,20.59,0,0,1,42.21,221.91Z"/><path class="cls-8" d="M63.29,244.36a11.17,11.17,0,0,1-8.48,0Z"/><path class="cls-8" d="M64.65,243.69l-.7.67Z"/><path class="cls-4" d="M45,217.79a8.39,8.39,0,0,1-2.82,4.12c-2.38,2,2.13-.31,2.13-.31l4.46.06L45,217.79"/><path class="cls-11" d="M102.35,224.79c1.77-3.6-.49-8.33-5-10.57"/><path class="cls-11" d="M104.76,226.32c2.6-5.29-.71-12.23-7.4-15.51"/><path class="cls-11" d="M37.11,242.68c-3.36-2.19-3.83-7.41-1-11.65"/><path class="cls-11" d="M35.82,245.23c-4.93-3.22-5.63-10.88-1.55-17.12"/><path class="cls-12" d="M39.43,235.06l-.15.12c-.12-1.18-.23-2.36-.35-3.54,0-.15-.08-.31,0-.46l.12.11a1,1,0,0,1,.1.51c.11.89.2,1.78.29,2.66A1,1,0,0,1,39.43,235.06Z"/><path class="cls-13" d="M99.18,218.64l-.27.1c-1-.48-2-.93-3.09-1.37a1,1,0,0,1-.27-.18.13.13,0,0,1,0-.1.08.08,0,0,1,.09-.05C96.8,217.56,98,218.05,99.18,218.64Z"/><path class="cls-14" d="M95.6,217l-.08,0c-.29-.08-.37-.35-.49-.57-.43-.79-.9-1.56-1.33-2.35a2,2,0,0,0-.2-.31.27.27,0,0,1-.12-.23c.05-.05.1-.08.16,0a.71.71,0,0,1,.3.32C94.42,215,95,216,95.6,217Z"/><path class="cls-15" d="M73.05,244.93c-.08-.21-.28-.16-.42-.18l-9.14-1.66-.35-.08a.42.42,0,0,1-.16-.27c0-.29-.1-.59.1-.85.2-.09.38,0,.56.06,1.58.47,3.16.93,4.76,1.38.14,0,.36.2.42,0s-.18-.27-.34-.33c-1.66-.63-3.3-1.31-5-2a.84.84,0,0,1-.36-.19,1.33,1.33,0,0,1,.25-1.14c.23-.08.4.07.57.16,1.55.78,3.08,1.58,4.63,2.37.11,0,.27.25.38.06s-.11-.27-.24-.35c-1.54-1-3.09-2-4.62-3a.81.81,0,0,1-.31-.27,1.2,1.2,0,0,1,.58-1.07,1,1,0,0,1,.45.28c1.39,1.09,2.74,2.23,4.14,3.32.12.09.26.31.41.16s0-.32-.17-.43c-1.25-1.22-2.49-2.45-3.74-3.66-.2-.18-.44-.33-.5-.62a1.11,1.11,0,0,1,.83-.87,1.87,1.87,0,0,1,.5.47c1.1,1.34,2.22,2.65,3.33,4l0,0c.12.12.21.38.41.24s0-.34-.13-.47c-1.07-1.54-2.11-3.11-3.19-4.65a.56.56,0,0,1-.15-.37,1.41,1.41,0,0,1,.76-.7.3.3,0,0,1,.39.12c1,1.63,1.81,3.3,2.75,4.93.1.18.15.56.43.42s0-.39-.11-.57c-.66-1.59-1.35-3.16-2-4.73a2.14,2.14,0,0,1-.23-.7,1.08,1.08,0,0,1,1.23-.44,1.52,1.52,0,0,1,.27.59c.54,1.67,1.07,3.35,1.61,5,0,.16.09.46.26.4s.08-.32,0-.5c-.37-1.8-.79-3.59-1.14-5.4a.83.83,0,0,1,0-.44,1.17,1.17,0,0,1,1.17-.29c.19.16.17.39.2.6.2,1.79.42,3.58.63,5.36,0,.21-.06.58.25.56s.14-.36.14-.56c0-1.87-.07-3.74-.1-5.6a.93.93,0,0,1,0-.33,1.14,1.14,0,0,1,1.25.08,3.07,3.07,0,0,1,0,1.17c-.12,1.67-.26,3.34-.39,5a.49.49,0,0,0,0,.17c0,.11,0,.22.17.24s.17-.1.19-.21c0-.31.13-.61.18-.92.26-1.61.59-3.21.86-4.83a1.08,1.08,0,0,1,.1-.35.31.31,0,0,1,.38-.13,1.7,1.7,0,0,1,.83.35.94.94,0,0,1-.08.6l-1.5,5.28-.09.31c0,.14,0,.26.13.31s.19-.1.23-.2c.71-1.76,1.4-3.53,2.09-5.29a1,1,0,0,1,.28-.49,1.39,1.39,0,0,1,1,.63,1.3,1.3,0,0,1-.2.49l-2.5,4.88c-.09.18-.31.43-.06.57s.3-.2.39-.35c1-1.5,2-3,3-4.55.08-.12.13-.28.3-.32.4.13.57.49.8.79a.5.5,0,0,1,0,.12,2.69,2.69,0,0,1-.55.75c-.56.72-1.13,1.43-1.7,2.15-.18.21-.35.43-.52.66l-.07.08a2.81,2.81,0,0,0-.33.44,5.22,5.22,0,0,1-.54.7.38.38,0,0,0-.14.47,15,15,0,0,1-1.24,1.29c-.69.72-1.39,1.42-2.09,2.13C73.24,244.84,73.18,244.94,73.05,244.93Z"/><path class="cls-16" d="M63.48,239.72a2,2,0,0,0-.25,1.11.13.13,0,0,1-.13.16,5.31,5.31,0,0,0-1.55-.71l-9.24-3.66-13.22-5.26a.2.2,0,0,1-.12-.18c.61-.79,1.33-1.47,2-2.22.18-.2.37-.39.56-.59a.15.15,0,0,1,.14-.09A8.91,8.91,0,0,1,43,229c2.46,1.31,4.95,2.54,7.41,3.83,4,2.1,8,4.21,12,6.25.34.17.68.35,1,.51A.16.16,0,0,1,63.48,239.72Z"/><path class="cls-17" d="M55.76,212.71c.78-.92,1.56-1.83,2.42-2.68.34-.23.44.08.53.28.23.57.49,1.12.73,1.69.62,1.5,1.29,3,1.92,4.47.83,2,1.68,3.91,2.52,5.86q1.08,2.53,2.19,5.07c.82,1.89,1.62,3.79,2.43,5.68a1.22,1.22,0,0,1,.13.47.4.4,0,0,1-.07.21,1.43,1.43,0,0,1-.85.5.52.52,0,0,1-.46-.34c-1-1.76-1.92-3.52-2.9-5.27q-2.19-4-4.36-7.92-2.07-3.76-4.15-7.52A.51.51,0,0,1,55.76,212.71Z"/><path class="cls-16" d="M55.76,212.71a13.77,13.77,0,0,0,1,1.9c1.06,2,2.14,3.93,3.22,5.88l2.32,4.16,3,5.41c.71,1.3,1.41,2.6,2.12,3.89.07.12.14.24.31.22s.09.19,0,.26-.1-.14-.2-.07a2.59,2.59,0,0,0-.78.66.18.18,0,0,1-.23.07,3.57,3.57,0,0,0-.6-1.1q-5.35-7.74-10.66-15.52c-1-1.47-2-2.94-3-4.42-.09-.13-.21-.26-.18-.44a.69.69,0,0,1,.56-.22Z"/><path class="cls-16" d="M68.52,233.72l0-.09a.43.43,0,0,0,0-.35.62.62,0,0,1,.13-.57c.17-.24.34-.24.49,0a.49.49,0,0,0,.62.29c1-.29,1-.28.72-1.3-.34-1.45-.63-2.91-1-4.36-.4-1.85-.79-3.71-1.19-5.56-.31-1.43-.62-2.85-.92-4.28q-.6-2.76-1.19-5.52c-.3-1.41-.64-2.82-.9-4.24,0-.11.05-.21.2-.18l1.36.26c.85.18,1.69.34,2.53.55a5.48,5.48,0,0,0,.1,1.71c.34,2.88.66,5.77,1,8.66.47,4,.92,8.05,1.4,12.08,0,.32.07.65.1,1a1.51,1.51,0,0,0,.28.88.25.25,0,0,1-.3.12,2,2,0,0,0-1.15.18,4,4,0,0,1-1.13.35,1.72,1.72,0,0,0-1.08.43C68.59,233.82,68.55,233.78,68.52,233.72Z"/><path class="cls-16" d="M69.72,233.17a.52.52,0,0,1-.66-.42c-.07-.22-.19-.16-.28,0a.59.59,0,0,0-.15.56c0,.12.13.26-.06.35-.4-1.08-.89-2.12-1.35-3.18-.38-.89-.74-1.78-1.13-2.66s-.78-1.78-1.17-2.68c-.28-.63-.54-1.27-.81-1.91-.4-.93-.82-1.86-1.22-2.79-.27-.62-.52-1.25-.79-1.87-.42-1-.85-1.94-1.26-2.91s-.76-1.77-1.13-2.66-.81-1.77-1.14-2.69c0-.15-.15-.35-.39-.25a.31.31,0,0,1,.34-.23l3.47,0c.15,0,.31,0,.4.14a3.19,3.19,0,0,1,.23.61q3.5,10.89,7,21.78A1.13,1.13,0,0,1,69.72,233.17Z"/><path class="cls-16" d="M74.36,232.87a1.48,1.48,0,0,0-1.13-.12c-.11,0-.23.05-.25-.12a1.25,1.25,0,0,0,.14-.71c-.08-5.59-.19-11.18-.28-16.77,0-2.55-.1-5.1-.13-7.64,0-.2,0-.39-.2-.5,0-.34.26-.27.44-.2s.48.23.72.34c.82.43,1.67.8,2.52,1.16.14.1.37-.11.48.12a1.1,1.1,0,0,0-.28.83L75.94,215q-.69,8.58-1.36,17.17a2.18,2.18,0,0,0,0,.57A.19.19,0,0,1,74.36,232.87Z"/><path class="cls-17" d="M63.43,239.59c-.18,0-.31-.07-.46-.14-2.77-1.43-5.57-2.82-8.33-4.3-3.73-2-7.53-3.89-11.28-5.87a9.78,9.78,0,0,1-1.7-1,4.29,4.29,0,0,1,.07-1.24c.07-.71.14-1.42.22-2.14a.28.28,0,0,0-.05-.23l0-.1.09-.08c.24-.08.42.07.6.18q5.55,3.64,11.14,7.26l9.12,5.93.65.41a.56.56,0,0,1,.29.38C63.75,239,63.74,239.37,63.43,239.59Z"/><path class="cls-16" d="M76.67,233.38a1.6,1.6,0,0,0-1.1-.29c-.13,0-.19-.07-.19-.2a.72.72,0,0,0,.24-.45c.36-2.17.76-4.33,1.15-6.49.48-2.63,1-5.26,1.44-7.89.29-1.56.56-3.14.84-4.71s.61-3.3.89-4.95c0-.25,0-.51.11-.76.07-.06.14-.09.22,0l.22.17a4.05,4.05,0,0,1,.57.43l2.17,1.63a.26.26,0,0,1,.11.14,1.37,1.37,0,0,1-.09.56c-1,3.64-2.06,7.27-3.09,10.9S78.05,229,77,232.76a4.21,4.21,0,0,0-.11.6C76.81,233.46,76.74,233.43,76.67,233.38Z"/><path class="cls-16" d="M78.73,234.5a2.22,2.22,0,0,0-1-.61.16.16,0,0,1,0-.11c.7-1.7,1.35-3.42,2-5.13,1.5-3.77,3-7.54,4.47-11.31.94-2.36,1.86-4.73,2.79-7.08a.56.56,0,0,1,.14-.25.11.11,0,0,1,.11,0c.5.51.94,1.08,1.45,1.59l.88.93c.09.17.33.2.41.39a2.13,2.13,0,0,0-.6.91,15.62,15.62,0,0,1-.82,1.7L81.67,229c-.86,1.68-1.66,3.4-2.55,5.08-.08.16-.11.33-.18.49A.14.14,0,0,1,78.73,234.5Z"/><path class="cls-16" d="M63.12,241.92c-.12.26,0,.54-.07.8s-.25.16-.39.13c-1.32-.24-2.63-.45-3.94-.69L55,241.51c-2.4-.44-4.8-.85-7.2-1.27l-5.3-.93c-.75-.13-1.5-.27-2.25-.37l-2.92-.48,2-3.28c0-.06.07-.15.17-.15,2.59.75,5.2,1.45,7.78,2.23l1.14.33c4.64,1.32,9.27,2.69,13.91,4a1.82,1.82,0,0,0,.83.11C63.16,241.77,63.19,241.84,63.12,241.92Z"/><path class="cls-18" d="M73.05,244.93c.37-.4.73-.8,1.12-1.19.81-.82,1.63-1.63,2.45-2.45,0-.29.34-.39.44-.63a1.61,1.61,0,0,1,.28-.3A12.38,12.38,0,0,0,78.7,239c.77-.72,1.49-1.48,2.22-2.24l.17-.14a.6.6,0,0,1,.08-.08,2,2,0,0,1,.4-.31c.68-.57,1.27-1.23,1.89-1.86,1.35-1.34,2.67-2.71,4-4.06a.85.85,0,0,0,.24-.32,2.86,2.86,0,0,1,.52-.63c1.42-1.39,2.81-2.81,4.21-4.22,2-2.06,4.07-4.13,6.13-6.18.09-.09.19-.19.3-.28a.5.5,0,0,1,.3-.05c.41-.1.61.21.77.48s0,.54-.25.75l-7,7.09L75,244.78c-.06.07-.14.13-.21.2-.12.38-.47.57-.7.87a1.07,1.07,0,0,1-.38.2.76.76,0,0,1-.79-.59A.51.51,0,0,1,73.05,244.93Z"/><path class="cls-15" d="M73,245.46a1.13,1.13,0,0,0,.78.53.31.31,0,0,1,.19.2c.23.61.43,1.23.6,1.85a.32.32,0,0,1,0,.31,2.66,2.66,0,0,1-2.59-.82c-.42-.47-.41-.53,0-1Z"/><path class="cls-19" d="M74.1,245.8c.15-.35.49-.54.72-.82a3.81,3.81,0,0,0,1.29.27c.33.05.43.19.42.51a2.6,2.6,0,0,1-1.65,2.44s0,0,0,0A5.41,5.41,0,0,1,74.1,245.8Z"/><path class="cls-20" d="M40.23,238.94c.21-.12.43,0,.63,0l7.19,1.25,8.49,1.51,5,.86,1.12.21c.14,0,.27,0,.37-.08l.09.29-6.08-1.08-16.4-2.88A3,3,0,0,1,40.23,238.94Z"/><path class="cls-21" d="M80.27,207.62l-.23.06a.32.32,0,0,1-.24.13c-1,.22-1.91.4-2.86.63a.39.39,0,0,1-.28,0c-.15-.07-.34.07-.47-.1l3.68-.76C80,207.52,80.17,207.45,80.27,207.62Z"/><path class="cls-22" d="M62.27,209.93l-.28-.08a7.78,7.78,0,0,0,1.82-1.18c.47-.31.92-.67,1.38-1,.11-.08.21-.19.36-.09l-.13.13a6.64,6.64,0,0,1-1.14.9c-.51.41-1.05.77-1.58,1.15C62.58,209.85,62.46,210,62.27,209.93Z"/><path class="cls-23" d="M87.23,210l-.07,0a.61.61,0,0,1-.39.09c-1,0-2,0-3,0a.53.53,0,0,1-.46-.13l0-.14c1.13.08,2.26,0,3.38,0a1.58,1.58,0,0,1,.61.05s0,0,0,0S87.24,210,87.23,210Z"/><path class="cls-24" d="M93.54,213.6l-.14,0a1.31,1.31,0,0,1-.76-.07l-2.26-.47a.8.8,0,0,1-.41-.16c-.14-.12-.34-.18-.38-.39a7.25,7.25,0,0,0,2.25.63c.49.13,1,.21,1.51.32A.21.21,0,0,1,93.54,213.6Z"/><path class="cls-25" d="M41.9,224.71c.26.36,0,.73,0,1.08-.05.85-.17,1.69-.26,2.53l-.15.05Z"/><path class="cls-26" d="M51,215.08c.13-.26.25-.53.37-.79a2.32,2.32,0,0,0,.28-.44.79.79,0,0,1,.88-.46c-.16.11-.41.05-.52.25-.19.46-.51.84-.72,1.28C51.24,215,51.16,215.14,51,215.08Z"/><path class="cls-27" d="M87.23,210v-.09a11.85,11.85,0,0,1,1.49,1.67c-.41-.21-.6-.64-.93-.94S87.42,210.23,87.23,210Z"/><path class="cls-28" d="M81.06,208.22a1.49,1.49,0,0,1-.57-.43A.83.83,0,0,1,81.06,208.22Z"/><path class="cls-29" d="M42,224.36l.16,0c.07.12,0,.18-.08.27l-.11,0Z"/><path class="cls-16" d="M42,224.59l.08-.27,3.07-2.19a18.81,18.81,0,0,1,1.88,1.45l3.19,2.56c3.61,2.88,7.19,5.79,10.79,8.67,1,.79,2,1.57,3,2.39.13.11.29.16.42.27s0,.11,0,.16a1.86,1.86,0,0,0-.52,1,.09.09,0,0,1-.14,0c-.09-.31-.41-.38-.64-.53-1.74-1.16-3.49-2.29-5.25-3.43s-3.4-2.18-5.09-3.28l-4.46-2.93-4.65-3c-.37-.23-.72-.48-1.08-.72C42.41,224.7,42.26,224.55,42,224.59Z"/><path class="cls-16" d="M46.36,218.55c.32-.37.8-.43,1.21-.63.81-.39,1.66-.67,2.45-1.11.79.93,1.56,1.89,2.35,2.82q5.51,6.54,11,13.1l2,2.41a2,2,0,0,0,.47.45.13.13,0,0,1,0,.21,1.68,1.68,0,0,0-.75.87.16.16,0,0,1-.17,0c-1.29-1.32-2.63-2.58-3.94-3.87q-2.55-2.52-5.12-5c-2.41-2.35-4.82-4.72-7.23-7.06C47.84,220,47.07,219.33,46.36,218.55Z"/><path class="cls-16" d="M93.53,213.76a.66.66,0,0,1,.27.34c.57,1,1.09,2,1.72,3l0,.07a1,1,0,0,1-.26.42c-3.45,4.33-6.86,8.7-10.31,13-1.34,1.67-2.66,3.36-4,5a1.45,1.45,0,0,1-.36.38.19.19,0,0,1-.18,0c-.29-.23-.44-.6-.79-.77a.14.14,0,0,1,0-.11c1.4-2.08,2.74-4.2,4.1-6.3,1.11-1.69,2.2-3.39,3.29-5.09,2.09-3.24,4.19-6.47,6.28-9.72C93.36,213.93,93.4,213.81,93.53,213.76Z"/><path class="cls-30" d="M75.4,232.91l.17.18q-.55,3.06-1.12,6.11c0,.14.08.4-.24.36s-.36-.17-.34-.46c.18-2.07.33-4.15.49-6.23l.2-.12A1.09,1.09,0,0,1,75.4,232.91Z"/><path class="cls-30" d="M73,232.65l.24.1c0,2.09.07,4.19.1,6.28,0,.17.11.39-.23.39s-.33-.15-.36-.37c-.22-2-.45-4-.68-6,0-.07,0-.14,0-.2l.28-.13A.8.8,0,0,1,73,232.65Z"/><path class="cls-30" d="M77.73,233.8l0,.09q-1.14,2.88-2.29,5.78c0,.12,0,.4-.3.3s-.32-.25-.23-.53q.87-3,1.72-6.06h.16A1.2,1.2,0,0,1,77.73,233.8Z"/><path class="cls-31" d="M79.66,235.15v.1c-1.1,1.71-2.21,3.43-3.33,5.13-.07.1-.08.39-.33.22a.35.35,0,0,1-.15-.51c1-1.86,1.92-3.73,2.88-5.59l.19,0A1.45,1.45,0,0,1,79.66,235.15Z"/><path class="cls-30" d="M68.52,233.72l.14.05,2.46,5.71c.08.18.2.37-.09.51s-.34-.1-.44-.26c-1-1.77-2-3.53-2.93-5.3l0-.26A2.85,2.85,0,0,0,68.52,233.72Z"/><path class="cls-30" d="M69.74,233.34a1.85,1.85,0,0,1,1.13-.35c.45,2,.89,4.1,1.34,6.14,0,.18.1.37-.19.45s-.31-.11-.37-.29C71,237.31,70.38,235.32,69.74,233.34Z"/><path class="cls-32" d="M77.38,240.44l-.22.26a4,4,0,0,0-.31.27c0,.05-.12.08-.16,0s0-.1,0-.14l.52-.69a1.37,1.37,0,0,0,.39-.47h0a2.7,2.7,0,0,0,.56-.7l2.26-2.85c.36.08.47.36.54.67a3.71,3.71,0,0,1-.75.83c-.48.49-1,1-1.46,1.45S77.82,240,77.38,240.44Z"/><path class="cls-33" d="M76.73,240.82c0,.05,0,.2.1.1s.18-.2.33-.22l-.54.59C76.28,241.05,76.58,241,76.73,240.82Z"/><path class="cls-34" d="M81,236.78c-.2-.21-.3-.5-.54-.67V236l.14-.05a1.66,1.66,0,0,1,.57.69A.18.18,0,0,1,81,236.78Z"/><path class="cls-33" d="M78.19,239a1,1,0,0,1-.56.7A3.13,3.13,0,0,1,78.19,239Z"/><path class="cls-33" d="M77.64,239.66a.55.55,0,0,1-.39.47A1.37,1.37,0,0,1,77.64,239.66Z"/><path class="cls-17" d="M63.11,241a1.83,1.83,0,0,1-.06.7c0,.16-.13.18-.3.13l-9.18-2.64-5.19-1.48-8.58-2.47a.79.79,0,0,1-.37-.17c-.07-.65-.17-1.31-.21-2a9.14,9.14,0,0,1-.13-1.81c.76.21,1.46.57,2.2.85,1.59.61,3.18,1.24,4.77,1.87l5.25,2.11,5.8,2.27,5.21,2.09C62.61,240.6,63,240.61,63.11,241Z"/><path class="cls-17" d="M66.46,235.07a4.6,4.6,0,0,1-.61.56c-.18,0-.28-.08-.38-.2q-3.39-4.06-6.79-8.14-4-4.83-8.1-9.65a2,2,0,0,1-.56-.83c.29-.6.64-1.16,1-1.73.39-.3.46-.82.77-1.17.08-.09.11-.22.24-.27l6,8.81,4.82,7.06,3.38,4.89C66.38,234.59,66.66,234.76,66.46,235.07Z"/><path class="cls-17" d="M73,232.65a1.6,1.6,0,0,1-.69,0c-.22,0-.29-.13-.32-.36q-.51-4.63-1-9.25c-.25-2.24-.51-4.47-.77-6.71-.3-2.54-.59-5.08-.9-7.63a.42.42,0,0,1,.14-.38c1-.49,2-1,3.1-1.36.25-.1.33,0,.33.26,0,2.61.07,5.22.12,7.83,0,2.39.1,4.78.14,7.18,0,2.12,0,4.24.08,6.36,0,1.19,0,2.39.07,3.58C73.24,232.4,73.25,232.59,73,232.65Z"/><path class="cls-17" d="M62.27,209.93l2.94-2.11.21-.11c.29,1.09.51,2.19.73,3.29.2.93.42,1.85.62,2.78s.39,1.89.59,2.83c.13.65.28,1.29.42,1.94l.63,3c.14.64.29,1.29.43,1.94.22,1,.42,2,.63,3s.4,1.8.59,2.7c.25,1.13.49,2.26.74,3.38a.26.26,0,0,1-.22.36l-.86.27q-3.07-9.55-6.13-19.1Z"/><path class="cls-17" d="M75.4,232.91a3,3,0,0,1-.84-.16.46.46,0,0,1-.13-.36q.46-5.71.92-11.44c.22-2.74.43-5.48.65-8.22.1-1.3.23-2.6.32-3.9a.39.39,0,0,1,.34-.42,30.38,30.38,0,0,1,3.38-.73c.22.17.07.4,0,.57-.49,2.79-1,5.57-1.5,8.36s-1,5.78-1.57,8.68q-.51,2.85-1,5.7l-.27,1.53C75.67,232.7,75.66,232.91,75.4,232.91Z"/><path class="cls-17" d="M77.73,233.8l-.9-.43c-.11-.19,0-.38,0-.56.84-3,1.69-6,2.54-9q1.55-5.5,3.11-11c.26-.94.51-1.89.77-2.84l3.6,0,.28,0a21.21,21.21,0,0,1-.77,2.06c-.66,1.74-1.35,3.47-2,5.2s-1.41,3.5-2.11,5.26-1.44,3.72-2.17,5.58-1.44,3.64-2.16,5.45A.36.36,0,0,1,77.73,233.8Z"/><path class="cls-17" d="M79.66,235.15a4,4,0,0,1-.74-.62c-.09-.2,0-.36.11-.53,3.27-6.56,6.67-13.05,10-19.57.2-.39.38-.79.55-1.19a.51.51,0,0,1,.39-.32c1.15.18,2.29.45,3.43.7l.13.14a16.5,16.5,0,0,1-1.21,2c-.78,1.26-1.61,2.49-2.42,3.73l-2.81,4.33q-1.66,2.61-3.34,5.21c-1.1,1.71-2.22,3.41-3.33,5.11A3.58,3.58,0,0,1,79.66,235.15Z"/><path class="cls-17" d="M81.16,236.66c-.29-.15-.4-.44-.57-.69q1.95-2.43,3.89-4.88l5-6.32q3-3.75,5.93-7.49a1.12,1.12,0,0,1,.16-.13l3,1.34a.55.55,0,0,1,.31.25l-4.08,4.14-6.74,6.81c-.1.1-.2.22-.29.33a16,16,0,0,1-1.28,1.32c-.93.95-1.86,1.9-2.81,2.84a.63.63,0,0,0-.3.24l-.08.07c-.53.54-1.08,1-1.58,1.6a.47.47,0,0,1-.11.13,1.2,1.2,0,0,0-.48.44Z"/><path class="cls-35" d="M83.64,234.14,87,230.75c.25-.25.51-.48.77-.73-.11.42-.48.62-.75.89-1.73,1.77-3.49,3.52-5.23,5.28a.51.51,0,0,1-.28.15c0-.08,0-.13.09-.17l0-.1c.59-.54,1.13-1.11,1.71-1.67h0C83.42,234.28,83.54,234.22,83.64,234.14Z"/><path class="cls-36" d="M73.8,245.5a.32.32,0,0,1-.4-.19.27.27,0,0,1,.19-.38.26.26,0,0,1,.38.17A.31.31,0,0,1,73.8,245.5Z"/><path class="cls-33" d="M77.38,240.44a5.92,5.92,0,0,1,1.4-1.38A9.61,9.61,0,0,1,77.38,240.44Z"/><path class="cls-34" d="M81.63,236.17l-.09.17-.38.32A.76.76,0,0,1,81.63,236.17Z"/><path class="cls-17" d="M64.91,236.68a3.31,3.31,0,0,1-.53.79.4.4,0,0,1-.37-.12l-7.5-6L47.9,224.4l-2.44-2a.89.89,0,0,1-.28-.3c.36-1.2.74-2.4,1.18-3.58.29,0,.42.3.6.47,1.29,1.25,2.57,2.52,3.85,3.78l6.87,6.71,4.41,4.3,2.59,2.5A.8.8,0,0,1,64.91,236.68Z"/><path class="cls-37" d="M83.37,234.4a9.66,9.66,0,0,1-1.71,1.67A11.75,11.75,0,0,1,83.37,234.4Z"/><path class="cls-37" d="M83.64,234.14a.59.59,0,0,1-.27.27C83.36,234.22,83.49,234.17,83.64,234.14Z"/><path class="cls-5" d="M66.68,249.84c-2.27-.17-2.89-1.77-3.17-3.65-.41-2.68.53-5.11,1.53-7.52,1.13-1.26,1.39-3.08,2.73-4.2,2.19.5,3.33-1.34,5.37-2-2.14-.66-3,1.41-4.69,1l1.43-2c.65-.51,1.28-1,1.94-1.51s1.51-1.28,2.4-.7.12,1.5.07,2.38a16.57,16.57,0,0,1,5.7.55c2.24.75,2.37,1.12.87,3,.68.59,2,.68,1.82,1.93-.22,1.53-1.74,1.38-2.79,1.82a5.3,5.3,0,0,1,.68,1.34c0,.28-.33.91-.5.9-2.28-.06-1.14,4.29-4.24,3.22-2-.71-3.48-.05-4.56,2.05A7.56,7.56,0,0,1,66.68,249.84Zm9.72-8.42.2.07-.2-.06c-.8-1.71-2.16-1.16-3.47-.82A5,5,0,0,0,76.4,241.42Zm1.33-3.12c-1.18-1.25-2.5-1.41-4.3-.65Z"/><path class="cls-2" d="M68.45,233.51c1.64.36,2.55-1.71,4.69-1-2,.67-3.18,2.51-5.37,2A1.19,1.19,0,0,1,68.45,233.51Z"/><path class="cls-2" d="M76.4,241.42a5,5,0,0,1-3.47-.81c1.31-.34,2.67-.89,3.47.82Z"/><path class="cls-2" d="M77.73,238.3l-4.3-.65C75.23,236.89,76.55,237.05,77.73,238.3Z"/><path class="cls-5" d="M16.22,243.38s.53,26.75,4.25,28.13,15.44,7.93,46.21-21.67l-3.19-6.75s-31.81,16.55-32.87,14.58-2.6-5.88-.05-15"/><path class="cls-5" d="M17.36,226.32s-8.71,25,3.11,45.19"/><path class="cls-38" d="M192.06,254.33l.12,1.49h-.46c-.7.28-.84.92-1.1,1.55-2.66,6.5-6.61,12.13-12.45,16.07-5,3.39-10.64,4.14-16.8,3.52-10-1-18.83-4.69-27.49-9.26a3.73,3.73,0,0,0-1.65-.41,1.37,1.37,0,0,0-.82-1.14,68.83,68.83,0,0,1-6.62-4.37c-3.44-2.79-7.1-5.4-8.55-10-.87-2.77.52-5.41,0-8.1,1-3.88,4.07-5.57,7.48-6.86,2.91.33,5.48,1.6,8.11,2.76,2,.89,3.71,2.43,6,2.78a53.44,53.44,0,0,0,15.66,7.4c5.2,1.55,9.65.45,12.78-4.33,2.22-.27,4.42-1,5.77-2.66,1.64-2.07,3.36-2.48,5.45-1.25,3.17,1.85,2.86-3.17,5.36-2.6.18,0,.73-.56.74-.88a5.81,5.81,0,0,0-.45-1.62c1.24-.26,2.88.25,3.46-1.38.48-1.33-1-1.73-1.57-2.52,2-1.69,2-2.12-.31-3.44a18.76,18.76,0,0,0-6.13-1.85c.25-1,1.28-1.81.44-2.62s-1.88-.16-2.78.24-1.64.82-2.46,1.23c-.13-2.26.82-4.44.49-6.72,2.05-.07,4.05-.27,5.49-2a.91.91,0,0,1,.4-.06l.6-.41a1.13,1.13,0,0,1,.45-.09c.89.12,1.67,0,2-1h0c.75.06,1.48.1,1.47-1h0l.5-.48.55-.48c.41,0,.77-.11.91-.56h0l.47-.48v-.05l1.63.06,1.43,1.54c0,.44.14.81.65.89v0c-.05,1,.14,1.93,1.41,2.1h0a3.43,3.43,0,0,0,.4,1.9,30.32,30.32,0,0,1,2.62,12.23c.08,7.19-1.47,14.06-3.44,20.89C191.67,252.91,190.6,253.83,192.06,254.33Zm-25.62,5.58c.57-4.29-1-6.39-5.1-6.92C163.1,255.26,164.26,257.7,166.44,259.91Zm4.58-3.19c-.62-4.09-4-7-6.62-5.77C166.52,252.8,168.61,254.63,171,256.72Z"/><path class="cls-39" d="M185.75,213.84l-.55.48-.5.48h0a1.6,1.6,0,0,0-1.47,1h0a2,2,0,0,0-2,1,1.13,1.13,0,0,0-.45.09l-.6.41a.91.91,0,0,0-.4.06,85.09,85.09,0,0,1-14.33,2.72,93.88,93.88,0,0,1-18.29-.52c-5.56-.61-10.73-2.59-15.86-4.7l-4.07-3.47c-1.89-3.35-1.34-5.65,2.13-7.84a3.82,3.82,0,0,0,2-3.29c.35-3.47,1.37-6.51,4.44-6.41a18.71,18.71,0,0,0,6.75,4.52c8.9,3.44,17.83,3,26.78.23a12.43,12.43,0,0,0,8-6.22l.5,0c3.66,1.81,6.09,4.46,6,8.81,0,1,.86,1.31,1.41,1.88,2.35,2.45,3.91,5.14,2.58,8.68a1,1,0,0,0-.59,1v.05l-.47.48h0A.91.91,0,0,0,185.75,213.84Zm-5.42-10.45-20,4.79C164.41,211.48,177,207.44,180.33,203.39Zm-30.7,5.06.18-.61-16.69-5.08-.25.85C137.38,208.81,143.76,207.79,149.63,208.45Z"/><path class="cls-40" d="M177.25,192.36a12.43,12.43,0,0,1-8,6.22c-9,2.72-17.88,3.21-26.78-.23a18.71,18.71,0,0,1-6.75-4.52c0-4.84,1.47-9.48,2-14.24a37.53,37.53,0,0,1,1.11-11.66c6.21-1.73,12.48-1.41,18.72-.32,3.8.66,7.62,1.38,11.1,3.21-.74,3.08-.95,6.1,1.2,8.76.87,1.06,2,1.86,2.07,3.47a1.43,1.43,0,0,0,1.35,1.28c.83.06,1.12-.64,1.35-1.24a25.4,25.4,0,0,0,1.07-3.3c.54-2.28,2.2-3.28,5.06-3,2.32.2,2.93,1.86,2.84,3.67-.19,3.73-1.55,7-5,8.93A2.4,2.4,0,0,0,177.25,192.36Zm-25.51,0c-1.76.52-4.07-.69-5.77,2.21a10.53,10.53,0,0,1,8.16.3c-.31-1.28-1.58-1.39-1.41-2.43a2.94,2.94,0,0,0,.22-3.73c-.61-1-1.16-.48-1.8-.29-2.28-.76-2.66-2.06-1.42-4.13a23.52,23.52,0,0,0,1.85-4.31c.21-.6.57-1.45-.52-1.9-.91,2.06-1.79,4.1-2.72,6.11-1.33,2.87-.59,4.45,2.52,5.29A3.73,3.73,0,0,0,151.74,192.36Zm28.46-12.53c-2.28.76-3.29,2.61-3.88,4.72-.22.78,0,1.84.9,2s1.87-.95,1.69-1.42c-.81-2.17,1-3.5,1.35-5.26l.2-.25Zm-36.74-5.59a7.08,7.08,0,0,0,4.88-3.1c.32-.5.57-1.07.11-1.61s-1.23-.46-1.79,0a11.66,11.66,0,0,1-4,2c-.8.22-1.72.58-1.35,1.69S142.59,174.14,143.46,174.24Zm19.5.16c.95,0,1.92.07,2.18-1s-.56-1.4-1.42-1.62a10.66,10.66,0,0,1-3.93-2,1.17,1.17,0,1,0-1.64,1.68C159.42,173.08,160.88,174.38,163,174.4Zm.07,9v-.11h3.71c.33,0,.7-.09.74-.49a.93.93,0,0,0-.28-.62c-.82-.81-7.31-1.5-8.36-.91-.43.24-1,.45-.86,1.06a1.12,1.12,0,0,0,1.11.83C160.39,183.34,161.71,183.37,163,183.44Zm-23.44-1.51c3,1.39,5.51,1,8,.38.51-.13,1-.38.93-1a1,1,0,0,0-1-.9A14.79,14.79,0,0,0,139.59,181.93Zm26-4.74c-3.08.58-6.08,1.32-8-2.65-.57,2.44.6,3.41,2,3.9C161.66,179.18,163.85,179.41,165.55,177.19Zm-18.44.26a13.62,13.62,0,0,1-6.46-1.11C142.28,178.94,144.52,179.27,147.11,177.45Z"/><path class="cls-41" d="M141.12,157.82c2.37-7,7.24-11.15,14.33-12.86A41.16,41.16,0,0,1,167,143.63c.33,0,.77.13,1,0,2.94-2.38,5.26-.49,7.94.77s4.82,2.83,5.34,6a2.21,2.21,0,0,0,.69,1c5.3,5.29,6.69,11.85,6.22,19a6.1,6.1,0,0,1-1.31-.63c-10.09-8.5-21.85-12.4-34.91-12.89C148.3,156.72,144.75,157.67,141.12,157.82Zm27-11.47c1.92-.5,3.4-.75,4.55-2.15C170.52,143.46,169.21,144.11,168.14,146.35Zm8.13,3.31c1.39-1.19.54-2.25,0-3.29-.15-.3-.61-.45-.82-.16-.67.89.13,1.7.28,2.55A3.55,3.55,0,0,0,176.27,149.66Z"/><path class="cls-42" d="M117.72,279.36c-.9-2.16-.32-4.37-.28-6.57,1.55-.8.71-2.22.76-3.33.08-1.58,1-2.1,2.07-1.5,3.94,2.16,8.18,1.79,12.39,1.85a4.29,4.29,0,0,1,2.38.51,62.9,62.9,0,0,0,9.29,4.64,46.77,46.77,0,0,0,26.44,3c9-1.59,15.45-6.36,20.06-14a2.21,2.21,0,0,1,2.19-1.27c1.14,5.26,1,10.68,2,16,.24,1.23-.25,1.61-1.46,1.58-3.32-.07-6.64,0-10-.06l-47.35-.58c-.18-.9-.88-.84-1.55-.84H119A1.44,1.44,0,0,0,117.72,279.36Z"/><path class="cls-43" d="M141.12,157.82c3.63-.15,7.18-1.1,10.85-1,13.06.49,24.82,4.39,34.91,12.89a6.1,6.1,0,0,0,1.31.63c.62,2,2.14,3.75.94,6-.37.69-.47,1.62-1.58,1.56-2-.89-4-1.9-6.11-2.65-4.24-1.54-8.2-3.88-12.77-4.47-3.48-1.83-7.3-2.55-11.1-3.21-6.24-1.09-12.51-1.41-18.72.32l-2.49.47c-1.23-2.62.25-7.31,3-9.32C139.91,158.64,140.52,158.24,141.12,157.82Zm20.25,2.06c-.52,1.83-1.42,3.59-1,5.72C162.16,163.47,162.16,163.47,161.37,159.88Zm-21.66,1.05a5.06,5.06,0,0,0-2.05,5.12,6.67,6.67,0,0,0,1.36-2.31C139.33,162.83,139.48,161.87,139.71,160.93Zm4.2,3.45a7.42,7.42,0,0,0,1.63-5.54C143.68,161.43,143.62,161.63,143.91,164.38Zm9.2-5.45c-2.07,3.37-2.14,3.67-1.25,5.83A22.13,22.13,0,0,0,153.11,158.93Zm13.69,9.14c1.68-2.31,1.47-4.25,1.2-6.21A15.09,15.09,0,0,0,166.8,168.07Zm7.48-4.65-1.12,6.44C175.14,167.6,174.71,165.51,174.28,163.42Zm4,8.65a3.51,3.51,0,0,0,1.76-4.15C178.85,169.15,178.62,170.31,178.3,172.07Zm5.69-2-1.38,3.48C184.49,172.54,184.88,171.53,184,170.07Z"/><path class="cls-44" d="M193,262.75a2.21,2.21,0,0,0-2.19,1.27c-4.61,7.61-11,12.38-20.06,14a46.77,46.77,0,0,1-26.44-3,62.9,62.9,0,0,1-9.29-4.64,4.29,4.29,0,0,0-2.38-.51c-4.21-.06-8.45.31-12.39-1.85-1.09-.6-2-.08-2.07,1.5,0,1.11.79,2.53-.76,3.33a65.74,65.74,0,0,1,.49-9.51c1.32,0,2.31.82,3.41,1.34,3.45,1.64,7,2.95,10.89,2.67a3.73,3.73,0,0,1,1.65.41c8.66,4.57,17.54,8.26,27.49,9.26,6.16.62,11.79-.13,16.8-3.52,5.84-3.94,9.79-9.57,12.45-16.07.26-.63.4-1.27,1.1-1.55.16,1-.4,2.12.5,3,.07.7-.23,1.49.54,2Z"/><path class="cls-45" d="M123.7,236.81c-3.41,1.29-6.45,3-7.48,6.86a2.32,2.32,0,0,0-.55,1.81c.14,2.59-1.11,3.12-3.31,2.39a6.38,6.38,0,0,1-3.48-8.35,3.44,3.44,0,0,0-.06-1.89,2.86,2.86,0,0,1,1.07-3.08c.2-.14.55-.29.57-.45.26-4,3-2.6,5.17-2.32.6.5,1.19,1.76,1.67-.15.36-1.43,1.43-1.32,2.57-.88,2.37.91,3.09,3,3.83,5.13Z"/><path class="cls-46" d="M123.7,235.88c-.74-2.11-1.46-4.22-3.83-5.13-1.14-.44-2.21-.55-2.57.88-.48,1.91-1.07.65-1.67.15a98.25,98.25,0,0,1,11.54-20.41l4.07,3.47a3.12,3.12,0,0,0-1,2.46Z"/><path class="cls-47" d="M168.67,170.82c4.57.59,8.53,2.93,12.77,4.47,2.08.75,4.08,1.76,6.11,2.65-.91,4.31-2.28,8.41-5.5,11.63a13,13,0,0,1-4.3,2.83l-.5,0a2.4,2.4,0,0,1,1.39-3c3.42-1.91,4.78-5.2,5-8.93.09-1.81-.52-3.47-2.84-3.67-2.86-.25-4.52.75-5.06,3a25.4,25.4,0,0,1-1.07,3.3c-.23.6-.52,1.3-1.35,1.24a1.43,1.43,0,0,1-1.35-1.28c0-1.61-1.2-2.41-2.07-3.47C167.72,176.92,167.93,173.9,168.67,170.82Z"/><path class="cls-46" d="M112.36,247.87c2.2.73,3.45.2,3.31-2.39a2.32,2.32,0,0,1,.55-1.81c.54,2.69-.85,5.33,0,8.1,1.45,4.61,5.11,7.22,8.55,10a68.83,68.83,0,0,0,6.62,4.37,1.37,1.37,0,0,1,.82,1.14c-3.92.28-7.44-1-10.89-2.67-1.1-.52-2.09-1.36-3.41-1.34,0-.81-.62-1.3-1.07-1.88A21.9,21.9,0,0,1,112.36,247.87Z"/><path class="cls-48" d="M131.88,193.41c-4.18.35-4.33,3-4.71,5.56a5.55,5.55,0,0,1-3.41,4.33,5.16,5.16,0,0,0-3.31,6.21,4.91,4.91,0,0,1-2,5.27,4.28,4.28,0,0,0-1.7,3.94c0,.68.51,1.42-.12,2.13a4.64,4.64,0,0,1,.67-6.56,5.07,5.07,0,0,0,2-5.24,5.66,5.66,0,0,1,3.47-6.49,5.7,5.7,0,0,0,3.54-5.27,5.06,5.06,0,0,1,1.51-3.6C128.7,192.83,129.73,192.24,131.88,193.41Z"/><path class="cls-48" d="M126.61,192.74c-2.64.62-3.34,2.44-3.53,4.8a5.21,5.21,0,0,1-3.23,4.43,4.72,4.72,0,0,0-3,5.61,4.65,4.65,0,0,1-2,5c-1.37,1-1.54,2.48-1.3,4.05.07.45.41,1.11-.3,1.24s-.82-.69-.9-1.2c-.26-1.83,0-3.63,1.53-4.77a4.34,4.34,0,0,0,1.8-4.56,5.35,5.35,0,0,1,3.36-6.26c2.19-1,2.79-2.84,3.11-5C122.61,193,124,192,126.61,192.74Z"/><path class="cls-48" d="M195,217.89c.88-3-.38-5.07-2.32-7.08-1.16-1.21-.78-3.12-.45-4.57a3.77,3.77,0,0,0-2.05-4.56c-2.35-1.36-3.7-3.2-3.62-6,.07-2.14-1.15-3.45-3.46-4.16,1.51-.95,2.35-.25,3.14.41a3.28,3.28,0,0,1,1.26,2.63c-.2,3.24,1.33,5.24,4,6.77,2.43,1.36,1.81,3.88,1.7,6a4.73,4.73,0,0,0,1.47,4.21C196.63,213.29,196.73,215.44,195,217.89Z"/><path class="cls-48" d="M187.72,191.2c2.49-.54,3.62,1,3.72,3a6.65,6.65,0,0,0,3.61,6c1.8,1,2.19,2.83,1.83,4.78a4.82,4.82,0,0,0,1.41,4.94c1.66,1.55,1.38,3.59.2,5.57.5-2.83-.8-4.83-2.52-6.81-.83-1-.39-2.42-.17-3.63a4,4,0,0,0-2.15-4.57A5.21,5.21,0,0,1,190.6,196C190.53,193.88,190.13,192,187.72,191.2Z"/><path class="cls-49" d="M192.06,254.33c-1.46-.5-.39-1.42-.22-2,2-6.83,3.52-13.7,3.44-20.89a30.32,30.32,0,0,0-2.62-12.23,3.43,3.43,0,0,1-.4-1.9c3.56,5.56,4.23,11.73,3.72,18.11a73.74,73.74,0,0,1-3.45,17C192.32,253,192.22,253.69,192.06,254.33Z"/><path class="cls-47" d="M136.36,168.4l2.49-.47a37.53,37.53,0,0,0-1.11,11.66c-3-2.07-3.19-5-2.43-8.15C135.56,170.4,136,169.41,136.36,168.4Z"/><path class="cls-44" d="M117.72,279.36a1.44,1.44,0,0,1,1.31-.55h15.65c.67,0,1.37-.06,1.55.84C130.06,279.69,123.88,280,117.72,279.36Z"/><path class="cls-49" d="M192.22,258.82c-.9-.88-.34-2-.5-3h.46a6,6,0,0,1,.43,3Z"/><path class="cls-49" d="M192.27,217.31c-1.27-.17-1.46-1.06-1.41-2.1A3.64,3.64,0,0,1,192.27,217.31Z"/><path class="cls-49" d="M187.16,212.75a1,1,0,0,1,.59-1l1,1Z"/><path class="cls-42" d="M192.22,258.82h.39l.15,2C192,260.31,192.29,259.52,192.22,258.82Z"/><path class="cls-49" d="M190.87,215.24c-.51-.08-.63-.45-.65-.89Z"/><path class="cls-42" d="M123.7,235.88l6.51-18.58c3.44,1.77,6.65,3.9,10.62,4.6a54.93,54.93,0,0,0,20.09-.08c4.43-.84,9-.9,13.31-2.47.33,2.28-.62,4.46-.48,6.71l-2,1.85a1.29,1.29,0,0,0-1,.9c-1.72.94-2.41,2.88-3.92,4-4.7-.17-9.09,1.17-13.5,2.64-5.43,1.8-10.37,4.65-15.59,6.89-2.26-.35-4-1.89-6-2.78-2.63-1.16-5.2-2.43-8.11-2.76Z"/><path class="cls-46" d="M137.78,242.35c5.22-2.24,10.16-5.09,15.59-6.89,4.41-1.47,8.8-2.81,13.5-2.64-1.62,2.42-3.18,4.88-3.33,7.91-.1,2.12.24,4,2.68,4.69-3.13,4.78-7.58,5.88-12.78,4.33A53.44,53.44,0,0,1,137.78,242.35Zm23.55-7.13c-2.54,1.86-3.7,4.95-2.94,7.25a4.45,4.45,0,0,0,4.2,3.08C160,242.5,159.83,239.14,161.33,235.22Z"/><path class="cls-45" d="M166.22,245.42c-2.44-.67-2.78-2.57-2.68-4.69.15-3,1.71-5.49,3.33-7.91,1.51-1.13,2.2-3.07,3.92-4,2.29,1,3.94-.74,6.32-1-2.19-1.19-3.65.88-5.37.13l2-1.85c.81-.4,1.62-.84,2.45-1.22s1.94-1.07,2.78-.24-.19,1.66-.44,2.62a18.76,18.76,0,0,1,6.13,1.85c2.3,1.32,2.35,1.75.31,3.44.61.79,2.05,1.19,1.57,2.52-.58,1.63-2.22,1.12-3.46,1.38a5.81,5.81,0,0,1,.45,1.62c0,.32-.56.92-.74.88-2.5-.57-2.19,4.45-5.36,2.6-2.09-1.23-3.81-.82-5.45,1.25C170.64,244.45,168.44,245.15,166.22,245.42Zm12.51-7.1.21.12-.22-.11c-.49-2.05-2.11-1.74-3.61-1.66C176.18,237.5,177.24,238.37,178.73,238.32Zm2.15-3.13c-1-1.63-2.44-2.1-4.58-1.65Z"/><path class="cls-49" d="M174.23,219.35c-4.3,1.57-8.88,1.63-13.31,2.47a54.93,54.93,0,0,1-20.09.08c-4-.7-7.18-2.83-10.62-4.6a3.12,3.12,0,0,1,1-2.46c5.13,2.11,10.3,4.09,15.86,4.7a93.88,93.88,0,0,0,18.29.52,85.09,85.09,0,0,0,14.33-2.72C178.28,219.08,176.28,219.28,174.23,219.35Z"/><path class="cls-46" d="M166.44,259.91c-2.18-2.21-3.34-4.65-5.1-6.92C165.42,253.52,167,255.62,166.44,259.91Z"/><path class="cls-46" d="M171,256.72c-2.41-2.09-4.5-3.92-6.62-5.77C167,249.71,170.4,252.63,171,256.72Z"/><path class="cls-49" d="M181.17,216.78a2,2,0,0,1,2-1C182.84,216.79,182.06,216.9,181.17,216.78Z"/><path class="cls-49" d="M183.2,215.79a1.6,1.6,0,0,1,1.47-1C184.68,215.89,184,215.85,183.2,215.79Z"/><path class="cls-49" d="M185.75,213.84a.91.91,0,0,1,.91-.56C186.52,213.73,186.16,213.83,185.75,213.84Z"/><path class="cls-49" d="M184.7,214.8l.5-.48Z"/><path class="cls-49" d="M180.12,217.28l.6-.41Z"/><path class="cls-49" d="M186.68,213.28l.47-.48Z"/><path class="cls-50" d="M180.33,203.39c-3.38,4.05-15.92,8.09-20,4.79Z"/><path class="cls-50" d="M149.63,208.45c-5.87-.66-12.25.36-16.76-4.84l.25-.85,16.69,5.08Z"/><path class="cls-47" d="M143.46,174.24c-.87-.1-1.81-.07-2.12-1s.55-1.47,1.35-1.69a11.66,11.66,0,0,0,4-2c.56-.42,1.24-.62,1.79,0s.21,1.11-.11,1.61A7.08,7.08,0,0,1,143.46,174.24Z"/><path class="cls-47" d="M163,174.4c-2.08,0-3.54-1.32-4.81-2.92a1.17,1.17,0,1,1,1.64-1.68,10.66,10.66,0,0,0,3.93,2c.86.22,1.7.53,1.42,1.62S163.91,174.37,163,174.4Z"/><path class="cls-51" d="M163,183.44c-1.32-.07-2.64-.1-3.94-.24a1.12,1.12,0,0,1-1.11-.83c-.09-.61.43-.82.86-1.06,1-.59,7.54.1,8.36.91a.93.93,0,0,1,.28.62c0,.4-.41.48-.74.49H163Z"/><path class="cls-51" d="M139.59,181.93a14.79,14.79,0,0,1,7.92-1.51,1,1,0,0,1,1,.9c0,.61-.42.86-.93,1C145.1,182.93,142.59,183.32,139.59,181.93Z"/><path class="cls-39" d="M150.85,189.48c-3.11-.84-3.85-2.42-2.52-5.29.93-2,1.81-4.05,2.72-6.11,1.09.45.73,1.3.52,1.9a23.52,23.52,0,0,1-1.85,4.31c-1.24,2.07-.86,3.37,1.42,4.13C151,188.77,151,189.12,150.85,189.48Z"/><path class="cls-47" d="M165.55,177.19c-1.7,2.22-3.89,2-6,1.25-1.42-.49-2.59-1.46-2-3.9C159.47,178.51,162.47,177.77,165.55,177.19Z"/><path class="cls-39" d="M180.26,179.89c-.36,1.76-2.16,3.09-1.35,5.26.18.47-.82,1.58-1.69,1.42s-1.12-1.24-.9-2c.59-2.11,1.6-4,3.88-4.72Z"/><path class="cls-39" d="M152.72,192.44c-.17,1,1.1,1.15,1.41,2.43a10.53,10.53,0,0,0-8.16-.3c1.7-2.9,4-1.69,5.77-2.21Z"/><path class="cls-52" d="M152.72,192.44l-1-.08a3.73,3.73,0,0,1-.89-2.88c.1-.36.19-.71.29-1.06.64-.19,1.19-.71,1.8.29A2.94,2.94,0,0,1,152.72,192.44Z"/><path class="cls-47" d="M147.11,177.45c-2.59,1.82-4.83,1.49-6.46-1.11A13.62,13.62,0,0,0,147.11,177.45Z"/><path class="cls-39" d="M180.2,179.83l.26-.19-.2.25Z"/><path class="cls-53" d="M168.14,146.35c1.07-2.24,2.38-2.89,4.55-2.15C171.54,145.6,170.06,145.85,168.14,146.35Z"/><path class="cls-53" d="M176.27,149.66a3.55,3.55,0,0,1-.49-.9c-.15-.85-.95-1.66-.28-2.55.21-.29.67-.14.82.16C176.81,147.41,177.66,148.47,176.27,149.66Z"/><path class="cls-53" d="M161.37,159.88c.79,3.59.79,3.59-1,5.72C160,163.47,160.85,161.71,161.37,159.88Z"/><path class="cls-53" d="M139.71,160.93c-.23.94-.38,1.9-.69,2.81a6.67,6.67,0,0,1-1.36,2.31A5.06,5.06,0,0,1,139.71,160.93Z"/><path class="cls-53" d="M143.91,164.38c-.29-2.75-.23-2.95,1.63-5.54A7.42,7.42,0,0,1,143.91,164.38Z"/><path class="cls-53" d="M153.11,158.93a22.13,22.13,0,0,1-1.25,5.83C151,162.6,151,162.3,153.11,158.93Z"/><path class="cls-53" d="M166.8,168.07a15.09,15.09,0,0,1,1.2-6.21C168.27,163.82,168.48,165.76,166.8,168.07Z"/><path class="cls-53" d="M174.28,163.42c.43,2.09.86,4.18-1.12,6.44Z"/><path class="cls-53" d="M178.3,172.07c.32-1.76.55-2.92,1.76-4.15A3.51,3.51,0,0,1,178.3,172.07Z"/><path class="cls-53" d="M184,170.07c.89,1.46.5,2.47-1.38,3.48Z"/><path class="cls-51" d="M171.74,227.91c1.72.75,3.18-1.32,5.37-.13-2.38.29-4,2.06-6.32,1A1.29,1.29,0,0,1,171.74,227.91Z"/><path class="cls-48" d="M161.33,235.22c-1.5,3.92-1.37,7.28,1.26,10.33a4.45,4.45,0,0,1-4.2-3.08C157.63,240.17,158.79,237.08,161.33,235.22Z"/><path class="cls-51" d="M178.73,238.32c-1.49.05-2.55-.82-3.62-1.65,1.5-.08,3.12-.39,3.61,1.66Z"/><path class="cls-51" d="M180.88,235.19l-4.58-1.65C178.44,233.09,179.85,233.56,180.88,235.19Z"/><path class="cls-51" d="M178.72,238.33l.22.11-.21-.12Z"/><path class="cls-48" d="M102.51,180.76l-.12-1.55c-.35-3.21.72-6.72,3.69-10.29,2.68-3.15,4.17-5.48,4.17-8.15,0-3-1.91-5.06-5.65-5.12a10.54,10.54,0,0,0-6,1.84l-1.43-3.74a15.56,15.56,0,0,1,8.51-2.38c6.84,0,9.93,4.22,9.93,8.74,0,4-2.26,7-5.11,10.36-2.62,3.09-3.57,5.71-3.4,8.74l.06,1.55Zm-1.31,8.33a3.52,3.52,0,0,1,3.57-3.75,3.72,3.72,0,1,1-3.57,3.75Z"/></g></g></svg>