<svg xmlns="http://www.w3.org/2000/svg" viewBox="0 0 194.32 192.17"><defs><style>.cls-1{fill:#e8b894;}.cls-2{fill:#6a4e42;}.cls-3{fill:#dd9e73;}.cls-4{fill:#d89261;}.cls-5{fill:#2c222b;}.cls-6{fill:#fff;}.cls-7{fill:#db6c6a;}.cls-8{fill:#df807b;}.cls-9{fill:#dda687;}.cls-10{fill:#f0c69c;}.cls-11{fill:#fefefe;}.cls-12{fill:#f8f7fa;}.cls-13{fill:#f6d3ab;}.cls-14{fill:#f0eff4;}.cls-15{fill:#5d2d23;}.cls-16{fill:#6a3329;}.cls-17{fill:#e2af8d;}</style></defs><g id="Layer_2" data-name="Layer 2"><g id="Layer_9" data-name="Layer 9"><path class="cls-1" d="M122.34,39.79C96.16,3.4,66.59,34.37,66.59,34.37Z"/><polygon class="cls-1" points="86.83 32.09 62.82 27.56 91.66 8.63 120.67 22.08 104.32 35 86.83 32.09"/><rect class="cls-2" x="63.35" y="86.77" width="65.57" height="22.79"/><path class="cls-1" d="M138.27,79.39a6,6,0,0,0,.11.66,20.66,20.66,0,0,1-1.16,2c-3.09,4.75-7.65,7.64-13.06,9.4l-.7.22c-16.72,5.09-33.43,6-50.06-.42l-.15-.05A18.5,18.5,0,0,1,62,70.78c.47-2.64,1-5.28,1.49-7.93.41-2.21.77-4.44,1-6.68-.19-7.35,0-14.67,2.07-21.8,11.63-3.24,23.34-2.64,35-.61,6.83,1.2,13.7,2.5,20,5.65.25.11.51.25.75.38l-.21,1a33.13,33.13,0,0,0-.62,3.74s0,0,0,.06a15.27,15.27,0,0,0,2.22,10.4c.25.4.55.8.86,1.2,1.62,2,3.81,3.49,3.88,6.5A2.66,2.66,0,0,0,131,65a1.87,1.87,0,0,0,1.52-.52,4.75,4.75,0,0,0,1-1.78c.49-1.25.94-2.52,1.33-3.81A99.71,99.71,0,0,0,138.27,79.39Z"/><path class="cls-2" d="M148.85,121.35c3.29-4.65,3.27-9.92,1.08-15.15a5.23,5.23,0,0,1-.68-2.45,17.68,17.68,0,0,0-3.72-11.69c-.42-.6-1.08-1-.78-2.07,1.88-6.6.45-12.82-2.48-18.78a15.4,15.4,0,0,1-1.55-8.72c.29-2.52,1.14-5.15.39-7.54-2.05-6.44-1.92-13.26-3.43-19.67a47,47,0,0,0-16.6-26c-2.6-2.11-5.56-3.35-8.92-1.84-1,.43-1.14,0-1.51-.7A11.45,11.45,0,0,0,103.5,1a21.14,21.14,0,0,0-12-.28C69,6.48,52.5,20.09,41,40.13c-2,3.41-1.65,7.21-.49,10.86,0-6,2-11,6.85-14.78a48,48,0,0,0-.94,10.4c0,6.26-2,11.58-6.76,15.74a21.13,21.13,0,0,0-6,8.94,101.73,101.73,0,0,0-3.46,11A21.46,21.46,0,0,0,30.58,95a19.07,19.07,0,0,0,1.35,3c0,.07.07.14.11.2l.65,1.15a52.52,52.52,0,0,1,3.77,7.54c.11.28.22.59.32.89a2,2,0,0,0,.3-1.13c0-.29-.06-.56-.09-.82a29.74,29.74,0,0,0-1.89-6.24L34.9,99l-.37-1a26.3,26.3,0,0,1-.77-2.84c-1.52-7.14,1-12.53,8-17.49-.61,7.16-1.13,14.23-1.84,21.26-.08.82-.17,1.63-.25,2.44a33.93,33.93,0,0,1-1,5.17c-.14.47-.28.93-.44,1.4h0a24.7,24.7,0,0,1-3,6.27c-1.16,1.73-2.92,2.85-4.48,4.67a11.13,11.13,0,0,0,3.52-1.26,27.39,27.39,0,0,0,4.19-3.11,19.71,19.71,0,0,0-.06,5.14,35.86,35.86,0,0,0,1.28,6,6.15,6.15,0,0,1,0,3.53c-1.86,6.08-3.89,12-9.94,15.42a7.58,7.58,0,0,0-1.57,1.14,4.83,4.83,0,0,0-1.46,3.08c.68-.22,1.35-.45,2-.71a1,1,0,0,0,.21-.08c.66-.24,1.3-.51,1.93-.8,7-3.09,12.21-7.91,14.66-16,.63,8.45,2.49,16.78,1.44,25.81l.5-.77c.82-1.28,1.65-2.49,2.44-3.73a39.35,39.35,0,0,0,3.43-6.35c.17,1.85.28,3,.42,4.6.37-.21.73-.42,1.08-.65,4.94-3.11,8-7.6,10.75-12.41.5-.85,1-1.7,1.46-2.56.13-.25.27-.5.41-.75,0,.25,0,.5.06.75.07.88.09,1.75.08,2.62,0,4-.68,7.81-.29,11.68.52,5.06,1.54,9.89,5.53,14.35-.31-5-1.14-9.36-.71-13.77.53-5.49,1.93-10.3,3.77-12A.5.5,0,0,1,76,138a.28.28,0,0,1,0,.09c-.62,8.48.27,11.59,3.94,13.27-1.76-4.2-1.22-8.28.1-12.34l.13-.38c.2-.63.41-1.25.63-1.89.31-.89.63-1.76.95-2.64a33.6,33.6,0,0,0,1.77-6.49c.07-.37.13-.74.17-1.11a4.66,4.66,0,0,0,.06-.49,28,28,0,0,0,0-6.9c0-.15,0-.3,0-.45A32.31,32.31,0,0,0,81,109.56a37.75,37.75,0,0,0-1.79-3.45L78,104c-.69-1.23-1.37-2.46-2-3.7-.4-.76-.78-1.52-1.16-2.28a17.45,17.45,0,0,1-1.77-6.29,17.81,17.81,0,0,1-4.76-3.45l0,0A18.11,18.11,0,0,1,67,86.77,18.68,18.68,0,0,1,63.27,72c.47-2.65,1-5.29,1.49-7.93.4-2.18.76-4.36,1-6.56,0,0,0-.09,0-.13-.17-6.55,0-13.08,1.46-19.47.19-.78.39-1.56.61-2.33,1-.27,2-.53,3-.75h0a63.7,63.7,0,0,1,8.39-1.27c.07-.42.14-.84.22-1.26h0c.09-.5.19-1,.32-1.48.25-1.13.57-2.26.94-3.4a22.72,22.72,0,0,1,1.23-3,17.4,17.4,0,0,1,7.58-7.91c1.66-.87,3.44-1.53,5.21-.14l.1-.07a.87.87,0,0,1,0,.1,3.79,3.79,0,0,0-.66-.18C90.15,16,85.37,19.45,83,24a14,14,0,0,0-1.26,3.31A21.35,21.35,0,0,1,89,25.74a28.68,28.68,0,0,0,9.5-2.29,4.18,4.18,0,0,0,1.09-.69c.81-.67,1.6-1.41,3.07-1,1,.29,2.44-1.11,3.68-1.75.19,0,.5-.14.55-.07.2.31,0,.53-.28.67l-2.76,3.46c-.13.16-.26.33-.39.48A31.62,31.62,0,0,1,110.67,30,29,29,0,0,1,115.82,37c.17.3.32.61.47.91s.41.87.6,1.31a38.94,38.94,0,0,1,2.72,9.85c.41,2.78.85,5.53,1.5,8.2v0c.22.92.46,1.84.75,2.75h0a31.39,31.39,0,0,0,4.39,9.21,7.15,7.15,0,0,1,.6,1,13.21,13.21,0,0,1,1,8.48c-.17-.71-.36-1.39-.57-2.08a33.57,33.57,0,0,0-5-9.91c-.28,2.83-.42,5.18-.77,7.49s-.71,4.75-1.22,7.06a35.39,35.39,0,0,1-1.67,5.45,21.59,21.59,0,0,1-3.39,5.8c-.41.5-.78,1-1.12,1.49h0c-.33.52-.64,1.05-.92,1.58-.12.25-.25.51-.36.77a13.93,13.93,0,0,0-.83,8.71c.06.29.12.59.17.88a18.09,18.09,0,0,1,.25,3.55,16.23,16.23,0,0,1-2.13,7.63,21,21,0,0,1-2.25,3.3,18.19,18.19,0,0,0-2.76,4.66c-2.81,6.85-1.63,15.38,3.24,21.81a15.19,15.19,0,0,1,2.06-12.36,16.09,16.09,0,0,0,2.7,10.85c.07.12.15.24.23.36.24.38.5.76.76,1.13a8.12,8.12,0,0,1,1.53,4.46,9.49,9.49,0,0,1-.28,2.77A12.84,12.84,0,0,1,114,157.8c-.45.73-.94,1.45-1.4,2.18.1.11.21.22.3.34,1-.43,2-.86,3-1.26.22-.1.43-.18.65-.26s1.06-.64,1.15,0c.24,1.57.86,1.15,1.36.71a3.25,3.25,0,0,1,.45-.38,26.49,26.49,0,0,0,6.26-4.94,27.71,27.71,0,0,0,1.83-2.2,27.19,27.19,0,0,0,3.61-6.71c.24-.61.45-1.26.65-1.9s.41-1.52.61-2.3a11.56,11.56,0,0,1-2.14,9,6.08,6.08,0,0,1-.39.54l.34-.22a14,14,0,0,0,3.08-2.74,29.89,29.89,0,0,0,4.19-7.3c1.79-4,2.32-8.32,2.7-13.35,2.09,4,4.58,6.33,9.09,7.07C145,129.55,145.8,125.65,148.85,121.35Zm-2.88-21c-2.22-2-4.32-4.13-4.58-7.35C143.25,95.3,145.13,97.52,146,100.37Zm-4.09-24.85a24.69,24.69,0,0,1,2.12,14C140,86.2,140.31,81.76,141.88,75.52ZM107.37,19.4s-.08.1-.14.15l-.15-.29c.06-.05.1-.11.15-.16A1,1,0,0,1,107.37,19.4Zm20,63.94c-.17,1.16-.38,2.3-.64,3.43A39.88,39.88,0,0,1,125.54,91c-.2.61-.43,1.21-.67,1.82q-.51,1.25-1.11,2.46c-.26.55-.56,1.08-.86,1.61.09-.52.18-1,.29-1.56.15-.73.31-1.46.5-2.17s.31-1.14.49-1.7c.49-1.58,1.07-3.15,1.7-4.68C126.35,85.62,126.85,84.48,127.36,83.34Z"/><path class="cls-3" d="M89.89,75.79c-5.83-1.57-7.21-4.51-4.72-9.88,1.74-3.76,3.37-7.57,5.08-11.42,2,.83,1.38,2.43,1,3.55a44.29,44.29,0,0,1-3.46,8.06c-2.33,3.86-1.62,6.3,2.64,7.72C90.23,74.47,90.06,75.13,89.89,75.79Z"/><path class="cls-4" d="M85.33,88.61c.23-2-2.16-2-2.87-4.4,5,1.69,9.7,2.17,15.27-.24-2.54,4.89-6.26,3.93-9.33,4.4-1,.16-.14.33-1.16.3Z"/><path class="cls-4" d="M95.84,84S92,80.63,84,84A16.8,16.8,0,0,0,95.84,84Z"/><path class="cls-1" d="M88.19,88.34S83.52,87.2,82.53,85s-3.79,5.13-3.79,5.13h8.78Z"/><path class="cls-2" d="M110.1,46.37a26.91,26.91,0,0,0-12.25.27c-1,.25-1.61.68-.61,1.39a6.56,6.56,0,0,0,4.28,1,52.22,52.22,0,0,1,10,.11c2.11.23,4.24.36,3.76-.78S112.42,46.88,110.1,46.37Z"/><path class="cls-2" d="M74.44,43.92a26.81,26.81,0,0,1,12,2.21c1,.41,1.49.93.38,1.47a6.58,6.58,0,0,1-4.38.28,52.13,52.13,0,0,0-9.85-1.47c-2.12-.11-4.24-.32-3.59-1.36S72.07,44.05,74.44,43.92Z"/><circle class="cls-5" cx="104.32" cy="56.35" r="3.28"/><ellipse class="cls-6" cx="104.69" cy="55.63" rx="0.66" ry="0.83" transform="translate(7.18 123.07) rotate(-62.65)"/><circle class="cls-5" cx="78.12" cy="53.86" r="3.28"/><ellipse class="cls-6" cx="79.16" cy="53.37" rx="0.66" ry="0.83" transform="translate(-4.61 99.17) rotate(-62.65)"/><path class="cls-2" d="M79.23,33.52s-2.36,6.72,0,7.9S71.44,44.13,64.68,35,79.23,33.52,79.23,33.52Z"/><path class="cls-1" d="M28.38,124.83c1.3-1.63,2.57-3.29,3.91-4.9.66-.78,1.31-1.56,2-2.33q3.67-4.38,7.41-8.73a2.59,2.59,0,0,0,.69-2.18c-.27-1.74-.53-3.49-.9-5.21-.11-.5,0-1.45-1.14-1.13-.35.1-.28-.23-.12-.43.32-.43,0-.68-.23-1l-.06-.06a11.47,11.47,0,0,0-6.16-3.77c-.24-.06-.47-.12-.73-.16a5.72,5.72,0,0,0-2.45,0,6.3,6.3,0,0,0-3.06,2c-.52,1.5-1.84,2.41-2.72,3.64a2.54,2.54,0,0,0-.66,2.48,1.24,1.24,0,0,1-.37,1.3c-.17-1.64-1-3-.46-4.49a2.85,2.85,0,0,1-.25-.63c-.67-5.25-1.3-10.5-2-15.75A20.62,20.62,0,0,0,20,78.2a2.16,2.16,0,0,0-1.84-1.31.88.88,0,0,0-.95.86c0,1.47-.28,3,.24,4.4a1.62,1.62,0,0,1,0,2c0,.83,0,1.68,0,2.51.52,1.42.33,2.91.53,4.37a19.12,19.12,0,0,1,0,3.63,12.9,12.9,0,0,0,.93,5.9c-.88-1.09-2-2-2.07-3.54-.54.07-.68-.37-.9-.72-2.12-3.3-4.22-6.6-6.38-9.87a7.44,7.44,0,0,0-2.3-2.6c-.42-.25-.78-.73-1.37-.33A1.38,1.38,0,0,0,5.36,85a4.59,4.59,0,0,0,.37,1.21c1.65,3.66,3.33,7.3,5,11,.48,1.09.93,2.21,1.4,3.32-2.19-1.28-4-2.77-6-4.13C4.82,95.39,3.63,94.2,2,93.74,1.43,93.56.67,93.38.2,94s0,1.28.42,1.75C1.8,97,3,98.1,4.24,99.27c.83-.08,1.08.12,1.38,1.22.17.16.33.33.5.48.26,0,.5,0,.62.28h0l.28.27a8.92,8.92,0,0,1,2.94,2c1.51,1.4,3.13,2.62,4.73,3.9a1.49,1.49,0,0,1,.52.79A44.84,44.84,0,0,1,16.78,114c.28,1.91.79,3.72,1.18,5.58a31.3,31.3,0,0,0,1,4.29,3,3,0,0,0,2.88,2.34c.36,0,.79-.08.91.42s-.22.67-.53.89a5.34,5.34,0,0,1-2,1c-2.59.56-3.73,2.36-4.12,4.8-.61,3.8-1.49,7.54-2.35,11.29-.31,1.31-.53,2.64-.76,4-.06.28-.08.56-.41.66a46.18,46.18,0,0,0-.83,5.5c-.71,4.77-1.08,9.59-1.59,14.4-.33,3.23-.75,6.46-1,9.7A85.06,85.06,0,0,0,8.52,188c.8,1,1,2.31,1.48,3.44l.35.74h16.5c.57-.93,1.12-1.87,1.68-2.81,1.86-3.17,3.49-6.47,5.14-9.76.47-.94.84-1.94,1.3-2.9a1.46,1.46,0,0,0-.19-1.34q-1.28-2.6-2.66-5.15a5.74,5.74,0,0,1-.91-4.17c-.95-.83-.55-2-.69-3-.59-4.21-1.08-8.43-1.6-12.65,0-.29,0-.59,0-.87,0-.45,0-.88,0-1.31a.75.75,0,0,1-.18-.08.78.78,0,0,1-.34-.65c-.06-.57-.13-1.15-.2-1.72l-1-8.31c-.13-.05-.36-.08-.37-.16-.48-3.11-1.61-6.11-1.53-9.29A3.63,3.63,0,0,1,28.38,124.83Zm-3.09-4.53c-2.13-3.63-3.58-7.25-5.56-10.6-1-1.7-.86-1.84,1.05-2.33a5.11,5.11,0,0,0,.64-.27c1.27-.48,1.87-.23,2.1,1.12.64,3.54,1.19,7.1,1.76,10.65A12.65,12.65,0,0,1,25.29,120.3Zm-.1-13.92A31.89,31.89,0,0,1,28,101a6.69,6.69,0,0,0,1.26-2.9c.05-.56.32-.78,1-.49.1,0,.2.09.3.12a2.58,2.58,0,0,0,.42.12,2.87,2.87,0,0,0,.57.11l.44,0,.4,0c.65,0,1.31,0,1.94,0h.43a.65.65,0,0,1,.21.05.94.94,0,0,1,.24.06,1,1,0,0,1,.25.12l.12.07.09.07a1.29,1.29,0,0,1,.16.18,1.2,1.2,0,0,1,.13.21A1,1,0,0,1,36,99a2.26,2.26,0,0,1,0,.95,1.92,1.92,0,0,0,1.73,1.19c1,.17.87.58.55,1.22.22.11.15.21,0,.28v.45c.08.59,0,1.2,0,1.82,0,.11,0,.22,0,.32s0,.2.05.31a2.23,2.23,0,0,0,.09.32c0,.06,0,.12.07.19l.12.22a1.14,1.14,0,0,0,.15.23l.13.18c.3.34,0,.8-.41,1.11l-.16.11-.12.07L38,108c-.77.33-1.58.54-2.32.93-1.69.9-2.32,1.62-1.17,3.34.19.28.45.59.1.85s-.54-.12-.69-.33c-.84-1.26-2.09-2.25-2.51-3.79L29,108.22a3.21,3.21,0,0,1-2.67.2C25.23,108.2,24.76,107.62,25.19,106.38Z"/><path class="cls-1" d="M191.88,183.93c-2.58-3.81-5-7.75-7.43-11.64q-2.52-4-5.07-8a1.49,1.49,0,0,0-2,.59c.44.39-.38.71,0,1.12,1.32,1.54.36,2.42-.89,3.37-2.92,2.21-5.76,4.54-8.68,6.78-.82.63-1,1.09-.18,1.88a41.06,41.06,0,0,0,10.18,7.21c1.66.86,3.66.41,5.49.69a30.56,30.56,0,0,1,6.86,1.74c.64.25.43.6.14,1a2.27,2.27,0,0,1-1.37.64,58.32,58.32,0,0,0-8.45,2.86h13.8A12.37,12.37,0,0,0,191.88,183.93Z"/><path class="cls-7" d="M28.91,149.49c0-.43,0-.87,0-1.3.17-.84.15-2.14,1.3-1.89.76.16.78,1.44.65,2.33a6,6,0,0,0,1.89,5.6,43,43,0,0,1,8,10.76c.82,1.55,1.81,3,2.77,4.49a1.32,1.32,0,0,0,2.43-.11,13.12,13.12,0,0,0,1.52-6.63c0-.42,0-.84,0-1.26q0-10.65,0-21.3a2.35,2.35,0,0,1,.34-1.69c.28,1.81.53,3.37.76,4.93.4,2.71.82,5.41,1.19,8.12.47,3.49.88,7,1.36,10.47.24,1.76.59,3.51-.29,5.2-2.22,5.76-4.75,11.4-7.1,17.11-.5,1.21-1.22,1.17-2.18,1.09a9.26,9.26,0,0,1-5-2.48c.93-2,1.85-4,2.8-5.92a1.21,1.21,0,0,0-.13-1.4,58.66,58.66,0,0,0-8-9.56c-.94-.84-.55-2-.69-3-.59-4.21-1.08-8.43-1.6-12.65C29.3,150.07,29.29,149.78,28.91,149.49Z"/><path class="cls-1" d="M10,191.43l.35.74H9c-.19-1.39-.34-2.79-.52-4.18C9.32,189,9.47,190.3,10,191.43Z"/><path class="cls-1" d="M39.36,177c-1,2-1.87,3.94-2.8,5.91-1.54,3.11-3.11,6.2-4.76,9.25H26.85c.57-.93,1.12-1.87,1.68-2.81,1.86-3.17,3.49-6.47,5.14-9.76.47-.94.84-1.94,1.3-2.9a1.46,1.46,0,0,0-.19-1.34q-1.28-2.6-2.66-5.15a5.74,5.74,0,0,1-.91-4.17,59.32,59.32,0,0,1,8,9.58A1.19,1.19,0,0,1,39.36,177Z"/><path class="cls-1" d="M7,101.54a8.55,8.55,0,0,1,3,2c1.5,1.4,3.13,2.62,4.73,3.9a1.45,1.45,0,0,1,.52.79A48,48,0,0,1,16.78,114c.28,1.89.79,3.71,1.18,5.57a31.77,31.77,0,0,0,1,4.3,3,3,0,0,0,2.88,2.33c.36,0,.79-.08.91.43s-.23.65-.53.88a5.15,5.15,0,0,1-2,1c-2.59.56-3.74,2.36-4.13,4.8-.61,3.8-1.49,7.54-2.36,11.29-.3,1.31-.52,2.64-.76,4,0,.28-.07.55-.39.66.73-7.12,1.87-14.18,2.8-21.28a36.58,36.58,0,0,0-.24-11.67c-.42-2.19-.7-4.4-1.06-6.6a3.57,3.57,0,0,0-1.25-2.37c-1.75-1.46-3.37-3.08-5-4.65C7.45,102.34,7,102.1,7,101.54Z"/><path class="cls-8" d="M65.15,106.86c.12,1,1.07,1.15,1.64,1.7s1.2,1.31,1.88,1.86a49.77,49.77,0,0,0,9.66,6.26c.22,1.31,1.1,1,2,.83l.84.3c.06.38.14.7.57.25.3,0,.63,0,.83.28-1.4,1.14-3.14.76-4.55.47a38.94,38.94,0,0,1-4.85-.89A24.62,24.62,0,0,1,66,113.67a52.85,52.85,0,0,1-4.65-4.58,1.19,1.19,0,0,1-.43-.84A5,5,0,0,1,65.15,106.86Z"/><path class="cls-1" d="M27.2,137.43c-.13-.05-.36-.09-.37-.16-.47-3.1-1.6-6.1-1.54-9.29a3.66,3.66,0,0,1,3.1-3.15,23.39,23.39,0,0,0-1.37,9.8A9.06,9.06,0,0,0,27.2,137.43Z"/><path class="cls-9" d="M17.42,86.64c.52,1.41.33,2.91.53,4.36a19.13,19.13,0,0,1,0,3.63,13,13,0,0,0,.92,5.9c-.87-1.09-2-2-2.06-3.54C17,93.54,17.23,90.09,17.42,86.64Z"/><path class="cls-1" d="M27.52,97c-.52,1.5-1.84,2.4-2.72,3.64a2.53,2.53,0,0,0-.66,2.47,1.25,1.25,0,0,1-.38,1.31c-.17-1.64-1-3-.44-4.49Z"/><path class="cls-1" d="M4.24,99.27c.84-.09,1.07.12,1.38,1.22A3,3,0,0,1,4.24,99.27Z"/><path class="cls-9" d="M17.42,82.15a1.62,1.62,0,0,1,0,2C17.43,83.46,17.42,82.81,17.42,82.15Z"/><path class="cls-10" d="M6.12,101c.26,0,.51,0,.63.28A.61.61,0,0,1,6.12,101Z"/><path class="cls-10" d="M6.75,101.25l.28.29A.28.28,0,0,1,6.75,101.25Z"/><path class="cls-8" d="M103.61,148.93l0,0h0A.06.06,0,0,1,103.61,148.93Zm21.68-1.31c-.38-1.54-.8-2.27-2.35-2.67s-2.75.34-4.15,0c-2.35-.61-3-.09-3,2.28-.43-.14-.38-.84-.89-.78l.39,2.26c.17.91.36,1.81.57,2.71a25.8,25.8,0,0,0,3.22,8.08,17.59,17.59,0,0,0,1.27,1.78c-.66.18-1-.21-1.43-.44-1-.56-2-1.14-3-1.76-.66-.39-1.29-.81-1.93-1.26a58.17,58.17,0,0,1-9.36-7.92c-.3-.32-.52-.75-1-.91.33,2.38,1.6,4.38,2.55,6.52a5.94,5.94,0,0,1,.47,1.26,41.9,41.9,0,0,1-10-13.3c-.65-1.37-1.32-2.73-2-4.11-.58,1.22-1.53.72-2.23.32a3.08,3.08,0,0,0-2.22-.3,10,10,0,0,1-2.26,0c-1.41-.11-2.81-.41-4.22-.43-1.19,0-2.39-.23-3.58-.36l-.57,0a10.1,10.1,0,0,1-3.43-.45l-.17-.06a.11.11,0,0,0-.07,0,4.08,4.08,0,0,0-2.11,0c-2.1.56-4.13-.06-6.19-.22h0c-.66,0-1.32,0-2-.06-.36,0-.73,0-1.09-.06-1.49-.09-1.8-.63-1.17-2a5.44,5.44,0,0,0,.39-.9c.23-.76.59-.92,1.18-.33a2.71,2.71,0,0,0,2.15.69h.47c2.57,0,5.14,0,7.71,0,.78,0,1.58-.08,1.21,1.18-.15.52.33.89.79,1s1.29.22,1.66-.4c.7-1.17,1.24-1.11,1.88-.26.08.1.15.2.23.32a2,2,0,0,0,2.15.62,29.64,29.64,0,0,1,4-.47,11.11,11.11,0,0,1,1.29,0c.28,0,.64-.09.83.05,1.38,1,2.88.81,4.38.42.38-.09.46.25.7.36a7.08,7.08,0,0,0-.57-2.8.7.7,0,0,1-.19-.75,7.82,7.82,0,0,0-.36-2.34c-.2,0-.32.51-.49.24a.52.52,0,0,1,.44-.8l-.27-3.08a5.21,5.21,0,0,1-2.07-.27c-.27-.1-.75.13-.81-.32s.36-.47.65-.57a.89.89,0,0,0,.53-1.27c-.19-.57-.65-.29-1-.24-1.67.15-3.35.23-5,.23-.47,0-.92,0-1.39,0-.95,0-1.89-.08-2.83-.16a40.57,40.57,0,0,0-8.24-.09c-4.08.48-8.13,0-12.18,0a63.93,63.93,0,0,1-6.71-.38c-1.65-.14-2.36.59-1.91,2.14.66,2.26.27,4.57.56,6.86.51,3.81,1.11,7.61,1.65,11.42.21,1.46.49,2.92.78,4.36.16.83.33,1.65.49,2.48a33.23,33.23,0,0,0,2.8,9.44,2.56,2.56,0,0,0,2.23,1.46c3.19.26,6.38.63,9.57.82,4.09.24,8.19.4,12.28.52,6.81.2,13.63,0,20.45.33,3.92.2,7.83-.26,11.74-.27a59.4,59.4,0,0,0,7.54-.28,5.59,5.59,0,0,0,2.08-.58,2,2,0,0,0,1.15-1.52,41.66,41.66,0,0,0,.56-6.09c0-.78,0-1.55,0-2.33A24.05,24.05,0,0,0,125.29,147.62ZM77.88,126.23c1.32,0,2.63.1,3.94.18l1.83.08c.47,0,.94.05,1.41.05.67,0,1.34,0,2,0a.63.63,0,0,1,.74.66c0,.55-.52.43-.86.43H84.27c-.25,0-.52,0-.79,0a7,7,0,0,1-3.17-.44c-.71-.34-1.6.34-2.45.19-.37-.08-.81-.09-.81-.58S77.5,126.22,77.88,126.23Z"/><path class="cls-1" d="M190.29,188.67a2.27,2.27,0,0,1-1.37.64,58.32,58.32,0,0,0-8.45,2.86H168.25a.21.21,0,0,0,0-.06c1.41-2,1.41-2-.08-4.05-2.57-3.49-5.17-7-7.76-10.44a53.47,53.47,0,0,1,6.05-4.69c1.54-1.17,3.3-2.07,4.49-3.65,1.58-.53,2.71-1.75,4-2.64.82-.54,1.58-1.14,2.36-1.72.44.39-.38.71,0,1.12,1.32,1.54.36,2.42-.89,3.37-2.92,2.21-5.76,4.54-8.68,6.78-.82.63-1,1.09-.18,1.88a41.06,41.06,0,0,0,10.18,7.21c1.66.86,3.66.41,5.49.69a30.56,30.56,0,0,1,6.86,1.74C190.79,188,190.58,188.31,190.29,188.67Z"/><path class="cls-7" d="M142.57,169.92c-.53,2.5-.21,5-.21,7.54,0,1.21-.3,1.59-1.45,1.25-1.77-1-3-2.64-4.52-3.86-1.16-.92-2-2.19-3.28-3-.65-.44-.87-.35-.9.44-.09,4.65-.8,9.24-1.15,13.87-.15,2-.36,3.94-.53,5.92h-1c-.12-3.29-.24-6.58-.47-9.86-.34-4.87-.66-9.74-.84-14.62-.15-4,.7-7.87,1.26-11.77.25-1.79.48-3.6.74-5.38,0-.11,0-.22.05-.32.16-1,.33-2,.54-3,.14-.62.24-1.26.34-1.89a38.9,38.9,0,0,1,1.54-7.41c.65.35.61,1,.6,1.54,0,2.65.29,5.28,0,7.94,0,.12,0,.23,0,.35-.26,3.85,1.43,7.14,3.33,10.35a73,73,0,0,1,4.75,9.43,4.05,4.05,0,0,0,.79,1.46A1.06,1.06,0,0,1,142.57,169.92Z"/><path class="cls-7" d="M171,169.28c-1.19,1.58-3,2.48-4.49,3.65a53.65,53.65,0,0,0-6.05,4.68c-.93.08-1.4.87-2.06,1.35-3,2.17-6,4.33-8.95,6.57-.68.51-1.1.52-1.64-.08A7.68,7.68,0,0,1,146,183.2c.65,0,1-.54,1.34-.92,2.95-2.93,5.85-5.9,8.83-8.79,3.36-3.26,6.81-6.43,10.18-9.68.68-.65,1.17-.62,1.73.06a4.71,4.71,0,0,1,1.51,2.76.82.82,0,0,0,.48.79A1.74,1.74,0,0,1,171,169.28Z"/><path class="cls-11" d="M37.46,120.71c-.81.43-1.62.78-2.42-.27Z"/><path class="cls-12" d="M114.69,145.08c-.23-.28-.14-.59-.11-.9.25,0,.61-.07.67.26S115,145,114.69,145.08Z"/><path class="cls-12" d="M114.46,142.53c0-.21,0-.43-.07-.65C114.76,142.06,114.87,142.27,114.46,142.53Z"/><path class="cls-13" d="M93.29,120.1a1,1,0,0,1,0,.17s0,0-.07.06A.17.17,0,0,1,93.29,120.1Z"/><path class="cls-12" d="M92.85,124.81v.29l-.23-.1Z"/><path class="cls-9" d="M25.28,120.3c-2.12-3.63-3.57-7.25-5.55-10.59-1-1.71-.86-1.85,1.05-2.34.22-.06.42-.18.64-.26,1.27-.49,1.87-.24,2.11,1.11.63,3.55,1.18,7.1,1.75,10.66A13.07,13.07,0,0,1,25.28,120.3Z"/><path class="cls-9" d="M35.92,100A4.54,4.54,0,0,0,29.87,101c-.76,1-1.51,2-2.23,3-1.05,1.51-1,2,.37,3.18.34.3.64.66,1,1a3.23,3.23,0,0,1-2.68.2c-1.05-.22-1.53-.8-1.1-2A30.79,30.79,0,0,1,28,101a7.07,7.07,0,0,0,1.25-2.91c.05-.56.32-.79,1-.49a9.51,9.51,0,0,0,4.07.39C35.58,98,36.25,98.61,35.92,100Z"/><path class="cls-9" d="M31.43,109a31.75,31.75,0,0,1,5.19-2.24c.76-.26,1.14-.61,1.06-1.47a2.67,2.67,0,0,1,.49-2.23c.18,1.19-.31,2.46.68,3.59.38.44-.21,1.1-.82,1.36-.78.32-1.6.53-2.33.92-1.7.9-2.32,1.62-1.16,3.34.18.28.44.59.09.84s-.54-.11-.69-.32C33.09,111.57,31.85,110.58,31.43,109Z"/><path class="cls-14" d="M28.91,149.49c.38.29.39.58,0,.88C28.92,150.08,28.91,149.79,28.91,149.49Z"/><path class="cls-10" d="M38.17,102.66l0-.3C38.42,102.48,38.35,102.58,38.17,102.66Z"/><path class="cls-15" d="M70.48,100.39c.2,0,.44,0,.42.35a.2.2,0,0,1-.09.09c-.31,0-.31-.22-.34-.43Z"/><path class="cls-15" d="M71.81,101.81l-.08.1s-.06-.08-.06-.12,0-.06.07-.09Z"/><path class="cls-15" d="M70.19,100.12l-.12-.12.13.11Z"/><path class="cls-15" d="M70.47,100.4l-.28-.28h0l.28.28Z"/><path class="cls-14" d="M78.33,116.68l2,.83C79.43,117.73,78.55,118,78.33,116.68Z"/><path class="cls-14" d="M81.14,117.81a.63.63,0,0,1,.57.25C81.28,118.51,81.2,118.19,81.14,117.81Z"/><path class="cls-8" d="M94.31,138c-.24-.11-.32-.45-.7-.36-1.5.39-3,.6-4.38-.42-.19-.14-.55,0-.83-.05a11.11,11.11,0,0,0-1.29,0,29.64,29.64,0,0,0-4,.47,2,2,0,0,1-2.15-.62c-.08-.12-.15-.22-.23-.32-.64-.85-1.18-.91-1.88.26-.37.62-1.06.53-1.66.4s-.94-.49-.79-1c.37-1.26-.43-1.18-1.21-1.18-2.57,0-5.14,0-7.71,0H67a2.71,2.71,0,0,1-2.15-.69c-.59-.59-1-.43-1.18.33a5.44,5.44,0,0,1-.39.9c-.63,1.33-.32,1.87,1.17,2,.36,0,.73,0,1.09.06.66,0,1.32,0,2,.06h0c2.06.16,4.09.78,6.19.22a4.08,4.08,0,0,1,2.11,0,.11.11,0,0,1,.07,0l.17.06a10.1,10.1,0,0,0,3.43.45l.57,0c1.19.13,2.39.34,3.58.36,1.41,0,2.81.32,4.22.43a10,10,0,0,0,2.26,0,3.08,3.08,0,0,1,2.22.3c.7.4,1.65.9,2.23-.32A1.63,1.63,0,0,0,94.31,138Zm-5.54.17c-.08,0-.2,0-.22-.11s0-.14.09-.23.2,0,.22.12S88.81,138.1,88.77,138.17Z"/><path class="cls-8" d="M84.27,127.62c-1.22-.09-2.6.18-4-.46-.71-.34-1.6.34-2.45.18-.37-.06-.81-.08-.8-.57s.44-.55.82-.54c3.06.06,6.11.41,9.18.29a.63.63,0,0,1,.74.66c0,.55-.52.43-.86.44Z"/><path class="cls-14" d="M93.14,131.55l0,.57c-.2,0-.32.5-.48.22S92.64,131.62,93.14,131.55Z"/><path class="cls-14" d="M93.55,134.45a.82.82,0,0,1,.19.75A.68.68,0,0,1,93.55,134.45Z"/><path class="cls-15" d="M113.48,145.27a.8.8,0,0,1-.39,1.09C112.82,145.88,113.11,145.65,113.48,145.27Z"/><path class="cls-12" d="M103.61,148.93h-.2l0-.17.13.2Z"/><path class="cls-16" d="M124.64,102.36l-.07.12.07-.12Z"/><path class="cls-12" d="M88.64,137.83c.08,0,.2.06.22.11s-.06.15-.09.23-.2,0-.22-.11S88.6,137.91,88.64,137.83Z"/><path class="cls-17" d="M102.58,92s-1.55,12,4.07,13.29,13,.2,17.88,3.28-21.12,17.62-21.12,17.62L64.16,112l1-5.15s8.11.27,11.59-1.53,2.84-12,2.84-12Z"/><path class="cls-8" d="M180.36,161.21c-1.37-2.12-2.6-4.3-3.84-6.48-.38-.69-.7-.79-1.2-.18s-1,.53-1.43-.23c-2.22-3.6-4.72-7-6.95-10.59-2.94-4.74-5.86-9.5-9.13-14-2-2.76-3.5-5.93-6.48-7.9a2.1,2.1,0,0,1-.54-.95c-.13-.28,0-.72-.44-.77s-.58.22-.71.56-.43.74-.79.69a.68.68,0,0,1-.36-.14c-.52-.37-.17-.81.16-1.18.14-.17.39-.34.25-.6s-.5-.26-.74-.15a2.26,2.26,0,0,1-2-.11,4.22,4.22,0,0,0-2.75-.7,3.82,3.82,0,0,1-2.46-.78c-4.13-2.77-8.14-5.71-12.5-8.13-1.08-.59-2.16-1.15-3.28-1.68l0,0c-.18.25-.34.51-.5.77s-.4.58-.58.87c-1.15,1.74-2.21,3.5-3.21,5.3a70.13,70.13,0,0,0-4.31,9.2,7.19,7.19,0,0,1-.34.75,43.27,43.27,0,0,0-1.8,17.07c.38.18.48.39.07.65v1.37l.12.28c.25,0,.61-.07.67.27s-.28.49-.57.63c.07.44.12.9.18,1.35.51-.06.46.64.89.78,0-2.37.69-2.89,3-2.28,1.4.36,2.71-.35,4.15,0s2,1.13,2.35,2.67a24.05,24.05,0,0,1,.46,6.54c0,.78,0,1.55,0,2.33a41.66,41.66,0,0,1-.56,6.09A2,2,0,0,1,124,164.1a5.59,5.59,0,0,1-2.08.58,59.4,59.4,0,0,1-7.54.28c-3.91,0-7.82.47-11.74.27-6.82-.36-13.64-.13-20.45-.33-4.09-.12-8.19-.28-12.28-.52-3.19-.19-6.38-.56-9.57-.82a2.56,2.56,0,0,1-2.23-1.46,33.23,33.23,0,0,1-2.8-9.44c-.16-.83-.33-1.65-.49-2.48-.29-1.44-.57-2.9-.78-4.36-.54-3.81-1.14-7.61-1.65-11.42-.29-2.29.1-4.6-.56-6.86-.45-1.55.26-2.28,1.91-2.14a63.93,63.93,0,0,0,6.71.38c4.05,0,8.1.45,12.18,0a40.57,40.57,0,0,1,8.24.09c.94.08,1.88.14,2.83.16.47,0,.92,0,1.39,0,1.67,0,3.35-.08,5-.23.4,0,.86-.33,1,.24a.89.89,0,0,1-.53,1.27c-.29.1-.71.15-.65.57s.54.22.81.32a5.21,5.21,0,0,0,2.07.27l0-3.37-.22-.1.23-.19.21-2.33c.07-.72.13-1.43.19-2.15a.16.16,0,0,1,0-.23l.09-.58-1.16,0h-.29a33.31,33.31,0,0,1-8.26-.9l-1.13-.3-.3.21a1.83,1.83,0,0,1-.39.21l-.16.07-.29.11a2.94,2.94,0,0,1-.59.12,8.43,8.43,0,0,1-2.81-.26,41.19,41.19,0,0,1-4.87-.89A24.51,24.51,0,0,1,66,113.66c-.22-.18-.44-.35-.66-.54l-.45-.4-.12-.11c-.22-.2-.42-.4-.62-.6-1-1-1.86-2-2.8-2.92a1.21,1.21,0,0,1-.43-.85c-2.1-.19-3.68,1-5.37,2-3.77,2.15-7.58,4.27-11.24,6.62-1,.61-1.76,1.54-3.09,1.26-.35-.07-.58.21-.77.51a2,2,0,0,1-2.05,1,4.51,4.51,0,0,1-.6-.08c-.62-.13-1.28-.53-2-.14a6.27,6.27,0,0,0-3.13,3.19c-1.3,3.63-3.2,7-4.45,10.63-.2.58-.33,1.33-1.18,1.4a8.77,8.77,0,0,0,.18,2.8l1,8.31c.07.57.14,1.15.2,1.72a.78.78,0,0,0,.34.65.75.75,0,0,0,.18.08l0-.16c0-.19.06-.39.1-.59l0-.16,0-.14a1.36,1.36,0,0,1,.29-.63.5.5,0,0,1,.07-.08.18.18,0,0,1,.07-.05l.12-.06a.81.81,0,0,1,.56,0,.56.56,0,0,1,.18.07h0a.3.3,0,0,1,.13.12.63.63,0,0,1,.1.12.09.09,0,0,1,0,.06.52.52,0,0,1,.06.13,1.83,1.83,0,0,1,.08.25.85.85,0,0,1,0,.17,1.46,1.46,0,0,1,0,.22,5.67,5.67,0,0,1,0,1.17,6,6,0,0,0,1.88,5.61,42.78,42.78,0,0,1,8,10.76c.82,1.55,1.81,3,2.77,4.49a1.32,1.32,0,0,0,2.43-.12,13.09,13.09,0,0,0,1.52-6.62c0-.41,0-.84,0-1.26v-5.17q0-8.07,0-16.13a2.28,2.28,0,0,1,.35-1.68c.27,1.8.52,3.36.76,4.92.4,2.71.81,5.41,1.18,8.12,0,.35.1.69.14,1,.41,3.14.78,6.29,1.21,9.43.25,1.76.59,3.51-.28,5.2.46,1.62-.25,3.15-.45,4.71-.49,3.8-1.31,7.57-1.76,11.37-.35,3-.76,5.92-1.1,8.88h82V192c-.12-3.29-.24-6.58-.47-9.86-.34-4.87-.66-9.74-.84-14.62-.15-4,.7-7.87,1.26-11.77.25-1.79.48-3.6.74-5.38,0-.11,0-.22.05-.32.16-1,.33-2,.54-3,.14-.62.24-1.26.34-1.89a38.9,38.9,0,0,1,1.54-7.41c.65.35.61,1,.6,1.54,0,2.65.29,5.28,0,7.94,0,.12,0,.23,0,.35-.26,3.85,1.43,7.14,3.33,10.35a73,73,0,0,1,4.75,9.43,4.05,4.05,0,0,0,.79,1.46,1.06,1.06,0,0,1,.36,1c-.53,2.5-.21,5-.21,7.54,0,1.21-.3,1.59-1.45,1.25.68,1.57,2.37,2.16,3.35,3.45.4.53.86,1.15,1.7,1,.65,0,.95-.53,1.34-.91,2.95-2.93,5.85-5.9,8.83-8.8,3.36-3.25,6.8-6.42,10.18-9.66.68-.66,1.17-.63,1.74.05a4.75,4.75,0,0,1,1.5,2.76.87.87,0,0,0,.47.8,1.73,1.73,0,0,1,1,1.85c1.58-.53,2.71-1.75,4-2.64.82-.54,1.58-1.14,2.36-1.72a1.49,1.49,0,0,1,2-.59,1.3,1.3,0,0,1,.7-1.38C180.74,162.48,180.86,162,180.36,161.21ZM37.46,120.7c-.8.45-1.63.79-2.42-.26Z"/><path class="cls-8" d="M125.16,107.89s-9.29,12.18-31.78,11.63S101,163.86,101,163.86l27.21.29Z"/><path class="cls-1" d="M76.74,91.86s15.65,9.81,31.74-3.86H97.73l-12.4.61-8.27-1.3Z"/><path class="cls-2" d="M121.11,57.31S126.05,83.09,102.58,92v4.65L125.77,101l9.65-7.38L136.07,71Z"/></g></g></svg>