<svg xmlns="http://www.w3.org/2000/svg" viewBox="0 0 180.83 221.78"><defs><style>.cls-1{fill:#677db5;}.cls-2{fill:#dde4ec;}.cls-3{fill:#b4bccf;}.cls-4{fill:#733e26;}.cls-5{fill:#ffe2c9;}.cls-6{fill:#060606;}.cls-7{fill:#6b2a12;}.cls-8{fill:#df807b;}.cls-9{fill:#b55239;}.cls-10{fill:#2c222b;}.cls-11{fill:#fff;}.cls-12{fill:#d4e4f1;}.cls-13{fill:#53bbe8;}.cls-14{fill:#fefefe;}.cls-15{fill:none;stroke:#6b2a12;stroke-miterlimit:10;}</style></defs><g id="Layer_2" data-name="Layer 2"><g id="Layer_11" data-name="Layer 11"><path class="cls-1" d="M143.72,205.47l-13.08-8.08-5.4-3.28c.16,3.16.21,6.08.45,9,.45,5.45.57,10.92,1.23,16.36.09.77.19,1.55.28,2.32h-46c0-3.08-.09-6.17-.12-9.25-.1-10.12-.15-20.25.1-30.37.21-8.3.12-16.6.42-24.9.09-2.46.15-4.89,1.36-7.12.38-.67.68-1.37,1.09-2a35.1,35.1,0,0,0,3.51-6.88,41.35,41.35,0,0,0,1.79-7.66,10.81,10.81,0,0,1,5,3.26,3,3,0,0,0,2.64,1,43.3,43.3,0,0,1,11.42.61,16,16,0,0,0,.22,6.79,23.24,23.24,0,0,1,.54,4.47,2.74,2.74,0,0,1-1,2.63h0a2.83,2.83,0,0,1-.28.2,2.6,2.6,0,0,1-.44.23c-.16.07-.33.13-.51.19-3.1,1-6.19,2-9.35,2.78-3.37.81-5.06,5.44-3.26,6.95,1.14,1,.77,1.64,0,2.57-1.57,1.88-1.42,3.43.49,5,.87.71.64,1.4.33,2.2-1.14,3-.57,4.19,2.45,5.15.72.23,1,.51,1,1.27-.17,2.06.27,2.72,2.19,3.46a18,18,0,0,0,6.08,1c5.52.14,11,.35,16.35-1.78a4.17,4.17,0,0,1,4.89,1c1.55,1.58,3.09,3.17,4.67,4.72,3.13,3.06,5.94,6.42,8.91,9.62a12.32,12.32,0,0,0,1.24,6C143.33,203.6,144.31,204.37,143.72,205.47Z"/><path class="cls-1" d="M69.45,155.86c0-.34-.06-.68-.1-1s-.08-.67-.14-1a20.29,20.29,0,0,0-.73-3c-.18-.32-.36-.63-.52-.95-.4-.74-.79-1.48-1.15-2.24-.22-.44-.44-.89-.63-1.34A33.46,33.46,0,0,1,64.92,143c-.41-1.3-.78-2.61-1.06-4a19.54,19.54,0,0,1-.45-4.52c0-.19,0-.38,0-.56h-.34l-.54.31a17.88,17.88,0,0,0-5.41,5.44,3.45,3.45,0,0,1-2.27,1.5,46.38,46.38,0,0,0-9.4,2.94c-9.85,4.5-16.52,12.2-21.65,21.43-5.37,9.66-8.62,20.09-11,30.84a48.26,48.26,0,0,1,16.68,1.89c.75.25,1.07.49,1.11,1.33.16,3.89.43,7.78.58,11.67.13,3.5.19,7,.3,10.5H68.83q0-18.47.12-36.93c0-7.21.33-14.41.52-21.61,0-1.79.11-3.58.08-5.35C69.54,157.21,69.51,156.54,69.45,155.86Zm-2.39,56.8a2,2,0,0,1-1.9,1.21c-1.18-.16-2.3-.48-2.29-1.91,0-1.23.88-1.82,2.12-1.83a3.25,3.25,0,0,1,.85.1l.21.07a1.59,1.59,0,0,1,.71.5.45.45,0,0,1,.11.19,1.21,1.21,0,0,1,.22.49,2.79,2.79,0,0,1,.06.43,2.07,2.07,0,0,1,0,.57A1.21,1.21,0,0,1,67.06,212.66Zm-.46-24.58a2,2,0,0,1-.73.25,3.11,3.11,0,0,1-.69,0,1.63,1.63,0,0,1-2-1.84c0-1.26.83-1.82,2.08-1.87a1.82,1.82,0,0,1,2.14,1.81A1.72,1.72,0,0,1,66.6,188.08Zm1.07-22.2a1.18,1.18,0,0,1-.27.23,2.58,2.58,0,0,1-.32.18h0a2.44,2.44,0,0,1-.56.17h0l-.42,0a2.05,2.05,0,0,1-1.57-.45,1.88,1.88,0,0,1-.54-.91c0-.13-.07-.27-.1-.41a1.92,1.92,0,0,1,0-.69.42.42,0,0,1,0-.16,1,1,0,0,1,.07-.15.83.83,0,0,1,.19-.27,3.09,3.09,0,0,1,2.14-.67,1.22,1.22,0,0,1,1.38.36c0,.08.1.16.14.24a2,2,0,0,1,.15.41,3.83,3.83,0,0,1,.1.59,2.19,2.19,0,0,1-.08.87A1.52,1.52,0,0,1,67.67,165.88Z"/><path class="cls-2" d="M81.17,182.16c-.25,10.12-.2,20.25-.1,30.37,0,3.08.07,6.17.12,9.25H68.83q0-18.47.12-36.93c0-7.21.33-14.41.52-21.61,0-1.79.11-3.58.08-5.35,0-.68,0-1.35-.1-2,0-.34-.06-.68-.1-1a19.63,19.63,0,0,0-.86-4,31.58,31.58,0,0,0,6.15.08c2.78-.15,5.52-.71,8.31-.76-1.21,2.23-1.27,4.66-1.36,7.12C81.29,165.56,81.38,173.86,81.17,182.16Z"/><path class="cls-3" d="M31.54,221.78H5.94c.14-2.89.35-5.79.59-8.67.34-3.88.9-7.74,1.22-11.62.27-3.33.89-4.16,4.16-4.8a8.2,8.2,0,0,0,1-.3,48.26,48.26,0,0,1,16.68,1.89c.75.25,1.08.49,1.11,1.33.16,3.89.43,7.78.58,11.67C31.37,214.78,31.43,218.28,31.54,221.78Z"/><path class="cls-1" d="M173,181c-.73.17-1.26-.31-1.86-.56-2.22-.95-4.36-2.13-6.88-2.14-.23-.34-.59-.3-.93-.3-7.54-3.34-15.53-5.53-23-8.93-7.19-3.24-13.59-7.48-18-14.27-.92-1.4-1.9-2.76-2.82-4.15a25.43,25.43,0,0,1-3.23-6.18,11.12,11.12,0,0,1-.64-4.34V140a57.48,57.48,0,0,1,6,2A89.91,89.91,0,0,1,136,149.34a163.6,163.6,0,0,1,30.27,24.43A61.68,61.68,0,0,1,173,181Z"/><path class="cls-4" d="M63.43,133.93a55,55,0,0,0,22.1-.27,12.4,12.4,0,0,1,3.4-.75.83.83,0,0,1,.41.67,40.68,40.68,0,0,1-1.8,7.65,35.06,35.06,0,0,1-3.5,6.88c-.41.67-.71,1.37-1.1,2-2.78.06-5.52.61-8.3.76a30.92,30.92,0,0,1-6.16-.08A41.41,41.41,0,0,1,64.92,143,24.93,24.93,0,0,1,63.43,133.93Z"/><path class="cls-3" d="M173,181h0Z"/><path class="cls-3" d="M180.68,209.39a5.63,5.63,0,0,0,.14-.69,13.94,13.94,0,0,1-.82,4.54c-4.92,4-10.82,4.72-17.23,3.51a33.6,33.6,0,0,1-12-4.84,19.19,19.19,0,0,1-6-5.59,4.75,4.75,0,0,0-1-.85,1.41,1.41,0,0,0,.06-1.23,2.52,2.52,0,0,0-.25-.49c0-.08-.11-.16-.15-.24s-.21-.31-.3-.46a2.53,2.53,0,0,1-.12-.23,12.32,12.32,0,0,1-1.24-6c2,2.47,4.12,4.87,6,7.42l.46.6c.31.4.62.78.95,1.15s.66.73,1,1.08a14.27,14.27,0,0,0,1.75,1.42,26.13,26.13,0,0,0,15.83,4.64,54,54,0,0,0,10.57-1.28,3.45,3.45,0,0,0,1.27-.56,2.16,2.16,0,0,0,.31-.29A3.23,3.23,0,0,0,180.68,209.39Z"/><path class="cls-3" d="M180.83,189.05v10.17a12.74,12.74,0,0,0-2.21-3.92l-.19-.25a7.85,7.85,0,0,1-.87-1.83c-.25-.73-.45-1.46-.76-2.15a29.17,29.17,0,0,0-2.06-3.84c-.38-.6-.78-1.18-1.21-1.73a20.73,20.73,0,0,0-4.5-4.32c-.58-.4-1.19-.78-1.82-1.13a20.51,20.51,0,0,0-2-1,2.48,2.48,0,0,1-.54-.27.87.87,0,0,1-.38-.4l-.06-.17c2.51,0,4.66,1.19,6.89,2.14.58.25,1.11.72,1.83.56-.08.5.23.66.67.68A49,49,0,0,1,180.83,189.05Z"/><path class="cls-1" d="M173.61,181.63c-.44,0-.73-.18-.67-.69A.8.8,0,0,1,173.61,181.63Z"/><path class="cls-3" d="M66.34,162.8c1.37-.33,1.69.7,1.78,1.61.14,1.36-.79,2-2,2.11a1.88,1.88,0,0,1-2.2-1.78C63.71,163.48,64.51,162.89,66.34,162.8Z"/><path class="cls-3" d="M65.17,188.35a1.62,1.62,0,0,1-2-1.83c0-1.27.83-1.83,2.07-1.88a1.82,1.82,0,0,1,2.15,1.81C67.44,187.73,66.58,188.45,65.17,188.35Z"/><path class="cls-3" d="M65.16,213.87c-1.18-.16-2.31-.48-2.28-1.9,0-1.24.87-1.83,2.11-1.84s2.09.54,2.16,1.78S66.34,213.74,65.16,213.87Z"/><path class="cls-3" d="M163.3,178c.34,0,.69,0,.92.3C163.88,178.26,163.49,178.39,163.3,178Z"/><rect class="cls-4" x="23.73" y="58.55" width="85.76" height="49.21"/><path class="cls-5" d="M99.45,114.84S92,128,78.58,132.18s-42.14-10.64-46.21-20.82l41.47,10.77Z"/><path class="cls-4" d="M101.78,102.75c-.07-.41-.16-.82-.23-1.23v0c-.73-4-1.58-7.9-2-11.9,0,0,0,0,0,0,0-1.75.07-3.49,0-5.23a54,54,0,0,0-1.88-14.44.22.22,0,0,0-.11-.12.12.12,0,0,0-.07-.05A54.62,54.62,0,0,0,89,68.09,80.87,80.87,0,0,0,65.8,69.2c-6,1-12.13,2.2-17.74,4.89-.33.16-.66.32-1,.49a.24.24,0,0,0-.09.08.19.19,0,0,0,0,.19c0,.22.1.45.16.67,1.08,4.94,1.22,9.77-2.25,14-.81,1-1.79,1.88-2.51,2.92a5.27,5.27,0,0,0-.93,2.25s0,.06,0,.09a3.39,3.39,0,0,0,0,.64,1.94,1.94,0,0,1-.25.88,2.55,2.55,0,0,1-2,1.29c-1.2.1-1.74-.73-2.11-1.6s-.75-1.91-1.11-3-.7-2.27-.92-3.15c-.93-3.83-3.75-5.51-8.59-5.1a5.63,5.63,0,0,0-2.61.8c-1.81,1.11-2.32,3.21-2.21,5.45a21.1,21.1,0,0,0,2.21,8.84A15.33,15.33,0,0,0,30,106.19a5.55,5.55,0,0,1,1.89,1.56,4.12,4.12,0,0,1,.49,3.45v.07a0,0,0,0,0,0,0v0s0,0,0,0a19,19,0,0,0,4.44,5.7,21.21,21.21,0,0,0,3.84,2.66c.44.24.88.46,1.34.67a29.84,29.84,0,0,0,3.91,1.49l.25.08h0a88.84,88.84,0,0,0,11.63,2.71,73.41,73.41,0,0,0,8.19.87,61.92,61.92,0,0,0,25.44-4.05l.14-.06a16.14,16.14,0,0,0,7.53-6,4.73,4.73,0,0,0,.35-.56h0c.29-.46.56-.93.8-1.41a16.68,16.68,0,0,0,1-2.4,15.85,15.85,0,0,0,.71-3.28A17.16,17.16,0,0,0,101.78,102.75ZM55.5,86.08c.62.09,1.23.16,1.84.19l.7,0a10.12,10.12,0,0,0,1.83-.16l.39-.08a5.26,5.26,0,0,0,.53-.15l.43-.15a3.25,3.25,0,0,0,.43-.18,2.1,2.1,0,0,0,.3-.15,2.82,2.82,0,0,0,.38-.21l.43-.28.09-.07c.17-.12.33-.26.51-.4s.23-.21.34-.32l.11-.1.37-.4c.1-.12.21-.25.31-.39a3.79,3.79,0,0,0,.3-.4,6.17,6.17,0,0,0,.39-.6c.14-.2.25-.41.38-.63l0,0a.24.24,0,0,1,.45,0,.19.19,0,0,0,0,.08,4.53,4.53,0,0,1,.06.5,1.32,1.32,0,0,1,0,.28,4.38,4.38,0,0,1-1.92,4.29,7.16,7.16,0,0,1-.66.39,7.61,7.61,0,0,1-.93.39l-.15.06a12.59,12.59,0,0,1-5.2.84l-.39,0-.38-.07L56,88.22s0,0,0,0h0l-.34-.11a4.54,4.54,0,0,1-.68-.3,2.21,2.21,0,0,1-.34-.18c-.15-.09-.31-.18-.46-.29s-.34-.25-.51-.39a7.92,7.92,0,0,1-.93-.91.24.24,0,0,1,.18-.4l1.36.25c.33.06.66.12,1,.16Zm40.39,7.68s0,0,0,0l-.22.09-.4.16-.57.21c-.26.09-.52.18-.78.25l-.51.14-.28.07-.55.13-.75.13c-.29.05-.57.09-.85.11s-.44,0-.66.05a24.57,24.57,0,0,1-7.57-.92c-.86-.21-1.64-.65-1.57-1.68A1.68,1.68,0,0,1,82.9,91a26.61,26.61,0,0,1,3-.09l1,0,.23,0c.22,0,.43,0,.65.06.43,0,.87.11,1.3.18l.47.08c.51.09,1,.2,1.52.33l.67.18.28.08.71.22c.24.07.46.15.71.24l.39.14.64.24c.47.19,1,.39,1.44.61A.25.25,0,0,1,95.89,93.76ZM77.43,106.33a.24.24,0,0,0-.17.27,3.46,3.46,0,0,1,0,1.15.49.49,0,0,1,0,.12,4.26,4.26,0,0,1-.13.62,2.83,2.83,0,0,1-.14.41,4.4,4.4,0,0,1-.21.5c-.07.15-.14.3-.22.45s-.22.38-.34.57a.56.56,0,0,1,0,.08l-.34.56a.24.24,0,0,0,.17.31c2.83.63,6.39-.92,9.13,3.1a.24.24,0,0,1-.29.35,17.21,17.21,0,0,0-3-.74,18.38,18.38,0,0,0-9.72,1.3.23.23,0,0,1-.3-.32h0a3.87,3.87,0,0,1,1-1.36c.25-.25.5-.47.72-.69a1.74,1.74,0,0,0,.55-1.5.27.27,0,0,0-.06-.12l-.37-.51c-.05-.09-.11-.18-.15-.27a.81.81,0,0,1-.1-.18h0a1.71,1.71,0,0,1-.12-.23,4.45,4.45,0,0,1-.44-1.25,2,2,0,0,1-.06-.35,4.91,4.91,0,0,1,.19-1.91,7.55,7.55,0,0,1,.75-1.59c1-1.58,1.84-.94,2.84-.57l.13,0h.07l.1,0c.27-.09.53-.19.77-.29a4.48,4.48,0,0,0,.44-.2l.34-.18a5.46,5.46,0,0,0,.56-.36,2.79,2.79,0,0,0,.31-.24l.23-.22c1.27-1.31,1.11-3.1-.33-5.5A39.41,39.41,0,0,1,76,90.24c0-.12-.09-.24-.13-.37a5.26,5.26,0,0,1-.18-.6,2.13,2.13,0,0,1,0-1.25.91.91,0,0,1,.09-.17.08.08,0,0,1,0,0l.14-.18a.77.77,0,0,1,.18-.18,1.84,1.84,0,0,1,.22-.17l.28-.16a.24.24,0,0,1,.33.12c.38.86.76,1.71,1.13,2.56q1.11,2.53,2.23,5l1.17,2.57a8.21,8.21,0,0,1,1,4.86,4.37,4.37,0,0,1-.17.62c0,.06,0,.13-.08.19a4.44,4.44,0,0,1-1.66,1.9l-.24.16-.28.16a10.13,10.13,0,0,1-1.14.54l-.44.16a.16.16,0,0,1-.09,0C78.1,106.13,77.78,106.23,77.43,106.33ZM94.16,84.66a8.8,8.8,0,0,1-2.3,2.3l-.33.19a5.08,5.08,0,0,1-1.31.53,2,2,0,0,1-.33.09,5.07,5.07,0,0,1-1,.11h-.1q-.3,0-.6,0a5.21,5.21,0,0,1-.55-.08,4.87,4.87,0,0,1-.52-.12l-.33-.09a4.75,4.75,0,0,1-.49-.17,4.22,4.22,0,0,1-.45-.18,2.41,2.41,0,0,1-.33-.15,11.43,11.43,0,0,1-1.22-.67.24.24,0,0,1,.12-.43c.6,0,1.2,0,1.79,0l.5,0,1.1-.08c.34,0,.71-.08,1.07-.13l1.07-.18.26-.05.54-.12.3-.08c.37-.09.74-.19,1.1-.31l1.14-.39.57-.22A.25.25,0,0,1,94.16,84.66Zm-.76-5.94a2.31,2.31,0,0,1-.4.75l-.18.19a2.69,2.69,0,0,1-1.36.61l-.32.06c-.44.06-.9.09-1.35.14l-.69-.16a16.54,16.54,0,0,1-2.26-.72,11.45,11.45,0,0,1-3.72-2.35l-.44-.45a11.25,11.25,0,0,1-1.19-1.58c-.53-.86-1-1.82-.18-2.74.94-1.12,2.09-.77,3-.06a19.92,19.92,0,0,0,6.76,3.43C92.47,76.21,94,76.82,93.4,78.72Zm-44,15.33c1.39-1.38,12.43-2.55,14.22-1.54.73.41,1.62.76,1.46,1.79a1.92,1.92,0,0,1-1.88,1.41c-2.23.25-4.47.29-6.7.41a1.09,1.09,0,0,1,0-.18c-2.1,0-4.21,0-6.31,0-.56,0-1.19-.14-1.25-.83A1.54,1.54,0,0,1,49.42,94.05ZM62,72.92a2,2,0,0,1,2.84,0,1.21,1.21,0,0,1,.16.16,2,2,0,0,1-.22,2.7c-2.16,2.71-4.64,4.92-8.17,5-1.63,0-3.27.12-3.72-1.63s1-2.39,2.41-2.75a17.79,17.79,0,0,0,6.26-3.12ZM29.5,99c1.37-3.67-1.67-6-2.29-8.93-.12-.14-.23-.28-.34-.43l.45.32c3.86,1.3,5.59,4.44,6.59,8,.37,1.34,0,3.14-1.54,3.43S29.2,99.83,29.5,99Z"/><path class="cls-6" d="M89.78,80.47c1.48-.16,3.09-.12,3.62-1.75.61-1.9-.94-2.51-2.3-2.88a19.74,19.74,0,0,1-6.76-3.43c-1-.71-2.1-1.06-3,.06-.78.92-.35,1.88.19,2.75C83.42,78.32,86.4,79.76,89.78,80.47Z"/><path class="cls-6" d="M56.63,80.76c3.53-.05,6-2.26,8.18-5A2,2,0,1,0,62,72.92a18.44,18.44,0,0,1-6.7,3.45c-1.45.36-2.89.9-2.41,2.76S55,80.7,56.63,80.76Z"/><path class="cls-4" d="M56.51,96.12c2.24-.12,4.48-.16,6.7-.4a1.92,1.92,0,0,0,1.88-1.42c.16-1-.73-1.38-1.45-1.79-1.79-1-12.84.16-14.22,1.54a1.57,1.57,0,0,0-.48,1c.06.69.7.83,1.25.83,2.11,0,4.21,0,6.32,0Z"/><path class="cls-4" d="M96.37,93.56A25.25,25.25,0,0,0,82.9,91a1.69,1.69,0,0,0-1.74,1.53c-.08,1,.7,1.47,1.56,1.68C87,95.25,91.27,95.92,96.37,93.56Z"/><path class="cls-7" d="M77.21,106.39c5.3-1.43,6.55-4.1,4.3-9C79.92,94,78.43,90.52,76.88,87c-1.86.76-1.25,2.22-.89,3.23a39.79,39.79,0,0,0,3.15,7.34c2.11,3.51,1.47,5.73-2.41,7C76.9,105.19,77.05,105.79,77.21,106.39Z"/><path class="cls-4" d="M52.23,85.5c2.89,3.77,6.6,3.38,10.22,2.13,2.43-.84,4.42-2.49,3.44-6.64C62.57,87.74,57.45,86.49,52.23,85.5Z"/><path class="cls-7" d="M27.2,90.09c.62,3,3.68,5.26,2.3,8.94-.31.81,1.39,2.7,2.87,2.42s1.91-2.1,1.53-3.44c-1-3.59-2.72-6.73-6.59-8Z"/><path class="cls-4" d="M74,111.43l1.67-.14c1-1.5,2-3,1.51-4.9-.16-.6-.31-1.2-.48-1.8-1.09-.33-2-1.2-3.06.5A5,5,0,0,0,74,111.43Z"/><path class="cls-4" d="M83.58,85.93c4.41,3.1,8.21,2.54,11-1.88A22.9,22.9,0,0,1,83.58,85.93Z"/><path class="cls-8" d="M27.31,90l-.45-.33.34.43Z"/><path class="cls-4" d="M46.91,74.67c19.86-29.45,50.71-4.92,50.71-4.92Z"/><path class="cls-9" d="M41.43,94.73s-1.92,9.39-1.54,12.41-4.44-5.26-4-14.13S41.43,94.73,41.43,94.73Z"/><circle class="cls-10" cx="86.33" cy="84.9" r="3.91"/><circle class="cls-10" cx="59.09" cy="85.88" r="3.91"/><ellipse class="cls-11" cx="87.21" cy="84.05" rx="0.91" ry="1.16" transform="translate(-27.51 122.91) rotate(-62.65)"/><ellipse class="cls-11" cx="59.9" cy="84.75" rx="0.91" ry="1.16" transform="translate(-42.89 99.03) rotate(-62.65)"/><rect class="cls-4" x="67.77" y="110.42" width="18.56" height="6.18" transform="translate(154.11 227.03) rotate(-180)"/><path class="cls-7" d="M72.78,113.07c.3,1.76-1.87,1.94-2.39,4.13,4.46-1.78,8.7-2.44,13.87-.52-2.89-4.92-6.81-2.87-9.81-3.76Z"/><path class="cls-6" d="M103.68,107.75c-.08-2.41-.59-4.92-2.12-6.25a0,0,0,0,0,0,0l0,0v5.21s-.58.41-1.37,1.07l-.68.58a11.82,11.82,0,0,0-3.38,4.32c-.15.44-2.93-.27-2.93.11a35.91,35.91,0,0,0-7.76-5,19.23,19.23,0,0,0-7-1.73c-.41,0-.84,0-1.28,0a16.68,16.68,0,0,0-4.19.67,19.17,19.17,0,0,0-2.77,1.07,26.43,26.43,0,0,0-7.91,6.1h0a3.15,3.15,0,0,1-1.28.89s0,0,0,0c-.33.23-.69.5-1.09.81h0c-.4.31-.84.65-1.29,1s-.92.76-1.4,1.19a31.64,31.64,0,0,0-2.51,2.43c.07.11.13.22.2.32a4.43,4.43,0,0,0,.29.46c.23.38.5.76.76,1.13.59.87,1.22,1.71,1.9,2.53a42.9,42.9,0,0,0,4,4.29,43.83,43.83,0,0,0,3.44,2.93,38.1,38.1,0,0,0,4.26,2.85c.37.21.75.42,1.12.61a12.44,12.44,0,0,0,3.89,1.23,16.72,16.72,0,0,0,2,.2h.09a25,25,0,0,0,5.71-.49,26.47,26.47,0,0,0,3.56-.94s1.26-.88,3.12-2.41c4.42-3.64,12.17-11,14.23-19.09,0,0,.16-.86.32-2.14A27,27,0,0,0,103.68,107.75Zm-35.9,5.35a19.56,19.56,0,0,1,5.84-2.23h0a21,21,0,0,1,2.56-.37c.55,0,1.11-.08,1.67-.08a15.94,15.94,0,0,1,8.47,2.28,15,15,0,0,1,3.8,3.32,17.85,17.85,0,0,1-1,1.76c-1.4,2.21-4.19,5.77-7.77,6.06a11.47,11.47,0,0,1,.93-4.12,1.45,1.45,0,0,1,.74-.66c1.47-.43-7.53-3.69-10.86,0a15.06,15.06,0,0,1,1.84,3c.29.73.39,1.39,0,1.76-.63.65-3.83-1.06-6.23-3.28C66.23,119.1,65,117.4,65.07,116,65.12,115.16,66.14,114.08,67.78,113.1Z"/><path class="cls-6" d="M32.33,111.29s9,21.45,41.87,25.26S32.33,111.29,32.33,111.29Z"/><path class="cls-6" d="M40.88,97.65S38.74,112.31,57,116.25s-13.21,5.88-13.21,5.88L32.33,111.29s7.05-6.18,6.64-11.88Z"/><path class="cls-6" d="M63.86,112.33s-4.83,7.15-13.21,2.35,6.6,8.71,6.6,8.71Z"/><path class="cls-6" d="M43.2,108.07c-1.56,3.05,4.28,7.19-.79,8.25-5.32,1.11-11.59,1.57-16.42-2.5-1.66-1.41-1.84-4.6-4.58-4.93C12.26,107.81,12.14,99,7.75,93.81,1.55,86.46,4.3,77.28.59,69.65c-2.3-4.73,2.9-8.6,2-13.54-3.06-16.6,7.58-26.2,17.85-36.82,4.06-4.19,9.55-6.58,13-11.86,2.31-3.52,9.32-1.53,14.12-4.29,8.14-4.68,17.73-2,26.4-3C84.48-1,91.7,4.36,100.26,6.63c4.34,1.15,7.42,6.69,11.28,10,11.86,10.1,21.12,21,19.75,38.43-.32,4.1.8,9.12,1,13.9a31.63,31.63,0,0,1-10.37,25.41c-4.27,4-5.55,9.71-9.93,13.61-3.49,3.12-7.33,4.89-10.87,3-3.35-1.78-.6-5.36.23-8.45,4.13-15.38-10-38.65-25.18-42.1C65.8,58.07,49.91,68,45.69,78.31,41.62,88.24,41.57,98.19,43.2,108.07Z"/><path class="cls-1" d="M109.21,149.71a2.74,2.74,0,0,1-1,2.63h0s-11.31-13.82-6.19-14.59h0a21.25,21.25,0,0,1,6.43.57.69.69,0,0,0,0,.13,16,16,0,0,0,.22,6.79A23.24,23.24,0,0,1,109.21,149.71Z"/><path class="cls-1" d="M122.37,150.14l-3,.46a25.43,25.43,0,0,1-3.23-6.18,11.12,11.12,0,0,1-.64-4.34c3.39,1,6,1.88,6,1.88Z"/><polygon class="cls-1" points="115.53 140.08 107.09 137.88 112.44 161.08 135.89 156.78 115.53 140.08"/><path class="cls-12" d="M118.32,160.66c0-.21-.07-.43-.11-.64-.14-.75-.29-1.5-.43-2.25-.17-1-.35-1.93-.51-2.89s-.31-1.71-.46-2.57c-.08-.42-.15-.85-.23-1.27l-.24-1.34c-.18-1-.37-1.95-.54-2.92s-.32-1.84-.48-2.76-.36-1.92-.54-2.88c-.08-.44-.16-.87-.22-1.31-.11-.66-.22-1.32-.34-2-.25-1.34-.52-2.68-.77-4-.12-.67-.4-.86-1-.65l-10.78,3.5-3.45,1.12-7.31,2.37a1.9,1.9,0,0,0-.52.24.6.6,0,0,0-.22.88c.14.24.25.49.36.73.43.88.85,1.77,1.27,2.65s1,2,1.48,3.05.85,1.76,1.27,2.65,1,2,1.48,3c.39.82.79,1.65,1.19,2.47a.65.65,0,0,0,.08.17l1.47,3.06c.43.88.85,1.76,1.27,2.64l1.28,2.64c.34.73.69,1.45,1,2.17s.65,1.34,1,2a2,2,0,0,0,1.91,1.22,15.83,15.83,0,0,0,3.19-.79l7.56-2.45a11.15,11.15,0,0,0,1.88-.82,1.81,1.81,0,0,0,1-1.86C118.76,162.78,118.49,161.73,118.32,160.66ZM95.76,146.82c-.72-1.37-1.31-2.79-2-4.15-.24-.44-.41-.92-.62-1.38-.09-.18-.11-.29.17-.35a15.83,15.83,0,0,0,1.57-.49,16.25,16.25,0,0,0,1.66-.59c.17-.09.25,0,.29.16s.13.35.18.54c.43,1.48,1,2.91,1.51,4.36.38,1.05.68,2.12,1.09,3.16.23.58.43,1.17.64,1.76.08.22,0,.32-.19.39q-.94.28-1.86.6a.34.34,0,0,1-.48-.17c-.16-.33-.36-.65-.51-1C96.73,148.7,96.24,147.75,95.76,146.82Zm20.14,16a2.58,2.58,0,0,1-1.29.9c-2.61.86-5.2,1.75-7.83,2.52-1.47.43-2.2.08-3.07-1.35-1-1.73-2-3.5-3-5.28-.74-1.37-1.46-2.74-2.18-4.13l-1.19-2.31c-.24-.47-.46-1-.7-1.43-.12-.23-.11-.36.19-.46,1-.33,1-.34,1.52.64.37.73.78,1.45,1.15,2.19a1.91,1.91,0,0,0,.34.44c.21.25.44.07.61-.08a2.85,2.85,0,0,1,.87-.59c.19-.08.21-.19.15-.36-.36-1-.62-2.1-1.07-3.09-.13-.29,0-.32.24-.38l4.72-1.54.23-.07,1.69-.54h0l1.75-.57.22-.07,4.63-1.51c.31-.1.41-.06.45.26.2,1.29.44,2.57.64,3.85.07.46.14.91.2,1.37.16,1.14.32,2.29.47,3.44.26,1.88.5,3.78.66,5.67,0,.14,0,.28,0,.42A2.86,2.86,0,0,1,115.9,162.86Z"/><path class="cls-13" d="M107.29,147.93c2.2-.71,4.4-1.42,6.6-2.15.3-.1.4-.06.45.27.2,1.28.44,2.56.63,3.84.24,1.6.46,3.21.68,4.81.27,2,.52,4.06.7,6.09a2.85,2.85,0,0,1-.45,2.07,2.61,2.61,0,0,1-1.3.9c-2.6.86-5.2,1.75-7.83,2.52-1.46.44-2.2.09-3.07-1.35-1-1.73-2-3.5-3-5.28-1.15-2.13-2.26-4.28-3.36-6.44-.25-.47-.46-1-.71-1.43-.11-.22-.11-.36.19-.46,1-.33,1-.34,1.52.64.38.74.78,1.46,1.16,2.19a1.67,1.67,0,0,0,.34.44c.2.25.44.07.6-.08a3.11,3.11,0,0,1,.87-.59.24.24,0,0,0,.16-.36c-.37-1-.62-2.09-1.07-3.09-.13-.29,0-.32.24-.38l4.94-1.6,1.7-.55Z"/><path class="cls-14" d="M94.83,140.45a13.63,13.63,0,0,0,1.67-.59c.16-.09.24,0,.29.16s.12.36.17.54c.43,1.48,1,2.92,1.52,4.36.38,1.05.67,2.12,1.09,3.16.23.58.43,1.17.64,1.76.07.22,0,.32-.2.39q-.93.28-1.86.6a.31.31,0,0,1-.46-.17c-.18-.33-.37-.65-.53-1-.44-1-.92-1.92-1.41-2.85-.71-1.37-1.31-2.79-2-4.15-.23-.44-.41-.92-.62-1.38-.08-.18-.11-.29.18-.35A15.72,15.72,0,0,0,94.83,140.45Z"/><path class="cls-4" d="M180.83,199.25a13.1,13.1,0,0,0-2.21-3.95l-.09-.12a.6.6,0,0,1-.09-.13c-.1-.15-.2-.29-.28-.44a7,7,0,0,1-.43-.92c-.06-.16-.12-.31-.17-.47-.25-.73-.45-1.46-.76-2.15a28,28,0,0,0-2.06-3.84c-.38-.6-.79-1.18-1.21-1.73a20.73,20.73,0,0,0-4.5-4.32c-.58-.4-1.19-.78-1.82-1.13l-1-.5c-.33-.17-.67-.32-1-.47a3.82,3.82,0,0,1-.54-.26.92.92,0,0,1-.38-.4.87.87,0,0,1-.07-.17c-.35,0-.72.14-.92-.3l-.54-.23c-.09-.05-.18-.08-.27-.12-.68-.29-1.36-.58-2-.85l-1.4-.56-.7-.27-1.4-.53-.82-.3-1.45-.53c-4.84-1.76-9.73-3.41-14.42-5.54q-1.06-.48-2.1-1l-1-.5-.14-.07c-.31-.16-.62-.32-.92-.49-1-.55-2-1.13-3-1.75q-.47-.28-.93-.6c-.94-.63-1.86-1.3-2.75-2l-.84-.69c-.88-.75-1.72-1.54-2.53-2.37l-.78-.84c-.23-.26-.47-.52-.69-.78s-.52-.61-.76-.93-.48-.62-.71-.94-.62-.87-.92-1.32c-.92-1.4-1.9-2.76-2.82-4.15l-2.82.44-1.4.22-4.83.75-2.1.33h0a2.88,2.88,0,0,1-.34.23,3.39,3.39,0,0,1-.38.2c-.16.07-.33.13-.51.19l-4.65,1.46c-.56.18-1.12.35-1.69.51s-1.21.35-1.83.51l-.3.08-.88.22a4,4,0,0,0-.49.15,4.64,4.64,0,0,0-1.12.6,2.92,2.92,0,0,0-.28.21,5.49,5.49,0,0,0-1.06,1.15l-.2.3a5.81,5.81,0,0,0-.57,1.18c0,.13-.08.26-.11.38a2.86,2.86,0,0,0,.57,3c1.14,1,.77,1.64,0,2.57-1.57,1.88-1.42,3.43.49,5,.87.71.64,1.4.33,2.2-1.14,3-.57,4.19,2.45,5.15.72.23,1,.51,1,1.27-.17,2.06.27,2.72,2.19,3.46a18,18,0,0,0,6.08,1c5.52.14,11,.35,16.35-1.78a4.17,4.17,0,0,1,4.89,1c1.55,1.58,3.09,3.17,4.67,4.72,3.13,3.06,5.94,6.42,8.91,9.62,2,2.47,4.12,4.87,6,7.42l.46.6c.31.4.62.78.95,1.15s.66.73,1,1.08a13.45,13.45,0,0,0,1.74,1.42,26.13,26.13,0,0,0,15.83,4.64,54,54,0,0,0,10.57-1.28,3.45,3.45,0,0,0,1.27-.56,2.13,2.13,0,0,0,.31-.29,3.32,3.32,0,0,0,.78-1.63c.05-.23.1-.46.13-.69h0Z"/><path class="cls-15" d="M47.53,99.87s6.69-2.15,11.84,11.42"/><path class="cls-15" d="M97.62,93a17.16,17.16,0,0,0-7.38,14.74"/></g></g></svg>