<svg xmlns="http://www.w3.org/2000/svg" viewBox="0 0 213.84 280.31"><defs><style>.cls-1{fill:#9acad8;}.cls-2{fill:#63629c;}.cls-3{fill:#df807b;}.cls-4{fill:#fbb4ab;}.cls-5{fill:#abc757;}.cls-6{fill:#7c74b1;}.cls-7{fill:#90b164;}.cls-8{fill:#716ca8;}.cls-9{fill:#f8b4b0;}.cls-10{fill:#52518b;}.cls-11{fill:#9b504c;}.cls-12{fill:#4a4662;}.cls-13{fill:#796ca1;}.cls-14{fill:#c16966;}.cls-15{fill:#ed9490;}.cls-16{fill:#fefefe;}.cls-17{fill:#81a258;}</style></defs><g id="Layer_2" data-name="Layer 2"><g id="Layer_1-2" data-name="Layer 1"><path class="cls-1" d="M0,0H213.84a0,0,0,0,1,0,0V266.14a14.17,14.17,0,0,1-14.17,14.17H14.17A14.17,14.17,0,0,1,0,266.14V0A0,0,0,0,1,0,0Z"/><path class="cls-2" d="M163.81,239.19l.18,2.37h-.73c-1.11.45-1.33,1.46-1.74,2.46-4.22,10.29-10.47,19.21-19.71,25.46C133.87,274.84,125,276,115.2,275c-15.77-1.58-29.83-7.43-43.54-14.67a6,6,0,0,0-2.62-.65,2.18,2.18,0,0,0-1.29-1.81c-3.53-2.25-7.25-4.29-10.49-6.92-5.44-4.42-11.24-8.54-13.53-15.85-1.38-4.39.81-8.57,0-12.83,1.63-6.14,6.45-8.82,11.84-10.87,4.61.53,8.68,2.54,12.84,4.38,3.18,1.41,5.88,3.85,9.46,4.41a84.3,84.3,0,0,0,24.8,11.7c8.25,2.46,15.29.72,20.25-6.84,3.5-.43,7-1.54,9.13-4.22,2.6-3.27,5.32-3.92,8.64-2,5,2.93,4.53-5,8.48-4.12.3.07,1.16-.89,1.17-1.39a8.85,8.85,0,0,0-.7-2.56c2-.42,4.55.38,5.47-2.2.76-2.1-1.51-2.73-2.48-4,3.23-2.67,3.14-3.36-.5-5.45-3-1.72-6.34-2.33-9.7-2.94.39-1.51,2-2.86.7-4.15s-3-.24-4.41.39-2.59,1.29-3.89,1.94c-.21-3.58,1.29-7,.77-10.63,3.25-.12,6.42-.43,8.7-3.19a1.23,1.23,0,0,1,.63-.09l.94-.66a2,2,0,0,1,.72-.13c1.41.18,2.64,0,3.19-1.56l0,0c1.18.1,2.35.16,2.33-1.55h0l.79-.76.87-.75c.65,0,1.23-.18,1.44-.9h0l.76-.75v-.08l2.59.1,2.27,2.43c0,.7.21,1.28,1,1.41l0,0c-.06,1.65.23,3.06,2.24,3.32l0,0a5.6,5.6,0,0,0,.64,3,48,48,0,0,1,4.15,19.36c.13,11.39-2.33,22.27-5.45,33.09C163.18,236.94,161.49,238.41,163.81,239.19ZM123.23,248c.89-6.8-1.62-10.12-8.08-11C117.93,240.67,119.76,244.53,123.23,248Zm7.24-5c-1-6.49-6.38-11.11-10.48-9.14Z"/><path class="cls-3" d="M153.8,175.08l-.87.75-.79.76h0a2.53,2.53,0,0,0-2.33,1.55l0,0a3.24,3.24,0,0,0-3.19,1.56,2,2,0,0,0-.72.13l-.94.66a1.23,1.23,0,0,0-.63.09,135.4,135.4,0,0,1-22.69,4.3,148.39,148.39,0,0,1-29-.81c-8.81-1-17-4.11-25.11-7.44L61,171.15c-3-5.3-2.13-9,3.37-12.41a6.07,6.07,0,0,0,3.17-5.22c.55-5.49,2.16-10.3,7-10.14a29.48,29.48,0,0,0,10.69,7.16c14.09,5.44,28.24,4.68,42.41.37,5.47-1.67,10-4.61,12.63-9.87l.8.07c5.79,2.87,9.64,7.07,9.52,13.95,0,1.65,1.36,2.09,2.23,3,3.73,3.87,6.2,8.13,4.08,13.74a1.68,1.68,0,0,0-.94,1.55v.08l-.76.75h0A1.43,1.43,0,0,0,153.8,175.08Zm-8.57-16.56-31.61,7.59C120,171.33,139.88,164.92,145.23,158.52Zm-48.63,8,.29-1-26.43-8-.41,1.35C77.2,167.1,87.3,165.49,96.6,166.53Z"/><path class="cls-4" d="M140.34,141c-2.67,5.26-7.16,8.2-12.63,9.87-14.17,4.31-28.32,5.07-42.41-.37a29.48,29.48,0,0,1-10.69-7.16c0-7.67,2.31-15,3.16-22.56-.16-6.23,0-12.42,1.76-18.46,9.84-2.74,19.77-2.23,29.64-.51,6,1,12.08,2.19,17.59,5.09-1.17,4.87-1.51,9.66,1.9,13.87,1.37,1.68,3.22,3,3.28,5.49a2.22,2.22,0,0,0,2.13,2c1.32.11,1.78-1,2.15-1.95a39.81,39.81,0,0,0,1.68-5.23c.86-3.61,3.49-5.19,8-4.8,3.67.32,4.63,3,4.49,5.82-.3,5.9-2.45,11.11-7.86,14.13C140.37,137.51,139.88,138.9,140.34,141ZM100,141c-2.8.82-6.45-1.08-9.14,3.5,4.82-1.79,8.76-1.17,12.92.49-.49-2-2.51-2.21-2.23-3.85a4.66,4.66,0,0,0,.34-5.91c-1-1.58-1.84-.77-2.85-.46-3.61-1.2-4.21-3.27-2.25-6.54a36.36,36.36,0,0,0,2.94-6.83c.33-.94.9-2.3-.83-3-1.45,3.26-2.83,6.49-4.31,9.67-2.1,4.55-.94,7,4,8.37C98.12,138.28,99.06,139.65,100,141ZM145,121.2c-3.6,1.21-5.2,4.13-6.14,7.48-.34,1.24,0,2.92,1.43,3.2s3-1.5,2.68-2.26c-1.29-3.42,1.56-5.54,2.13-8.32l.32-.4Zm-58.18-8.86c3.15-.66,5.93-2,7.73-4.89.5-.81.9-1.7.17-2.56-.88-1-1.94-.72-2.83-.06a18.37,18.37,0,0,1-6.29,3.2c-1.27.35-2.72.91-2.15,2.68C84,112.23,85.46,112.19,86.83,112.34Zm30.88.27c1.51-.06,3,.1,3.46-1.52s-.9-2.23-2.25-2.57a17.1,17.1,0,0,1-6.24-3.21,1.86,1.86,0,1,0-2.59,2.67C112.11,110.51,114.42,112.57,117.71,112.61Zm.11,14.3v-.16c2,0,3.92,0,5.88,0,.52,0,1.11-.13,1.17-.77a1.42,1.42,0,0,0-.45-1c-1.28-1.29-11.57-2.38-13.24-1.44-.67.39-1.5.71-1.35,1.67a1.78,1.78,0,0,0,1.75,1.32C113.65,126.77,115.74,126.8,117.82,126.91ZM80.7,124.53c4.75,2.2,8.73,1.58,12.71.6.8-.2,1.53-.61,1.46-1.57a1.59,1.59,0,0,0-1.63-1.42A23.46,23.46,0,0,0,80.7,124.53Zm41.11-7.5c-4.87.92-9.63,2.09-12.72-4.2-.92,3.86.94,5.39,3.2,6.18C115.66,120.18,119.12,120.54,121.81,117Zm-29.2.4a21.47,21.47,0,0,1-10.23-1.75C85,119.79,88.51,120.31,92.61,117.43Z"/><path class="cls-5" d="M83.12,86.34c3.75-11,11.47-17.66,22.7-20.36a64.9,64.9,0,0,1,18.35-2.11c.52,0,1.22.21,1.53,0C130.35,60.05,134,63,138.27,65s7.63,4.49,8.46,9.47a3.36,3.36,0,0,0,1.1,1.59c8.39,8.38,10.59,18.77,9.84,30.13a9.44,9.44,0,0,1-2.07-1c-16-13.46-34.61-19.64-55.29-20.4C94.5,84.61,88.87,86.11,83.12,86.34Zm42.8-18.15c3-.8,5.37-1.2,7.2-3.42C129.69,63.61,127.62,64.63,125.92,68.19Zm12.87,5.23c2.2-1.88.87-3.57.08-5.21-.23-.48-1-.71-1.3-.26-1.06,1.42.21,2.7.45,4A5.5,5.5,0,0,0,138.79,73.42Z"/><path class="cls-6" d="M46.06,278.84c-1.42-3.42-.51-6.93-.45-10.41,2.46-1.26,1.13-3.52,1.22-5.28.12-2.5,1.54-3.31,3.28-2.36,6.23,3.41,13,2.83,19.62,2.92a6.85,6.85,0,0,1,3.77.81,98.33,98.33,0,0,0,14.7,7.34c13.57,5.52,27.25,7.39,41.89,4.81,14.31-2.53,24.46-10.07,31.76-22.13a3.49,3.49,0,0,1,3.47-2c1.81,8.33,1.54,16.92,3.15,25.27.38,1.95-.39,2.55-2.3,2.51-5.27-.11-10.53,0-15.8-.1q-37.49-.43-75-.91C75.09,277.88,74,278,72.93,278H48.13A2.26,2.26,0,0,0,46.06,278.84Z"/><path class="cls-7" d="M83.12,86.34c5.75-.23,11.38-1.73,17.19-1.51,20.68.76,39.31,6.94,55.29,20.4a9.44,9.44,0,0,0,2.07,1c1,3.09,3.39,5.94,1.5,9.5-.59,1.11-.76,2.58-2.51,2.49-3.22-1.42-6.38-3-9.68-4.21-6.71-2.44-13-6.14-20.22-7.07-5.51-2.9-11.57-4-17.59-5.09-9.87-1.72-19.8-2.23-29.64.51l-3.94.74c-2-4.14.39-11.58,4.68-14.76C81.21,87.65,82.17,87,83.12,86.34Zm32.07,3.26c-.83,2.91-2.25,5.69-1.51,9.07C116.45,95.3,116.45,95.3,115.19,89.6Zm-34.3,1.67c-2.86,2-3.63,4.89-3.24,8.11a10.6,10.6,0,0,0,2.14-3.66C80.28,94.28,80.53,92.76,80.89,91.27Zm6.66,5.47A11.77,11.77,0,0,0,90.13,88C87.18,92.07,87.09,92.38,87.55,96.74Zm14.56-8.64c-3.28,5.33-3.38,5.82-2,9.24C101.44,94.24,101.69,91.19,102.11,88.1Zm21.68,14.48c2.67-3.66,2.33-6.73,1.9-9.83A24.05,24.05,0,0,0,123.79,102.58Zm11.85-7.36c-.54,3.1-1.08,6.2-1.78,10.19C137,101.83,136.33,98.53,135.64,95.22Zm6.37,13.7c2.85-1.89,3.28-3.72,2.78-6.58C142.88,104.3,142.52,106.13,142,108.92Zm9-3.17c-.62,1.56-1.24,3.11-2.18,5.5C151.81,109.66,152.43,108.06,151,105.75Z"/><path class="cls-8" d="M165.32,252.53a3.49,3.49,0,0,0-3.47,2c-7.3,12.06-17.45,19.6-31.76,22.13-14.64,2.58-28.32.71-41.89-4.81a98.33,98.33,0,0,1-14.7-7.34,6.85,6.85,0,0,0-3.77-.81c-6.67-.09-13.39.49-19.62-2.92-1.74-1-3.16-.14-3.28,2.36-.09,1.76,1.24,4-1.22,5.28a103.9,103.9,0,0,1,.79-15.06c2.09,0,3.65,1.29,5.4,2.12,5.46,2.61,11,4.68,17.24,4.23a6,6,0,0,1,2.62.65c13.71,7.24,27.77,13.09,43.54,14.67,9.75,1,18.67-.2,26.61-5.57,9.24-6.25,15.49-15.17,19.71-25.46.41-1,.63-2,1.74-2.46.25,1.59-.63,3.37.79,4.76.12,1.1-.35,2.36.85,3.16Z"/><path class="cls-9" d="M55.53,211.44c-5.39,2.05-10.21,4.73-11.84,10.87a3.68,3.68,0,0,0-.87,2.87c.22,4.09-1.76,4.93-5.25,3.78a10.11,10.11,0,0,1-5.51-13.22c.45-1.16,0-2-.1-3-.23-1.9-.1-3.68,1.7-4.88.33-.22.88-.46.9-.71.42-6.42,4.72-4.12,8.19-3.68,1,.8,1.89,2.78,2.65-.23.57-2.28,2.26-2.1,4.08-1.4,3.74,1.44,4.88,4.79,6.06,8.12Z"/><path class="cls-10" d="M55.54,210c-1.18-3.33-2.32-6.68-6.06-8.12-1.82-.7-3.51-.88-4.08,1.4-.76,3-1.7,1-2.65.23A155.46,155.46,0,0,1,61,171.15l6.45,5.51a4.87,4.87,0,0,0-1.63,3.89Q60.69,195.27,55.54,210Z"/><path class="cls-11" d="M126.76,106.94c7.24.93,13.51,4.63,20.22,7.07,3.3,1.2,6.46,2.79,9.68,4.21C155.21,125,153,131.53,148,136.64a20.5,20.5,0,0,1-6.81,4.47l-.8-.07c-.46-2.14,0-3.53,2.21-4.75,5.41-3,7.56-8.23,7.86-14.13.14-2.87-.82-5.5-4.49-5.82-4.53-.39-7.16,1.19-8,4.8a39.81,39.81,0,0,1-1.68,5.23c-.37.95-.83,2.06-2.15,1.95a2.22,2.22,0,0,1-2.13-2c-.06-2.54-1.91-3.81-3.28-5.49C125.25,116.6,125.59,111.81,126.76,106.94Z"/><path class="cls-10" d="M37.57,229c3.49,1.15,5.47.31,5.25-3.78a3.68,3.68,0,0,1,.87-2.87c.85,4.26-1.34,8.44,0,12.83C46,242.45,51.82,246.57,57.26,251c3.24,2.63,7,4.67,10.49,6.92A2.18,2.18,0,0,1,69,259.72c-6.21.45-11.78-1.62-17.24-4.23-1.75-.83-3.31-2.16-5.4-2.12,0-1.29-1-2.06-1.7-3C39.74,244.11,37.74,236.84,37.57,229Z"/><path class="cls-12" d="M68.5,142.71c-6.62.55-6.86,4.71-7.47,8.81a8.79,8.79,0,0,1-5.41,6.85c-4.35,2-6.06,5.15-5.24,9.84.59,3.36-.22,6.25-3.18,8.34-2.12,1.5-2.77,3.71-2.68,6.24,0,1.08.79,2.26-.19,3.38a7.35,7.35,0,0,1,1.05-10.39c3-2.32,3.59-5,3.13-8.3-.66-4.77,1.09-8.24,5.48-10.28a9,9,0,0,0,5.61-8.35A8,8,0,0,1,62,143.16C63.46,141.79,65.09,140.85,68.5,142.71Z"/><path class="cls-12" d="M60.14,141.64c-4.17,1-5.29,3.87-5.59,7.61a8.25,8.25,0,0,1-5.11,7c-3.86,1.78-5.53,4.61-4.8,8.89.53,3.19-.21,5.93-3.11,8-2.17,1.52-2.44,3.92-2.06,6.41.11.71.66,1.75-.48,2-1.33.23-1.29-1.09-1.41-1.9-.42-2.9,0-5.75,2.42-7.55a6.88,6.88,0,0,0,2.85-7.22c-.74-4.67,1-8,5.33-9.92,3.45-1.56,4.4-4.5,4.91-7.95C53.8,142.12,56,140.46,60.14,141.64Z"/><path class="cls-12" d="M168.52,181.49c1.39-4.75-.6-8-3.68-11.23-1.84-1.9-1.22-4.94-.7-7.23.8-3.52-.56-5.66-3.25-7.22-3.72-2.16-5.86-5.07-5.73-9.52.1-3.39-1.83-5.46-5.49-6.58,2.4-1.51,3.73-.4,5,.64a5.25,5.25,0,0,1,2,4.16c-.32,5.13,2.11,8.31,6.4,10.72,3.85,2.17,2.87,6.16,2.7,9.57-.13,2.67.2,4.72,2.32,6.67C171,174.19,171.19,177.59,168.52,181.49Z"/><path class="cls-12" d="M156.93,139.21c3.95-.85,5.73,1.55,5.89,4.72.23,4.38,1.89,7.38,5.72,9.53,2.85,1.61,3.46,4.49,2.89,7.58s-.28,5.47,2.23,7.82,2.2,5.69.33,8.82c.78-4.49-1.28-7.66-4-10.78-1.31-1.5-.62-3.84-.27-5.75a6.28,6.28,0,0,0-3.41-7.24c-2.79-1.57-4.71-3.78-4.82-7.15S160.75,140.5,156.93,139.21Z"/><path class="cls-13" d="M163.81,239.19c-2.32-.78-.63-2.25-.36-3.18,3.12-10.82,5.58-21.7,5.45-33.09a48,48,0,0,0-4.15-19.36,5.6,5.6,0,0,1-.64-3c5.64,8.81,6.7,18.58,5.9,28.69a116.16,116.16,0,0,1-5.47,26.92C164.22,237.14,164.05,238.18,163.81,239.19Z"/><path class="cls-11" d="M75.59,103.1l3.94-.74c-1.77,6-1.92,12.23-1.76,18.46-4.71-3.28-5-7.9-3.85-12.91A47.21,47.21,0,0,1,75.59,103.1Z"/><path class="cls-8" d="M46.06,278.84a2.26,2.26,0,0,1,2.07-.88h24.8c1.06,0,2.16-.08,2.45,1.34C65.6,279.36,55.82,279.81,46.06,278.84Z"/><path class="cls-13" d="M164.05,246.31c-1.42-1.39-.54-3.17-.79-4.76H164a9.24,9.24,0,0,1,.67,4.73Z"/><path class="cls-13" d="M164.13,180.56c-2-.26-2.3-1.67-2.24-3.32A5.64,5.64,0,0,1,164.13,180.56Z"/><path class="cls-13" d="M156,173.34a1.68,1.68,0,0,1,.94-1.55l1.65,1.65Z"/><path class="cls-6" d="M164.05,246.31l.61,0,.24,3.18C163.7,248.67,164.17,247.41,164.05,246.31Z"/><path class="cls-13" d="M161.92,177.28c-.82-.13-1-.71-1-1.41Z"/><path class="cls-6" d="M55.54,210q5.15-14.7,10.31-29.42c5.44,2.8,10.52,6.18,16.82,7.29a87.21,87.21,0,0,0,31.81-.13c7-1.34,14.27-1.44,21.08-3.91.52,3.6-1,7-.77,10.63l-3.17,2.92a2.06,2.06,0,0,0-1.51,1.43c-2.72,1.48-3.81,4.55-6.2,6.35-7.45-.26-14.41,1.85-21.38,4.17-8.6,2.87-16.43,7.38-24.7,10.93-3.58-.56-6.28-3-9.46-4.41-4.16-1.84-8.23-3.85-12.84-4.38C55.53,211,55.53,210.46,55.54,210Z"/><path class="cls-10" d="M77.83,220.23c8.27-3.55,16.1-8.06,24.7-10.93,7-2.32,13.93-4.43,21.38-4.17-2.57,3.84-5,7.72-5.27,12.53-.17,3.36.36,6.36,4.24,7.43-5,7.56-12,9.3-20.25,6.84A84.3,84.3,0,0,1,77.83,220.23Zm37.31-11.3c-4,2.95-5.86,7.84-4.67,11.48,1,3.08,3.35,4.54,6.65,4.89C113,220.46,112.76,215.13,115.14,208.93Z"/><path class="cls-9" d="M122.88,225.09c-3.88-1.07-4.41-4.07-4.24-7.43.23-4.81,2.7-8.69,5.27-12.53,2.39-1.8,3.48-4.87,6.2-6.35,3.63,1.63,6.24-1.18,10-1.64-3.48-1.88-5.79,1.4-8.51.21l3.17-2.92c1.3-.65,2.57-1.35,3.89-1.94s3.07-1.69,4.41-.39-.31,2.64-.7,4.15c3.36.61,6.7,1.22,9.7,2.94,3.64,2.09,3.73,2.78.5,5.45,1,1.25,3.24,1.88,2.48,4-.92,2.58-3.51,1.78-5.47,2.2a8.85,8.85,0,0,1,.7,2.56c0,.5-.87,1.46-1.17,1.39-3.95-.9-3.47,7-8.48,4.12-3.32-1.94-6-1.29-8.64,2C129.88,223.55,126.38,224.66,122.88,225.09Zm19.81-11.25.32.18-.33-.17c-.79-3.24-3.35-2.75-5.73-2.63C138.65,212.54,140.33,213.92,142.69,213.84Zm3.4-5c-1.62-2.58-3.87-3.32-7.25-2.61Z"/><path class="cls-13" d="M135.56,183.8c-6.81,2.47-14.06,2.57-21.08,3.91a87.21,87.21,0,0,1-31.81.13c-6.3-1.11-11.38-4.49-16.82-7.29a4.87,4.87,0,0,1,1.63-3.89c8.11,3.33,16.3,6.47,25.11,7.44a148.39,148.39,0,0,0,29,.81,135.4,135.4,0,0,0,22.69-4.3C142,183.37,138.81,183.68,135.56,183.8Z"/><path class="cls-10" d="M123.23,248c-3.47-3.5-5.3-7.36-8.08-11C121.61,237.91,124.12,241.23,123.23,248Z"/><path class="cls-10" d="M130.47,243,120,233.85C124.09,231.88,129.49,236.5,130.47,243Z"/><path class="cls-13" d="M146.55,179.73a3.24,3.24,0,0,1,3.19-1.56C149.19,179.75,148,179.91,146.55,179.73Z"/><path class="cls-13" d="M149.77,178.15a2.53,2.53,0,0,1,2.33-1.55C152.12,178.31,151,178.25,149.77,178.15Z"/><path class="cls-13" d="M153.8,175.08a1.43,1.43,0,0,1,1.44-.9C155,174.9,154.45,175.05,153.8,175.08Z"/><path class="cls-13" d="M152.14,176.59l.79-.76Z"/><path class="cls-13" d="M144.89,180.52l.94-.66Z"/><path class="cls-13" d="M155.27,174.17l.76-.75Z"/><path class="cls-14" d="M145.23,158.52c-5.35,6.4-25.22,12.81-31.61,7.59Z"/><path class="cls-14" d="M96.6,166.53c-9.3-1-19.4.57-26.55-7.66l.41-1.35,26.43,8Z"/><path class="cls-11" d="M86.83,112.34c-1.37-.15-2.87-.11-3.37-1.63-.57-1.77.88-2.33,2.15-2.68a18.37,18.37,0,0,0,6.29-3.2c.89-.66,1.95-1,2.83.06.73.86.33,1.75-.17,2.56C92.76,110.34,90,111.68,86.83,112.34Z"/><path class="cls-11" d="M117.71,112.61c-3.29,0-5.6-2.1-7.62-4.63a1.86,1.86,0,1,1,2.59-2.67,17.1,17.1,0,0,0,6.24,3.21c1.35.34,2.7.85,2.25,2.57S119.22,112.55,117.71,112.61Z"/><path class="cls-15" d="M117.82,126.91c-2.08-.11-4.17-.14-6.24-.37a1.78,1.78,0,0,1-1.75-1.32c-.15-1,.68-1.28,1.35-1.67,1.67-.94,12,.15,13.24,1.44a1.42,1.42,0,0,1,.45,1c-.06.64-.65.77-1.17.77-2,0-3.92,0-5.88,0Z"/><path class="cls-15" d="M80.7,124.53a23.46,23.46,0,0,1,12.54-2.39,1.59,1.59,0,0,1,1.63,1.42c.07,1-.66,1.37-1.46,1.57C89.43,126.11,85.45,126.73,80.7,124.53Z"/><path class="cls-3" d="M98.54,136.48c-4.94-1.33-6.1-3.82-4-8.37,1.48-3.18,2.86-6.41,4.31-9.67,1.73.7,1.16,2.06.83,3a36.36,36.36,0,0,1-2.94,6.83c-2,3.27-1.36,5.34,2.25,6.54C98.83,135.37,98.69,135.92,98.54,136.48Z"/><path class="cls-11" d="M121.81,117c-2.69,3.51-6.15,3.15-9.52,2-2.26-.79-4.12-2.32-3.2-6.18C112.18,119.12,116.94,118,121.81,117Z"/><path class="cls-3" d="M145.12,121.3c-.58,2.78-3.43,4.9-2.14,8.32.28.76-1.3,2.52-2.68,2.26s-1.77-2-1.43-3.2c.94-3.35,2.54-6.27,6.14-7.48Z"/><path class="cls-3" d="M101.5,141.18c-.28,1.64,1.74,1.81,2.23,3.85-4.16-1.66-8.1-2.28-12.92-.49,2.69-4.58,6.34-2.68,9.14-3.5Z"/><path class="cls-16" d="M101.5,141.18,100,141c-.89-1.39-1.83-2.76-1.41-4.56.15-.56.29-1.11.45-1.67,1-.31,1.89-1.12,2.85.46A4.66,4.66,0,0,1,101.5,141.18Z"/><path class="cls-11" d="M92.61,117.43c-4.1,2.88-7.64,2.36-10.23-1.75A21.47,21.47,0,0,0,92.61,117.43Z"/><path class="cls-3" d="M145,121.2l.42-.3c-.1.14-.21.27-.31.4Z"/><path class="cls-17" d="M125.92,68.19c1.7-3.56,3.77-4.58,7.2-3.42C131.29,67,129,67.39,125.92,68.19Z"/><path class="cls-17" d="M138.79,73.42A5.5,5.5,0,0,1,138,72c-.24-1.34-1.51-2.62-.45-4,.33-.45,1.07-.22,1.3.26C139.66,69.85,141,71.54,138.79,73.42Z"/><path class="cls-17" d="M115.19,89.6c1.26,5.7,1.26,5.7-1.51,9.07C112.94,95.29,114.36,92.51,115.19,89.6Z"/><path class="cls-17" d="M80.89,91.27c-.36,1.49-.61,3-1.1,4.45a10.6,10.6,0,0,1-2.14,3.66C77.26,96.16,78,93.31,80.89,91.27Z"/><path class="cls-17" d="M87.55,96.74c-.46-4.36-.37-4.67,2.58-8.77A11.77,11.77,0,0,1,87.55,96.74Z"/><path class="cls-17" d="M102.11,88.1c-.42,3.09-.67,6.14-2,9.24C98.73,93.92,98.83,93.43,102.11,88.1Z"/><path class="cls-17" d="M123.79,102.58a24.05,24.05,0,0,1,1.9-9.83C126.12,95.85,126.46,98.92,123.79,102.58Z"/><path class="cls-17" d="M135.64,95.22c.69,3.31,1.36,6.61-1.78,10.19C134.56,101.42,135.1,98.32,135.64,95.22Z"/><path class="cls-17" d="M142,108.92c.51-2.79.87-4.62,2.78-6.58C145.29,105.2,144.86,107,142,108.92Z"/><path class="cls-17" d="M151,105.75c1.41,2.31.79,3.91-2.18,5.5C149.78,108.86,150.4,107.31,151,105.75Z"/><path class="cls-15" d="M131.62,197.35c2.72,1.19,5-2.09,8.51-.21-3.78.46-6.39,3.27-10,1.64A2.06,2.06,0,0,1,131.62,197.35Z"/><path class="cls-12" d="M115.14,208.93c-2.38,6.2-2.18,11.53,2,16.37-3.3-.35-5.64-1.81-6.65-4.89C109.28,216.77,111.1,211.88,115.14,208.93Z"/><path class="cls-15" d="M142.69,213.84c-2.36.08-4-1.3-5.74-2.62,2.38-.12,4.94-.61,5.73,2.63Z"/><path class="cls-15" d="M146.09,208.88l-7.25-2.61C142.22,205.56,144.47,206.3,146.09,208.88Z"/><path class="cls-15" d="M142.68,213.85l.33.17-.32-.18Z"/></g></g></svg>