<svg xmlns="http://www.w3.org/2000/svg" viewBox="0 0 213.84 280.31"><defs><style>.cls-1{fill:#e8b894;}.cls-2{fill:#9acad8;}.cls-3{fill:#677db5;}.cls-4{fill:#dde4ec;}.cls-5{fill:#b4bccf;}.cls-6{fill:#733e26;}.cls-7{fill:#ffe2c9;}.cls-8{fill:#060606;}.cls-9{fill:#6b2a12;}.cls-10{fill:#df807b;}.cls-11{fill:#b55239;}.cls-12{fill:#2c222b;}.cls-13{fill:#fff;}.cls-14{fill:#d4e4f1;}.cls-15{fill:#53bbe8;}.cls-16{fill:#fefefe;}.cls-17{fill:none;stroke:#6b2a12;stroke-miterlimit:10;}</style></defs><g id="Layer_2" data-name="Layer 2"><g id="Layer_9" data-name="Layer 9"><rect class="cls-1" x="193.17" y="235.29" width="4.73" height="0.12"/><path class="cls-1" d="M206.24,235.29v.12H198.8s0-.08,0-.12Z"/></g><g id="Layer_11" data-name="Layer 11"><path class="cls-2" d="M213.84,0V266.14a1.93,1.93,0,0,1,0,.24s0,0,0,0a13.94,13.94,0,0,1-.82,4.54,14.17,14.17,0,0,1-13.34,9.38H14.18A14.17,14.17,0,0,1,0,266.14V0Z"/><path class="cls-3" d="M176.73,263.16l-13.08-8.08-5.4-3.28c.16,3.16.21,6.08.45,9,.45,5.45.57,10.92,1.23,16.36.09.77.19,1.55.28,2.32h-46c0-3.08-.09-6.17-.12-9.25-.1-10.12-.15-20.25.1-30.37.21-8.3.12-16.6.42-24.9.09-2.46.15-4.89,1.36-7.12.38-.67.68-1.37,1.09-2a35.1,35.1,0,0,0,3.51-6.88,41.35,41.35,0,0,0,1.79-7.66,10.81,10.81,0,0,1,5.05,3.26,3,3,0,0,0,2.64,1,43.3,43.3,0,0,1,11.42.61,16,16,0,0,0,.22,6.79,23.24,23.24,0,0,1,.54,4.47,2.74,2.74,0,0,1-1,2.63h0a2.83,2.83,0,0,1-.28.2,2.6,2.6,0,0,1-.44.23c-.16.07-.33.13-.51.19-3.1,1-6.19,2-9.35,2.78-3.37.81-5.06,5.44-3.26,6.95,1.14,1,.77,1.64,0,2.57-1.57,1.88-1.42,3.43.49,5,.87.71.64,1.4.33,2.2-1.14,3-.57,4.19,2.45,5.15.72.23,1,.51,1,1.27-.17,2.06.27,2.72,2.19,3.46a18,18,0,0,0,6.08,1c5.52.14,11,.35,16.35-1.78a4.17,4.17,0,0,1,4.89,1c1.55,1.58,3.09,3.17,4.67,4.72,3.13,3.06,5.94,6.42,8.91,9.62a12.32,12.32,0,0,0,1.24,6C176.34,261.29,177.32,262.06,176.73,263.16Z"/><path class="cls-3" d="M102.46,213.55c0-.34-.06-.68-.1-1s-.08-.67-.14-1a20.29,20.29,0,0,0-.73-3l-.52-.95c-.4-.74-.79-1.48-1.15-2.24-.22-.44-.43-.89-.62-1.34a31.22,31.22,0,0,1-1.27-3.33c-.41-1.3-.78-2.61-1.06-4a19.54,19.54,0,0,1-.45-4.52c0-.19,0-.38,0-.56H96.1l-.54.31a18,18,0,0,0-5.41,5.44,3.45,3.45,0,0,1-2.26,1.5,46.27,46.27,0,0,0-9.41,2.94C68.64,206.31,62,214,56.83,223.24c-5.37,9.66-8.62,20.09-10.95,30.84A48.26,48.26,0,0,1,62.56,256c.75.25,1.08.49,1.11,1.33.16,3.89.43,7.78.58,11.67.13,3.5.19,7,.3,10.5h37.29q0-18.47.12-36.93c.05-7.21.33-14.41.52-21.61,0-1.79.11-3.58.08-5.35C102.55,214.9,102.52,214.23,102.46,213.55Zm-2.39,56.8a2,2,0,0,1-1.9,1.21c-1.18-.16-2.3-.48-2.28-1.91,0-1.23.87-1.82,2.11-1.83a3.25,3.25,0,0,1,.85.1l.21.07a1.59,1.59,0,0,1,.71.5.62.62,0,0,1,.12.19,1.35,1.35,0,0,1,.21.49,2.79,2.79,0,0,1,.06.43,2.07,2.07,0,0,1,0,.57A1.21,1.21,0,0,1,100.07,270.35Zm-.46-24.58a2,2,0,0,1-.73.25,3.11,3.11,0,0,1-.69,0,1.63,1.63,0,0,1-2-1.84c0-1.26.83-1.82,2.08-1.87a1.82,1.82,0,0,1,2.14,1.81A1.71,1.71,0,0,1,99.61,245.77Zm1.07-22.2a1.18,1.18,0,0,1-.27.23,2,2,0,0,1-.32.18h0a2.44,2.44,0,0,1-.56.17h0l-.42,0a2.05,2.05,0,0,1-1.57-.45,1.88,1.88,0,0,1-.54-.91,2.71,2.71,0,0,1-.09-.41,1.73,1.73,0,0,1,0-.69.42.42,0,0,1,0-.16,1.41,1.41,0,0,1,.26-.42,3.09,3.09,0,0,1,2.14-.67,1.22,1.22,0,0,1,1.38.36c.05.08.1.16.14.24a1.56,1.56,0,0,1,.15.41,3.83,3.83,0,0,1,.1.59,2,2,0,0,1-.08.87A1.52,1.52,0,0,1,100.68,223.57Z"/><path class="cls-4" d="M114.18,239.85c-.25,10.12-.2,20.25-.1,30.37,0,3.08.07,6.17.12,9.25H101.84q0-18.47.12-36.93c.05-7.21.33-14.41.52-21.61,0-1.79.11-3.58.08-5.35,0-.68,0-1.35-.1-2,0-.34-.06-.68-.1-1a19.63,19.63,0,0,0-.86-4,31.58,31.58,0,0,0,6.15.08c2.78-.15,5.52-.71,8.31-.76-1.21,2.23-1.27,4.66-1.36,7.12C114.3,223.25,114.39,231.55,114.18,239.85Z"/><path class="cls-5" d="M64.55,279.47H39c.14-2.89.35-5.79.59-8.67.34-3.88.9-7.74,1.22-11.62.27-3.33.89-4.16,4.16-4.8a8.2,8.2,0,0,0,1-.3A48.26,48.26,0,0,1,62.56,256c.75.25,1.08.49,1.11,1.33.16,3.89.43,7.78.58,11.67C64.38,272.47,64.44,276,64.55,279.47Z"/><path class="cls-3" d="M206,238.64c-.73.17-1.26-.31-1.86-.56-2.22-1-4.36-2.13-6.88-2.14-.23-.34-.59-.3-.93-.3-7.54-3.34-15.53-5.53-23-8.93-7.19-3.24-13.59-7.48-18-14.27-.92-1.4-1.9-2.76-2.82-4.15a25.43,25.43,0,0,1-3.23-6.18,11.12,11.12,0,0,1-.64-4.34v-.09a57.48,57.48,0,0,1,6,2A89.91,89.91,0,0,1,169,207a163.6,163.6,0,0,1,30.27,24.43A61.68,61.68,0,0,1,206,238.64Z"/><path class="cls-6" d="M96.45,191.62a55,55,0,0,0,22.09-.27c1.14-.24,2.2-.83,3.41-.75a.79.79,0,0,1,.4.67,40.65,40.65,0,0,1-1.79,7.65,35.61,35.61,0,0,1-3.5,6.88c-.41.67-.72,1.36-1.1,2-2.79,0-5.52.61-8.31.76a30.82,30.82,0,0,1-6.15-.08,41.46,41.46,0,0,1-3.57-7.86A24.93,24.93,0,0,1,96.45,191.62Z"/><path class="cls-5" d="M206,238.64h0Z"/><path class="cls-5" d="M213.7,267.08c.05-.23.1-.46.13-.69a13.94,13.94,0,0,1-.82,4.54c-4.92,4-10.82,4.72-17.23,3.51a33.6,33.6,0,0,1-12-4.84,19.19,19.19,0,0,1-6-5.59,4.75,4.75,0,0,0-1-.85,1.38,1.38,0,0,0,.06-1.23,2.52,2.52,0,0,0-.25-.49c0-.08-.1-.16-.15-.24s-.21-.31-.3-.46a2.53,2.53,0,0,1-.12-.23,12.32,12.32,0,0,1-1.24-6c2,2.47,4.12,4.87,6,7.42l.46.6c.31.4.62.78,1,1.15s.66.73,1,1.08a13.45,13.45,0,0,0,1.74,1.42,26.13,26.13,0,0,0,15.83,4.64,54,54,0,0,0,10.57-1.28,3.45,3.45,0,0,0,1.27-.56,2.16,2.16,0,0,0,.31-.29A3.32,3.32,0,0,0,213.7,267.08Z"/><path class="cls-5" d="M213.84,246.74v10.17a12.92,12.92,0,0,0-2.2-3.92,2.35,2.35,0,0,1-.19-.25,7.51,7.51,0,0,1-.88-1.83c-.25-.73-.45-1.46-.76-2.15a28,28,0,0,0-2.06-3.84c-.38-.6-.78-1.18-1.21-1.73a20.73,20.73,0,0,0-4.5-4.32c-.58-.4-1.19-.78-1.82-1.13a20.51,20.51,0,0,0-2-1,2.48,2.48,0,0,1-.54-.27.92.92,0,0,1-.38-.4l-.06-.17c2.51,0,4.66,1.19,6.89,2.14.58.25,1.11.72,1.83.56-.07.5.23.66.67.68A49,49,0,0,1,213.84,246.74Z"/><path class="cls-3" d="M206.63,239.32c-.44,0-.74-.18-.67-.69A.82.82,0,0,1,206.63,239.32Z"/><path class="cls-5" d="M99.36,220.49c1.36-.33,1.68.7,1.78,1.6.13,1.37-.79,2-2,2.12a1.88,1.88,0,0,1-2.19-1.78C96.73,221.17,97.52,220.57,99.36,220.49Z"/><path class="cls-5" d="M98.19,246a1.63,1.63,0,0,1-2-1.84c0-1.26.83-1.82,2.08-1.87a1.82,1.82,0,0,1,2.14,1.81C100.46,245.42,99.6,246.14,98.19,246Z"/><path class="cls-5" d="M98.17,271.56c-1.18-.16-2.3-.48-2.28-1.91,0-1.23.87-1.82,2.11-1.83s2.09.53,2.17,1.78S99.35,271.42,98.17,271.56Z"/><path class="cls-5" d="M196.31,235.64c.34,0,.7,0,.93.3C196.89,236,196.51,236.08,196.31,235.64Z"/><rect class="cls-6" x="56.74" y="116.23" width="85.76" height="49.21"/><path class="cls-7" d="M132.47,172.53s-7.43,13.15-20.88,17.34-42.13-10.64-46.21-20.82l41.48,10.77Z"/><path class="cls-6" d="M134.79,160.44c-.07-.41-.15-.82-.23-1.23v0c-.73-4-1.58-7.9-2-11.9,0,0,0,0,0,0,0-1.75.07-3.49,0-5.23a54,54,0,0,0-1.88-14.44.22.22,0,0,0-.11-.12.12.12,0,0,0-.07,0,54.62,54.62,0,0,0-8.48-1.62,80.87,80.87,0,0,0-23.21,1.11c-6,1-12.13,2.2-17.74,4.89-.33.16-.66.32-1,.49a.24.24,0,0,0-.09.08.21.21,0,0,0,0,.19c0,.22.1.45.16.67,1.08,4.94,1.22,9.77-2.25,14-.81,1-1.79,1.88-2.51,2.92a5.27,5.27,0,0,0-.93,2.25s0,.06,0,.09a4.48,4.48,0,0,0,0,.64,1.94,1.94,0,0,1-.25.88,2.55,2.55,0,0,1-2,1.29c-1.19.1-1.74-.73-2.11-1.6s-.75-1.91-1.11-3-.7-2.27-.91-3.15c-.94-3.83-3.76-5.51-8.6-5.1a5.63,5.63,0,0,0-2.61.8c-1.81,1.11-2.32,3.21-2.21,5.45a21.1,21.1,0,0,0,2.21,8.84A15.33,15.33,0,0,0,63,163.88a5.55,5.55,0,0,1,1.89,1.56,4.12,4.12,0,0,1,.49,3.45V169a0,0,0,0,0,0,0v0s0,0,0,0a19,19,0,0,0,4.44,5.7,21.21,21.21,0,0,0,3.84,2.66c.44.24.88.46,1.34.67a29.84,29.84,0,0,0,3.91,1.49l.25.08h0a88.84,88.84,0,0,0,11.63,2.71,73.41,73.41,0,0,0,8.19.87,62,62,0,0,0,25.45-4l.13-.06a16.14,16.14,0,0,0,7.53-6,4.73,4.73,0,0,0,.35-.56h0c.29-.46.56-.93.8-1.41a16.68,16.68,0,0,0,1-2.4,15.85,15.85,0,0,0,.71-3.28A17.16,17.16,0,0,0,134.79,160.44ZM88.51,143.77c.62.09,1.23.16,1.84.19l.7,0a10.12,10.12,0,0,0,1.83-.16l.39-.08a4.61,4.61,0,0,0,.53-.15l.43-.15a3.25,3.25,0,0,0,.43-.18,2.1,2.1,0,0,0,.3-.15,2.82,2.82,0,0,0,.38-.21l.43-.28.09-.07c.17-.12.34-.26.51-.4s.23-.21.34-.32l.11-.1.37-.4c.1-.12.21-.25.31-.39a3.79,3.79,0,0,0,.3-.4c.14-.19.27-.39.4-.6s.25-.41.37-.63l0,0a.24.24,0,0,1,.45.05.19.19,0,0,0,0,.08,4.53,4.53,0,0,1,.06.5,1.33,1.33,0,0,1,0,.28,4.38,4.38,0,0,1-1.93,4.29,7.16,7.16,0,0,1-.66.39,7.61,7.61,0,0,1-.93.39l-.15.06a12.59,12.59,0,0,1-5.2.84l-.39,0L89.5,146l-.52-.13s0,0,0,0h0l-.34-.11a5,5,0,0,1-.68-.3,2.21,2.21,0,0,1-.34-.18c-.15-.09-.31-.18-.46-.29l-.51-.39a7.92,7.92,0,0,1-.93-.91.24.24,0,0,1,.18-.4l1.36.25c.33.06.66.12,1,.16Zm40.39,7.68,0,0-.22.09-.4.16-.57.21c-.26.09-.52.18-.78.25l-.51.14-.28.07-.55.13-.75.13c-.29,0-.57.09-.85.11s-.44,0-.66.05a24.57,24.57,0,0,1-7.57-.92c-.86-.21-1.64-.65-1.57-1.68a1.68,1.68,0,0,1,1.74-1.53,26.68,26.68,0,0,1,3-.09l1,0,.23,0c.22,0,.43,0,.65.06.43.05.87.11,1.3.18l.47.08c.51.09,1,.2,1.52.33l.67.18.28.08.71.22c.24.07.47.15.71.24l.39.14.64.24c.47.19.95.39,1.44.61A.25.25,0,0,1,128.9,151.45ZM110.44,164a.24.24,0,0,0-.17.27,3.46,3.46,0,0,1,0,1.15.49.49,0,0,1,0,.12,4.26,4.26,0,0,1-.13.62,2.83,2.83,0,0,1-.14.41,4.4,4.4,0,0,1-.21.5c-.07.15-.14.3-.22.45s-.22.38-.34.57a.56.56,0,0,1-.05.08l-.34.56a.24.24,0,0,0,.17.31c2.83.63,6.39-.92,9.13,3.1a.24.24,0,0,1-.28.35,17.53,17.53,0,0,0-3-.74,18.38,18.38,0,0,0-9.72,1.3.23.23,0,0,1-.3-.32h0a3.87,3.87,0,0,1,1-1.36c.25-.25.5-.47.72-.69a1.71,1.71,0,0,0,.55-1.5.27.27,0,0,0-.06-.12q-.19-.25-.36-.51a1.91,1.91,0,0,1-.16-.27.81.81,0,0,1-.1-.18h0a1.71,1.71,0,0,1-.12-.23,4.79,4.79,0,0,1-.44-1.25,2,2,0,0,1-.06-.35,4.7,4.7,0,0,1,0-.84,4.22,4.22,0,0,1,.21-1.07,7,7,0,0,1,.74-1.59c1-1.58,1.84-.94,2.84-.57l.13,0h.07l.1,0c.27-.09.53-.19.77-.29a4.48,4.48,0,0,0,.44-.2l.34-.18q.32-.18.57-.36l.3-.24.23-.22c1.27-1.31,1.11-3.1-.33-5.5a40.09,40.09,0,0,1-3.15-7.33c0-.12-.09-.24-.13-.37a5.26,5.26,0,0,1-.18-.6,2.13,2.13,0,0,1,0-1.25.91.91,0,0,1,.09-.17l0,0,.14-.18a.77.77,0,0,1,.18-.18,1.37,1.37,0,0,1,.23-.17,1.75,1.75,0,0,1,.27-.16.24.24,0,0,1,.33.12c.38.86.76,1.71,1.13,2.56q1.11,2.53,2.23,5l1.17,2.57a8.21,8.21,0,0,1,1,4.86,4.37,4.37,0,0,1-.17.62c0,.06,0,.13-.08.19a4.38,4.38,0,0,1-1.66,1.9l-.24.16-.28.16a10.13,10.13,0,0,1-1.14.54l-.44.16-.09,0C111.11,163.82,110.79,163.92,110.44,164Zm16.73-21.67a8.8,8.8,0,0,1-2.3,2.3l-.33.19a5.08,5.08,0,0,1-1.31.53l-.33.09a5.07,5.07,0,0,1-1,.11h-.1q-.3,0-.6,0a5.21,5.21,0,0,1-.55-.08l-.52-.12-.33-.09a4.75,4.75,0,0,1-.49-.17l-.45-.18a2.41,2.41,0,0,1-.33-.15,11.43,11.43,0,0,1-1.22-.67.24.24,0,0,1,.12-.43c.6,0,1.2,0,1.8,0l.49,0,1.1-.08c.35,0,.71-.08,1.07-.13l1.07-.18.27,0,.53-.12.3-.08c.37-.09.74-.19,1.11-.31l1.13-.39.57-.22A.25.25,0,0,1,127.17,142.35Zm-.76-5.94a2.31,2.31,0,0,1-.4.75l-.18.19a2.69,2.69,0,0,1-1.36.61l-.32.06c-.44.06-.9.09-1.35.14l-.69-.16a16.54,16.54,0,0,1-2.26-.72,11.3,11.3,0,0,1-3.71-2.35c-.15-.14-.29-.29-.44-.45a10.59,10.59,0,0,1-1.2-1.58c-.53-.86-1-1.82-.18-2.74.94-1.12,2.09-.77,3-.06a19.92,19.92,0,0,0,6.76,3.43C125.48,133.9,127,134.51,126.41,136.41Zm-44,15.33c1.39-1.38,12.43-2.55,14.22-1.54.73.41,1.62.76,1.46,1.79a1.91,1.91,0,0,1-1.88,1.41c-2.23.25-4.47.29-6.7.41a1.09,1.09,0,0,1,0-.18c-2.1,0-4.21,0-6.31,0-.56,0-1.19-.14-1.25-.83A1.54,1.54,0,0,1,82.43,151.74ZM95,130.61a2,2,0,0,1,2.85,0l.15.16a2,2,0,0,1-.22,2.7c-2.16,2.71-4.64,4.92-8.17,5-1.63-.05-3.27.12-3.72-1.63s1-2.39,2.41-2.75a17.79,17.79,0,0,0,6.26-3.12Zm-32.53,26.1c1.38-3.67-1.67-6-2.29-8.93-.12-.14-.23-.28-.34-.43l.45.32c3.86,1.3,5.59,4.44,6.59,8,.37,1.34,0,3.14-1.53,3.43S62.21,157.52,62.51,156.71Z"/><path class="cls-8" d="M122.8,138.16c1.47-.16,3.08-.12,3.61-1.75.62-1.9-.93-2.51-2.3-2.88a19.92,19.92,0,0,1-6.76-3.43c-.94-.72-2.09-1.06-3,.06-.78.92-.35,1.88.18,2.74C116.44,136,119.42,137.45,122.8,138.16Z"/><path class="cls-8" d="M89.65,138.44c3.53,0,6-2.25,8.17-5A2,2,0,1,0,95,130.61a18.28,18.28,0,0,1-6.7,3.45c-1.44.36-2.89.9-2.41,2.75S88,138.39,89.65,138.44Z"/><path class="cls-6" d="M89.53,153.81c2.23-.12,4.47-.16,6.7-.41A1.91,1.91,0,0,0,98.11,152c.16-1-.73-1.38-1.46-1.79-1.79-1-12.83.16-14.22,1.54a1.54,1.54,0,0,0-.47,1c.06.69.69.82,1.25.83,2.1,0,4.21,0,6.31,0Z"/><path class="cls-6" d="M129.39,151.24a25.35,25.35,0,0,0-13.48-2.56,1.68,1.68,0,0,0-1.74,1.53c-.07,1,.71,1.47,1.57,1.68C120,152.94,124.29,153.61,129.39,151.24Z"/><path class="cls-9" d="M110.23,164.08c5.3-1.43,6.55-4.1,4.29-9-1.58-3.42-3.07-6.89-4.63-10.39-1.86.76-1.24,2.22-.89,3.23a40.09,40.09,0,0,0,3.15,7.33c2.12,3.52,1.47,5.74-2.4,7Z"/><path class="cls-6" d="M85.24,143.19c2.89,3.77,6.61,3.38,10.23,2.13,2.42-.84,4.42-2.5,3.43-6.64C95.58,145.43,90.47,144.18,85.24,143.19Z"/><path class="cls-9" d="M60.22,147.78c.62,3,3.67,5.26,2.29,8.93-.3.81,1.4,2.7,2.88,2.42s1.9-2.09,1.53-3.43c-1-3.59-2.73-6.73-6.59-8Z"/><path class="cls-6" d="M107.05,169.12l1.67-.14c.94-1.5,2-3,1.51-4.9l-.48-1.8c-1.09-.33-2-1.2-3.06.5A5,5,0,0,0,107.05,169.12Z"/><path class="cls-6" d="M116.59,143.62c4.41,3.1,8.21,2.54,11-1.88A23,23,0,0,1,116.59,143.62Z"/><path class="cls-10" d="M60.33,147.67l-.45-.32c.11.15.22.29.34.43Z"/><path class="cls-6" d="M79.92,132.36c19.86-29.46,50.72-4.92,50.72-4.92Z"/><path class="cls-11" d="M74.44,152.42s-1.92,9.39-1.54,12.4-4.43-5.25-4-14.12S74.44,152.42,74.44,152.42Z"/><circle class="cls-12" cx="119.35" cy="142.59" r="3.91"/><circle class="cls-12" cx="92.1" cy="143.57" r="3.91"/><ellipse class="cls-13" cx="120.22" cy="141.74" rx="0.91" ry="1.16" transform="translate(-60.91 183.42) rotate(-62.65)"/><ellipse class="cls-13" cx="92.92" cy="142.44" rx="0.91" ry="1.16" transform="translate(-76.29 159.54) rotate(-62.65)"/><rect class="cls-6" x="100.79" y="168.11" width="18.56" height="6.18" transform="translate(220.14 342.4) rotate(-180)"/><path class="cls-9" d="M105.79,170.75c.31,1.77-1.86,1.95-2.39,4.14,4.47-1.78,8.7-2.44,13.88-.52-2.89-4.92-6.81-2.88-9.82-3.76Z"/><path class="cls-8" d="M136.7,165.44c-.09-2.41-.6-4.92-2.13-6.25h0l0,0v5.21s-.58.41-1.37,1.07l-.68.58a11.82,11.82,0,0,0-3.38,4.32c-.15.44-2.93-.27-2.93.11a35.65,35.65,0,0,0-7.76-5,19.23,19.23,0,0,0-7-1.73c-.41,0-.84,0-1.28,0a16.61,16.61,0,0,0-4.18.67,18.83,18.83,0,0,0-2.78,1.07,26.43,26.43,0,0,0-7.91,6.1h0a3.15,3.15,0,0,1-1.28.89h0c-.32.23-.69.5-1.09.81h0c-.4.31-.84.65-1.29,1s-.92.76-1.4,1.19a31.64,31.64,0,0,0-2.51,2.43c.07.11.13.22.2.32s.19.31.29.46c.24.38.5.76.76,1.13.59.87,1.23,1.71,1.9,2.53a42.9,42.9,0,0,0,4,4.29,43.83,43.83,0,0,0,3.44,2.93,38.1,38.1,0,0,0,4.26,2.85c.37.21.75.42,1.12.61a12.44,12.44,0,0,0,3.89,1.23,16.72,16.72,0,0,0,2,.2h.09a25,25,0,0,0,5.71-.49,26.47,26.47,0,0,0,3.56-.94s1.26-.88,3.12-2.41c4.42-3.64,12.17-11,14.23-19.09,0,0,.17-.86.32-2.14A28.37,28.37,0,0,0,136.7,165.44Zm-35.91,5.35a19.52,19.52,0,0,1,5.85-2.23h0a21,21,0,0,1,2.56-.37c.55-.05,1.11-.08,1.68-.08a15.93,15.93,0,0,1,8.46,2.28,15,15,0,0,1,3.8,3.32,17.85,17.85,0,0,1-1,1.76c-1.4,2.21-4.19,5.77-7.77,6.06a11.47,11.47,0,0,1,.93-4.12,1.45,1.45,0,0,1,.74-.66c1.47-.43-7.53-3.69-10.86,0a15.06,15.06,0,0,1,1.84,3c.29.73.39,1.39,0,1.76-.63.65-3.83-1.06-6.23-3.28-1.59-1.46-2.83-3.16-2.75-4.54C98.13,172.85,99.15,171.77,100.79,170.79Z"/><path class="cls-8" d="M65.34,169s9,21.45,41.88,25.26S65.34,169,65.34,169Z"/><path class="cls-8" d="M73.89,155.34S71.76,170,90,173.94s-13.2,5.88-13.2,5.88L65.34,169S72.4,162.8,72,157.1Z"/><path class="cls-8" d="M96.87,170s-4.83,7.15-13.21,2.35,6.61,8.71,6.61,8.71Z"/><path class="cls-8" d="M76.22,165.76c-1.56,3.05,4.28,7.18-.8,8.24-5.32,1.12-11.58,1.58-16.41-2.5-1.66-1.4-1.84-4.59-4.58-4.92-9.15-1.08-9.27-9.88-13.66-15.09-6.2-7.34-3.45-16.52-7.16-24.15-2.3-4.73,2.9-8.61,2-13.54C32.54,97.2,43.17,87.6,53.45,77c4-4.19,9.55-6.57,13-11.85,2.31-3.52,9.32-1.53,14.11-4.29,8.14-4.68,17.74-2,26.41-3,10.5-1.17,17.73,4.2,26.29,6.47,4.33,1.15,7.41,6.68,11.28,10,11.85,10.1,21.11,21,19.74,38.43-.32,4.1.81,9.12,1,13.9A31.64,31.64,0,0,1,154.9,152c-4.26,4-5.55,9.71-9.93,13.61-3.49,3.11-7.33,4.89-10.86,3-3.35-1.78-.61-5.36.22-8.45,4.14-15.38-10-38.65-25.18-42.1C98.81,115.75,82.92,125.7,78.7,136,74.63,145.93,74.59,155.88,76.22,165.76Z"/><path class="cls-3" d="M142.22,207.4a2.74,2.74,0,0,1-1,2.63h0s-11.31-13.82-6.19-14.59h0a21.25,21.25,0,0,1,6.43.57.69.69,0,0,0,0,.13,16,16,0,0,0,.22,6.79A23.24,23.24,0,0,1,142.22,207.4Z"/><path class="cls-3" d="M155.38,207.83l-3,.46a25.43,25.43,0,0,1-3.23-6.18,11.12,11.12,0,0,1-.64-4.34c3.39,1,6,1.88,6,1.88Z"/><polygon class="cls-3" points="148.54 197.77 140.1 195.57 145.46 218.77 168.9 214.47 148.54 197.77"/><path class="cls-14" d="M151.33,218.35c0-.21-.07-.43-.11-.64-.14-.75-.29-1.5-.43-2.25l-.51-2.89c-.15-.86-.31-1.71-.46-2.57-.08-.42-.15-.85-.23-1.27l-.24-1.34c-.18-1-.37-1.95-.54-2.92s-.32-1.84-.48-2.76-.36-1.92-.54-2.88c-.08-.44-.15-.87-.22-1.31-.11-.66-.22-1.32-.34-2-.25-1.34-.52-2.68-.77-4-.12-.67-.4-.86-1.05-.65l-10.77,3.5-3.46,1.12-7.31,2.37a1.9,1.9,0,0,0-.52.24.6.6,0,0,0-.21.88c.13.24.24.49.35.73.43.88.85,1.77,1.27,2.65s1,2,1.48,3,.85,1.76,1.27,2.65,1,2,1.48,3.05c.39.82.79,1.65,1.19,2.47a1.3,1.3,0,0,0,.08.17l1.47,3.06c.43.88.85,1.76,1.27,2.64l1.28,2.64c.34.73.69,1.45,1,2.17s.65,1.34,1,2a2,2,0,0,0,1.91,1.22,15.83,15.83,0,0,0,3.19-.79l7.56-2.45a11.15,11.15,0,0,0,1.88-.82,1.81,1.81,0,0,0,1-1.86C151.77,220.47,151.5,219.42,151.33,218.35Zm-22.56-13.84c-.72-1.37-1.31-2.79-2-4.15-.24-.44-.41-.92-.62-1.38-.09-.18-.11-.29.17-.35a15.83,15.83,0,0,0,1.57-.49,16.25,16.25,0,0,0,1.66-.59c.17-.09.25,0,.29.16s.13.35.18.54c.43,1.48,1,2.91,1.51,4.36.38,1,.68,2.12,1.09,3.16.23.58.43,1.17.64,1.76.08.22,0,.32-.19.39q-.94.29-1.86.6a.33.33,0,0,1-.47-.17c-.17-.33-.37-.65-.52-1C129.74,206.39,129.25,205.44,128.77,204.51Zm20.14,16a2.58,2.58,0,0,1-1.29.9c-2.61.86-5.2,1.75-7.83,2.52-1.47.43-2.2.08-3.07-1.35-1.05-1.73-2-3.5-3-5.28-.74-1.37-1.46-2.74-2.18-4.13l-1.19-2.31c-.24-.47-.46-1-.7-1.43-.12-.23-.11-.36.19-.46,1-.33,1-.34,1.52.64.37.73.78,1.45,1.15,2.19a1.91,1.91,0,0,0,.34.44c.21.25.44.07.61-.08a2.85,2.85,0,0,1,.87-.59c.19-.08.21-.19.15-.36-.36-1-.62-2.1-1.07-3.09-.13-.29.05-.32.24-.38l4.73-1.54.22-.07,1.69-.54h0l1.75-.57.22-.07,4.63-1.51c.31-.1.41-.06.45.26.2,1.29.44,2.57.64,3.85.07.46.14.91.2,1.37.16,1.14.32,2.29.47,3.44.26,1.88.5,3.78.66,5.67,0,.14,0,.28,0,.42A2.86,2.86,0,0,1,148.91,220.55Z"/><path class="cls-15" d="M140.3,205.62c2.2-.72,4.41-1.42,6.6-2.15.31-.1.41-.06.45.26.2,1.29.44,2.57.64,3.85.24,1.6.46,3.2.67,4.81.28,2,.53,4.06.7,6.09a2.86,2.86,0,0,1-.45,2.07,2.58,2.58,0,0,1-1.29.9c-2.61.86-5.2,1.75-7.83,2.52-1.47.43-2.2.08-3.07-1.35-1.05-1.73-2-3.5-3-5.28-1.15-2.13-2.26-4.28-3.37-6.44-.24-.47-.46-1-.7-1.43-.12-.23-.11-.36.19-.46,1-.33,1-.34,1.52.64.37.73.78,1.45,1.15,2.19a1.91,1.91,0,0,0,.34.44c.21.25.44.07.61-.08a2.85,2.85,0,0,1,.87-.59c.19-.08.21-.19.15-.36-.36-1-.62-2.1-1.07-3.09-.13-.29.05-.32.24-.38l5-1.61,1.69-.54Z"/><path class="cls-16" d="M127.85,198.14a16.25,16.25,0,0,0,1.66-.59c.17-.09.25,0,.29.16s.13.35.18.54c.43,1.48,1,2.91,1.51,4.36.38,1,.68,2.12,1.09,3.16.23.58.43,1.17.64,1.76.08.22,0,.32-.19.39q-.94.29-1.86.6a.33.33,0,0,1-.47-.17c-.17-.33-.37-.65-.52-1-.44-1-.93-1.91-1.41-2.84-.72-1.37-1.31-2.79-2-4.15-.24-.44-.41-.92-.62-1.38-.09-.18-.11-.29.17-.35A15.83,15.83,0,0,0,127.85,198.14Z"/><path class="cls-6" d="M213.84,256.94a13.1,13.1,0,0,0-2.21-3.95l-.09-.12a.6.6,0,0,1-.09-.13c-.1-.15-.2-.29-.28-.44a7,7,0,0,1-.43-.92c-.06-.16-.12-.31-.17-.47-.25-.73-.45-1.46-.76-2.15a28,28,0,0,0-2.06-3.84c-.38-.6-.79-1.18-1.21-1.73a20.73,20.73,0,0,0-4.5-4.32c-.58-.4-1.19-.78-1.82-1.13l-1-.5c-.33-.17-.67-.32-1-.47a3.82,3.82,0,0,1-.54-.26.92.92,0,0,1-.38-.4.87.87,0,0,1-.07-.17c-.35,0-.72.14-.92-.3l-.54-.23-.27-.12c-.68-.29-1.36-.58-2-.85l-1.4-.56-.7-.27-1.4-.53-.82-.3-1.45-.53c-4.84-1.76-9.73-3.41-14.42-5.54q-1.07-.48-2.1-1l-1-.5-.14-.07c-.31-.16-.62-.32-.92-.49-1-.55-2-1.13-3-1.75l-.93-.6c-.94-.63-1.86-1.3-2.75-2l-.84-.69c-.88-.75-1.72-1.54-2.53-2.37l-.78-.84c-.23-.26-.47-.52-.69-.78s-.52-.61-.76-.93-.48-.62-.71-.94-.62-.87-.92-1.32c-.92-1.4-1.9-2.76-2.82-4.15l-2.82.44-1.4.22-4.83.75-2.1.33h0a2.88,2.88,0,0,1-.34.23,3.39,3.39,0,0,1-.38.2c-.16.07-.33.13-.51.19l-4.65,1.46c-.56.18-1.12.35-1.69.51s-1.21.35-1.83.51l-.3.08-.88.22a4,4,0,0,0-.49.15,4.64,4.64,0,0,0-1.12.6,2.92,2.92,0,0,0-.28.21,5.49,5.49,0,0,0-1.06,1.15l-.2.3A5.81,5.81,0,0,0,127,217c0,.13-.08.26-.11.38a2.86,2.86,0,0,0,.57,3c1.14,1,.77,1.64,0,2.57-1.57,1.88-1.42,3.43.49,5,.87.71.64,1.4.33,2.2-1.14,3-.57,4.19,2.45,5.15.72.23,1,.51,1,1.27-.17,2.06.27,2.72,2.19,3.46a18,18,0,0,0,6.08,1c5.52.14,11,.35,16.35-1.78a4.17,4.17,0,0,1,4.89,1c1.55,1.58,3.09,3.17,4.67,4.72,3.13,3.06,5.94,6.42,8.91,9.62,2,2.47,4.12,4.87,6,7.42l.46.6c.31.4.62.78,1,1.15s.66.73,1,1.08a13.45,13.45,0,0,0,1.74,1.42,26.13,26.13,0,0,0,15.83,4.64,54,54,0,0,0,10.57-1.28,3.45,3.45,0,0,0,1.27-.56,2.13,2.13,0,0,0,.31-.29,3.32,3.32,0,0,0,.78-1.63c.05-.23.1-.46.13-.69h0Z"/><path class="cls-17" d="M80.55,157.56s6.69-2.15,11.83,11.42"/><path class="cls-17" d="M130.64,150.71a17.18,17.18,0,0,0-7.39,14.75"/></g></g></svg>