<svg xmlns="http://www.w3.org/2000/svg" viewBox="0 0 213.84 280.31"><defs><style>.cls-1{fill:#9acad8;}.cls-2{fill:#2c73b6;}.cls-3{fill:#eaa389;}.cls-4{fill:#fdaf94;}.cls-5{fill:#ffe2c9;}.cls-6{fill:#b55239;}.cls-7{fill:#f4b0b0;}.cls-8{fill:#fcd1b1;}.cls-9{fill:#df807b;}.cls-10{fill:#2c222b;}.cls-11{fill:#fff;}.cls-12{fill:#b3ac8f;}.cls-13{fill:#d4cca8;}.cls-14{fill:#f5f0dd;}.cls-15{fill:#e3dbb6;}.cls-16{fill:#90b164;}.cls-17{fill:#3e4f6b;}.cls-18{fill:#165185;}.cls-19{fill:#36465e;}.cls-20{fill:#2e3a4c;}.cls-21{fill:#6b7f4b;}.cls-22{fill:none;stroke:#6b7f4b;stroke-miterlimit:10;}.cls-23{fill:#65c8d0;}</style></defs><g id="Layer_2" data-name="Layer 2"><g id="Layer_8" data-name="Layer 8"><path class="cls-1" d="M0,0H213.84a0,0,0,0,1,0,0V266.14a14.17,14.17,0,0,1-14.17,14.17H14.17A14.17,14.17,0,0,1,0,266.14V0A0,0,0,0,1,0,0Z"/><path class="cls-2" d="M71.87,182.13l1,.08C72.52,182.69,72.18,182.6,71.87,182.13Z"/><path class="cls-3" d="M99.76,87.32c1.06,1.42.45,2.86,0,4.29-2-.27-.79-2.33-2-3.34-3.32-2.72-6-3.36-9.92-1.52-1.43.67-2.73,1.7-4.47,1.68,2.36-3.88,8.8-5.52,12.34-3.1a2.56,2.56,0,0,0,2.52.54l0,.08C98,87.28,98.84,87.32,99.76,87.32Z"/><path class="cls-3" d="M94.42,98.1c-2.69-.77-2.88-3.55-4.3-5.33,2.78-.89,3.74-.19,3.87,2.73A21.35,21.35,0,0,0,94.42,98.1Z"/><path class="cls-4" d="M99.76,87.32c-.92,0-1.81,0-1.58-1.37l1.65.87C99.8,87,99.78,87.15,99.76,87.32Z"/><path class="cls-5" d="M76.52,162.9S84,176.05,97.4,180.24s42.13-10.64,46.21-20.82l-41.48,10.77Z"/><path class="cls-5" d="M143.63,159.26a.23.23,0,0,1,0,.16,19.47,19.47,0,0,1-8.27,8.36,28.77,28.77,0,0,1-5.25,2.16c-15.22,4.62-30.41,5.44-45.55-.39l-.13-.06a16.14,16.14,0,0,1-7.53-6,16.87,16.87,0,0,1-1.15-2,17.24,17.24,0,0,1-1.53-10.68c.78-4.38,1.76-8.74,2.26-13.16v0c-.17-6.63,0-13.23,1.86-19.67a.26.26,0,0,1,.17-.17c10.52-2.9,21.13-2.35,31.69-.51,6.4,1.11,12.85,2.34,18.72,5.38a.24.24,0,0,1,.12.27c-1.22,5.17-1.53,10.25,2.09,14.71,1.47,1.81,3.45,3.17,3.51,5.9a2.42,2.42,0,0,0,2.29,2.17c1.2.1,1.74-.73,2.11-1.6a46.33,46.33,0,0,0,2-6.17c.94-3.83,3.76-5.51,8.6-5.1,3.94.34,5,3.17,4.82,6.25-.32,6.34-2.63,11.93-8.44,15.18C143.7,155.54,143.17,157,143.63,159.26Zm-43.68.17c-2.83.63-6.38-.92-9.13,3.1a.24.24,0,0,0,.29.35c4.7-1.58,8.65-1,12.76.56a.24.24,0,0,0,.31-.32c-.7-1.7-2.46-2-2.24-3.56a.18.18,0,0,1,0-.12,5,5,0,0,0,.31-6.29c-1-1.66-1.92-.87-3-.52a.33.33,0,0,1-.17,0c-3.8-1.29-4.42-3.5-2.32-7A39.41,39.41,0,0,0,100,138.3c.34-1,.91-2.34-.66-3.12a.25.25,0,0,0-.33.12c-1.52,3.42-3,6.82-4.53,10.16-2.23,4.82-1,7.49,4.08,8.93a.24.24,0,0,1,.17.27c-.31,1.7.52,3.06,1.38,4.4A.25.25,0,0,1,100,159.43ZM148.67,138c-3.87,1.3-5.59,4.44-6.6,8-.37,1.34,0,3.14,1.54,3.43s3.17-1.61,2.87-2.42c-1.38-3.67,1.67-6,2.29-8.93l.35-.43Zm-62.51-9.51h.07c3.37-.71,6.33-2.16,8.26-5.25.54-.86,1-1.82.19-2.74-1-1.12-2.09-.77-3-.06a19.92,19.92,0,0,1-6.76,3.43c-1.36.37-2.92,1-2.3,2.88C83.1,128.4,84.69,128.37,86.16,128.53Zm33.18.28c1.63-.05,3.27.12,3.72-1.63s-1-2.39-2.41-2.75A18.28,18.28,0,0,1,114,121a2,2,0,1,0-2.78,2.87C113.33,126.56,115.81,128.77,119.34,128.81Zm.13,15.37V144c2.11,0,4.21,0,6.31,0,.56,0,1.2-.14,1.25-.83a1.54,1.54,0,0,0-.47-1c-1.39-1.38-12.43-2.55-14.22-1.54-.73.41-1.62.76-1.46,1.79a1.92,1.92,0,0,0,1.89,1.41C115,144,117.23,144.06,119.47,144.18Zm-39.36-2.8a.26.26,0,0,0,0,.46c4.88,2.1,9,1.44,13.14.42.87-.21,1.65-.65,1.57-1.68a1.68,1.68,0,0,0-1.74-1.53A25,25,0,0,0,80.11,141.38Zm43-7.69c-4.83.92-9.51,1.78-12.69-4a.24.24,0,0,0-.45.06c-.62,3.66,1.28,5.18,3.58,6,3.44,1.19,7,1.6,9.79-1.61A.24.24,0,0,0,123.09,133.69ZM91.56,134a22.6,22.6,0,0,1-9.4-1.59.24.24,0,0,0-.3.35c2.58,3.58,6,4.09,9.84,1.68A.24.24,0,0,0,91.56,134Z"/><path class="cls-6" d="M129.07,122.73c7.76,1,14.5,5,21.7,7.59,3.55,1.28,6.94,3,10.4,4.52-1.56,7.33-3.89,14.29-9.36,19.77a21.88,21.88,0,0,1-7.3,4.81l-.86-.07c-.49-2.3,0-3.79,2.37-5.1,5.81-3.25,8.12-8.84,8.44-15.18.15-3.08-.88-5.91-4.82-6.25-4.87-.42-7.69,1.28-8.61,5.16a42.63,42.63,0,0,1-1.81,5.61c-.39,1-.89,2.22-2.31,2.1a2.42,2.42,0,0,1-2.29-2.17c-.06-2.73-2-4.09-3.51-5.9C127.44,133.1,127.81,128,129.07,122.73Z"/><path class="cls-6" d="M74.12,118.6l4.23-.79c-1.9,6.49-2.06,13.14-1.89,19.82-5-3.52-5.41-8.48-4.13-13.86A51.83,51.83,0,0,1,74.12,118.6Z"/><path class="cls-6" d="M86.19,128.53c-1.47-.16-3.08-.12-3.61-1.75-.62-1.9.94-2.51,2.3-2.88a19.92,19.92,0,0,0,6.76-3.43c1-.71,2.09-1.06,3,.06.78.92.35,1.88-.19,2.74C92.56,126.37,89.58,127.82,86.19,128.53Z"/><path class="cls-6" d="M119.34,128.81c-3.53,0-6-2.25-8.17-5A2,2,0,1,1,114,121a18.28,18.28,0,0,0,6.7,3.45c1.45.36,2.89.9,2.41,2.75S121,128.76,119.34,128.81Z"/><path class="cls-7" d="M119.47,144.18c-2.24-.12-4.48-.16-6.7-.41a1.92,1.92,0,0,1-1.89-1.41c-.16-1,.73-1.38,1.46-1.79,1.79-1,12.83.16,14.22,1.54a1.54,1.54,0,0,1,.47,1c0,.69-.69.82-1.25.83-2.1,0-4.2,0-6.31,0Z"/><path class="cls-7" d="M79.61,141.61a25.3,25.3,0,0,1,13.47-2.56,1.68,1.68,0,0,1,1.74,1.53c.08,1-.7,1.47-1.57,1.68C89,143.31,84.71,144,79.61,141.61Z"/><path class="cls-8" d="M98.77,154.45c-5.31-1.43-6.56-4.1-4.3-9,1.59-3.42,3.07-6.89,4.63-10.39,1.86.76,1.25,2.22.89,3.23a39.41,39.41,0,0,1-3.15,7.33c-2.12,3.52-1.47,5.74,2.4,7C99.08,153.25,98.92,153.85,98.77,154.45Z"/><path class="cls-5" d="M123.75,133.56c-2.89,3.77-6.61,3.38-10.22,2.13-2.43-.84-4.42-2.5-3.44-6.64C113.41,135.8,118.53,134.55,123.75,133.56Z"/><path class="cls-8" d="M148.78,138.15c-.63,3-3.68,5.26-2.3,8.93.3.81-1.4,2.7-2.87,2.42s-1.91-2.09-1.54-3.43c1-3.59,2.73-6.73,6.6-8Z"/><path class="cls-5" d="M102,159.49l-1.67-.14c-1-1.5-2-3-1.52-4.9l.48-1.8c1.1-.33,2-1.2,3.06.5A5,5,0,0,1,102,159.49Z"/><path class="cls-5" d="M92.4,134c-4.41,3.1-8.21,2.54-11-1.88A23,23,0,0,0,92.4,134Z"/><path class="cls-9" d="M148.67,138l.45-.32-.35.43Z"/><path class="cls-5" d="M129.07,122.73c-19.86-29.45-50.72-4.92-50.72-4.92Z"/><path class="cls-6" d="M134.55,142.79s1.92,9.39,1.54,12.41,4.43-5.26,4-14.13S134.55,142.79,134.55,142.79Z"/><path class="cls-6" d="M161.17,134.83l-22.25-7.11s-5.34,1.28-10.46-5.88l-.09-.12a31,31,0,0,0-6-6,.3.3,0,0,0-.08-.07,60,60,0,0,0-5.33-3.67,0,0,0,0,1,0,0c-2.45-1.48-4.35-2.43-4.74-2.63l-.07,0s2-4.38,11.63-11.54A43.4,43.4,0,0,0,135.2,84.64a61.65,61.65,0,0,1,7.21,4.82,15.79,15.79,0,0,1-3.29,12.34c6.49-3.32,11.29-2.52,14.68-.46a17.8,17.8,0,0,1,6.66,8c-2.51-2.63-8.92-2.63-8.92-2.63C168.63,115.75,161.17,134.83,161.17,134.83Z"/><path class="cls-6" d="M160.21,93.77a14.93,14.93,0,0,1-11.55,9.42c-8,1.36-23,10.48-25.83,12.26l-.48.29a.3.3,0,0,0-.08-.07,21.57,21.57,0,0,0-5.33-3.67,0,0,0,0,1,0,0c-5.86-3-16.37-5.61-31,1.15h0S61.31,99.29,90.78,83.09c17.72-9.74,34.14-4.32,44.42,1.55a61.65,61.65,0,0,1,7.21,4.82,44.41,44.41,0,0,1,3.73,3.18S150.66,97.91,160.21,93.77Z"/><path class="cls-6" d="M80,108.23s-7.65.94-6.29,11.58,3.07,1.09,3.07,1.09,3.58-5.56,9.12-7.75S80,108.23,80,108.23Z"/><circle class="cls-10" cx="89.65" cy="132.96" r="3.91"/><circle class="cls-10" cx="116.89" cy="133.94" r="3.91"/><ellipse class="cls-11" cx="88.77" cy="132.11" rx="1.16" ry="0.91" transform="translate(-50.77 55.54) rotate(-27.35)"/><ellipse class="cls-11" cx="116.08" cy="132.81" rx="1.16" ry="0.91" transform="translate(-48.03 68.16) rotate(-27.35)"/><rect class="cls-5" x="89.65" y="158.48" width="18.56" height="6.18"/><path class="cls-8" d="M103.2,161.13c-.3,1.76,1.86,1.94,2.39,4.13-4.46-1.78-8.7-2.44-13.88-.52,2.89-4.92,6.82-2.88,9.82-3.76Z"/><path class="cls-6" d="M115,162.82h0a3.13,3.13,0,0,1-1.29-.89h0c-14.42-15.64-27.79-3.48-30.92-1.09,0-.38-2.78.33-2.93-.11-.94-2.82-5.43-6-5.43-6v-5.21c-3.56,3-1.68,12.38-1.68,12.38,2.93,11.51,17.35,21.5,17.35,21.5s9,3.26,15.25,0a39.93,39.93,0,0,0,8.82-6.39,42.36,42.36,0,0,0,7.14-8.73A44.66,44.66,0,0,0,115,162.82Zm-13.11,9.08c-1.05-1.08,1.88-4.78,1.88-4.78-3.34-3.69-12.34-.43-10.86,0s1.66,4.78,1.66,4.78c-5.22-.43-8.77-7.82-8.77-7.82,8.77-10.64,24.86-3.47,25.08,0S103,173,101.93,171.9Z"/><path class="cls-6" d="M143.65,159.35s-9,21.45-41.87,25.26S143.65,159.35,143.65,159.35Z"/><path class="cls-6" d="M135.1,145.71s2.14,14.66-16.15,18.6,13.2,5.88,13.2,5.88l11.5-10.84s-7.06-6.18-6.64-11.88"/><path class="cls-6" d="M112.12,160.39s4.83,7.15,13.21,2.35-6.6,8.71-6.6,8.71Z"/><path class="cls-12" d="M100,112.92s1,.74-.29,2.71a21.6,21.6,0,0,1-1.57,3.87s-1.28,4.85-.24,8.83c0,0-2.06-.64-2.94-4.8,0,0,2.8-2-.49-7.42,0,0-6-1.84-6.74-3.6L86.53,109s5.24-1.5,5.51-.44Z"/><polygon class="cls-13" points="95.73 117.75 92.67 107.72 86.11 107.59 88.1 119.95 95.73 117.75"/><path class="cls-14" d="M87.71,110.74c2.31-1.12,6.64-1.5,8.83.74s16.13,10.23,16.13,10.23,2.27-12.77,1.85-15.37a22.24,22.24,0,0,0-1.81-5.39S101.26,88.52,97.63,86s-16.41-7-16.41-7-14.66,25-14.71,31.18c0,0-1.4.07-.09,2.09,1,1.56,6.21,4,6.21,4a10.82,10.82,0,0,1,3.61,2.07c.24.2.48.42.72.64a18.75,18.75,0,0,1,3.6,4.73c2.41,4.45,8.86,8.85,8.86,8.85,2.55-2.12,5.45-6.24,7.27-8.45s-1-6.42-1-6.42-6-2-7.08-3.9-1.7-6.74-1.23-10.61-1.15-12.76-1.15-12.76L83.74,83"/><path class="cls-15" d="M87.6,110.49a19.74,19.74,0,0,1-2.81-4.8c-.5-1.83,1.47-10.72-1.21-19.88,0,0,.46-.78,1.15-.38C84.73,85.43,88.52,106.45,87.6,110.49Z"/><path class="cls-15" d="M76.5,87.42s-3,10.62-5.29,12.9a6.51,6.51,0,0,0-2.11,4.77s1.13,5.58.21,6.82-2.8-1.69-2.8-1.69S67.18,102.25,76.5,87.42Z"/><path class="cls-12" d="M66.75,112.71c1.08,1.1,6.64,3.9,6.64,3.9a15.36,15.36,0,0,0-6.88-6.39S64.31,110.24,66.75,112.71Z"/><path class="cls-15" d="M112.17,100.37s3.1,18.69-1.38,17.71c-3.4-.74-4.64-.21-4.64-.21l6.52,3.84,1.75-12S115.71,103.48,112.17,100.37Z"/><path class="cls-16" d="M182,247a35.37,35.37,0,0,1-15.48,6.33,46,46,0,0,1-16.62.18c-2-.38-3.06.42-3,2.65.13,3,1,6,.64,9.08-.49,4.43.77,8.17,4.39,11a6.71,6.71,0,0,0,.33,3.44H101c.3-16,1-31.92,2.47-47.85,1-11.13,2.52-22.19,3.86-33.28.82-.93.22-2.15.69-3.15a24.79,24.79,0,0,1,2.36-2.75c4-3.56,6.9-3.6,11-.31,1.44,1.16,2.94,2.25,4.45,3.4,1.51-3.2.94-6.38.39-9.55,20.56,4.48,38.13,13.39,48.21,33.09C178.81,228,180.94,237.38,182,247Z"/><path class="cls-16" d="M89.94,194.84c-.55,8.72-1.21,17.43-1.65,26.15-.56,10.87-.9,21.73-1.39,32.6q-.6,13.05-.85,26.09H43.53c.53-7.93,1.2-15.87,2.08-23.78,1.16-10.61,2.77-21.17,4.19-31.74.06-.13.11-.27.18-.4l-.45.14-.06,0a9.88,9.88,0,0,0,1.13-8.33c-2.1,2.37-4.3,4.19-4.48,7.28A131.42,131.42,0,0,1,6.12,201a14.43,14.43,0,0,0,4.42-.85c5.21-2.05,9.24-5.52,12.91-9.67a88.85,88.85,0,0,0,6.29-8.44c2.46-3.57,4.19-7.29,4.17-11.68.74.28,1.5.54,2.24.86a133.42,133.42,0,0,0,35.71,10.88c.32.47.66.56,1,.07l1.39.2c.61.34.6.51.21,1.26a13.87,13.87,0,0,0-.89,11.19c.59,1.38,1.27.65,2.12.21,3.58-1.87,7.32-1.7,11.15-.88C87.9,194.39,88.59,196.31,89.94,194.84Z"/><path class="cls-5" d="M174.94,279.68H155.28c5.18-1,10.41-.68,15.63-.53A18.06,18.06,0,0,1,174.94,279.68Z"/><path class="cls-17" d="M33.91,170.39c0,4.39-1.71,8.11-4.17,11.68a88.85,88.85,0,0,1-6.29,8.44c-3.67,4.15-7.7,7.62-12.91,9.67a14.43,14.43,0,0,1-4.42.85A29.75,29.75,0,0,1,0,198.42V181.08a51.4,51.4,0,0,0,14.47-17.94.19.19,0,0,0,.07-.31,1.69,1.69,0,0,0,1-1.58.41.41,0,0,0,.1-.42l1.8-1.1a21,21,0,0,1,7.54,3C28.42,164.76,31.08,167.66,33.91,170.39Z"/><path class="cls-17" d="M151.9,276.24c-3.61-2.79-4.88-6.53-4.38-11,.35-3.07-.52-6-.64-9.07-.08-2.24,1-3,3-2.66a45.72,45.72,0,0,0,16.62-.18A35.37,35.37,0,0,0,182,247c2.58-.18,3.32,1.15,3.07,3.52-.39,3.69.55,7.23,1.4,10.77,1,4.39.42,8.23-3.56,11-8.9,3.84-18.29,4.6-27.83,4.37A3.36,3.36,0,0,0,151.9,276.24Z"/><path class="cls-17" d="M114.4,180.75l7.48-5c2.41,3.09,3.14,6.87,4.27,10.48.55,3.17,1.12,6.35-.39,9.55-1.51-1.15-3-2.24-4.45-3.4-4.06-3.29-6.94-3.25-11,.32A24.9,24.9,0,0,0,108,195.4c-.07-.2-.14-.39-.22-.59.3-1.41.61-2.81.91-4.22C111.14,187.64,113.52,184.63,114.4,180.75Z"/><path class="cls-5" d="M14.47,163.14A51.4,51.4,0,0,1,0,181.08V175c3.94-2.48,7.17-5.92,10.87-8.73a4.57,4.57,0,0,0,1.57-2.55C12.81,162.17,13.64,162.74,14.47,163.14Z"/><path class="cls-5" d="M183.31,279.68h-8.37a18.06,18.06,0,0,0-4-.53c-5.22-.15-10.45-.44-15.63.53l-.23.05v-.05c0-.4,0-.8,0-1.2.05-.06.14-.14.13-.18a2.09,2.09,0,0,0-.19-.36c0-.42,0-.84,0-1.26,9.54.23,18.92-.53,27.83-4.38,0,2.24.09,4.49.14,6.73Z"/><path class="cls-16" d="M46.13,222.82c.17-3.09,2.37-4.9,4.48-7.29a9.94,9.94,0,0,1-1.14,8.34Z"/><path class="cls-18" d="M49.52,223.9l.45-.14-.17.4A.27.27,0,0,1,49.52,223.9Z"/><path class="cls-4" d="M183.31,279.68,183,279Z"/><path class="cls-19" d="M107.29,198.55c-1.34,11.09-2.88,22.15-3.86,33.28-1.43,15.93-2.17,31.88-2.47,47.85H89.43c-.09-17.31-.06-34.62.56-51.94.32-9,.54-18,1.29-27,.15-1.67.65-2.34,2.37-2.26,4.06.18,8.13.2,12-1.19C107.08,196.76,107.21,197.56,107.29,198.55Z"/><path class="cls-20" d="M108,195.4c-.47,1,.13,2.22-.69,3.15-.08-1-.21-1.79-1.61-1.29-3.9,1.39-8,1.37-12,1.19-1.72-.08-2.22.59-2.37,2.26-.75,9-1,18-1.29,27-.62,17.32-.65,34.63-.56,51.94H86.05q.27-13,.85-26.09c.49-10.87.83-21.73,1.39-32.6.44-8.72,1.1-17.43,1.65-26.15.06-.42.1-.83.15-1.25.29-.8.6-1.61.89-2.41.59,0,1.18,0,1.54.57-1.09,2-1.18,3.95,1.58,4.2a34.7,34.7,0,0,0,13.66-1.14Z"/><path class="cls-17" d="M74.3,182.4c2.65-2.35,3.65-6.13,6.89-8,2.61,1.06,4.48,3.1,6.49,4.94.23,4.19,2.74,7.73,3.3,11.82-.3.8-.59,1.61-.89,2.41-2.17-1.65-4.36-3.27-6.48-5-1.62-1.3-3-1.08-4.61.12a26.36,26.36,0,0,0-5.38,6.12,13.87,13.87,0,0,1,.9-11.19C74.9,182.91,74.92,182.74,74.3,182.4Z"/><path class="cls-16" d="M73.62,194.85A26.36,26.36,0,0,1,79,188.73c1.59-1.2,3-1.42,4.61-.12,2.12,1.71,4.31,3.33,6.48,5L90,194.84c-1.36,1.46-2-.45-3.06-.66-3.84-.82-7.58-1-11.15.88C74.9,195.5,74.21,196.23,73.62,194.85Z"/><path class="cls-5" d="M91,191.18c-.56-4.09-3.07-7.63-3.3-11.82,2.76,1.28,5.61,2.38,8.24,3.87,4.43,2.53,8.58,1.12,12.8-.43l5.69-2.05c-.89,3.88-3.27,6.89-5.74,9.84a29.16,29.16,0,0,1-16.15,1.17C92.17,191.14,91.57,191.17,91,191.18Z"/><path class="cls-19" d="M92.52,191.76a29.16,29.16,0,0,0,16.15-1.17c-.3,1.41-.61,2.81-.91,4.22A34.69,34.69,0,0,1,94.1,196C91.33,195.7,91.43,193.77,92.52,191.76Z"/><path class="cls-4" d="M155.07,278.48a.72.72,0,0,1,0-.54,2.53,2.53,0,0,1,.18.37S155.11,278.42,155.07,278.48Z"/><path class="cls-5" d="M100,92.84c-.23,2-.45,3.94-.69,5.92s-1.61,2.71-3.18,1.43a12.85,12.85,0,0,1-1.67-2.1A23.27,23.27,0,0,1,94,95.5c-.13-2.93-1.08-3.62-3.87-2.73A6.46,6.46,0,0,0,85.9,96c-2.24,3.67-2.73,7.9-3.88,11.92A21.39,21.39,0,0,0,79.88,113c-.62,1.39-1.26,2.78-1.89,4.18a15.68,15.68,0,0,1-10.73,6.6,7.73,7.73,0,0,0-2.2,1,264.25,264.25,0,0,0-41.73,27.56c-2.48,2-5.2,3.9-6.57,7a1.13,1.13,0,0,0-1.08,1.47.41.41,0,0,1-.1.42c-1,.09-1.25.69-1,1.58a.19.19,0,0,1-.07.31c-.83-.4-1.66-1-2,.56a4.57,4.57,0,0,1-1.57,2.55C7.17,169.06,3.94,172.5,0,175V135.65c16.09-7.52,33.11-12.65,49.58-19.24C59,112.63,65,106.27,68.73,97.32c3.63-8.63,11.33-12.87,18.48-17.77,2.42-1.66,3.84,1.28,5.91,1.11,1,2.46,3.9,3,5.11,5.22a2.59,2.59,0,0,1-2.52-.55c-3.54-2.42-10-.78-12.34,3.1,1.74,0,3-1,4.47-1.68,3.88-1.84,6.6-1.2,9.92,1.52,1.23,1,.07,3.07,2,3.34C99.84,92,99.9,92.43,100,92.84Z"/><path class="cls-5" d="M155.28,279.68l-.23.05v-.05Z"/><path class="cls-21" d="M42.33,221.49s-1.33-6.61,3.8-9.29,7.8,5.44,10,4.64,8,5.12,4.35,8.2-10.66-.88-10.66-.88Z"/><path class="cls-22" d="M141.46,232s6.08,12,7.43,21.5"/><path class="cls-21" d="M142.87,237.32s-15.58,6.36-12.06-2.68,7,1,9.34-5.53,8.75-2.17,9.59,0S153.42,237.49,142.87,237.32Z"/><path class="cls-23" d="M80.9,127.67l-.22-.2c-.05-.06-.07,0-.52-1a6.9,6.9,0,0,1-.55-2.43s-.91,2.12-1.36,3.36a3.19,3.19,0,0,0-.22.68.83.83,0,0,0,0,.13,3.63,3.63,0,0,0-.06.67c0,1.42.74,2.56,1.66,2.56s1.66-1.14,1.66-2.56v-.05A2.09,2.09,0,0,0,80.9,127.67Z"/><path class="cls-23" d="M85.46,149.25l-.21-.19c0-.06-.07,0-.52-1a7.13,7.13,0,0,1-.56-2.44s-.9,2.12-1.35,3.36a3.61,3.61,0,0,0-.22.68c0,.06,0,.1,0,.14a3.55,3.55,0,0,0-.06.67c0,1.41.75,2.56,1.66,2.56s1.67-1.15,1.67-2.56v-.06A2.07,2.07,0,0,0,85.46,149.25Z"/><path class="cls-23" d="M103.29,119.76l-.22-.2c0-.06-.07,0-.51-1a6.69,6.69,0,0,1-.56-2.43s-.9,2.12-1.35,3.36a2.77,2.77,0,0,0-.22.67.44.44,0,0,0,0,.14,3.63,3.63,0,0,0-.06.67c0,1.41.74,2.56,1.66,2.56s1.66-1.15,1.66-2.56v0A2.09,2.09,0,0,0,103.29,119.76Z"/><path class="cls-23" d="M125,152.27l-.22-.2c0-.06-.07,0-.52-1a6.9,6.9,0,0,1-.55-2.43s-.91,2.11-1.36,3.35a3.61,3.61,0,0,0-.22.68.93.93,0,0,0,0,.14,3.63,3.63,0,0,0-.06.67c0,1.41.74,2.56,1.66,2.56s1.66-1.15,1.66-2.56v-.05A2.09,2.09,0,0,0,125,152.27Z"/><path class="cls-23" d="M107.44,140.14l-.22-.2c0-.06-.07,0-.51-1a6.69,6.69,0,0,1-.56-2.43s-.9,2.12-1.35,3.35a3,3,0,0,0-.22.68.44.44,0,0,0,0,.14,3.63,3.63,0,0,0-.06.67c0,1.41.75,2.56,1.66,2.56s1.66-1.15,1.66-2.56v-.05A1.94,1.94,0,0,0,107.44,140.14Z"/><path class="cls-23" d="M122.62,119.76l-.22-.2c-.05-.06-.07,0-.51-1a6.69,6.69,0,0,1-.56-2.43s-.9,2.12-1.35,3.36a2.4,2.4,0,0,0-.22.67.44.44,0,0,0,0,.14,3.63,3.63,0,0,0-.06.67c0,1.41.74,2.56,1.66,2.56S123,122.36,123,121v0A2.09,2.09,0,0,0,122.62,119.76Z"/></g></g></svg>