<svg xmlns="http://www.w3.org/2000/svg" viewBox="0 0 213.84 280.31"><defs><style>.cls-1{fill:#9acad8;}.cls-2{fill:#e8b894;}.cls-3{fill:#6a4e42;}.cls-4{fill:#dd9e73;}.cls-5{fill:#d89261;}.cls-6{fill:#2c222b;}.cls-7{fill:#fff;}.cls-8{fill:#db6c6a;}.cls-9{fill:#dda687;}.cls-10{fill:#f0c69c;}.cls-11{fill:#fefefe;}.cls-12{fill:#f8f7fa;}.cls-13{fill:#f6d3ab;}.cls-14{fill:#f0eff4;}.cls-15{fill:#5d2d23;}.cls-16{fill:#6a3329;}.cls-17{fill:#e2af8d;}.cls-18{fill:#df807b;}</style></defs><g id="Layer_2" data-name="Layer 2"><g id="Layer_9" data-name="Layer 9"><path class="cls-1" d="M0,0H213.84a0,0,0,0,1,0,0V266.14a14.17,14.17,0,0,1-14.17,14.17H14.17A14.17,14.17,0,0,1,0,266.14V0A0,0,0,0,1,0,0Z"/><path class="cls-2" d="M129.22,127.85c-26.18-36.38-55.75-5.42-55.75-5.42Z"/><polygon class="cls-2" points="93.71 120.16 69.7 115.63 98.54 96.69 127.55 110.15 111.2 123.07 93.71 120.16"/><rect class="cls-3" x="70.23" y="174.84" width="65.57" height="22.79"/><path class="cls-2" d="M145.15,167.46a5.52,5.52,0,0,0,.11.65,21.75,21.75,0,0,1-1.16,2c-3.1,4.75-7.65,7.64-13.06,9.4l-.7.22c-16.73,5.09-33.43,6-50.06-.43l-.15,0a18.49,18.49,0,0,1-11.26-20.42c.48-2.65,1-5.29,1.49-7.93.42-2.22.78-4.45,1-6.69-.19-7.34,0-14.67,2.07-21.8,11.62-3.23,23.34-2.63,35-.6,6.83,1.19,13.69,2.49,20,5.64l.75.38c-.07.32-.15.64-.21,1a31.35,31.35,0,0,0-.62,3.74s0,.05,0,.07A15.29,15.29,0,0,0,130.6,143c.25.4.55.8.86,1.2,1.62,2,3.81,3.49,3.88,6.5a2.66,2.66,0,0,0,2.52,2.39,1.87,1.87,0,0,0,1.52-.52,4.71,4.71,0,0,0,1-1.79c.49-1.24.94-2.51,1.33-3.8A98.94,98.94,0,0,0,145.15,167.46Z"/><path class="cls-3" d="M155.73,209.41c3.29-4.65,3.27-9.91,1.08-15.14a5.23,5.23,0,0,1-.68-2.45,17.71,17.71,0,0,0-3.72-11.7c-.43-.59-1.08-1-.78-2.06,1.88-6.6.45-12.83-2.48-18.79a15.37,15.37,0,0,1-1.55-8.71c.28-2.52,1.14-5.15.39-7.54-2.05-6.44-1.92-13.26-3.43-19.67a47.11,47.11,0,0,0-16.6-26c-2.6-2.11-5.56-3.35-8.92-1.85-1,.43-1.14,0-1.51-.7a11.4,11.4,0,0,0-7.15-5.71,21.23,21.23,0,0,0-12-.29c-22.44,5.75-38.95,19.36-50.49,39.4-2,3.41-1.65,7.2-.49,10.86,0-6.05,2-11,6.85-14.78a48,48,0,0,0-.94,10.39c0,6.27-2,11.58-6.77,15.75a21.31,21.31,0,0,0-6,8.94,103.22,103.22,0,0,0-3.45,11,21.47,21.47,0,0,0,.4,12.66,19.5,19.5,0,0,0,1.35,3,2,2,0,0,0,.11.2l.65,1.15a52.52,52.52,0,0,1,3.77,7.54c.11.28.22.59.32.88a2,2,0,0,0,.3-1.13,6.64,6.64,0,0,0-.1-.81A29.62,29.62,0,0,0,42,187.61l-.2-.53-.37-1a24.18,24.18,0,0,1-.77-2.84c-1.52-7.15,1-12.54,8-17.49C48,172.86,47.51,179.93,46.8,187c-.08.81-.17,1.63-.25,2.44a34.16,34.16,0,0,1-1,5.17c-.14.46-.28.93-.44,1.39h0a25.1,25.1,0,0,1-3,6.28c-1.16,1.72-2.92,2.84-4.48,4.67a11.14,11.14,0,0,0,3.52-1.27,26.13,26.13,0,0,0,4.19-3.11,19.79,19.79,0,0,0-.06,5.15,35.54,35.54,0,0,0,1.28,6,6.15,6.15,0,0,1,0,3.53c-1.86,6.09-3.89,12.06-9.94,15.43a7.92,7.92,0,0,0-1.57,1.13,4.85,4.85,0,0,0-1.46,3.09c.68-.22,1.35-.46,2-.71a.78.78,0,0,0,.21-.09,20.39,20.39,0,0,0,1.92-.8c7-3.08,12.22-7.9,14.67-15.95.63,8.45,2.49,16.78,1.44,25.81.17-.26.33-.52.5-.77.82-1.28,1.64-2.49,2.44-3.73a40.59,40.59,0,0,0,3.43-6.35c.17,1.85.28,3,.42,4.59.37-.21.73-.42,1.08-.64,4.94-3.12,8-7.61,10.75-12.42.49-.84,1-1.7,1.46-2.55.13-.26.27-.5.41-.75,0,.25,0,.49.06.75.06.87.09,1.75.08,2.62,0,4-.68,7.81-.29,11.67.52,5.07,1.54,9.89,5.53,14.35-.31-5-1.14-9.36-.71-13.77.53-5.48,1.93-10.3,3.77-12a.27.27,0,0,1,.08-.07.15.15,0,0,1,0,.09c-.61,8.48.28,11.58,4,13.26-1.76-4.19-1.22-8.27.1-12.33l.13-.38q.3-.94.63-1.89c.31-.89.63-1.77,1-2.64a33.79,33.79,0,0,0,1.77-6.49c.07-.37.12-.74.17-1.11a4.53,4.53,0,0,0,.06-.5,28,28,0,0,0,0-6.9c0-.15,0-.29,0-.44a32.12,32.12,0,0,0-2.64-9.09,37.75,37.75,0,0,0-1.79-3.45l-1.2-2.11c-.69-1.22-1.37-2.45-2-3.7-.4-.76-.78-1.52-1.16-2.28A17.34,17.34,0,0,1,80,179.8a17.62,17.62,0,0,1-4.76-3.44l0,0c-.45-.48-.88-1-1.29-1.48A18.76,18.76,0,0,1,70.14,160c.48-2.64,1-5.28,1.49-7.92.41-2.18.76-4.37,1-6.56,0-.05,0-.09,0-.13-.17-6.55,0-13.08,1.46-19.48.19-.78.39-1.55.61-2.32,1-.28,2-.53,3-.75h0a62.07,62.07,0,0,1,8.39-1.27c.06-.42.14-.84.22-1.27h0c.09-.49.19-1,.32-1.48.25-1.13.57-2.26.94-3.39a22.18,22.18,0,0,1,1.23-3,17.31,17.31,0,0,1,7.58-7.91c1.66-.87,3.44-1.54,5.21-.14l.1-.08a.75.75,0,0,1,0,.11,4,4,0,0,0-.66-.18c-4-.2-8.78,3.29-11.19,7.82a14,14,0,0,0-1.26,3.31,21.36,21.36,0,0,1,7.33-1.56,28.72,28.72,0,0,0,9.5-2.28,4,4,0,0,0,1.08-.7c.82-.66,1.61-1.4,3.08-1,1,.29,2.44-1.11,3.68-1.75.19,0,.5-.14.55-.08.2.32,0,.54-.28.68-.93,1.16-1.85,2.3-2.76,3.45l-.39.49a31.58,31.58,0,0,1,7.18,5.43,29.07,29.07,0,0,1,5.15,7.06c.17.3.32.6.47.91s.41.87.6,1.31a38.94,38.94,0,0,1,2.72,9.85c.41,2.78.85,5.52,1.5,8.2v0c.22.92.46,1.84.75,2.75h0a31.51,31.51,0,0,0,4.39,9.21,7,7,0,0,1,.59,1,13.25,13.25,0,0,1,1,8.49c-.17-.71-.36-1.4-.57-2.08a33.74,33.74,0,0,0-5-9.92c-.28,2.84-.42,5.18-.77,7.5s-.71,4.74-1.23,7.06a33.62,33.62,0,0,1-1.67,5.45,21.44,21.44,0,0,1-3.38,5.8c-.41.5-.78,1-1.12,1.49h0c-.34.52-.64,1.05-.92,1.57-.12.26-.25.51-.37.78a13.9,13.9,0,0,0-.82,8.7c.06.3.12.59.17.89a18.9,18.9,0,0,1,.25,3.55,16.23,16.23,0,0,1-2.13,7.63,22.44,22.44,0,0,1-2.25,3.3,17.75,17.75,0,0,0-2.76,4.66c-2.81,6.84-1.63,15.37,3.24,21.81a15.21,15.21,0,0,1,2.06-12.37,16.12,16.12,0,0,0,2.7,10.86l.23.36c.24.38.5.76.76,1.13a7.92,7.92,0,0,1,1,1.75,7.82,7.82,0,0,1,.57,2.71,9.46,9.46,0,0,1-.28,2.76,12.78,12.78,0,0,1-1.59,3.64c-.45.73-.94,1.45-1.4,2.18a3,3,0,0,1,.29.33c1-.42,2-.85,3-1.25l.65-.27c.36-.14,1.06-.63,1.15,0,.24,1.56.86,1.14,1.36.71a2.32,2.32,0,0,1,.45-.38,26.52,26.52,0,0,0,6.26-4.95,24,24,0,0,0,1.82-2.19,27.22,27.22,0,0,0,3.62-6.71c.24-.62.45-1.26.65-1.91s.4-1.52.61-2.29a11.53,11.53,0,0,1-2.14,9q-.18.27-.39.54a3.26,3.26,0,0,0,.34-.22,13.73,13.73,0,0,0,3.08-2.73,30,30,0,0,0,4.19-7.31c1.78-4,2.32-8.31,2.7-13.34,2.08,4,4.58,6.33,9.09,7.07C151.88,217.61,152.68,213.71,155.73,209.41Zm-2.88-21c-2.22-2-4.32-4.13-4.59-7.36C150.12,183.37,152,185.58,152.85,188.44Zm-4.09-24.86a24.63,24.63,0,0,1,2.11,14C146.89,174.27,147.19,169.83,148.76,163.58Zm-34.51-56.12c0,.05-.08.11-.14.15l-.16-.28.16-.16A1,1,0,0,1,114.25,107.46Zm20,63.94c-.17,1.17-.38,2.31-.64,3.44a36.91,36.91,0,0,1-1.19,4.21c-.2.62-.42,1.22-.66,1.82q-.51,1.26-1.11,2.46c-.26.55-.56,1.08-.86,1.62.09-.53.18-1,.29-1.56.15-.73.31-1.46.5-2.17s.31-1.14.49-1.7c.49-1.59,1.07-3.15,1.7-4.68C133.23,173.69,133.72,172.54,134.24,171.4Z"/><path class="cls-4" d="M96.76,163.86c-5.82-1.57-7.2-4.51-4.72-9.88,1.75-3.76,3.38-7.58,5.09-11.43,2.05.84,1.37,2.44,1,3.55a43.45,43.45,0,0,1-3.47,8.07c-2.32,3.86-1.61,6.3,2.65,7.71C97.11,162.54,96.94,163.2,96.76,163.86Z"/><path class="cls-5" d="M92.21,176.68c.23-2-2.16-2-2.87-4.41,5,1.7,9.69,2.18,15.27-.24-2.54,4.9-6.26,3.94-9.33,4.41-1,.15-.14.33-1.17.29Z"/><path class="cls-5" d="M102.71,172s-3.86-3.33-11.79.09A16.78,16.78,0,0,0,102.71,172Z"/><path class="cls-2" d="M95.07,176.4s-4.68-1.14-5.67-3.38-3.78,5.13-3.78,5.13H94.4Z"/><path class="cls-3" d="M117,134.44a26.91,26.91,0,0,0-12.25.27c-1,.25-1.62.68-.61,1.39a6.56,6.56,0,0,0,4.28,1,51.46,51.46,0,0,1,10,.12c2.11.22,4.24.36,3.76-.78S119.3,135,117,134.44Z"/><path class="cls-3" d="M81.32,132a26.73,26.73,0,0,1,12,2.22c1,.4,1.49.92.39,1.47a6.58,6.58,0,0,1-4.38.28,52.25,52.25,0,0,0-9.85-1.47c-2.12-.11-4.24-.32-3.59-1.37S79,132.12,81.32,132Z"/><circle class="cls-6" cx="111.2" cy="144.41" r="3.28"/><ellipse class="cls-7" cx="111.57" cy="143.7" rx="0.66" ry="0.83" transform="translate(-67.32 176.79) rotate(-62.65)"/><circle class="cls-6" cx="85" cy="141.93" r="3.28"/><ellipse class="cls-7" cx="86.03" cy="141.44" rx="0.66" ry="0.83" transform="translate(-79.12 152.89) rotate(-62.65)"/><path class="cls-3" d="M86.11,121.58s-2.36,6.73,0,7.91-7.79,2.71-14.55-6.42S86.11,121.58,86.11,121.58Z"/><path class="cls-2" d="M35.26,212.9c1.3-1.64,2.57-3.3,3.91-4.9.66-.78,1.31-1.57,2-2.34q3.68-4.36,7.41-8.73a2.59,2.59,0,0,0,.69-2.17c-.27-1.75-.54-3.49-.91-5.21-.1-.5,0-1.45-1.13-1.13-.36.09-.28-.24-.12-.44.31-.42,0-.67-.24-1L46.8,187a11.47,11.47,0,0,0-6.16-3.77,5.55,5.55,0,0,0-.73-.16,5.72,5.72,0,0,0-2.45,0,6.16,6.16,0,0,0-3.06,2c-.52,1.5-1.84,2.4-2.72,3.64a2.56,2.56,0,0,0-.67,2.47,1.2,1.2,0,0,1-.37,1.3c-.16-1.63-1-3-.45-4.49a2.78,2.78,0,0,1-.25-.62c-.67-5.25-1.3-10.5-2-15.76a20.63,20.63,0,0,0-1.08-5.31A2.15,2.15,0,0,0,25,165a.88.88,0,0,0-1,.85c0,1.47-.28,3,.23,4.41a1.59,1.59,0,0,1,0,2c0,.83,0,1.68,0,2.51.53,1.42.34,2.91.54,4.36a18.43,18.43,0,0,1,0,3.64,13.2,13.2,0,0,0,.93,5.9c-.87-1.09-2-2-2.06-3.54-.55.07-.68-.37-.91-.72-2.11-3.3-4.21-6.61-6.37-9.87a7.35,7.35,0,0,0-2.3-2.6c-.42-.25-.78-.73-1.37-.33a1.38,1.38,0,0,0-.53,1.49,4.7,4.7,0,0,0,.37,1.21c1.65,3.65,3.33,7.3,5,10.95.49,1.09.93,2.21,1.41,3.32-2.19-1.28-4-2.77-6-4.12-1.33-.93-2.53-2.12-4.13-2.59-.59-.18-1.35-.36-1.82.28s0,1.27.42,1.75c1.18,1.19,2.41,2.34,3.62,3.51.83-.09,1.07.11,1.38,1.21l.5.49c.26,0,.49,0,.62.27v0h0l.28.27a8.63,8.63,0,0,1,2.93,2c1.52,1.39,3.14,2.62,4.74,3.9a1.45,1.45,0,0,1,.52.79,45.6,45.6,0,0,1,1.56,5.77c.27,1.9.79,3.72,1.18,5.58a33.18,33.18,0,0,0,.95,4.29,3,3,0,0,0,2.89,2.33c.36,0,.79-.07.91.43s-.22.66-.53.88a5.22,5.22,0,0,1-2,1c-2.59.56-3.73,2.35-4.12,4.79-.61,3.81-1.49,7.55-2.36,11.3-.3,1.31-.52,2.63-.76,4-.05.29-.07.56-.4.67a45.71,45.71,0,0,0-.83,5.49c-.71,4.78-1.08,9.6-1.59,14.41-.34,3.23-.75,6.45-1,9.7a84.89,84.89,0,0,0-.62,9.17c.8,1,1,2.3,1.48,3.43.11.25.23.5.34.74H33.73c.57-.93,1.12-1.87,1.68-2.81,1.86-3.17,3.49-6.47,5.14-9.75.47-.94.84-1.95,1.3-2.91a1.46,1.46,0,0,0-.19-1.33q-1.27-2.6-2.66-5.16a5.73,5.73,0,0,1-.92-4.16c-.94-.83-.55-2-.68-3-.59-4.22-1.08-8.43-1.6-12.65,0-.3,0-.59,0-.88,0-.44,0-.87,0-1.31a.75.75,0,0,1-.18-.07.78.78,0,0,1-.34-.66c-.06-.57-.14-1.15-.2-1.72l-1-8.3c-.13-.06-.36-.09-.37-.16-.48-3.11-1.61-6.11-1.53-9.29A3.62,3.62,0,0,1,35.26,212.9Zm-3.09-4.53c-2.13-3.64-3.59-7.25-5.56-10.6-1-1.7-.86-1.84,1-2.34a4.64,4.64,0,0,0,.65-.26c1.27-.49,1.87-.23,2.1,1.12.64,3.54,1.18,7.1,1.76,10.65A12.65,12.65,0,0,1,32.17,208.37Zm-.1-13.92A31.53,31.53,0,0,1,34.86,189a6.85,6.85,0,0,0,1.26-2.91c.05-.56.32-.78,1-.48l.3.11a1.87,1.87,0,0,0,.42.13,5.72,5.72,0,0,0,.57.11l.44,0,.39,0c.66,0,1.31,0,1.95,0h.43l.21,0a.67.67,0,0,1,.24.07l.25.11a.38.38,0,0,1,.11.08l.1.07a.9.9,0,0,1,.16.18,1.48,1.48,0,0,1,.13.21.91.91,0,0,1,.07.25,2.3,2.3,0,0,1-.05,1,1.94,1.94,0,0,0,1.73,1.19c1,.17.87.58.55,1.21.22.12.15.22,0,.29v.44c.08.6,0,1.21,0,1.82,0,.12,0,.22,0,.33s0,.2,0,.31a1.21,1.21,0,0,0,.09.31,1.07,1.07,0,0,0,.07.19,1.55,1.55,0,0,0,.12.22,1.2,1.2,0,0,0,.15.24l.13.18c.3.33,0,.8-.41,1.11l-.16.1-.12.08-.13.06c-.77.33-1.59.54-2.33.93-1.69.9-2.31,1.62-1.16,3.34.19.27.45.59.1.84s-.54-.11-.69-.32c-.84-1.26-2.09-2.25-2.51-3.8l-2.47-.81a3.21,3.21,0,0,1-2.67.2C32.11,196.27,31.64,195.69,32.07,194.45Z"/><path class="cls-2" d="M198.75,272c-2.57-3.81-4.95-7.76-7.42-11.64l-5.07-8a1.49,1.49,0,0,0-2,.59c.44.38-.38.71,0,1.12,1.32,1.53.35,2.42-.89,3.36-2.92,2.22-5.76,4.55-8.68,6.79-.82.63-1,1.08-.18,1.88a40.77,40.77,0,0,0,10.18,7.2c1.66.87,3.65.41,5.49.7a30.54,30.54,0,0,1,6.86,1.73c.64.26.42.61.14,1a2.29,2.29,0,0,1-1.38.65,59.82,59.82,0,0,0-8.44,2.85h13.8A12.37,12.37,0,0,0,198.75,272Z"/><path class="cls-8" d="M35.79,237.56c0-.44,0-.87,0-1.31.17-.84.15-2.13,1.3-1.88.75.16.78,1.44.65,2.32a6,6,0,0,0,1.89,5.6,43.38,43.38,0,0,1,8.05,10.76c.82,1.55,1.81,3,2.77,4.5a1.32,1.32,0,0,0,2.43-.12,13.12,13.12,0,0,0,1.52-6.63c0-.41,0-.83,0-1.25q0-10.65,0-21.31a2.35,2.35,0,0,1,.35-1.68c.28,1.81.53,3.37.76,4.93.4,2.7.82,5.41,1.19,8.12.47,3.48.88,7,1.35,10.47.25,1.76.6,3.5-.28,5.19C55.49,261,53,266.68,50.6,272.39c-.49,1.21-1.21,1.16-2.17,1.08a9.26,9.26,0,0,1-5-2.48c.93-2,1.84-3.95,2.8-5.91a1.21,1.21,0,0,0-.13-1.4,59.16,59.16,0,0,0-8-9.57c-1-.84-.55-2-.69-3-.59-4.21-1.08-8.44-1.6-12.65C36.18,238.14,36.17,237.85,35.79,237.56Z"/><path class="cls-2" d="M16.88,279.49c.11.25.23.5.34.74H15.91c-.19-1.38-.33-2.79-.51-4.17C16.2,277.06,16.35,278.36,16.88,279.49Z"/><path class="cls-2" d="M46.24,265.08c-1,1.95-1.87,3.94-2.8,5.91-1.54,3.1-3.12,6.2-4.76,9.24h-5c.57-.93,1.12-1.87,1.68-2.81,1.86-3.17,3.49-6.47,5.14-9.75.47-.94.84-1.95,1.3-2.91a1.46,1.46,0,0,0-.19-1.33q-1.27-2.6-2.66-5.16a5.73,5.73,0,0,1-.92-4.16,57.82,57.82,0,0,1,8,9.57A1.21,1.21,0,0,1,46.24,265.08Z"/><path class="cls-2" d="M13.9,189.6a8.57,8.57,0,0,1,3,2c1.5,1.39,3.13,2.62,4.73,3.9a1.45,1.45,0,0,1,.52.79,47.35,47.35,0,0,1,1.56,5.77c.27,1.9.79,3.72,1.18,5.57a31.77,31.77,0,0,0,1,4.3,3,3,0,0,0,2.88,2.34c.36,0,.79-.08.91.42s-.23.66-.53.88a5.15,5.15,0,0,1-2,1c-2.6.57-3.74,2.36-4.13,4.81-.62,3.8-1.49,7.54-2.36,11.29-.3,1.31-.52,2.63-.76,4-.05.29-.07.56-.39.67.73-7.12,1.87-14.19,2.8-21.28A36.58,36.58,0,0,0,22,204.34c-.42-2.19-.7-4.41-1.06-6.61a3.57,3.57,0,0,0-1.25-2.36c-1.76-1.46-3.37-3.08-5-4.65C14.33,190.41,13.86,190.17,13.9,189.6Z"/><path class="cls-2" d="M34.08,225.5c-.13-.06-.36-.09-.37-.16-.47-3.11-1.6-6.11-1.54-9.3a3.64,3.64,0,0,1,3.1-3.14,23.51,23.51,0,0,0-1.38,9.8A9.11,9.11,0,0,0,34.08,225.5Z"/><path class="cls-9" d="M24.3,174.7c.52,1.41.33,2.91.53,4.36a19.23,19.23,0,0,1,0,3.64,13,13,0,0,0,.92,5.9c-.87-1.09-2-2-2.06-3.54C23.91,181.61,24.11,178.15,24.3,174.7Z"/><path class="cls-2" d="M34.39,185c-.51,1.49-1.83,2.4-2.71,3.64a2.52,2.52,0,0,0-.66,2.47,1.25,1.25,0,0,1-.38,1.31c-.17-1.64-1-3-.44-4.49Z"/><path class="cls-2" d="M11.12,187.33c.84-.08,1.07.13,1.38,1.22A2.92,2.92,0,0,1,11.12,187.33Z"/><path class="cls-9" d="M24.3,170.22a1.62,1.62,0,0,1,0,2C24.3,171.53,24.3,170.87,24.3,170.22Z"/><path class="cls-10" d="M13,189c.26,0,.5,0,.63.28A.58.58,0,0,1,13,189Z"/><path class="cls-10" d="M13.63,189.32l.28.28A.27.27,0,0,1,13.63,189.32Z"/><path class="cls-2" d="M197.17,276.73a2.29,2.29,0,0,1-1.38.65,59.82,59.82,0,0,0-8.44,2.85H175.13l0-.05c1.4-2,1.4-2-.09-4.06-2.56-3.49-5.16-7-7.75-10.44a50.6,50.6,0,0,1,6-4.68c1.53-1.17,3.3-2.07,4.49-3.66,1.58-.52,2.71-1.74,4-2.64.81-.54,1.57-1.14,2.36-1.71.44.38-.38.71,0,1.12,1.32,1.53.35,2.42-.89,3.36-2.92,2.22-5.76,4.55-8.68,6.79-.82.63-1,1.08-.18,1.88a40.77,40.77,0,0,0,10.18,7.2c1.66.87,3.65.41,5.49.7a30.54,30.54,0,0,1,6.86,1.73C197.67,276,197.45,276.38,197.17,276.73Z"/><path class="cls-8" d="M149.45,258c-.53,2.49-.21,5-.21,7.53,0,1.22-.3,1.6-1.45,1.26-1.78-1-3-2.64-4.52-3.87-1.17-.92-2-2.18-3.28-3-.65-.44-.88-.36-.9.43-.09,4.65-.8,9.25-1.15,13.88-.15,2-.36,3.94-.53,5.92h-1c-.13-3.29-.24-6.59-.47-9.86-.34-4.87-.66-9.75-.84-14.63-.15-4,.7-7.86,1.26-11.76.25-1.8.47-3.6.74-5.39a3.06,3.06,0,0,0,.05-.32c.16-1,.33-2,.54-2.94.14-.63.24-1.26.34-1.89a38.74,38.74,0,0,1,1.54-7.41c.65.35.61,1,.6,1.54,0,2.64.29,5.27,0,7.94,0,.11,0,.23,0,.35-.26,3.84,1.43,7.14,3.33,10.35a71.73,71.73,0,0,1,4.75,9.43,4.09,4.09,0,0,0,.79,1.45A1.11,1.11,0,0,1,149.45,258Z"/><path class="cls-8" d="M177.87,257.34c-1.19,1.59-3,2.49-4.49,3.66-2,1.55-4.25,2.83-6,4.68-.93.07-1.4.86-2.06,1.34-3,2.17-6,4.34-9,6.57-.67.51-1.1.53-1.64-.08a7.67,7.67,0,0,1-1.83-2.25c.65,0,.95-.53,1.34-.92,2.95-2.92,5.85-5.9,8.83-8.79,3.36-3.25,6.8-6.42,10.18-9.67.67-.65,1.17-.62,1.73.06a4.72,4.72,0,0,1,1.51,2.75.83.83,0,0,0,.47.8A1.73,1.73,0,0,1,177.87,257.34Z"/><path class="cls-11" d="M44.34,208.77c-.81.44-1.62.79-2.42-.26Z"/><path class="cls-12" d="M121.57,233.14c-.24-.27-.14-.58-.11-.89.25,0,.6-.07.67.26S121.85,233,121.57,233.14Z"/><path class="cls-12" d="M121.34,230.6c0-.22,0-.44-.08-.65C121.64,230.13,121.75,230.33,121.34,230.6Z"/><path class="cls-13" d="M100.17,208.17a.86.86,0,0,1,0,.17s0,0-.07.06A.16.16,0,0,1,100.17,208.17Z"/><path class="cls-12" d="M99.73,212.88c0,.09,0,.19,0,.29l-.22-.1Z"/><path class="cls-9" d="M32.16,208.36c-2.12-3.63-3.57-7.24-5.55-10.59-1-1.7-.86-1.84,1.05-2.33a5.82,5.82,0,0,0,.64-.27c1.26-.48,1.87-.23,2.11,1.12.63,3.54,1.18,7.1,1.74,10.65A10.5,10.5,0,0,1,32.16,208.36Z"/><path class="cls-9" d="M42.79,188a4.54,4.54,0,0,0-6,1c-.76,1-1.51,2-2.23,3-1.05,1.51-1,2,.37,3.17.34.31.64.67,1,1a3.21,3.21,0,0,1-2.67.2c-1.05-.22-1.53-.81-1.1-2A31.89,31.89,0,0,1,34.86,189a6.86,6.86,0,0,0,1.26-2.9c.05-.57.32-.79,1-.5a9.51,9.51,0,0,0,4.07.4C42.46,186,43.13,186.67,42.79,188Z"/><path class="cls-9" d="M38.3,197.11a31,31,0,0,1,5.2-2.24c.76-.27,1.14-.61,1-1.48a2.69,2.69,0,0,1,.5-2.23c.18,1.2-.31,2.46.67,3.59.39.45-.2,1.11-.82,1.36s-1.59.53-2.32.92c-1.7.91-2.32,1.62-1.16,3.35.18.27.44.59.09.84s-.54-.11-.69-.33C40,199.64,38.73,198.64,38.3,197.11Z"/><path class="cls-14" d="M35.79,237.56c.38.29.39.58,0,.88C35.8,238.14,35.79,237.85,35.79,237.56Z"/><path class="cls-10" d="M45.05,190.73l0-.3C45.3,190.55,45.22,190.64,45.05,190.73Z"/><path class="cls-15" d="M77.36,188.46c.2,0,.44,0,.42.34,0,0-.06.09-.09.09-.31,0-.31-.22-.34-.42Z"/><path class="cls-15" d="M78.68,189.88l-.08.09s-.06-.07,0-.11,0-.06.07-.1Z"/><path class="cls-15" d="M77.06,188.19l-.11-.13.13.12Z"/><path class="cls-15" d="M77.35,188.47l-.29-.28h0l.27.28Z"/><path class="cls-14" d="M85.21,204.74l2,.84C86.31,205.8,85.43,206.05,85.21,204.74Z"/><path class="cls-14" d="M88,205.87a.64.64,0,0,1,.57.26C88.16,206.57,88.08,206.26,88,205.87Z"/><path class="cls-14" d="M100,219.62l0,.56c-.2,0-.32.5-.48.23S99.52,219.69,100,219.62Z"/><path class="cls-14" d="M100.43,222.52a.81.81,0,0,1,.19.74A.65.65,0,0,1,100.43,222.52Z"/><path class="cls-15" d="M120.36,233.34a.79.79,0,0,1-.39,1.08C119.7,234,120,233.72,120.36,233.34Z"/><path class="cls-12" d="M110.49,237h-.2l0-.17.12.2Z"/><path class="cls-16" d="M131.52,190.43l-.07.12.07-.12Z"/><path class="cls-12" d="M95.52,225.9c.08,0,.2,0,.22.11s-.06.15-.09.23-.2-.05-.22-.11S95.48,226,95.52,225.9Z"/><path class="cls-17" d="M109.46,180.11s-1.55,12,4.07,13.28,13,.21,17.88,3.29-21.12,17.61-21.12,17.61L71,200.08l1-5.15s8.12.27,11.6-1.54,2.84-12,2.84-12Z"/><path class="cls-18" d="M187.24,249.27c-1.37-2.11-2.6-4.29-3.84-6.48-.38-.68-.7-.79-1.2-.18s-1,.53-1.43-.23c-2.22-3.59-4.72-7-7-10.59-2.94-4.73-5.86-9.5-9.13-14-2-2.76-3.5-5.93-6.48-7.89-.28-.18-.4-.61-.54-.95s0-.72-.44-.77-.59.22-.71.56-.44.74-.79.68a.66.66,0,0,1-.36-.13c-.52-.37-.17-.82.15-1.19.15-.17.4-.34.26-.59s-.5-.26-.74-.16a2.26,2.26,0,0,1-2-.1,4.17,4.17,0,0,0-2.75-.7,3.93,3.93,0,0,1-2.46-.78c-4.13-2.77-8.15-5.71-12.5-8.13-1.08-.59-2.17-1.15-3.29-1.68l0,0h0c-.58.73-10,12.12-31.75,11.59-.46,0-.88,0-1.3,0h-.15a33.74,33.74,0,0,1-8.26-.9l-1.13-.31a2,2,0,0,1-.3.21l-.12.07a3.41,3.41,0,0,0,.42-.28c-.2-.31-.53-.26-.83-.28-.43.44-.51.13-.57-.26l-.84-.29c-.87.22-1.75.47-2-.84a49,49,0,0,1-9.66-6.25c-.68-.56-1.25-1.24-1.88-1.86s-1.52-.73-1.65-1.7a5,5,0,0,0-4.22,1.38h0c-2.1-.19-3.68,1-5.37,2-3.77,2.14-7.58,4.27-11.24,6.61-1,.61-1.76,1.54-3.09,1.27-.35-.07-.58.21-.77.51a2,2,0,0,1-2,1,4.51,4.51,0,0,1-.6-.08c-.63-.13-1.28-.53-2-.14a6.2,6.2,0,0,0-3.13,3.19c-1.3,3.62-3.2,7-4.45,10.63-.2.57-.34,1.32-1.18,1.4a8.77,8.77,0,0,0,.18,2.8l1,8.3c.06.57.14,1.15.2,1.72a.78.78,0,0,0,.34.66.75.75,0,0,0,.18.07l0-.16c0-.19,0-.39.1-.59l0-.16,0-.13a1.35,1.35,0,0,1,.29-.64l.07-.07a.18.18,0,0,1,.07-.05.37.37,0,0,1,.12-.07.94.94,0,0,1,.56,0,.42.42,0,0,1,.18.08h0a.45.45,0,0,1,.13.11.73.73,0,0,1,.1.13l0,.05a.59.59,0,0,1,.06.14,1.69,1.69,0,0,1,.08.24l0,.17a.93.93,0,0,1,0,.22,5.12,5.12,0,0,1,0,1.18,6.06,6.06,0,0,0,1.89,5.61,43.15,43.15,0,0,1,8.05,10.75c.82,1.56,1.8,3,2.77,4.5a1.32,1.32,0,0,0,2.43-.12,13.1,13.1,0,0,0,1.52-6.63c0-.41,0-.83,0-1.25v-5.17q0-8.07,0-16.14a2.33,2.33,0,0,1,.34-1.68c.28,1.81.53,3.36.77,4.93.4,2.7.81,5.41,1.18,8.11,0,.35.09.7.14,1.05.41,3.14.78,6.29,1.21,9.42.24,1.77.59,3.51-.28,5.2.46,1.63-.25,3.15-.45,4.72-.49,3.8-1.31,7.56-1.76,11.37-.35,2.95-.76,5.91-1.1,8.87h82v-.12c-.13-3.29-.24-6.59-.47-9.86-.34-4.87-.66-9.75-.84-14.63-.15-4,.7-7.86,1.26-11.76.25-1.8.47-3.6.74-5.39a3.06,3.06,0,0,0,.05-.32c.16-1,.33-2,.54-2.94.14-.63.24-1.26.34-1.89a38.74,38.74,0,0,1,1.54-7.41c.65.35.61,1,.6,1.54,0,2.64.29,5.27,0,7.94,0,.11,0,.23,0,.35-.26,3.84,1.43,7.14,3.33,10.35a71.73,71.73,0,0,1,4.75,9.43,4.09,4.09,0,0,0,.79,1.45,1.11,1.11,0,0,1,.36,1c-.53,2.49-.21,5-.21,7.53,0,1.22-.3,1.6-1.45,1.26.68,1.56,2.37,2.16,3.35,3.45.4.52.86,1.15,1.7,1,.64,0,.95-.54,1.34-.92,2.95-2.93,5.85-5.89,8.83-8.79,3.36-3.25,6.8-6.42,10.18-9.67.68-.65,1.16-.62,1.74.05a4.81,4.81,0,0,1,1.5,2.76.87.87,0,0,0,.47.81,1.71,1.71,0,0,1,1,1.84c1.58-.52,2.71-1.74,4-2.64.81-.54,1.57-1.14,2.36-1.71a1.49,1.49,0,0,1,2-.59A1.29,1.29,0,0,1,187,251C187.62,250.55,187.74,250.06,187.24,249.27ZM41.92,208.5l2.42.27C43.54,209.21,42.71,209.56,41.92,208.5Zm48.86,6.07c.37,0,.73,0,1.1,0Zm-.68,0-1.26-.06Zm-3.32-7.38h0Zm.79,0h0Zm-1.88,7.18,1.12,0Zm2.37,1.19-.12,0Zm.7-8.7h0l-.16.08-.19.07Zm-.48.19h0l-.1,0Zm-1.9.12-.3,0Zm-.6-.08-.91-.17c-.27-.06-.54-.1-.82-.14l.82.13C85.16,206.93,85.47,207,85.78,207.05ZM69,198l.78.8Zm2.77,2.82-.13-.12-.61-.6-.22-.23a22.73,22.73,0,0,0,1.92,1.77l-.52-.43Zm3.15,2.47A20.1,20.1,0,0,0,80,206a10.56,10.56,0,0,0,1.73.4A10.56,10.56,0,0,1,80,206,20.1,20.1,0,0,1,74.92,203.26Zm9.71,11c-.35,0-.69.11-.69.54a.53.53,0,0,0,0,.19.53.53,0,0,1,0-.2C83.94,214.4,84.28,214.31,84.63,214.3Zm.11,1.11a3,3,0,0,1-.43-.09c.14,0,.28.06.43.09a2,2,0,0,0,.68,0A2,2,0,0,1,84.74,215.41Zm4.8.26h0Zm-.75,0h0Zm1.57,0h-.48c.43,0,.86,0,1.27,0h0C90.9,215.67,90.63,215.67,90.36,215.67Z"/><path class="cls-2" d="M83.62,179.92s15.64,9.82,31.74-3.85H104.61l-12.4.61-8.27-1.31Z"/><path class="cls-3" d="M128,145.38s4.94,25.78-18.53,34.73v4.65L132.65,189l9.65-7.39.65-22.54Z"/></g></g></svg>