<svg xmlns="http://www.w3.org/2000/svg" viewBox="0 0 213.84 280.31"><defs><style>.cls-1{fill:#9acad8;}.cls-2{fill:#ba5c1c;}.cls-3{fill:#2c222b;}.cls-4{fill:#b27246;}.cls-5{fill:#c28155;}.cls-6{fill:#65c8d0;}.cls-7{fill:#fff;}.cls-8{fill:#5774b3;}.cls-9{fill:#4e659a;}.cls-10{fill:#4d2f1f;}.cls-11{fill:none;stroke:#4a4662;stroke-miterlimit:10;stroke-width:2px;}.cls-12{fill:#f6d532;}.cls-13{fill:#f4d438;}.cls-14{fill:#e6b241;}.cls-15{fill:#b3653e;}.cls-16{fill:#eca816;}.cls-17{fill:#fed200;}.cls-18{fill:#904126;}.cls-19{fill:#b4653e;}.cls-20{fill:#e5b141;}.cls-21{fill:#fdf9c6;}.cls-22{fill:#f6d73d;}.cls-23{fill:#f7d83d;}.cls-24{fill:#fef8be;}.cls-25{fill:#f5d432;}.cls-26{fill:#f5d73e;}.cls-27{fill:#e8b649;}.cls-28{fill:#fdefc3;}.cls-29{fill:#f7e281;}.cls-30{fill:#fdfdfc;}.cls-31{fill:#fdfcfc;}.cls-32{fill:#fdfcfb;}.cls-33{fill:#fcf6f2;}.cls-34{fill:#f5cb2e;}.cls-35{fill:#97500d;}.cls-36{fill:#b2633e;}.cls-37{fill:#f7c319;}</style></defs><g id="Layer_2" data-name="Layer 2"><g id="Warm"><path class="cls-1" d="M0,0H213.84a0,0,0,0,1,0,0V266.14a14.17,14.17,0,0,1-14.17,14.17H14.17A14.17,14.17,0,0,1,0,266.14V0A0,0,0,0,1,0,0Z"/><path class="cls-2" d="M112.52,159.16s.37-2.6-5.4-4.24"/><path class="cls-3" d="M90.55,83.49a21.89,21.89,0,0,0,2.29-.06c5.17-.37,23.5-.17,38.54,18.95,17.7,22.49,14,123.68,14,123.68H52.16S45,141.11,60.33,110.73C73.47,84.61,87,83.33,90.55,83.49Z"/><path class="cls-4" d="M82.16,165.49s5.56,10.19,1.58,15.55,35.44,1.08,35.44,1.08-9.11-13.14-5.36-18S82.16,165.49,82.16,165.49Z"/><path class="cls-5" d="M131.36,145.24a17.5,17.5,0,0,1-10.65,19.33l-.14.05c-15.74,6.07-31.55,5.22-47.38.4-6.11-1.85-11.13-5.15-14.12-11,.52-2.39,0-3.95-2.46-5.31-6-3.39-8.46-9.19-8.78-15.8-.17-3.2.91-6.14,5-6.49,5.07-.43,8,1.33,9,5.36a44.76,44.76,0,0,0,1.88,5.85c.41,1,.93,2.3,2.4,2.18a2.52,2.52,0,0,0,2.38-2.26c.07-2.85,2.14-4.26,3.67-6.15a13.5,13.5,0,0,0,.82-1.14c2.74-4.14,2.54-8.74,1.5-13.44-.06-.3-.13-.6-.2-.9l.71-.36c6-3,12.47-4.21,18.93-5.34,11-1.92,22.13-2.49,33.13.57,2,6.75,2.14,13.68,2,20.63.24,2.12.58,4.23,1,6.33C130.41,140.24,130.91,142.74,131.36,145.24Z"/><path class="cls-5" d="M74.25,115.91C99,81.48,127,110.78,127,110.78"/><path class="cls-2" d="M52.28,130.83c.65,3.1,3.82,5.47,2.39,9.3-.32.84,1.45,2.81,3,2.52s2-2.19,1.59-3.58c-1-3.74-2.83-7-6.86-8.35Z"/><path class="cls-3" d="M62.42,134s-.75,14.46-4.77,23.57,12.6,13.64,12.6,13.64S80.64,147.74,75,120.35"/><path class="cls-2" d="M105,150c5.51-1.49,6.81-4.26,4.46-9.35-1.65-3.56-3.19-7.16-4.81-10.81-1.94.79-1.3,2.31-.93,3.36a41,41,0,0,0,3.28,7.63c2.2,3.66,1.53,6-2.5,7.3C104.64,148.74,104.8,149.36,105,150Z"/><path class="cls-2" d="M110,154.86c-.31,1.83,1.94,2,2.49,4.3-4.64-1.86-9-2.54-14.44-.54,2.64-4.5,6.12-3.4,9-3.7,1-.09.15-.3,1.11-.21Z"/><path class="cls-2" d="M99.87,158.73s3.49,3.34,11.15.51A15.84,15.84,0,0,0,99.87,158.73Z"/><path class="cls-5" d="M106.92,154.94s4.43,1.08,5.36,3.2,3.59-4.85,3.59-4.85h-8.32Z"/><path class="cls-6" d="M80.71,119.4l-.21-.19c0-.06-.07,0-.49-1a6.55,6.55,0,0,1-.53-2.32s-.86,2-1.29,3.21a2.54,2.54,0,0,0-.22.64,1.05,1.05,0,0,0,0,.13,3.42,3.42,0,0,0-.06.65c0,1.35.71,2.44,1.59,2.44s1.58-1.09,1.58-2.44v-.05A1.94,1.94,0,0,0,80.71,119.4Z"/><path class="cls-6" d="M83.39,130.67l-.21-.19s-.07,0-.49-1a6.55,6.55,0,0,1-.53-2.33s-.86,2-1.29,3.21a3.31,3.31,0,0,0-.22.65.83.83,0,0,0,0,.13,3.31,3.31,0,0,0-.06.64c0,1.35.71,2.45,1.59,2.45s1.58-1.1,1.58-2.45v-.05A1.94,1.94,0,0,0,83.39,130.67Z"/><path class="cls-3" d="M86.24,126.15a25.31,25.31,0,0,0,11.3-2.58c.9-.43,1.37-.94.31-1.41a6.25,6.25,0,0,0-4.15-.09,49,49,0,0,1-9.26,1.8c-2,.19-4,.47-3.33,1.43S84,126.12,86.24,126.15Z"/><path class="cls-3" d="M119.77,121.63a25.3,25.3,0,0,1-11.59.25c-1-.2-1.56-.58-.64-1.29a6.24,6.24,0,0,1,4-1.1A49.24,49.24,0,0,0,121,119c2-.3,4-.51,3.59.58S121.94,121.06,119.77,121.63Z"/><circle class="cls-3" cx="91.31" cy="131.58" r="3.11"/><ellipse class="cls-7" cx="90.96" cy="130.91" rx="0.79" ry="0.62" transform="translate(-49.97 56.41) rotate(-27.35)"/><circle class="cls-3" cx="116.1" cy="129.23" r="3.11"/><ellipse class="cls-7" cx="115.12" cy="128.77" rx="0.79" ry="0.62" transform="translate(-46.28 67.27) rotate(-27.35)"/><path class="cls-3" d="M51.3,155.92S40.76,257.9,34,268.63l30.6,4.25,4.51-98.22Z"/><path class="cls-3" d="M145.38,272.88l1.12-.13,24.34-3-8.62-15.36H139.55Z"/><path class="cls-8" d="M141.62,280H76.94c-1.35-4.12-4.33-7.2-6.72-10.68-4.42-6.42-8.27-12.86-9.16-21.14-.94-8.75,1.37-16.73,3.06-24.94.42-2,1.13-4-.5-5.75.2-5.92,2.31-11.57,2.24-17.55-.11-8.84,0-8.84,8.83-10.26A24.38,24.38,0,0,0,77,200.78h0c1.14,2.59.08,6.12,3.31,7.83h0c.81,6.39,5.39,11.12,10.09,13.48,8.33,4.17,17.75,5.42,27,1.5,1.9-.81,3.32-1.49,3-3.82,8.64-3,12.57-8.92,12.52-18.18,0-8.12,2.89-10.82,9.83-10.83,0,6,0,12.06,0,18.09,0,1.75-.5,3.86,2.21,4.23.29.38-.5,1.52.82,1.18l-.83-1.17,0-22.29a1.73,1.73,0,0,1,.52-.16c.14,0,.37.16.39.26.84,6.34-.7,12.78,1.08,19.1a9.42,9.42,0,0,1-.79,7.49c-2.4,3.36-.11,6.13,1.15,9,.36,1.43.73,2.87,1.1,4.3a6,6,0,0,0,2.2,4.62v4.31c.29,14.31-6.28,24.49-19.91,30.59,4.28,1.73,8-1.5,10.14.54S141.32,276.89,141.62,280Z"/><path class="cls-5" d="M64.44,188.89l0,22.19,0,7.63V222l-1.77-.26-2-.3-.57-.08q.07.48.18.93a15.44,15.44,0,0,1-1.15,1.94c-1.72,6.65-4.31,13.09-4.75,20,0,1.13,0,2.26,0,3.39.15.8.29,1.59.42,2.39C43,239.2,38.12,221.57,38.12,221.57a116.6,116.6,0,0,1,1-24.18C41,184,64.44,188.89,64.44,188.89Z"/><path class="cls-9" d="M63,228.35a12.94,12.94,0,0,1-1.63-2.68c.45-1.3.87-2.61,1.24-3.93a40.75,40.75,0,0,0,1-4.27,3.72,3.72,0,0,1,.77,1.24,5.52,5.52,0,0,1,0,3.27v0c-.09.4-.19.8-.27,1.21C63.77,224.93,63.39,226.64,63,228.35Z"/><path class="cls-9" d="M61.33,280c.33-4.41-1.92-8.63-.92-13.08a7.32,7.32,0,0,0-.34-5.25,53.2,53.2,0,0,1-2.68-9.38,31.63,31.63,0,0,0,5.36,3.33,57.78,57.78,0,0,0,7.47,13.7c2.39,3.47,5.37,6.56,6.72,10.68Z"/><path class="cls-9" d="M60.47,222.44c1.47,5.64,5.9,10,6.6,16a10.19,10.19,0,0,0,2.61,6.43,73,73,0,0,1,7.11,10.66,39.29,39.29,0,0,0-7.71-2c-4.11-5.51-9.19-9.9-14.55-14.15-4.27-3.39-9.08-6.07-12.4-10.68Z"/><path class="cls-9" d="M141.62,280c-.3-3.09,1.38-7-.81-9.09s-5.86,1.19-10.14-.54c13.63-6.1,20.2-16.28,19.91-30.59,4,1.69,2.1,4.93,1.72,7.51-.84,5.69-3.12,11.26-.88,17.1-2.74,4.94-2.24,10.29-2,15.61Z"/><path class="cls-9" d="M60.07,261.65a7.32,7.32,0,0,1,.34,5.25c-1.68-1.62-2-3.88-2.8-5.93-1.61-3.48-2.22-7.21-2.86-10.93.84.78,1.72,1.53,2.64,2.23A53.2,53.2,0,0,0,60.07,261.65Z"/><path class="cls-9" d="M154,259.76c-1.69,1.07-1.49,3.2-2.58,4.61-2.24-5.84,0-11.42.88-17.1.38-2.58,2.31-5.82-1.72-7.51v-4.32c1.76-2.73.11-3.83-2.2-4.61l-1.11-4.31c2.41-3.36.32-6.16-1.14-9a9.39,9.39,0,0,0,.79-7.48c-1.78-6.33-.24-12.77-1.08-19.1,0-.11-.25-.25-.39-.26a1.49,1.49,0,0,0-.52.16l-2.17,0c-6.94,0-9.86,2.71-9.82,10.82,0,9.27-3.89,15.2-12.53,18.19l-5.6,2.3-.89.84-.22.21H99.24c-3.15-.53-5.63-2.24-8.29-4-4.37-2.81-6.43-7.73-10.64-10.56v0c-.82-2.73.11-6.18-3.3-7.82h0c-.09-3.84.53-7.83-2.29-11.11-8.82,1.42-8.94,1.42-8.83,10.26,0,3.8-.79,7.47-1.45,11.16a42.75,42.75,0,0,0-.79,6.39,40.75,40.75,0,0,1-1,4.27c-.37,1.32-.79,2.63-1.24,3.93a16,16,0,0,1-1.11-3.38c.14-.28.27-.56.39-.85,1.68-3.91,1.77-8.22,2.16-12.43.61-6.69,1.09-13.41,1.62-20.12l.09-1.22,2.37-.15c1.54,1.25,2.94-.45,4.43-.22l2.37,0c.9.21,1.73.24,2.22-.75h.16c1.15.1,2.41-.18,3.2,1A32.58,32.58,0,0,0,84,207.25c9,15,24.67,19.11,37.15,8,8.13-7.21,10.64-17,10.29-27.66l1.55-.89,3.08-.43c2.83,2.08,5.88,1.13,8.9.62h2.37l2,.6c0,.29-.07.58-.11.86-2.75,2.76-2,6.31-1.71,9.5.71,8.09,1.06,16.25,3.31,24.14l3.88,11q.36,9,.73,17.91C154.77,253.88,153.73,256.71,154,259.76Z"/><path class="cls-9" d="M142.76,190.76l2.17,0,0,22.29h0c-2.71-.37-2.2-2.48-2.21-4.23C142.73,202.82,142.76,196.79,142.76,190.76Z"/><path class="cls-9" d="M80.3,208.61c4.22,2.82,6.28,7.74,10.65,10.56,2.65,1.71,5.14,3.42,8.29,4a17.67,17.67,0,0,0,13.42,0h1l1.11-1.05,5.6-2.3c.34,2.33-1.08,3-3,3.82-9.29,3.92-18.71,2.67-27-1.5C85.69,219.73,81.11,215,80.3,208.61Z"/><path class="cls-9" d="M146.13,217.49c1.46,2.87,3.55,5.67,1.14,9C146,223.62,143.73,220.85,146.13,217.49Z"/><path class="cls-9" d="M74.69,189.66c2.82,3.28,2.2,7.27,2.29,11.12A24.38,24.38,0,0,1,74.69,189.66Z"/><path class="cls-9" d="M77,200.79c3.42,1.63,2.48,5.1,3.31,7.83C77.08,206.91,78.14,203.38,77,200.79Z"/><path class="cls-9" d="M148.38,230.83c2.31.79,4,1.89,2.2,4.62A6,6,0,0,1,148.38,230.83Z"/><path class="cls-9" d="M145,213.09l.83,1.17c-1.32.34-.53-.8-.82-1.18Z"/><path class="cls-10" d="M150.55,187.17c.32-.52.68-.61,1.09-.09Z"/><path class="cls-5" d="M180.69,262.16c-2.73-6-2.66-12.52-3.2-18.78-1.16-13.4-2.73-26.74-6-39.75-1.29-5.15-4.22-10.29-10.39-12.2a16.73,16.73,0,0,1-7.22-4l-2.25-.4-1.09.09-1.21.36c0,.29-.07.58-.11.87-.83,4,1.37,7.19,2.77,10.61-1.4-3.42-3.6-6.62-2.77-10.61-2.75,2.76-2,6.3-1.71,9.49.71,8.09,1.06,16.25,3.31,24.14h0q1.93,5.52,3.88,11.05.36,8.94.73,17.9h0c-.67,2.9-1.71,5.73-1.44,8.79q1.06,10.1,2.12,20.21H184C183.37,274,180.85,268.28,180.69,262.16Z"/><path class="cls-4" d="M79.28,187.57l5.31-.77c1.06,2,2.62,3.16,4.89,2.09,2.73-1.29,5-3,5.32-6.43s-1.15-7.33,1.13-10.69l1.12,1.14a12.11,12.11,0,0,0,1.26,3c6.49,8.27,14.13,14.47,25.33,15,3.18.17,6.3,1.78,6.81-3.17a1.48,1.48,0,0,1,1-.12c.34,10.62-2.16,20.45-10.29,27.65-12.48,11.08-28.16,7-37.15-8A32.57,32.57,0,0,1,79.28,187.57Z"/><path class="cls-8" d="M112.66,223.12a17.67,17.67,0,0,1-13.42,0Z"/><path class="cls-8" d="M114.81,222.07l-1.11,1.05Z"/><path class="cls-4" d="M83.74,181a13.3,13.3,0,0,1-4.46,6.53c-3.77,3.23,3.37-.49,3.37-.49l7.07.09-6-6.13"/><path class="cls-11" d="M174.52,192.12c2.8-5.7-.77-13.18-8-16.72"/><path class="cls-11" d="M178.34,194.55c4.11-8.38-1.13-19.36-11.72-24.56"/><path class="cls-11" d="M71.2,220.47C65.88,217,65.13,208.74,69.53,202"/><path class="cls-11" d="M69.15,224.5c-7.81-5.1-8.9-17.22-2.45-27.1"/><path class="cls-12" d="M74.88,208.4l-.24.18c-.19-1.86-.37-3.73-.55-5.59,0-.25-.14-.51,0-.74l.19.18a1.54,1.54,0,0,1,.17.81c.17,1.4.31,2.81.45,4.21A1.63,1.63,0,0,1,74.88,208.4Z"/><path class="cls-13" d="M169.5,182.39l-.43.17c-1.61-.77-3.24-1.49-4.88-2.19a1.19,1.19,0,0,1-.44-.27.27.27,0,0,1-.06-.17.14.14,0,0,1,.15-.07C165.74,180.68,167.66,181.45,169.5,182.39Z"/><path class="cls-14" d="M163.84,179.86l-.13,0c-.47-.11-.59-.55-.78-.89-.68-1.25-1.43-2.47-2.1-3.73a3.14,3.14,0,0,0-.33-.48.47.47,0,0,1-.18-.36c.07-.09.16-.13.26,0a1.09,1.09,0,0,1,.46.51Z"/><path class="cls-15" d="M128.12,224c-.13-.32-.44-.24-.67-.28L113,221.12l-.56-.14a.61.61,0,0,1-.24-.43c0-.45-.17-.92.15-1.33.31-.15.6,0,.88.09q3.77,1.13,7.54,2.18c.22.06.57.31.68,0s-.3-.43-.55-.52c-2.62-1-5.22-2.08-7.84-3.11a1.33,1.33,0,0,1-.56-.3,2,2,0,0,1,.4-1.81c.35-.13.62.1.9.25,2.44,1.25,4.88,2.51,7.32,3.75.18.09.43.4.6.11s-.17-.43-.38-.57c-2.43-1.6-4.9-3.16-7.32-4.78a1.15,1.15,0,0,1-.48-.42,1.89,1.89,0,0,1,.92-1.7,1.61,1.61,0,0,1,.7.44c2.21,1.73,4.35,3.55,6.57,5.26.19.15.4.5.64.26s-.07-.51-.26-.69c-2-1.92-3.94-3.87-5.93-5.78-.31-.3-.69-.53-.79-1a1.74,1.74,0,0,1,1.32-1.37,2.57,2.57,0,0,1,.79.75c1.74,2.12,3.52,4.2,5.27,6.3.06.07,0,0,0,.05s.35.6.65.37,0-.53-.19-.75c-1.71-2.43-3.35-4.92-5.07-7.35a1,1,0,0,1-.23-.59,2.25,2.25,0,0,1,1.21-1.1c.25-.14.45,0,.62.19,1.51,2.57,2.87,5.22,4.35,7.8.16.28.24.89.67.66s0-.61-.17-.9c-1-2.51-2.13-5-3.22-7.49a3.29,3.29,0,0,1-.35-1.1,1.71,1.71,0,0,1,2-.71,2.49,2.49,0,0,1,.42.94l2.55,8c.09.25.14.71.41.63s.12-.52.07-.79c-.58-2.86-1.25-5.7-1.81-8.56a1.39,1.39,0,0,1-.05-.7,1.9,1.9,0,0,1,1.86-.46c.3.26.27.62.31,1,.32,2.83.68,5.66,1,8.49,0,.32-.09.91.39.88s.23-.58.23-.89c-.06-3-.1-5.92-.16-8.87a1.26,1.26,0,0,1,.07-.51,1.77,1.77,0,0,1,2,.12,5,5,0,0,1,0,1.85c-.2,2.65-.42,5.29-.63,7.94a2.28,2.28,0,0,0,0,.26c0,.19.07.35.27.39s.28-.17.31-.33c.07-.5.2-1,.28-1.47.42-2.55.94-5.09,1.37-7.64a1.86,1.86,0,0,1,.15-.56.49.49,0,0,1,.61-.2,2.6,2.6,0,0,1,1.31.56,1.52,1.52,0,0,1-.12.94c-.79,2.79-1.59,5.57-2.38,8.36-.05.17-.1.33-.14.5s0,.41.2.49.3-.17.37-.33c1.12-2.78,2.21-5.58,3.31-8.38a1.66,1.66,0,0,1,.44-.77,2.21,2.21,0,0,1,1.62,1,1.94,1.94,0,0,1-.32.77l-4,7.73c-.15.29-.48.69-.1.91s.47-.32.62-.55c1.59-2.39,3.13-4.81,4.71-7.21.12-.2.2-.44.46-.51.64.2.91.77,1.28,1.25a.58.58,0,0,1,0,.19,4.84,4.84,0,0,1-.87,1.2l-2.69,3.4c-.29.33-.56.68-.83,1a.76.76,0,0,1-.11.14,4.3,4.3,0,0,0-.52.69,7.15,7.15,0,0,1-.86,1.11.6.6,0,0,0-.21.74,23.84,23.84,0,0,1-2,2.05q-1.63,1.69-3.32,3.37C128.42,223.89,128.32,224.05,128.12,224Z"/><path class="cls-16" d="M113,215.78a3.06,3.06,0,0,0-.4,1.75.22.22,0,0,1-.21.26,8.32,8.32,0,0,0-2.46-1.13l-14.62-5.8c-7-2.78-14-5.53-20.94-8.32a.34.34,0,0,1-.2-.29c1-1.25,2.11-2.33,3.15-3.51.28-.32.58-.63.88-.94a.25.25,0,0,1,.23-.14,13.58,13.58,0,0,1,2.11,1.09c3.89,2.08,7.84,4,11.74,6.07,6.34,3.32,12.65,6.66,19,9.9.53.27,1.07.55,1.62.8A.26.26,0,0,1,113,215.78Z"/><path class="cls-17" d="M100.73,173c1.23-1.46,2.48-2.9,3.84-4.24.54-.37.7.12.83.44.37.9.79,1.78,1.16,2.67,1,2.38,2,4.72,3,7.08,1.31,3.11,2.66,6.19,4,9.29,1.14,2.68,2.3,5.35,3.46,8,1.3,3,2.57,6,3.86,9a2.2,2.2,0,0,1,.2.75.65.65,0,0,1-.11.33,2.23,2.23,0,0,1-1.35.8c-.38,0-.56-.25-.73-.55-1.54-2.77-3-5.57-4.58-8.34-2.32-4.17-4.61-8.36-6.91-12.54-2.19-4-4.37-7.95-6.58-11.91A.83.83,0,0,1,100.73,173Z"/><path class="cls-16" d="M100.73,173a23.4,23.4,0,0,0,1.59,3c1.68,3.12,3.39,6.22,5.1,9.32,1.21,2.2,2.45,4.38,3.67,6.58q2.37,4.28,4.71,8.57c1.13,2.05,2.24,4.11,3.36,6.16.1.19.22.38.49.34.13.16.15.31-.06.42-.09-.07-.17-.22-.32-.11a4,4,0,0,0-1.23,1,.31.31,0,0,1-.38.12,5.14,5.14,0,0,0-1-1.75q-8.47-12.25-16.88-24.58c-1.6-2.33-3.21-4.66-4.8-7-.15-.21-.34-.41-.3-.69a1.14,1.14,0,0,1,.89-.36Z"/><path class="cls-16" d="M120.94,206.28l.09-.15a.65.65,0,0,0,0-.56.93.93,0,0,1,.2-.89c.27-.38.54-.39.78,0s.51.61,1,.46c1.57-.46,1.52-.45,1.14-2.06-.54-2.29-1-4.6-1.5-6.9-.64-2.93-1.26-5.87-1.89-8.81-.49-2.26-1-4.51-1.46-6.78-.62-2.91-1.26-5.82-1.88-8.74-.48-2.24-1-4.46-1.42-6.72,0-.17.08-.32.31-.27l2.16.41c1.34.27,2.68.53,4,.86a8.49,8.49,0,0,0,.15,2.71c.54,4.57,1,9.15,1.58,13.72.75,6.37,1.47,12.75,2.22,19.13.06.51.12,1,.16,1.54a2.31,2.31,0,0,0,.45,1.39.4.4,0,0,1-.49.19,3.23,3.23,0,0,0-1.81.28,6.22,6.22,0,0,1-1.79.56,2.76,2.76,0,0,0-1.71.68C121.06,206.43,121,206.36,120.94,206.28Z"/><path class="cls-16" d="M122.84,205.4a.81.81,0,0,1-1-.66c-.1-.36-.3-.26-.44-.05a1,1,0,0,0-.24.89c.06.19.21.41-.09.55-.63-1.72-1.42-3.36-2.14-5-.6-1.4-1.18-2.81-1.79-4.21s-1.24-2.82-1.86-4.24c-.43-1-.85-2-1.28-3-.64-1.48-1.29-3-1.93-4.42-.43-1-.83-2-1.26-3-.66-1.54-1.33-3.07-2-4.6s-1.2-2.81-1.78-4.22-1.29-2.81-1.81-4.27c-.08-.22-.24-.55-.62-.38a.49.49,0,0,1,.53-.37l5.5.08c.24,0,.5-.08.64.22a4.84,4.84,0,0,1,.36,1q5.54,17.25,11.06,34.5C122.78,204.55,123,205,122.84,205.4Z"/><path class="cls-16" d="M130.2,204.93a2.4,2.4,0,0,0-1.8-.2c-.18,0-.36.08-.4-.19a2,2,0,0,0,.24-1.12q-.21-13.28-.46-26.55-.11-6.06-.19-12.11c0-.32,0-.61-.33-.79,0-.54.41-.42.7-.32s.75.38,1.14.55c1.3.67,2.64,1.26,4,1.83.23.16.59-.18.76.19a1.71,1.71,0,0,0-.44,1.31q-.36,4.53-.71,9c-.72,9.07-1.46,18.13-2.16,27.2a3.87,3.87,0,0,0,0,.9C130.51,204.85,130.41,205,130.2,204.93Z"/><path class="cls-17" d="M112.89,215.57c-.29.07-.5-.11-.73-.22-4.4-2.27-8.83-4.47-13.19-6.81-5.92-3.18-11.93-6.17-17.88-9.29a16.08,16.08,0,0,1-2.68-1.52,6.83,6.83,0,0,1,.1-2c.11-1.13.22-2.26.36-3.38a.42.42,0,0,0-.08-.37l0-.17a.53.53,0,0,1,.14-.12c.38-.13.66.1,1,.29,5.87,3.85,11.76,7.66,17.64,11.49L112,212.89l1,.66a.84.84,0,0,1,.46.59A1.94,1.94,0,0,1,112.89,215.57Z"/><path class="cls-16" d="M133.85,205.74a2.52,2.52,0,0,0-1.74-.46.27.27,0,0,1-.29-.31,1.2,1.2,0,0,0,.37-.73c.57-3.43,1.21-6.85,1.83-10.27.75-4.16,1.49-8.33,2.27-12.49.46-2.49.89-5,1.33-7.46s1-5.23,1.42-7.85c.07-.4.06-.81.16-1.21.11-.08.23-.14.35,0l.36.27a6.57,6.57,0,0,1,.9.67l3.43,2.59a.36.36,0,0,1,.18.22,2,2,0,0,1-.15.88c-1.59,5.77-3.27,11.52-4.89,17.28q-2.52,9-5,17.9a8.33,8.33,0,0,0-.18.95C134.08,205.85,134,205.82,133.85,205.74Z"/><path class="cls-16" d="M137.11,207.5a3.59,3.59,0,0,0-1.52-1,.27.27,0,0,1-.08-.17c1.11-2.69,2.14-5.42,3.22-8.13,2.38-6,4.71-11.94,7.08-17.91,1.49-3.74,2.94-7.48,4.43-11.22a.83.83,0,0,1,.21-.39.19.19,0,0,1,.18,0c.79.81,1.48,1.72,2.29,2.51l1.39,1.48c.15.28.53.31.65.62a3.32,3.32,0,0,0-.94,1.45c-.36.93-.85,1.79-1.3,2.68q-5.46,10.64-10.94,21.27c-1.38,2.67-2.63,5.39-4,8-.13.26-.18.53-.29.79A.23.23,0,0,1,137.11,207.5Z"/><path class="cls-16" d="M112.39,219.26c-.19.41,0,.85-.1,1.26s-.4.26-.63.22c-2.08-.38-4.16-.72-6.24-1.09s-4-.69-5.92-1.05c-3.8-.68-7.6-1.33-11.4-2l-8.4-1.47c-1.19-.21-2.37-.43-3.56-.59l-4.62-.76,3.12-5.2c.08-.09.1-.24.26-.24,4.11,1.19,8.23,2.31,12.33,3.55l1.8.52c7.35,2.09,14.68,4.25,22,6.33a2.91,2.91,0,0,0,1.31.17A.25.25,0,0,1,112.39,219.26Z"/><path class="cls-18" d="M128.12,224c.59-.63,1.16-1.26,1.77-1.88,1.28-1.3,2.59-2.58,3.88-3.87.06-.46.54-.63.71-1a2.18,2.18,0,0,1,.44-.47,21.62,21.62,0,0,0,2.15-2.13c1.21-1.15,2.36-2.36,3.51-3.56l.28-.23.12-.12a3,3,0,0,1,.63-.49,41.61,41.61,0,0,0,3-2.94c2.13-2.13,4.23-4.29,6.37-6.42a1.62,1.62,0,0,0,.38-.52,3.9,3.9,0,0,1,.82-1c2.25-2.2,4.45-4.45,6.67-6.69,3.23-3.26,6.45-6.54,9.7-9.78a3.89,3.89,0,0,1,.47-.44.81.81,0,0,1,.48-.09c.65-.15,1,.34,1.22.76s-.06.85-.39,1.19l-11.12,11.23-28,28.23-.34.3c-.19.6-.75.91-1.1,1.38a1.54,1.54,0,0,1-.61.31,1.17,1.17,0,0,1-1.24-.93A.79.79,0,0,1,128.12,224Z"/><path class="cls-15" d="M128,224.86a1.74,1.74,0,0,0,1.23.84.54.54,0,0,1,.3.33,29.21,29.21,0,0,1,.94,2.92.53.53,0,0,1-.06.49,4.22,4.22,0,0,1-4.11-1.29c-.66-.75-.65-.84,0-1.57Z"/><path class="cls-19" d="M129.78,225.4c.25-.55.78-.85,1.14-1.3a5.57,5.57,0,0,0,2.05.43.67.67,0,0,1,.67.8,4.15,4.15,0,0,1-2.62,3.88c-.06-.06,0,0-.06,0A8.86,8.86,0,0,1,129.78,225.4Z"/><path class="cls-20" d="M76.14,214.54c.34-.19.68,0,1,0q5.7,1,11.39,2L102,219c2.65.47,5.31.91,8,1.37l1.78.33a.51.51,0,0,0,.59-.14c0,.16.09.31.13.46l-9.63-1.7-26-4.56C76.59,214.68,76.37,214.6,76.14,214.54Z"/><path class="cls-21" d="M139.55,164.94l-.35.09a.55.55,0,0,1-.39.21c-1.5.35-3,.63-4.53,1a.53.53,0,0,1-.44,0c-.23-.11-.54.13-.75-.15l5.84-1.21C139.16,164.78,139.39,164.66,139.55,164.94Z"/><path class="cls-22" d="M111.05,168.6l-.45-.13a12.44,12.44,0,0,0,2.89-1.87c.75-.5,1.46-1.06,2.18-1.58.17-.13.33-.31.57-.14l-.2.2a9.93,9.93,0,0,1-1.8,1.43c-.81.64-1.67,1.21-2.51,1.81C111.53,168.47,111.34,168.68,111.05,168.6Z"/><path class="cls-23" d="M150.59,168.74l-.12,0a1,1,0,0,1-.62.14c-1.6,0-3.2,0-4.8,0-.25,0-.53,0-.72-.19l-.09-.23c1.78.13,3.57,0,5.36.05a2.23,2.23,0,0,1,1,.08.09.09,0,0,1,.06.08A.16.16,0,0,1,150.59,168.74Z"/><path class="cls-24" d="M160.58,174.41l-.24,0a2.2,2.2,0,0,1-1.19-.12c-1.2-.23-2.38-.51-3.58-.75a1.27,1.27,0,0,1-.65-.25c-.22-.19-.54-.28-.61-.62,1.09.71,2.37.69,3.56,1,.79.21,1.6.34,2.4.5A.39.39,0,0,1,160.58,174.41Z"/><path class="cls-25" d="M78.79,192c.41.56,0,1.15,0,1.71-.07,1.34-.26,2.67-.4,4l-.24.07Q78.47,194.91,78.79,192Z"/><path class="cls-26" d="M93.2,176.76l.59-1.26a4.23,4.23,0,0,0,.44-.69,1.24,1.24,0,0,1,1.39-.74c-.25.18-.65.08-.83.41-.29.72-.8,1.32-1.13,2C93.58,176.67,93.45,176.85,93.2,176.76Z"/><path class="cls-27" d="M150.59,168.74l0-.14a18.4,18.4,0,0,1,2.36,2.63c-.65-.33-.95-1-1.46-1.48A9.27,9.27,0,0,1,150.59,168.74Z"/><path class="cls-28" d="M140.81,165.88a2.14,2.14,0,0,1-.9-.67A1.31,1.31,0,0,1,140.81,165.88Z"/><path class="cls-29" d="M78.86,191.46l.25-.07c.12.19-.07.29-.12.43l-.17,0Z"/><path class="cls-16" d="M79,191.82l.12-.43L84,187.92a29.6,29.6,0,0,1,3,2.29q2.52,2,5.06,4.06c5.71,4.56,11.38,9.17,17.1,13.73,1.57,1.25,3.15,2.49,4.68,3.79.21.17.46.25.66.42a.19.19,0,0,1,0,.26,3,3,0,0,0-.81,1.62.15.15,0,0,1-.23.08c-.15-.5-.65-.62-1-.85-2.75-1.83-5.53-3.63-8.31-5.42s-5.39-3.46-8.07-5.21c-2.36-1.53-4.7-3.1-7.06-4.63s-4.91-3.16-7.37-4.75c-.57-.37-1.13-.77-1.71-1.15C79.6,192,79.35,191.75,79,191.82Z"/><path class="cls-16" d="M85.85,182.25a5.21,5.21,0,0,1,1.91-1c1.28-.62,2.64-1.07,3.88-1.77,1.26,1.48,2.47,3,3.72,4.48q8.72,10.35,17.4,20.73l3.21,3.82a3.16,3.16,0,0,0,.75.71.21.21,0,0,1-.07.34,2.68,2.68,0,0,0-1.19,1.38.25.25,0,0,1-.27.06c-2-2.09-4.16-4.09-6.23-6.14q-4-4-8.11-7.93c-3.82-3.72-7.63-7.46-11.46-11.18C88.2,184.6,87,183.48,85.85,182.25Z"/><path class="cls-16" d="M160.55,174.66a1.14,1.14,0,0,1,.44.53c.9,1.58,1.72,3.21,2.72,4.72l0,.13a1.42,1.42,0,0,1-.4.65c-5.47,6.86-10.87,13.78-16.34,20.64-2.11,2.65-4.2,5.33-6.32,8a2.21,2.21,0,0,1-.57.61.34.34,0,0,1-.28,0c-.46-.37-.7-.95-1.24-1.23a.15.15,0,0,1-.07-.16c2.22-3.3,4.33-6.66,6.5-10q2.61-4,5.2-8,5-7.69,10-15.4C160.29,174.93,160.35,174.74,160.55,174.66Z"/><path class="cls-30" d="M131.84,205l.27.29c-.59,3.23-1.17,6.46-1.77,9.68,0,.21.12.62-.38.57s-.58-.27-.54-.73c.28-3.29.52-6.58.78-9.87l.31-.19A1.65,1.65,0,0,1,131.84,205Z"/><path class="cls-30" d="M128,204.57l.37.16q.09,5,.16,10c0,.26.18.61-.37.62s-.51-.25-.55-.59c-.36-3.2-.73-6.39-1.09-9.58,0-.1,0-.21-.07-.31l.45-.2A1.29,1.29,0,0,1,128,204.57Z"/><path class="cls-30" d="M135.54,206.4l.05.14c-1.2,3.05-2.41,6.11-3.62,9.15-.08.2,0,.64-.48.48s-.5-.39-.37-.84c.93-3.19,1.82-6.39,2.73-9.59l.26,0A2,2,0,0,1,135.54,206.4Z"/><path class="cls-31" d="M138.58,208.55l0,.14c-1.76,2.71-3.51,5.43-5.29,8.14-.1.16-.12.61-.51.34a.55.55,0,0,1-.24-.81q2.3-4.41,4.55-8.86l.31.06A2.21,2.21,0,0,1,138.58,208.55Z"/><path class="cls-30" d="M120.94,206.28l.23.07q2,4.53,3.89,9.05c.13.29.32.58-.14.8s-.54-.15-.69-.41l-4.64-8.39.06-.42A4.62,4.62,0,0,0,120.94,206.28Z"/><path class="cls-30" d="M122.88,205.67a3,3,0,0,1,1.79-.56c.71,3.25,1.41,6.49,2.11,9.74.06.28.17.57-.29.7s-.49-.17-.58-.45Z"/><path class="cls-32" d="M135,216.91l-.35.42c-.18.11-.3.3-.48.43s-.18.12-.26,0,0-.16.06-.24l.83-1.09a2.07,2.07,0,0,0,.61-.74h0a4.79,4.79,0,0,0,.88-1.12l3.58-4.51c.57.12.74.57.86,1.05a5.82,5.82,0,0,1-1.19,1.33c-.76.78-1.55,1.53-2.32,2.29S135.68,216.15,135,216.91Z"/><path class="cls-33" d="M133.94,217.51c0,.09-.06.32.17.17s.28-.32.51-.35c-.28.31-.56.63-.85.94C133.23,217.88,133.71,217.72,133.94,217.51Z"/><path class="cls-34" d="M140.7,211.11c-.32-.32-.48-.77-.86-1.05v-.14l.22-.08a2.52,2.52,0,0,1,.9,1.09A.25.25,0,0,1,140.7,211.11Z"/><path class="cls-33" d="M136.26,214.57a1.72,1.72,0,0,1-.88,1.12A5,5,0,0,1,136.26,214.57Z"/><path class="cls-33" d="M135.38,215.68a.83.83,0,0,1-.61.74A2.42,2.42,0,0,1,135.38,215.68Z"/><path class="cls-17" d="M112.38,217.78a3,3,0,0,1-.1,1.12c-.08.26-.21.29-.48.21q-7.26-2.12-14.54-4.19c-2.73-.79-5.47-1.56-8.2-2.34l-13.61-3.92a1.15,1.15,0,0,1-.57-.26c-.12-1-.28-2.07-.34-3.11a15.18,15.18,0,0,1-.21-2.86,33.31,33.31,0,0,1,3.48,1.34c2.53,1,5,2,7.56,3,2.78,1.1,5.54,2.23,8.32,3.33l9.18,3.61q4.14,1.63,8.26,3.31C111.59,217.17,112.17,217.18,112.38,217.78Z"/><path class="cls-17" d="M117.68,208.41a6.15,6.15,0,0,1-1,.88c-.29.07-.45-.12-.6-.3q-5.37-6.45-10.75-12.89Q99,188.45,92.54,180.81a3.09,3.09,0,0,1-.9-1.32c.46-.94,1-1.84,1.56-2.73.62-.48.72-1.3,1.22-1.86.12-.14.17-.35.37-.42q4.78,7,9.57,13.94c2.56,3.72,5.09,7.46,7.65,11.18,1.77,2.59,3.57,5.16,5.34,7.76C117.55,207.66,118,207.92,117.68,208.41Z"/><path class="cls-17" d="M128,204.57a2.41,2.41,0,0,1-1.1.06c-.35,0-.46-.2-.5-.58-.53-4.88-1.1-9.77-1.66-14.65l-1.23-10.61c-.47-4-.93-8.06-1.42-12.09a.68.68,0,0,1,.22-.61c1.61-.78,3.23-1.53,4.9-2.16.41-.15.53,0,.54.42,0,4.13.1,8.27.18,12.4.06,3.79.16,7.58.22,11.37.06,3.35.09,6.71.14,10.07,0,1.89.06,3.79.1,5.68C128.43,204.18,128.44,204.49,128,204.57Z"/><path class="cls-17" d="M111.05,168.6l4.65-3.34a2.21,2.21,0,0,1,.34-.18c.46,1.72.8,3.47,1.16,5.21.3,1.48.65,2.94,1,4.41s.62,3,.93,4.47c.22,1,.46,2.06.68,3.08.33,1.58.66,3.15,1,4.73.22,1,.46,2.05.68,3.08.34,1.57.66,3.15,1,4.72s.63,2.85.94,4.28c.39,1.78.77,3.57,1.17,5.35a.43.43,0,0,1-.35.57l-1.37.42-9.7-30.25C112.44,173,111.74,170.78,111.05,168.6Z"/><path class="cls-17" d="M131.84,205a4.67,4.67,0,0,1-1.33-.25.74.74,0,0,1-.2-.58q.74-9,1.45-18.11c.35-4.34.68-8.68,1-13,.17-2.07.37-4.13.51-6.19a.63.63,0,0,1,.54-.67A49.16,49.16,0,0,1,139.2,165c.35.28.1.63.05.9-.77,4.42-1.57,8.83-2.37,13.24q-1.24,6.87-2.48,13.75c-.54,3-1.09,6-1.63,9-.15.8-.29,1.61-.44,2.42C132.28,204.66,132.26,205,131.84,205Z"/><path class="cls-17" d="M135.54,206.4l-1.43-.69a1.06,1.06,0,0,1,0-.87l4-14.25q2.46-8.7,4.93-17.4c.42-1.5.82-3,1.23-4.49l5.69,0,.45,0a29.84,29.84,0,0,1-1.23,3.26c-1,2.75-2.12,5.49-3.21,8.23s-2.24,5.55-3.33,8.33c-1.16,2.95-2.28,5.9-3.44,8.85s-2.29,5.75-3.43,8.64A.57.57,0,0,1,135.54,206.4Z"/><path class="cls-17" d="M138.58,208.55a6.89,6.89,0,0,1-1.16-1c-.15-.32,0-.58.17-.85,5.18-10.38,10.56-20.66,15.84-31,.32-.61.59-1.25.87-1.88a.79.79,0,0,1,.62-.51c1.83.28,3.62.72,5.42,1.12l.21.21a25.65,25.65,0,0,1-1.91,3.13c-1.24,2-2.55,3.93-3.83,5.89l-4.45,6.87c-1.77,2.75-3.52,5.51-5.29,8.25s-3.53,5.4-5.28,8.1A5.63,5.63,0,0,1,138.58,208.55Z"/><path class="cls-17" d="M141,210.93c-.45-.23-.63-.7-.9-1.09q3.09-3.85,6.17-7.74,3.95-5,7.88-10,4.68-5.93,9.39-11.85a1.57,1.57,0,0,1,.25-.2l4.84,2.12a.74.74,0,0,1,.48.4l-6.45,6.55-10.68,10.77c-.16.17-.31.36-.47.54a24.62,24.62,0,0,1-2,2.08c-1.47,1.51-3,3-4.45,4.5a1,1,0,0,0-.48.37.71.71,0,0,1-.13.12c-.83.86-1.71,1.66-2.51,2.54a.68.68,0,0,1-.17.21,2,2,0,0,0-.76.68Z"/><path class="cls-35" d="M144.89,206.94l5.38-5.37c.39-.39.8-.77,1.2-1.15-.16.65-.76,1-1.17,1.4-2.74,2.81-5.53,5.58-8.29,8.36a.79.79,0,0,1-.44.25c0-.14,0-.21.13-.28l.06-.15c.92-.86,1.79-1.77,2.7-2.64h0C144.54,207.16,144.73,207.07,144.89,206.94Z"/><path class="cls-36" d="M129.31,224.93a.51.51,0,0,1-.63-.31.43.43,0,0,1,.3-.6.42.42,0,0,1,.6.28A.49.49,0,0,1,129.31,224.93Z"/><path class="cls-33" d="M135,216.91a9.57,9.57,0,0,1,2.22-2.18A14.3,14.3,0,0,1,135,216.91Z"/><path class="cls-34" d="M141.7,210.15c0,.09-.08.19-.13.28l-.61.49A1.23,1.23,0,0,1,141.7,210.15Z"/><path class="cls-17" d="M115.23,211a6.51,6.51,0,0,1-.84,1.25.67.67,0,0,1-.59-.2l-11.87-9.56-13.64-11-3.87-3.12a1.38,1.38,0,0,1-.43-.47c.57-1.91,1.16-3.81,1.86-5.67.46.07.66.47.94.74,2,2,4.08,4,6.11,6q5.43,5.33,10.88,10.63l7,6.82,4.1,4A1.29,1.29,0,0,1,115.23,211Z"/><path class="cls-37" d="M144.46,207.36a15.69,15.69,0,0,1-2.7,2.64A16.86,16.86,0,0,1,144.46,207.36Z"/><path class="cls-37" d="M144.89,206.94a.92.92,0,0,1-.43.42C144.46,207.07,144.66,207,144.89,206.94Z"/><path class="cls-5" d="M118,231.8c-3.59-.26-4.58-2.8-5-5.77-.63-4.26.85-8.1,2.44-11.91,1.78-2,2.2-4.88,4.32-6.65,3.47.79,5.26-2.13,8.5-3.2-3.39-1-4.83,2.24-7.42,1.68l2.26-3.12c1-.79,2-1.63,3.08-2.38s2.39-2,3.79-1.11.19,2.37.12,3.76c3-.06,6.08-.11,9,.88,3.56,1.19,3.76,1.78,1.39,4.69,1.07.92,3.17,1.08,2.88,3.05-.36,2.43-2.77,2.18-4.42,2.89a8.09,8.09,0,0,1,1.06,2.12c.08.44-.51,1.44-.78,1.43-3.62-.1-1.81,6.79-6.72,5.09-3.24-1.12-5.52-.07-7.23,3.25C123.89,229.23,121,230.82,118,231.8Zm15.4-13.33.32.1-.33-.09c-1.26-2.71-3.42-1.83-5.48-1.3C129.66,218,131.37,219,133.43,218.47Zm2.11-4.95c-1.87-2-4-2.23-6.81-1Z"/><path class="cls-2" d="M120.84,206c2.59.56,4-2.72,7.42-1.68-3.24,1.07-5,4-8.5,3.2A1.85,1.85,0,0,1,120.84,206Z"/><path class="cls-2" d="M133.43,218.47c-2.06.48-3.77-.43-5.49-1.29,2.06-.53,4.22-1.41,5.48,1.3Z"/><path class="cls-2" d="M135.54,213.52l-6.81-1C131.57,211.29,133.67,211.54,135.54,213.52Z"/><path class="cls-5" d="M38.12,221.57s.84,42.36,6.72,44.56S69.3,278.69,118,231.8l-5-10.68S62.6,247.32,60.92,244.2s-4.11-9.31-.08-23.73"/><path class="cls-5" d="M39.92,194.55s-13.8,39.62,4.92,71.58"/></g></g></svg>