<svg xmlns="http://www.w3.org/2000/svg" viewBox="0 0 149.96 196.63"><defs><style>.cls-1{fill:#ba5c1c;}.cls-2{fill:#2c222b;}.cls-3{fill:#b27246;}.cls-4{fill:#c28155;}.cls-5{fill:#65c8d0;}.cls-6{fill:#fff;}.cls-7{fill:#5774b3;}.cls-8{fill:#4e659a;}.cls-9{fill:#4d2f1f;}.cls-10{fill:none;stroke:#4a4662;stroke-miterlimit:10;stroke-width:2px;}.cls-11{fill:#f6d532;}.cls-12{fill:#f4d438;}.cls-13{fill:#e6b241;}.cls-14{fill:#b3653e;}.cls-15{fill:#eca816;}.cls-16{fill:#fed200;}.cls-17{fill:#904126;}.cls-18{fill:#b4653e;}.cls-19{fill:#e5b141;}.cls-20{fill:#fdf9c6;}.cls-21{fill:#f6d73d;}.cls-22{fill:#f7d83d;}.cls-23{fill:#fef8be;}.cls-24{fill:#f5d432;}.cls-25{fill:#f5d73e;}.cls-26{fill:#e8b649;}.cls-27{fill:#fdefc3;}.cls-28{fill:#f7e281;}.cls-29{fill:#fdfdfc;}.cls-30{fill:#fdfcfc;}.cls-31{fill:#fdfcfb;}.cls-32{fill:#fcf6f2;}.cls-33{fill:#f5cb2e;}.cls-34{fill:#97500d;}.cls-35{fill:#b2633e;}.cls-36{fill:#f7c319;}</style></defs><g id="Layer_2" data-name="Layer 2"><g id="Layer_2-2" data-name="Layer 2"><path class="cls-1" d="M78.48,75.81s.37-2.6-5.4-4.24"/><path class="cls-2" d="M56.51.14A21.89,21.89,0,0,0,58.8.08C64-.29,82.3-.09,97.34,19c17.7,22.49,14,123.68,14,123.68H18.12S11,57.76,26.29,27.38C39.43,1.26,53,0,56.51.14Z"/><path class="cls-3" d="M48.12,82.14s5.56,10.19,1.59,15.55,35.43,1.07,35.43,1.07S76,85.63,79.78,80.8,48.12,82.14,48.12,82.14Z"/><path class="cls-4" d="M97.32,61.89A17.5,17.5,0,0,1,86.67,81.22l-.14,0c-15.74,6.07-31.55,5.22-47.38.4C33,79.82,28,76.52,25,70.65c.52-2.39,0-3.94-2.46-5.3-6.05-3.39-8.46-9.2-8.78-15.8-.17-3.21.91-6.14,5-6.49,5.07-.44,8,1.33,9,5.36a45.25,45.25,0,0,0,1.88,5.85c.41,1,.93,2.3,2.4,2.17a2.51,2.51,0,0,0,2.38-2.25c.07-2.85,2.14-4.26,3.67-6.15a13.5,13.5,0,0,0,.82-1.14c2.74-4.14,2.54-8.75,1.5-13.44-.06-.3-.13-.6-.2-.9.23-.13.48-.25.71-.36,6-3,12.47-4.21,18.93-5.34,11-1.92,22.13-2.49,33.13.57,2,6.75,2.14,13.67,2,20.62.24,2.13.58,4.24,1,6.34C96.37,56.89,96.87,59.39,97.32,61.89Z"/><path class="cls-4" d="M40.21,32.56C65-1.88,93,27.43,93,27.43"/><path class="cls-1" d="M18.24,47.48c.65,3.1,3.82,5.47,2.39,9.3-.32.84,1.45,2.8,3,2.51s2-2.18,1.59-3.57c-1-3.74-2.83-7-6.86-8.35Z"/><path class="cls-2" d="M28.38,50.66s-.75,14.45-4.77,23.57,12.6,13.64,12.6,13.64S46.6,64.39,41,37"/><path class="cls-1" d="M70.93,66.63c5.51-1.49,6.81-4.27,4.46-9.35-1.64-3.56-3.19-7.17-4.81-10.81-1.94.79-1.3,2.3-.93,3.36a41.69,41.69,0,0,0,3.28,7.63c2.2,3.65,1.53,6-2.5,7.3C70.6,65.38,70.76,66,70.93,66.63Z"/><path class="cls-1" d="M76,71.5c-.31,1.84,1.94,2,2.49,4.31-4.64-1.86-9-2.54-14.44-.54,2.64-4.5,6.12-3.41,9-3.7,1-.09.15-.3,1.12-.22Z"/><path class="cls-1" d="M65.83,75.38s3.49,3.33,11.15.5A15.87,15.87,0,0,0,65.83,75.38Z"/><path class="cls-4" d="M72.88,71.59s4.43,1.08,5.36,3.2,3.59-4.85,3.59-4.85H73.51Z"/><path class="cls-5" d="M46.67,36l-.21-.19c0-.05-.07,0-.49-1a6.55,6.55,0,0,1-.53-2.32s-.86,2-1.29,3.21a2.54,2.54,0,0,0-.22.64,1.05,1.05,0,0,0,0,.13,3.39,3.39,0,0,0-.06.64c0,1.35.71,2.45,1.59,2.45S47,38.53,47,37.18v0A1.94,1.94,0,0,0,46.67,36Z"/><path class="cls-5" d="M49.35,47.32l-.21-.19c0-.06-.07,0-.49-1a6.55,6.55,0,0,1-.53-2.33s-.86,2-1.29,3.21a2.61,2.61,0,0,0-.21.65.39.39,0,0,0,0,.13,3.31,3.31,0,0,0-.06.64c0,1.35.71,2.45,1.59,2.45s1.59-1.1,1.59-2.45v-.05A1.94,1.94,0,0,0,49.35,47.32Z"/><path class="cls-2" d="M52.2,42.8a25.27,25.27,0,0,0,11.3-2.59c.9-.42,1.37-.93.31-1.4a6.25,6.25,0,0,0-4.15-.09,49.07,49.07,0,0,1-9.26,1.79c-2,.2-4,.48-3.33,1.44S50,42.77,52.2,42.8Z"/><path class="cls-2" d="M85.73,38.28a25.14,25.14,0,0,1-11.59.24c-1-.19-1.56-.57-.64-1.28a6.24,6.24,0,0,1,4-1.1,49.24,49.24,0,0,0,9.41-.51c2-.3,4-.52,3.59.58S87.9,37.71,85.73,38.28Z"/><circle class="cls-2" cx="57.27" cy="48.23" r="3.11"/><ellipse class="cls-6" cx="56.92" cy="47.55" rx="0.79" ry="0.62" transform="translate(-15.48 31.46) rotate(-27.35)"/><circle class="cls-2" cx="82.06" cy="45.88" r="3.11"/><ellipse class="cls-6" cx="81.08" cy="45.41" rx="0.79" ry="0.62" transform="translate(-11.8 42.32) rotate(-27.35)"/><path class="cls-2" d="M17.26,72.57S6.72,174.55,0,185.28l30.6,4.25,4.51-98.22Z"/><path class="cls-2" d="M111.34,189.53l1.12-.14,24.34-3-8.62-15.36H105.51Z"/><path class="cls-7" d="M107.58,196.63H42.9c-1.35-4.12-4.33-7.21-6.72-10.68-4.42-6.42-8.27-12.87-9.16-21.15-.94-8.74,1.37-16.72,3.06-24.93.42-2,1.13-4-.5-5.75.2-5.92,2.31-11.57,2.24-17.55-.11-8.84,0-8.84,8.83-10.26a24.34,24.34,0,0,0,2.29,11.11h0c1.14,2.6.08,6.12,3.31,7.84v0c.82,6.4,5.39,11.13,10.09,13.48,8.33,4.18,17.75,5.43,27,1.5,1.9-.8,3.32-1.48,3-3.81,8.64-3,12.57-8.92,12.53-18.19,0-8.11,2.88-10.81,9.82-10.82,0,6,0,12.06,0,18.09,0,1.75-.5,3.86,2.21,4.23.29.38-.5,1.51.82,1.18l-.83-1.17,0-22.29a1.49,1.49,0,0,1,.52-.16c.14,0,.37.15.39.26.84,6.33-.7,12.78,1.08,19.1a9.39,9.39,0,0,1-.79,7.48c-2.4,3.37-.11,6.14,1.15,9.05.36,1.43.73,2.87,1.1,4.3a5.93,5.93,0,0,0,2.2,4.61v4.32c.29,14.3-6.28,24.49-19.91,30.59,4.28,1.72,8-1.5,10.14.54S107.28,193.54,107.58,196.63Z"/><path class="cls-4" d="M146.65,178.81c.16,6.12,2.68,11.79,3.31,17.82H131a71.35,71.35,0,0,0-.23-7.75c-2.66-19.84-6.7-39.55-5.36-59.76.26-3.92.75-8.08-5.06-8.52a2.09,2.09,0,0,1-1.41-1.42c-.58-4.9-4.86-8.81-3.75-14.13,0-.29.08-.58.11-.87l1.21-.37,1.09-.08,2.25.4a16.73,16.73,0,0,0,7.22,4c6.17,1.91,9.1,7,10.39,12.2,3.26,13,4.83,26.34,6,39.75C144,166.29,143.92,172.84,146.65,178.81Z"/><path class="cls-4" d="M115.19,105.05c-1.11,5.32,3.17,9.23,3.75,14.13a2.09,2.09,0,0,0,1.41,1.42c5.81.44,5.32,4.6,5.06,8.52-1.34,20.21,2.7,39.92,5.36,59.76a71.35,71.35,0,0,1,.23,7.75h-4.46c-.79-8.22-2.62-16.33-2.35-24.67a4,4,0,0,0-2.79-4.33q-.36-9-.73-17.9l.09-6.66c2.57-3.91.87-8.06,1.18-12.84-2.65,2.92-3.43,5.59-3.19,8.6l-2-.15c-2.25-7.89-2.6-16.05-3.31-24.14C113.2,111.35,112.44,107.81,115.19,105.05Z"/><path class="cls-4" d="M30.4,105.54l0,22.19,0,7.63v3.29l-1.77-.26-2-.3-.57-.08q.07.48.18.93a15.44,15.44,0,0,1-1.15,1.94c-1.72,6.65-4.31,13.09-4.75,20,0,1.13,0,2.26,0,3.39.15.8.29,1.59.42,2.39C9,155.85,4.08,138.22,4.08,138.22A116.6,116.6,0,0,1,5,114C7,100.63,30.4,105.54,30.4,105.54Z"/><path class="cls-8" d="M29,145a12.94,12.94,0,0,1-1.63-2.68c.45-1.3.87-2.61,1.24-3.93a40.75,40.75,0,0,0,1-4.27,3.72,3.72,0,0,1,.77,1.24,5.52,5.52,0,0,1,0,3.27v0c-.09.4-.19.8-.27,1.21C29.73,141.58,29.35,143.29,29,145Z"/><path class="cls-8" d="M27.29,196.63c.33-4.41-1.92-8.63-.92-13.08A7.32,7.32,0,0,0,26,178.3a53.2,53.2,0,0,1-2.68-9.38,31.63,31.63,0,0,0,5.36,3.33A57.78,57.78,0,0,0,36.18,186c2.39,3.47,5.37,6.56,6.72,10.68Z"/><path class="cls-8" d="M26.43,139.08c1.47,5.65,5.9,10,6.6,16a10.21,10.21,0,0,0,2.61,6.43,73.4,73.4,0,0,1,7.11,10.65,39.26,39.26,0,0,0-7.71-2c-4.11-5.52-9.19-9.9-14.55-14.16-4.27-3.38-9.08-6.06-12.4-10.68Z"/><path class="cls-8" d="M107.58,196.63c-.3-3.09,1.38-7-.81-9.09s-5.86,1.18-10.14-.54c13.63-6.1,20.2-16.29,19.91-30.59,4,1.69,2.1,4.93,1.72,7.51-.84,5.69-3.12,11.26-.88,17.1-2.74,4.94-2.24,10.29-2,15.61Z"/><path class="cls-4" d="M121.4,167.63a4,4,0,0,1,2.79,4.33c-.27,8.34,1.56,16.45,2.35,24.67h-4.46Q121,186.52,120,176.41C119.69,173.36,120.73,170.53,121.4,167.63Z"/><path class="cls-8" d="M26,178.3a7.32,7.32,0,0,1,.34,5.25c-1.68-1.62-2-3.88-2.8-5.93-1.61-3.48-2.22-7.21-2.86-10.93.84.78,1.72,1.53,2.64,2.23A53.2,53.2,0,0,0,26,178.3Z"/><path class="cls-8" d="M120,176.41c-1.69,1.07-1.49,3.2-2.58,4.61-2.24-5.84,0-11.42.88-17.1.38-2.58,2.31-5.82-1.72-7.51v-4.32c1.76-2.73.11-3.83-2.2-4.61l-1.11-4.31c2.41-3.36.32-6.16-1.14-9a9.39,9.39,0,0,0,.79-7.48c-1.78-6.33-.24-12.77-1.08-19.1,0-.11-.25-.25-.39-.26a1.49,1.49,0,0,0-.52.16l-2.17,0c-6.94,0-9.86,2.71-9.82,10.82,0,9.27-3.89,15.2-12.53,18.19l-5.6,2.3-.89.84-.22.21c-.35,0-.69,0-1,0H65.2c-3.15-.53-5.63-2.24-8.29-4-4.37-2.81-6.43-7.73-10.64-10.56v0c-.82-2.73.11-6.18-3.3-7.82h0c-.09-3.84.53-7.83-2.29-11.11-8.82,1.42-8.94,1.42-8.83,10.26,0,3.8-.79,7.47-1.45,11.16a42.75,42.75,0,0,0-.79,6.39,40.75,40.75,0,0,1-1,4.27c-.37,1.32-.79,2.63-1.24,3.93a16,16,0,0,1-1.11-3.38c.14-.28.27-.56.39-.85,1.68-3.91,1.77-8.22,2.16-12.43.61-6.69,1.09-13.41,1.62-20.12l.09-1.22,2.37-.15c1.54,1.25,2.94-.45,4.43-.22l2.37,0c.9.21,1.73.24,2.22-.75H42c1.15.1,2.41-.18,3.2,1a32.58,32.58,0,0,0,4.7,19.69c9,15,24.67,19.11,37.15,8,8.13-7.21,10.64-17,10.29-27.66l1.55-.89L102,103c2.83,2.08,5.88,1.13,8.9.62h2.37l2,.6c0,.29-.07.58-.11.86-2.75,2.76-2,6.31-1.71,9.5.71,8.09,1.06,16.25,3.31,24.14l3.88,11q.36,9,.73,17.91C120.73,170.53,119.69,173.36,120,176.41Z"/><path class="cls-8" d="M108.72,107.41l2.17,0,0,22.29h0c-2.71-.37-2.2-2.48-2.21-4.23C108.69,119.47,108.72,113.44,108.72,107.41Z"/><path class="cls-8" d="M46.26,125.25c4.22,2.82,6.28,7.75,10.65,10.57,2.66,1.71,5.14,3.42,8.29,4a17.67,17.67,0,0,0,13.42,0c.35,0,.69,0,1,0l1.11-1.05,5.6-2.3c.34,2.33-1.08,3-3,3.81-9.29,3.93-18.71,2.68-27-1.5C51.65,136.38,47.08,131.65,46.26,125.25Z"/><path class="cls-8" d="M112.09,134.13c1.46,2.88,3.55,5.68,1.14,9C112,140.27,109.69,137.5,112.09,134.13Z"/><path class="cls-8" d="M40.65,106.31c2.82,3.28,2.2,7.27,2.29,11.11A24.34,24.34,0,0,1,40.65,106.31Z"/><path class="cls-8" d="M43,117.43c3.42,1.64,2.48,5.11,3.31,7.84C43,123.55,44.1,120,43,117.43Z"/><path class="cls-8" d="M114.34,147.48c2.31.79,4,1.89,2.2,4.61A5.93,5.93,0,0,1,114.34,147.48Z"/><path class="cls-8" d="M110.92,129.74l.83,1.17c-1.32.33-.53-.8-.82-1.18Z"/><path class="cls-9" d="M116.51,103.81c.32-.51.68-.6,1.09-.08Z"/><path class="cls-4" d="M118.75,138.83c-.24-3,.54-5.68,3.19-8.6-.31,4.78,1.39,8.93-1.18,12.84Z"/><path class="cls-4" d="M118.75,138.83l2,4.24-.09,6.66q-1.94-5.53-3.88-11Z"/><path class="cls-3" d="M45.24,104.21l5.31-.76c1.06,2,2.62,3.16,4.9,2.09,2.72-1.29,5-3,5.31-6.43s-1.15-7.33,1.13-10.69L63,89.56a11.87,11.87,0,0,0,1.25,3c6.49,8.27,14.13,14.47,25.33,15,3.18.17,6.3,1.77,6.81-3.17a1.54,1.54,0,0,1,1-.13c.35,10.63-2.16,20.45-10.29,27.66-12.48,11.08-28.16,7-37.15-8A32.58,32.58,0,0,1,45.24,104.21Z"/><path class="cls-7" d="M78.62,139.77a17.67,17.67,0,0,1-13.42,0Z"/><path class="cls-7" d="M80.77,138.72l-1.11,1.05Z"/><path class="cls-3" d="M49.71,97.69a13.24,13.24,0,0,1-4.47,6.52c-3.77,3.24,3.37-.48,3.37-.48l7.07.08-6-6.12"/><path class="cls-10" d="M140.48,108.77c2.8-5.7-.77-13.18-8-16.73"/><path class="cls-10" d="M144.3,111.19c4.11-8.37-1.13-19.35-11.72-24.56"/><path class="cls-10" d="M37.16,137.12c-5.32-3.48-6.07-11.74-1.67-18.46"/><path class="cls-10" d="M35.11,141.15c-7.81-5.1-8.9-17.23-2.45-27.11"/><path class="cls-11" d="M40.84,125l-.24.19c-.19-1.86-.37-3.73-.55-5.59,0-.25-.14-.51.05-.74l.19.18a1.52,1.52,0,0,1,.17.81c.17,1.4.31,2.8.45,4.21A1.59,1.59,0,0,1,40.84,125Z"/><path class="cls-12" d="M135.46,99l-.43.16c-1.61-.76-3.24-1.48-4.88-2.18a1.53,1.53,0,0,1-.44-.27.27.27,0,0,1-.06-.17.14.14,0,0,1,.15-.07C131.7,97.33,133.62,98.1,135.46,99Z"/><path class="cls-13" d="M129.8,96.51l-.13,0c-.47-.11-.59-.55-.78-.89-.68-1.25-1.43-2.47-2.1-3.73a3.14,3.14,0,0,0-.33-.48.47.47,0,0,1-.18-.36c.07-.09.16-.13.26,0a1.09,1.09,0,0,1,.46.51Z"/><path class="cls-14" d="M94.08,140.67c-.13-.32-.44-.24-.67-.29l-14.47-2.62a5.66,5.66,0,0,1-.56-.13.61.61,0,0,1-.24-.43c0-.45-.17-.92.15-1.34.31-.15.6,0,.88.1,2.51.74,5,1.48,7.54,2.18.22.06.57.31.68,0s-.3-.42-.55-.52c-2.62-1-5.22-2.07-7.83-3.1a1.31,1.31,0,0,1-.57-.3,2.07,2.07,0,0,1,.4-1.81c.35-.13.62.1.9.25l7.32,3.75c.18.09.43.4.6.11s-.17-.43-.38-.57c-2.43-1.6-4.89-3.16-7.32-4.78a1.15,1.15,0,0,1-.48-.42,1.89,1.89,0,0,1,.92-1.7,1.61,1.61,0,0,1,.7.44c2.21,1.73,4.35,3.54,6.57,5.26.19.15.4.5.64.26s-.07-.51-.26-.69c-2-1.93-3.94-3.87-5.93-5.78-.31-.3-.69-.54-.79-1a1.74,1.74,0,0,1,1.32-1.37,2.57,2.57,0,0,1,.79.75c1.74,2.12,3.52,4.2,5.27,6.3.06.07,0,0,.05.05s.34.59.64.37,0-.54-.19-.75c-1.71-2.44-3.35-4.92-5.07-7.35a1,1,0,0,1-.23-.59,2.25,2.25,0,0,1,1.21-1.1c.25-.14.45,0,.62.19,1.51,2.57,2.87,5.22,4.35,7.8.16.28.24.88.68.66s-.06-.61-.18-.91c-1-2.5-2.13-5-3.22-7.48A3.27,3.27,0,0,1,87,123a1.72,1.72,0,0,1,2-.7,2.49,2.49,0,0,1,.42.94c.85,2.65,1.7,5.31,2.56,8,.08.25.13.71.4.63s.12-.52.07-.8c-.58-2.85-1.25-5.69-1.81-8.55a1.39,1.39,0,0,1,0-.7,1.9,1.9,0,0,1,1.86-.46c.3.26.27.62.31,1,.32,2.83.68,5.66,1,8.49,0,.32-.09.91.39.87s.23-.57.23-.88c-.06-3-.1-5.92-.16-8.87a1.24,1.24,0,0,1,.07-.51,1.77,1.77,0,0,1,2,.11,5.05,5.05,0,0,1,0,1.86c-.2,2.65-.42,5.29-.63,7.94a2.11,2.11,0,0,0,0,.26c0,.18.07.35.27.38s.28-.16.31-.33c.07-.49.2-1,.28-1.46.42-2.55.94-5.09,1.37-7.64a1.86,1.86,0,0,1,.15-.56.49.49,0,0,1,.61-.2,2.56,2.56,0,0,1,1.31.56,1.46,1.46,0,0,1-.12.94c-.79,2.79-1.59,5.57-2.38,8.36,0,.16-.1.33-.14.5s0,.41.2.49.3-.17.37-.33c1.12-2.78,2.22-5.58,3.31-8.38a1.69,1.69,0,0,1,.44-.78,2.25,2.25,0,0,1,1.62,1,2.08,2.08,0,0,1-.31.77l-4,7.73c-.15.29-.48.69-.1.91s.47-.33.62-.55c1.59-2.39,3.13-4.81,4.71-7.21.12-.2.2-.44.47-.51.63.2.9.77,1.27,1.25a.57.57,0,0,1,0,.18,4.93,4.93,0,0,1-.86,1.21l-2.7,3.39c-.29.34-.56.69-.83,1a.76.76,0,0,1-.11.14,4.3,4.3,0,0,0-.52.69,7.15,7.15,0,0,1-.86,1.11.6.6,0,0,0-.21.74,25.39,25.39,0,0,1-2,2.05q-1.63,1.69-3.32,3.37C94.38,140.54,94.28,140.7,94.08,140.67Z"/><path class="cls-15" d="M78.93,132.43a3,3,0,0,0-.4,1.75.22.22,0,0,1-.21.26,8.32,8.32,0,0,0-2.46-1.13l-14.62-5.8c-7-2.78-14-5.53-20.94-8.32a.36.36,0,0,1-.2-.29c1-1.25,2.11-2.33,3.15-3.51.28-.32.58-.63.88-.94a.25.25,0,0,1,.23-.14,13.58,13.58,0,0,1,2.11,1.09c3.89,2.08,7.84,4,11.74,6.07,6.34,3.32,12.65,6.66,19,9.89.54.28,1.07.56,1.62.81A.25.25,0,0,1,78.93,132.43Z"/><path class="cls-16" d="M66.69,89.64c1.24-1.45,2.48-2.89,3.84-4.23.54-.37.7.12.83.44.37.9.79,1.78,1.16,2.67,1,2.38,2,4.72,3,7.08,1.31,3.11,2.66,6.19,4,9.29,1.14,2.68,2.3,5.35,3.46,8,1.3,3,2.57,6,3.86,9a2.2,2.2,0,0,1,.2.75A.65.65,0,0,1,87,123a2.28,2.28,0,0,1-1.35.8c-.38,0-.56-.25-.73-.55-1.54-2.77-3-5.57-4.58-8.34-2.32-4.17-4.61-8.36-6.91-12.54-2.19-4-4.37-7.95-6.58-11.91A.88.88,0,0,1,66.69,89.64Z"/><path class="cls-15" d="M66.69,89.64a22.87,22.87,0,0,0,1.59,3c1.68,3.12,3.39,6.22,5.1,9.32,1.21,2.19,2.45,4.38,3.67,6.57q2.37,4.29,4.71,8.58c1.13,2.05,2.24,4.11,3.36,6.16.1.19.22.38.49.34.13.16.15.31-.06.42-.09-.07-.17-.22-.32-.11A4,4,0,0,0,84,125a.31.31,0,0,1-.38.12,4.89,4.89,0,0,0-1-1.75Q74.19,111.1,65.79,98.77c-1.6-2.33-3.21-4.66-4.8-7-.15-.21-.34-.41-.3-.7a1.17,1.17,0,0,1,.89-.35Z"/><path class="cls-15" d="M86.9,122.93l.09-.15a.65.65,0,0,0,0-.56.93.93,0,0,1,.2-.89c.27-.38.55-.39.78,0s.51.61,1,.46c1.57-.46,1.53-.45,1.14-2.06-.54-2.29-1-4.6-1.5-6.9-.64-2.93-1.26-5.87-1.89-8.81q-.74-3.39-1.46-6.78c-.62-2.91-1.26-5.82-1.88-8.74-.48-2.24-1-4.46-1.42-6.72,0-.17.08-.32.31-.27l2.16.41c1.34.27,2.68.53,4,.86a8.52,8.52,0,0,0,.15,2.71c.54,4.57,1,9.14,1.58,13.72.75,6.37,1.47,12.75,2.22,19.12.06.52.12,1,.16,1.55a2.31,2.31,0,0,0,.45,1.39.39.39,0,0,1-.49.18,3.23,3.23,0,0,0-1.81.29,6.22,6.22,0,0,1-1.79.56,2.7,2.7,0,0,0-1.71.68C87,123.08,87,123,86.9,122.93Z"/><path class="cls-15" d="M88.8,122.05a.82.82,0,0,1-1-.66c-.1-.36-.3-.26-.44,0a.94.94,0,0,0-.24.88c.06.19.21.42-.09.56-.63-1.72-1.42-3.36-2.14-5-.6-1.4-1.18-2.81-1.78-4.21s-1.25-2.82-1.86-4.24c-.44-1-.86-2-1.29-3-.64-1.48-1.29-3-1.93-4.43-.42-1-.83-2-1.26-3-.66-1.54-1.33-3.07-2-4.61s-1.2-2.8-1.78-4.21-1.29-2.81-1.81-4.27c-.08-.23-.24-.55-.62-.38a.48.48,0,0,1,.53-.37l5.5.08c.24,0,.5-.09.64.21a4.93,4.93,0,0,1,.36,1q5.53,17.25,11.06,34.5C88.74,121.2,89,121.6,88.8,122.05Z"/><path class="cls-15" d="M96.16,121.58a2.4,2.4,0,0,0-1.8-.2c-.17,0-.36.08-.39-.19a2.06,2.06,0,0,0,.23-1.12Q94,106.8,93.74,93.52q-.1-6.06-.19-12.12a.77.77,0,0,0-.33-.78c0-.54.41-.42.7-.32a12,12,0,0,1,1.14.55c1.3.67,2.64,1.26,4,1.82.22.17.58-.17.75.2a1.71,1.71,0,0,0-.44,1.31c-.24,3-.47,6-.71,9-.72,9.07-1.46,18.13-2.16,27.19a4,4,0,0,0,0,.91A.3.3,0,0,1,96.16,121.58Z"/><path class="cls-16" d="M78.85,132.21c-.29.08-.5-.1-.73-.21-4.4-2.27-8.83-4.47-13.19-6.81C59,122,53,119,47.05,115.89a15.36,15.36,0,0,1-2.68-1.51,6.5,6.5,0,0,1,.11-2c.1-1.13.21-2.26.35-3.39a.4.4,0,0,0-.08-.36l0-.17a.53.53,0,0,1,.14-.12c.38-.13.66.1.95.29,5.87,3.85,11.76,7.65,17.64,11.48L78,129.54l1,.66a.84.84,0,0,1,.46.59C79.36,131.31,79.34,131.86,78.85,132.21Z"/><path class="cls-15" d="M99.81,122.39a2.47,2.47,0,0,0-1.74-.46.27.27,0,0,1-.29-.31,1.2,1.2,0,0,0,.37-.73c.57-3.43,1.21-6.85,1.83-10.27.75-4.17,1.49-8.33,2.27-12.49.46-2.49.89-5,1.34-7.47s1-5.22,1.41-7.84c.07-.4.06-.81.16-1.21.11-.08.23-.14.35,0l.36.27a6.57,6.57,0,0,1,.9.67l3.43,2.59a.36.36,0,0,1,.18.22,2,2,0,0,1-.15.88C108.64,92,107,97.74,105.34,103.5q-2.52,8.94-5,17.9a7.58,7.58,0,0,0-.18.95C100,122.5,99.92,122.47,99.81,122.39Z"/><path class="cls-15" d="M103.07,124.15a3.59,3.59,0,0,0-1.52-1,.27.27,0,0,1-.08-.17c1.11-2.7,2.14-5.43,3.22-8.13,2.38-6,4.71-12,7.08-17.91,1.49-3.74,2.94-7.48,4.43-11.22a.83.83,0,0,1,.21-.39.19.19,0,0,1,.18,0c.79.81,1.48,1.72,2.3,2.51l1.38,1.48c.15.28.53.31.65.61a3.38,3.38,0,0,0-.94,1.45,29,29,0,0,1-1.3,2.69q-5.46,10.64-10.94,21.27c-1.37,2.66-2.63,5.39-4,8-.13.25-.18.53-.29.79A.23.23,0,0,1,103.07,124.15Z"/><path class="cls-15" d="M78.35,135.91c-.19.41,0,.85-.1,1.26s-.4.26-.63.21c-2.08-.37-4.16-.72-6.24-1.08s-3.95-.69-5.92-1.05c-3.8-.68-7.6-1.34-11.4-2l-8.4-1.46c-1.18-.21-2.37-.43-3.56-.59l-4.62-.76,3.12-5.2c.08-.09.1-.24.26-.24,4.11,1.19,8.23,2.31,12.33,3.54.6.19,1.2.35,1.8.52,7.35,2.1,14.68,4.26,22,6.34a2.78,2.78,0,0,0,1.31.16C78.42,135.67,78.46,135.79,78.35,135.91Z"/><path class="cls-17" d="M94.08,140.67c.59-.63,1.16-1.27,1.77-1.88,1.29-1.3,2.59-2.58,3.88-3.87.06-.47.54-.63.71-1a2.18,2.18,0,0,1,.44-.47A23,23,0,0,0,103,131.3c1.2-1.15,2.35-2.35,3.5-3.55l.28-.23.12-.12a3,3,0,0,1,.63-.49,41.61,41.61,0,0,0,3-2.94c2.13-2.13,4.23-4.29,6.37-6.43a1.48,1.48,0,0,0,.38-.51,3.9,3.9,0,0,1,.82-1c2.25-2.21,4.45-4.45,6.67-6.69,3.23-3.26,6.45-6.54,9.7-9.79a3.8,3.8,0,0,1,.47-.43.81.81,0,0,1,.48-.09c.66-.15,1,.34,1.22.76s-.06.85-.39,1.19q-5.56,5.61-11.12,11.23L97.22,140.45l-.33.3c-.2.6-.76.9-1.11,1.38a1.68,1.68,0,0,1-.61.31,1.17,1.17,0,0,1-1.24-.93A.79.79,0,0,1,94.08,140.67Z"/><path class="cls-14" d="M93.93,141.51a1.74,1.74,0,0,0,1.23.84.55.55,0,0,1,.3.32c.37,1,.67,1.94,1,2.93a.57.57,0,0,1-.07.49,4.23,4.23,0,0,1-4.11-1.29c-.66-.75-.65-.84,0-1.57Z"/><path class="cls-18" d="M95.74,142.05c.25-.55.78-.85,1.15-1.3a5.48,5.48,0,0,0,2,.43.67.67,0,0,1,.67.8A4.15,4.15,0,0,1,97,145.86c-.06-.06,0,0,0,0A8.73,8.73,0,0,1,95.74,142.05Z"/><path class="cls-19" d="M42.1,131.19c.34-.19.68,0,1,0q5.7,1,11.39,2l13.44,2.39L75.88,137c.59.1,1.19.21,1.78.33a.54.54,0,0,0,.59-.14c0,.16.09.31.13.46l-9.63-1.7-26-4.56C42.55,131.33,42.33,131.25,42.1,131.19Z"/><path class="cls-20" d="M105.51,81.59l-.35.09a.55.55,0,0,1-.39.21c-1.5.35-3,.63-4.53,1a.53.53,0,0,1-.44,0c-.23-.11-.54.13-.74-.16l5.83-1.2C105.12,81.42,105.35,81.31,105.51,81.59Z"/><path class="cls-21" d="M77,85.25l-.45-.13a12.44,12.44,0,0,0,2.89-1.87c.75-.5,1.46-1.06,2.18-1.59.17-.12.33-.3.57-.13l-.2.2a10.38,10.38,0,0,1-1.8,1.43c-.81.64-1.67,1.21-2.51,1.81C77.49,85.12,77.3,85.33,77,85.25Z"/><path class="cls-22" d="M116.55,85.39a.53.53,0,0,0-.12,0,.91.91,0,0,1-.62.13c-1.6,0-3.2,0-4.8,0-.25,0-.53,0-.72-.19l-.09-.23c1.79.13,3.58,0,5.36,0a2.23,2.23,0,0,1,1,.08.09.09,0,0,1,.06.08A.16.16,0,0,1,116.55,85.39Z"/><path class="cls-23" d="M126.54,91.06l-.23,0a2.23,2.23,0,0,1-1.2-.12c-1.2-.23-2.38-.52-3.58-.75a1.27,1.27,0,0,1-.65-.25c-.22-.19-.54-.28-.61-.62,1.09.71,2.37.69,3.56,1,.79.21,1.6.34,2.4.5A.39.39,0,0,1,126.54,91.06Z"/><path class="cls-24" d="M44.75,108.66c.41.56,0,1.15,0,1.71-.07,1.34-.26,2.67-.4,4l-.24.07C44.34,112.52,44.54,110.59,44.75,108.66Z"/><path class="cls-25" d="M59.16,93.41l.59-1.26a5.81,5.81,0,0,0,.45-.69,1.21,1.21,0,0,1,1.38-.74c-.25.18-.65.08-.83.41-.29.72-.8,1.32-1.13,2C59.54,93.32,59.41,93.5,59.16,93.41Z"/><path class="cls-26" d="M116.55,85.39l0-.14a19.09,19.09,0,0,1,2.37,2.63c-.66-.33-1-1-1.47-1.48A9.27,9.27,0,0,1,116.55,85.39Z"/><path class="cls-27" d="M106.77,82.53a2.14,2.14,0,0,1-.9-.67A1.28,1.28,0,0,1,106.77,82.53Z"/><path class="cls-28" d="M44.82,108.11l.25-.08c.13.2-.07.29-.12.43l-.17,0Z"/><path class="cls-15" d="M45,108.46l.12-.43L50,104.57a29.6,29.6,0,0,1,3,2.29q2.52,2,5.06,4.06c5.71,4.56,11.38,9.17,17.1,13.72,1.57,1.26,3.15,2.49,4.69,3.8.2.17.45.25.65.42a.19.19,0,0,1,0,.26,3,3,0,0,0-.81,1.62.16.16,0,0,1-.23.08c-.15-.5-.65-.62-1-.86-2.75-1.82-5.53-3.62-8.31-5.42s-5.39-3.46-8.07-5.2c-2.36-1.53-4.7-3.1-7.06-4.63S50,111.54,47.53,110c-.57-.37-1.13-.78-1.71-1.15C45.56,108.64,45.31,108.4,45,108.46Z"/><path class="cls-15" d="M51.81,98.9a5.23,5.23,0,0,1,1.91-1c1.28-.61,2.64-1.06,3.88-1.76,1.26,1.48,2.47,3,3.72,4.47Q70,111,78.73,121.35l3.2,3.82a3.16,3.16,0,0,0,.75.71.21.21,0,0,1-.07.34,2.68,2.68,0,0,0-1.19,1.38.27.27,0,0,1-.27.06c-2-2.1-4.16-4.09-6.23-6.14-2.69-2.66-5.4-5.29-8.11-7.93-3.82-3.72-7.63-7.46-11.46-11.18C54.16,101.25,52.93,100.13,51.81,98.9Z"/><path class="cls-15" d="M126.51,91.31a1.09,1.09,0,0,1,.44.53c.9,1.58,1.72,3.2,2.72,4.72l0,.13a1.42,1.42,0,0,1-.4.65C123.84,104.2,118.44,111.12,113,118c-2.11,2.65-4.2,5.33-6.32,8a2.21,2.21,0,0,1-.57.61.31.31,0,0,1-.28,0c-.46-.36-.7-.94-1.24-1.22a.15.15,0,0,1-.07-.16c2.22-3.3,4.33-6.66,6.5-10q2.61-4,5.2-8,5-7.71,10-15.4C126.25,91.58,126.31,91.39,126.51,91.31Z"/><path class="cls-29" d="M97.8,121.64l.27.29c-.58,3.23-1.17,6.45-1.77,9.68,0,.21.12.62-.38.57s-.57-.28-.54-.74c.28-3.28.52-6.57.78-9.86l.31-.19A1.65,1.65,0,0,1,97.8,121.64Z"/><path class="cls-29" d="M94,121.22l.37.16c.06,3.32.11,6.64.17,10,0,.26.17.6-.37.62s-.52-.25-.56-.6c-.36-3.19-.73-6.38-1.09-9.57,0-.11-.05-.21-.07-.32l.45-.19A1.29,1.29,0,0,1,94,121.22Z"/><path class="cls-29" d="M101.5,123.05l0,.14q-1.8,4.57-3.62,9.15c-.08.2,0,.64-.48.48s-.5-.39-.37-.84c.93-3.19,1.82-6.4,2.73-9.59l.26,0A2,2,0,0,1,101.5,123.05Z"/><path class="cls-30" d="M104.54,125.19l0,.15c-1.76,2.71-3.51,5.43-5.28,8.14-.11.16-.13.61-.52.34a.55.55,0,0,1-.24-.81q2.3-4.42,4.55-8.86l.31.06A2.19,2.19,0,0,1,104.54,125.19Z"/><path class="cls-29" d="M86.9,122.93l.23.07q2,4.53,3.89,9.05c.13.28.32.58-.14.8s-.54-.15-.69-.42l-4.64-8.38.06-.42A4.89,4.89,0,0,0,86.9,122.93Z"/><path class="cls-29" d="M88.84,122.32a3,3,0,0,1,1.79-.56c.71,3.25,1.41,6.49,2.11,9.74.06.28.17.57-.28.7s-.5-.17-.59-.45Z"/><path class="cls-31" d="M100.94,133.56l-.36.42a6.29,6.29,0,0,0-.47.43c-.1.07-.19.12-.27,0s0-.16.06-.23l.83-1.09a2,2,0,0,0,.61-.75v0a4.79,4.79,0,0,0,.88-1.12l3.58-4.51c.57.12.74.56.86,1.05a6,6,0,0,1-1.19,1.33c-.76.78-1.55,1.53-2.32,2.29S101.64,132.8,100.94,133.56Z"/><path class="cls-32" d="M99.9,134.16c0,.09-.06.32.17.17s.28-.32.51-.35l-.85.94C99.19,134.53,99.67,134.37,99.9,134.16Z"/><path class="cls-33" d="M106.66,127.76c-.32-.33-.48-.78-.86-1.05v-.15l.22-.07a2.48,2.48,0,0,1,.9,1.08A.25.25,0,0,1,106.66,127.76Z"/><path class="cls-32" d="M102.22,131.22a1.72,1.72,0,0,1-.88,1.12A4.79,4.79,0,0,1,102.22,131.22Z"/><path class="cls-32" d="M101.34,132.32a.83.83,0,0,1-.61.75A2.46,2.46,0,0,1,101.34,132.32Z"/><path class="cls-16" d="M78.34,134.43a3,3,0,0,1-.1,1.12c-.08.25-.21.28-.48.21q-7.26-2.12-14.53-4.19L55,129.23l-13.61-3.92a1.08,1.08,0,0,1-.57-.27c-.12-1-.28-2.06-.34-3.1a16.13,16.13,0,0,1-.21-2.86,33.31,33.31,0,0,1,3.48,1.34c2.53,1,5,2,7.56,3,2.78,1.1,5.54,2.23,8.32,3.33,3.06,1.21,6.12,2.39,9.18,3.6l8.26,3.31C77.55,133.82,78.14,133.83,78.34,134.43Z"/><path class="cls-16" d="M83.64,125.06a6.15,6.15,0,0,1-1,.88c-.29.07-.45-.12-.6-.3q-5.37-6.45-10.75-12.89-6.4-7.66-12.83-15.29a3.15,3.15,0,0,1-.9-1.32,30.56,30.56,0,0,1,1.56-2.73c.62-.49.72-1.3,1.22-1.86.12-.14.17-.35.37-.42q4.78,7,9.57,13.94c2.56,3.72,5.09,7.46,7.65,11.18,1.77,2.59,3.57,5.16,5.34,7.75C83.51,124.3,84,124.57,83.64,125.06Z"/><path class="cls-16" d="M94,121.22a2.55,2.55,0,0,1-1.1.06c-.34,0-.46-.2-.5-.58-.53-4.89-1.1-9.77-1.66-14.65L89.5,95.43c-.47-4-.93-8.06-1.41-12.08a.65.65,0,0,1,.21-.61c1.61-.78,3.23-1.54,4.9-2.16.41-.15.53,0,.54.42q.08,6.19.18,12.4c.06,3.79.16,7.58.22,11.36.06,3.36.09,6.72.14,10.08,0,1.89.06,3.78.1,5.68C94.39,120.83,94.4,121.14,94,121.22Z"/><path class="cls-16" d="M77,85.25l4.65-3.34a2.21,2.21,0,0,1,.34-.18c.46,1.72.8,3.47,1.16,5.21.3,1.47.65,2.94,1,4.41s.62,3,.93,4.47c.22,1,.46,2.05.68,3.08.33,1.58.66,3.15,1,4.72.22,1,.46,2.06.68,3.09.34,1.57.66,3.15,1,4.72s.63,2.85.94,4.28l1.17,5.34a.43.43,0,0,1-.35.58c-.46.13-.91.28-1.37.42Q84,106.92,79.1,91.8,78.05,88.52,77,85.25Z"/><path class="cls-16" d="M97.8,121.64a5,5,0,0,1-1.33-.25.74.74,0,0,1-.2-.58q.74-9.06,1.45-18.11c.35-4.34.68-8.68,1-13,.17-2.06.37-4.12.52-6.18a.61.61,0,0,1,.53-.67,49.16,49.16,0,0,1,5.36-1.15c.35.28.1.63,0,.9-.77,4.42-1.57,8.83-2.37,13.24q-1.25,6.87-2.48,13.74c-.54,3-1.09,6-1.63,9-.15.81-.29,1.62-.44,2.42C98.24,121.31,98.22,121.64,97.8,121.64Z"/><path class="cls-16" d="M101.5,123.05l-1.43-.69a1.08,1.08,0,0,1,0-.88l4-14.24q2.48-8.7,4.93-17.41c.42-1.49.82-3,1.23-4.48l5.69,0c.15,0,.3,0,.45,0a28.93,28.93,0,0,1-1.23,3.25c-1,2.76-2.12,5.5-3.21,8.24s-2.24,5.55-3.33,8.33c-1.16,3-2.28,5.9-3.44,8.84s-2.29,5.76-3.43,8.64A.56.56,0,0,1,101.5,123.05Z"/><path class="cls-16" d="M104.54,125.19a6.77,6.77,0,0,1-1.16-1c-.15-.32,0-.58.18-.85,5.18-10.38,10.55-20.66,15.84-31,.31-.61.58-1.25.86-1.88a.79.79,0,0,1,.62-.51c1.83.28,3.62.72,5.42,1.12l.21.21a25.65,25.65,0,0,1-1.91,3.13c-1.24,2-2.55,3.93-3.83,5.89l-4.45,6.87c-1.77,2.75-3.52,5.51-5.29,8.25s-3.53,5.39-5.28,8.1A5.46,5.46,0,0,1,104.54,125.19Z"/><path class="cls-16" d="M106.92,127.57c-.45-.22-.63-.69-.9-1.08,2.06-2.58,4.12-5.15,6.17-7.74,2.63-3.33,5.25-6.68,7.88-10q4.68-5.92,9.4-11.85a1.16,1.16,0,0,1,.24-.2l4.84,2.12a.75.75,0,0,1,.48.39l-6.45,6.56L117.9,116.53c-.16.17-.31.36-.47.54a24.62,24.62,0,0,1-2,2.08c-1.47,1.51-3,3-4.45,4.5a1,1,0,0,0-.48.37.71.71,0,0,1-.13.12c-.83.85-1.71,1.66-2.51,2.54a.55.55,0,0,1-.17.2,2.1,2.1,0,0,0-.76.69Z"/><path class="cls-34" d="M110.85,123.59l5.38-5.37c.39-.39.8-.77,1.2-1.15-.16.65-.76,1-1.17,1.4-2.74,2.81-5.53,5.57-8.29,8.36a.79.79,0,0,1-.44.25c0-.14,0-.21.14-.28l0-.15c.92-.86,1.79-1.77,2.7-2.65h0C110.5,123.8,110.69,123.72,110.85,123.59Z"/><path class="cls-35" d="M95.27,141.58a.51.51,0,0,1-.63-.31.43.43,0,0,1,.3-.6.41.41,0,0,1,.6.28A.49.49,0,0,1,95.27,141.58Z"/><path class="cls-32" d="M100.94,133.56a9.34,9.34,0,0,1,2.21-2.18A15.18,15.18,0,0,1,100.94,133.56Z"/><path class="cls-33" d="M107.67,126.8l-.14.28-.61.49A1.22,1.22,0,0,1,107.67,126.8Z"/><path class="cls-16" d="M81.19,127.62a6.51,6.51,0,0,1-.84,1.25.7.7,0,0,1-.59-.2l-11.87-9.56-13.64-11L50.38,105a1.26,1.26,0,0,1-.43-.46c.57-1.91,1.16-3.81,1.86-5.67.46.07.66.47.94.74,2,2,4.08,4,6.11,6l10.88,10.63,7,6.82,4.1,4A1.29,1.29,0,0,1,81.19,127.62Z"/><path class="cls-36" d="M110.42,124a15.05,15.05,0,0,1-2.7,2.65A17.81,17.81,0,0,1,110.42,124Z"/><path class="cls-36" d="M110.85,123.59a.92.92,0,0,1-.43.42C110.42,123.72,110.62,123.64,110.85,123.59Z"/><path class="cls-4" d="M84,148.45c-3.59-.26-4.58-2.8-5-5.77-.63-4.26.85-8.1,2.44-11.91,1.78-2,2.2-4.88,4.32-6.65,3.47.78,5.26-2.13,8.5-3.2-3.38-1-4.83,2.24-7.42,1.68l2.27-3.12c1-.8,2-1.63,3.07-2.38s2.39-2,3.79-1.11.19,2.36.12,3.76c3-.06,6.09-.11,9,.87,3.56,1.19,3.76,1.79,1.39,4.7,1.07.92,3.17,1.08,2.88,3.05-.36,2.43-2.77,2.18-4.42,2.89a7.79,7.79,0,0,1,1.06,2.12c.08.44-.51,1.44-.78,1.43-3.62-.1-1.81,6.79-6.72,5.09-3.24-1.12-5.51-.07-7.22,3.25C89.85,145.88,87,147.46,84,148.45Zm15.4-13.33.32.1-.33-.09c-1.26-2.71-3.41-1.83-5.48-1.3C95.62,134.69,97.33,135.6,99.39,135.12Zm2.11-5c-1.87-2-4-2.23-6.81-1Z"/><path class="cls-1" d="M86.8,122.6c2.59.56,4-2.72,7.42-1.68-3.24,1.07-5,4-8.5,3.2A1.83,1.83,0,0,1,86.8,122.6Z"/><path class="cls-1" d="M99.39,135.12c-2.06.48-3.77-.43-5.49-1.29,2.07-.53,4.22-1.41,5.48,1.3Z"/><path class="cls-1" d="M101.5,130.17l-6.81-1C97.53,127.94,99.63,128.19,101.5,130.17Z"/><path class="cls-4" d="M4.08,138.22s.84,42.36,6.72,44.56S35.26,195.34,84,148.45l-5-10.69S28.56,164,26.88,160.85s-4.11-9.31-.08-23.73"/></g></g></svg>