<?xml version="1.0" encoding="UTF-8" standalone="no"?>
<!DOCTYPE svg PUBLIC "-//W3C//DTD SVG 1.1//EN"
 "http://www.w3.org/Graphics/SVG/1.1/DTD/svg11.dtd">
<!-- Generated by graphviz version 2.47.0 (20210316.0004)
 -->
<!-- Title: dependencies Pages: 1 -->
<svg width="504pt" height="211pt"
 viewBox="0.00 0.00 504.00 211.00" xmlns="http://www.w3.org/2000/svg" xmlns:xlink="http://www.w3.org/1999/xlink">
<g id="graph0" class="graph" transform="scale(1 1) rotate(0) translate(4 207)">
<title>dependencies</title>
<polygon fill="white" stroke="transparent" points="-4,4 -4,-207 500,-207 500,4 -4,4"/>
<text text-anchor="start" x="227.01" y="-42.4" font-family="sans-serif" font-weight="bold" font-size="14.00">Legend</text>
<polygon fill="#ffffb3" stroke="transparent" points="14,-10 14,-30 34,-30 34,-10 14,-10"/>
<text text-anchor="start" x="37.63" y="-15.4" font-family="sans-serif" font-size="14.00"> &#160;Declarations</text>
<polygon fill="#8dd3c7" stroke="transparent" points="127,-10 127,-30 147,-30 147,-10 127,-10"/>
<text text-anchor="start" x="150.73" y="-15.4" font-family="sans-serif" font-size="14.00"> &#160;Module</text>
<polygon fill="#80b1d3" stroke="transparent" points="213,-10 213,-30 233,-30 233,-10 213,-10"/>
<text text-anchor="start" x="236.78" y="-15.4" font-family="sans-serif" font-size="14.00"> &#160;Bootstrap</text>
<polygon fill="#fdb462" stroke="transparent" points="310,-10 310,-30 330,-30 330,-10 310,-10"/>
<text text-anchor="start" x="333.67" y="-15.4" font-family="sans-serif" font-size="14.00"> &#160;Providers</text>
<polygon fill="#fb8072" stroke="transparent" points="406,-10 406,-30 426,-30 426,-10 406,-10"/>
<text text-anchor="start" x="429.73" y="-15.4" font-family="sans-serif" font-size="14.00"> &#160;Exports</text>
<g id="clust1" class="cluster">
<title>cluster_SliderAirqialityPageModule</title>
<polygon fill="none" stroke="black" stroke-dasharray="1,5" points="44,-70 44,-195 452,-195 452,-70 44,-70"/>
</g>
<g id="clust2" class="cluster">
<title>cluster_SliderAirqialityPageModule_declarations</title>
<polygon fill="none" stroke="black" points="296,-78 296,-130 444,-130 444,-78 296,-78"/>
</g>
<g id="clust4" class="cluster">
<title>cluster_SliderAirqialityPageModule_imports</title>
<polygon fill="none" stroke="black" points="52,-78 52,-130 288,-130 288,-78 52,-78"/>
</g>
<!-- SliderAirqialityPage -->
<g id="node1" class="node">
<title>SliderAirqialityPage</title>
<polygon fill="#ffffb3" stroke="black" points="435.59,-122 304.41,-122 304.41,-86 435.59,-86 435.59,-122"/>
<text text-anchor="middle" x="370" y="-99.8" font-family="Times,serif" font-size="14.00">SliderAirqialityPage</text>
</g>
<!-- SliderAirqialityPageModule -->
<g id="node2" class="node">
<title>SliderAirqialityPageModule</title>
<polygon fill="#8dd3c7" stroke="black" points="350.14,-187 347.14,-191 326.14,-191 323.14,-187 175.86,-187 175.86,-151 350.14,-151 350.14,-187"/>
<text text-anchor="middle" x="263" y="-164.8" font-family="Times,serif" font-size="14.00">SliderAirqialityPageModule</text>
</g>
<!-- SliderAirqialityPage&#45;&gt;SliderAirqialityPageModule -->
<g id="edge1" class="edge">
<title>SliderAirqialityPage&#45;&gt;SliderAirqialityPageModule</title>
<path fill="none" stroke="black" d="M327.39,-122.11C327.39,-122.11 327.39,-140.99 327.39,-140.99"/>
<polygon fill="black" stroke="black" points="323.89,-140.99 327.39,-150.99 330.89,-140.99 323.89,-140.99"/>
</g>
<!-- SliderAirqialityPageRoutingModule -->
<g id="node3" class="node">
<title>SliderAirqialityPageRoutingModule</title>
<polygon fill="#8dd3c7" stroke="black" points="279.75,-122 276.75,-126 255.75,-126 252.75,-122 60.25,-122 60.25,-86 279.75,-86 279.75,-122"/>
<text text-anchor="middle" x="170" y="-99.8" font-family="Times,serif" font-size="14.00">SliderAirqialityPageRoutingModule</text>
</g>
<!-- SliderAirqialityPageRoutingModule&#45;&gt;SliderAirqialityPageModule -->
<g id="edge2" class="edge">
<title>SliderAirqialityPageRoutingModule&#45;&gt;SliderAirqialityPageModule</title>
<path fill="none" stroke="black" d="M227.78,-122.11C227.78,-122.11 227.78,-140.99 227.78,-140.99"/>
<polygon fill="black" stroke="black" points="224.28,-140.99 227.78,-150.99 231.28,-140.99 224.28,-140.99"/>
</g>
</g>
</svg>
